<svg width="1920" height="1460" viewBox="0 0 1920 1460" fill="none" xmlns="http://www.w3.org/2000/svg">
<g opacity="0.1" clip-path="url(#clip0_970_1679)">
<g clip-path="url(#clip1_970_1679)">
<path d="M1710.5 562C1708.07 561.23 1705.7 560.525 1703.27 559.755C1685.4 553.855 1673.24 536.988 1673.17 518.197C1673.17 499.342 1685.27 482.475 1703.14 476.51C1721.07 470.482 1740.98 476.51 1751.99 491.838C1754.49 495.301 1756.92 496.327 1760.96 496.263C1780.87 496.071 1800.78 496.263 1820.7 496.199C1835.17 496.199 1844.33 487.092 1844.33 472.598C1844.33 397.947 1844.33 323.36 1844.33 248.709C1844.33 231.136 1852.59 222.735 1870.13 222.863C1887.48 222.991 1904.96 222.158 1922.12 224.017C1960.35 228.186 1991.28 259.291 1996.91 297.194C1997.1 298.412 1997.62 299.566 1997.94 300.785V395.189C1997.62 396.215 1997.1 397.177 1996.98 398.203C1994.93 411.992 1990 424.691 1981.74 435.914C1964.06 460.092 1940.12 472.47 1910.15 473.047C1902.91 473.175 1895.68 473.047 1888.44 473.047C1887.42 513.515 1855.53 542.183 1815.96 540.195C1797.2 539.233 1778.31 540.002 1759.48 540.066C1757.69 540.066 1755 540.387 1754.23 541.605C1746.87 552.829 1736.18 558.729 1723.56 562H1710.37H1710.5ZM1888.38 429.116C1896.32 429.116 1903.75 429.244 1911.17 429.116C1934.61 428.603 1953.69 409.747 1954.01 386.339C1954.33 360.75 1954.46 335.16 1954.01 309.507C1953.69 292.384 1945.24 279.621 1930.19 271.54C1916.94 264.357 1902.59 267.115 1888.44 266.859V429.18L1888.38 429.116Z" fill="#F95C04"/>
<path d="M1524.11 222.735C1534.74 222.735 1544.4 222.735 1554.07 222.735C1558.81 222.735 1563.61 222.607 1568.35 222.735C1580.26 223.12 1589.42 232.162 1589.8 244.091C1589.99 250.505 1589.8 256.918 1589.8 263.331C1589.8 324.835 1589.8 386.275 1589.8 447.779C1589.8 464.517 1581.29 473.175 1564.51 473.047C1546.97 472.919 1529.29 473.817 1511.94 471.893C1469.81 467.211 1436.83 429.949 1436.32 387.621C1436 361.647 1435.87 335.674 1436.32 309.7C1436.9 278.787 1450.54 254.609 1476.02 237.293C1479.16 235.113 1480.18 232.996 1480.31 229.405C1483.45 116.722 1567.46 20.9073 1678.68 3.07828C1790.48 -14.879 1898.18 47.0737 1938.58 152.381C1943.64 165.592 1938.71 178.29 1926.67 182.844C1915.21 187.205 1902.91 181.754 1898.18 169.504C1890.36 149.43 1880.31 130.511 1866.1 114.35C1813.85 54.898 1748.47 31.0404 1671.51 49.8314C1595.57 68.366 1548.44 118.839 1528.78 194.516C1526.48 203.431 1525.71 212.794 1524.11 222.735ZM1545.81 266.666C1538.07 266.666 1530.83 266.538 1523.53 266.666C1499.52 267.115 1480.37 286.034 1480.12 310.02C1479.86 335.225 1479.8 360.493 1480.12 385.762C1480.37 402.629 1488.38 415.391 1503.04 423.793C1516.55 431.489 1531.28 428.795 1545.75 429.052V266.73L1545.81 266.666Z" fill="#F95C04"/>
</g>
<path d="M-58 1460C-53.5845 1443.76 -49.3267 1428.3 -45.2267 1413.01C-36.8688 1382.1 -28.3532 1351.19 -20.1531 1320.12C-19.5223 1317.44 -19.8377 1313.97 -21.257 1311.45C-47.7498 1262.72 -59.7347 1210.37 -54.6884 1155.02C-46.0151 1059.93 -0.283452 986.756 81.0874 936.924C130.288 906.804 184.378 894.346 241.621 898.919C332.296 906.173 403.417 948.594 454.195 1024.29C489.519 1077.12 503.396 1136.09 498.665 1199.17C489.834 1319.18 400.263 1422.47 282.78 1448.33C216.548 1463 153.312 1454.32 92.9146 1423.41C90.7068 1422.31 87.7106 1422 85.3452 1422.63C39.7712 1434.45 -5.80279 1446.44 -51.2191 1458.42C-53.1114 1458.9 -55.0038 1459.21 -58 1460ZM9.02058 1393.45C11.7014 1392.82 13.7515 1392.35 15.6438 1391.88C40.2443 1385.41 64.8448 1379.1 89.2876 1372.48C94.1762 1371.06 97.9608 1371.85 102.376 1374.53C155.835 1406.38 213.079 1415.69 273.791 1401.97C403.575 1372.64 482.107 1235.44 442.052 1108.34C405.625 992.433 290.349 925.255 171.762 951.117C73.9911 972.406 -3.43736 1058.35 -8.32592 1166.69C-10.376 1211.47 -0.441143 1253.89 22.8978 1292.37C30.3095 1304.51 31.571 1314.6 27.3133 1327.85C20.3747 1349.14 15.1707 1371.06 9.17828 1393.45H9.02058Z" fill="#F95C04"/>
<path d="M80.299 1114.17C80.6143 1090.68 89.7607 1071.44 106.476 1055.35C111.68 1050.31 117.673 1047.78 124.927 1047.94C128.869 1047.94 132.654 1048.57 136.596 1048.1C144.166 1047.47 148.739 1050.94 151.577 1057.56C159.462 1076.33 167.505 1095.09 174.916 1114.17C176.178 1117.33 175.389 1122.53 173.497 1125.69C168.451 1133.73 162.616 1141.3 156.624 1148.71C152.681 1153.6 152.05 1157.86 155.362 1163.53C177.912 1201.38 209.294 1229.13 250.452 1245.38C256.76 1247.9 260.387 1247.11 264.803 1241.59C271.741 1233.23 278.522 1224.72 285.303 1216.05C290.034 1210.05 292.872 1208.48 299.811 1211.63C319.523 1220.62 339.077 1230.24 358.474 1239.86C360.682 1240.96 362.574 1244.75 362.732 1247.27C363.52 1268.24 357.055 1285.59 338.289 1297.57C315.423 1312.24 291.611 1313.19 266.222 1306.09C200.621 1287.64 152.05 1246.32 113.1 1192.08C100.326 1174.26 88.6568 1155.96 83.6105 1134.2C82.0336 1127.58 81.5605 1120.8 80.4566 1114.02L80.299 1114.17Z" fill="#F95C04"/>
</g>
<defs>
<clipPath id="clip0_970_1679">
<rect width="1920" height="1460" fill="white"/>
</clipPath>
<clipPath id="clip1_970_1679">
<rect width="562" height="562" fill="white" transform="translate(1436)"/>
</clipPath>
</defs>
</svg>
