<svg width="250" height="auto" viewBox="0 0 362 163" fill="none" xmlns="http://www.w3.org/2000/svg">
  <g clip-path="url(#clip0_901_209)">
    <path fill-rule="evenodd" clip-rule="evenodd"
      d="M330.421 103.277H335.451L334.37 108.446H329.385L326.771 122.423C326.675 123.018 326.573 123.511 326.573 123.727C326.573 125.733 327.908 125.79 328.944 125.79C329.787 125.79 330.619 125.733 331.462 125.625L330.279 131.605C328.842 131.769 327.365 131.877 325.883 131.877C322.629 131.877 319.127 130.732 319.223 126.164C319.223 125.455 319.37 124.475 319.568 123.5L322.431 108.434H317.842L318.928 103.265H323.421L325.006 94.7292H332.011L330.432 103.265L330.421 103.277ZM265.129 114.318C265.129 111.433 264.489 108.338 260.393 108.338C256.296 108.338 254.468 111.166 253.433 114.318H265.129ZM281.266 120.082C281.266 123.455 282.947 126.34 286.251 126.34C291.485 126.34 293.952 119.272 293.952 114.431C293.952 110.843 292.323 108.338 288.916 108.338C283.637 108.338 281.266 115.14 281.266 120.082ZM347.492 126.34C352.72 126.34 354.989 119.272 354.989 114.539C354.989 110.787 353.507 108.338 349.863 108.338C344.731 108.338 342.456 115.298 342.456 120.025C342.456 123.341 344.182 126.334 347.486 126.334L347.492 126.34ZM350.112 102.523C357.117 102.523 362 106.332 362 114.431C362 124.327 356.427 132.161 347.147 132.161C340.04 132.161 335.451 128.08 335.451 120.031C335.451 110.515 341.03 102.523 350.112 102.523ZM316.603 98.9348H309.547L310.826 92.5753H317.882L316.597 98.9348H316.603ZM308.76 103.282H315.816L310.384 131.395H303.328L308.755 103.282H308.76ZM291.734 127.915C290.054 130.851 287.094 132.161 283.988 132.161C277.866 132.161 274.267 127.808 274.267 121.068C274.267 111.818 278.754 102.523 288.181 102.523C291.146 102.523 294.252 103.94 295.339 107.04L298.253 92.5753H305.258L297.806 131.401H291.05L291.74 127.921L291.734 127.915ZM252.697 119.215C252.652 119.923 252.652 120.417 252.652 120.847C252.652 124.106 254.48 126.34 258.276 126.34C261.089 126.34 262.469 124.271 263.505 122.48H270.51C268.286 128.788 264.636 132.161 257.286 132.161C250.474 132.161 245.935 127.864 245.935 119.872C245.935 110.894 251.317 102.523 260.002 102.523C267.109 102.523 271.896 106.655 271.896 114.811C271.896 116.336 271.749 117.86 271.5 119.215H252.697ZM264.789 99.802H259.855L264.195 92.0822H271.698L264.789 99.802ZM230.986 103.282H237.646L236.61 108.338C238.285 104.586 241.743 102.517 245.494 102.517C246.235 102.517 246.926 102.574 247.667 102.681L246.235 110.18C245.245 109.965 244.261 109.693 243.276 109.693C237.895 109.693 235.971 114.153 235.032 118.937L232.661 131.39H225.656L230.986 103.277V103.282ZM217.117 106.059C217.117 101.27 214.503 98.8271 210.803 98.8271C202.858 98.8271 199.254 107.692 199.254 115.14C199.254 120.462 201.625 125.144 207.249 125.144C211.544 125.144 214.848 121.493 215.539 117.424H223.285C220.128 128.244 214.797 132.325 207.147 132.325C197.273 132.325 191.502 126.073 191.502 115.145C191.502 102.585 198.858 91.6515 210.752 91.6515C218.894 91.6515 225.062 96.5996 224.864 106.059H217.112H217.117ZM174.748 113.609C174.714 114.108 174.714 114.454 174.714 114.766C174.714 117.072 176.009 118.654 178.697 118.654C180.689 118.654 181.673 117.191 182.403 115.922H187.371C185.798 120.388 183.212 122.78 177.995 122.78C173.169 122.78 169.955 119.742 169.955 114.068C169.955 107.715 173.763 101.78 179.919 101.78C184.955 101.78 188.345 104.711 188.345 110.486C188.345 111.563 188.243 112.646 188.067 113.609H174.742H174.748ZM183.563 110.14C183.563 108.1 183.105 105.901 180.202 105.901C177.299 105.901 176.009 107.902 175.274 110.14H183.563ZM160.969 119.77C159.781 121.851 157.688 122.774 155.481 122.774C151.141 122.774 148.589 119.697 148.589 114.913C148.589 108.361 151.769 101.774 158.451 101.774C160.551 101.774 162.752 102.772 163.521 104.971L165.587 94.7235H170.555L165.275 122.236H160.483L160.975 119.77H160.969ZM153.557 114.221C153.557 116.608 154.745 118.654 157.088 118.654C160.794 118.654 162.542 113.643 162.542 110.214C162.542 107.675 161.388 105.901 158.978 105.901C155.232 105.901 153.557 110.719 153.557 114.221ZM156.431 46.2055H164.427L174.001 73.8256L179.133 46.2055H186.24L178.788 85.0313H171.041L161.371 57.7852L156.239 85.0313H148.985L156.437 46.2055H156.431ZM203.509 71.5471C201.732 72.692 199.61 72.7431 197.59 72.9074C194.925 73.2305 192.407 73.939 192.407 77.4758C192.407 79.5956 194.235 80.6272 196.261 80.6272C200.601 80.6272 202.032 77.3115 202.819 74.2621L203.509 71.5471ZM188.707 65.4597C189.595 58.3917 195.021 56.1585 200.799 56.1585C205.342 56.1585 211.504 57.2468 211.408 63.5609C211.408 64.7569 211.159 66.548 210.865 68.288L208.59 79.6013C208.341 80.5762 208.245 82.322 208.245 83.4102C208.245 83.8977 208.341 84.5495 208.494 85.0426H201.483V82.2653C199.559 84.6572 196.549 85.7964 193.692 85.7964C188.113 85.7964 185.402 82.322 185.402 78.4054C185.402 73.0208 189.103 69.6483 195.174 68.8321C201.783 67.9593 204.895 68.339 204.895 64.7512C204.895 61.9739 202.23 61.3221 200.454 61.3221C197.936 61.3221 195.712 62.6314 195.27 65.454H188.707V65.4597ZM233.414 66.6556C233.414 63.3342 231.784 61.9739 228.728 61.9739C223.398 61.9739 221.571 69.0419 221.571 73.8823C221.571 77.2548 222.855 79.9697 226.408 79.9697C229.521 79.9697 231.297 77.5212 232.084 74.7495H239.089C236.967 81.7665 232.525 85.7851 225.911 85.7851C218.804 85.7851 214.56 81.9252 214.56 73.7123C214.56 64.1447 219.788 56.1472 228.966 56.1472C235.185 56.1472 240.266 59.1966 240.419 66.6443H233.408L233.414 66.6556ZM254.191 52.5707H247.135L248.414 46.2112H255.476L254.191 52.5707ZM246.349 56.918H253.399L247.972 85.0369H240.917L246.349 56.918ZM266.826 79.9754C272.055 79.9754 274.324 72.9074 274.324 68.1747C274.324 64.4225 272.841 61.9739 269.191 61.9739C264.059 61.9739 261.79 68.9342 261.79 73.6669C261.79 76.9827 263.522 79.9697 266.826 79.9697V79.9754ZM269.44 56.1585C276.445 56.1585 281.334 59.9674 281.334 68.067C281.334 77.9689 275.761 85.7964 266.481 85.7964C259.374 85.7964 254.785 81.7211 254.785 73.6726C254.785 64.1504 260.359 56.1585 269.44 56.1585ZM288.294 56.918H295.005L294.213 60.8346C296.584 57.7399 299.594 56.1529 303.243 56.1529C308.081 56.1529 310.696 58.8225 310.696 63.714C310.696 64.8589 310.152 67.5739 309.96 68.5544L306.803 85.0369H299.798L302.904 68.5544C303.096 67.7382 303.351 65.8905 303.351 65.131C303.351 63.4476 301.625 62.2459 299.996 62.2459C295.752 62.2459 293.579 66.1625 292.843 70.0791L289.98 85.0369H282.975L288.305 56.918H288.294ZM331.473 71.5471C329.696 72.692 327.574 72.7431 325.554 72.9074C322.889 73.2305 320.371 73.939 320.371 77.4758C320.371 79.5956 322.199 80.6272 324.219 80.6272C328.559 80.6272 329.991 77.3115 330.783 74.2621L331.473 71.5471ZM316.671 65.4597C317.559 58.3917 322.986 56.1585 328.757 56.1585C333.295 56.1585 339.468 57.2468 339.367 63.5609C339.367 64.7569 339.118 66.548 338.823 68.288L336.554 79.6013C336.305 80.5762 336.215 82.322 336.215 83.4102C336.215 83.8977 336.311 84.5495 336.458 85.0426H329.447V82.2653C327.524 84.6572 324.513 85.7964 321.65 85.7964C316.077 85.7964 313.361 82.322 313.361 78.4054C313.361 73.0208 317.061 69.6483 323.133 68.8321C329.747 67.9593 332.854 68.339 332.854 64.7512C332.854 61.9739 330.189 61.3221 328.412 61.3221C325.894 61.3221 323.676 62.6314 323.229 65.454H316.671V65.4597ZM348.94 46.2112H355.946L348.448 85.0369H341.437L348.94 46.2112ZM160.392 33.1862H170.113C173.616 33.1862 176.185 31.0663 176.185 26.9344C176.185 22.8024 172.875 22.5303 170.062 22.5303H162.463L160.392 33.1862ZM159.057 0.997664H173.859C180.915 0.997664 185.306 2.68106 185.306 10.0778C185.306 14.4818 182.839 18.5628 178.697 19.1069C182.052 20.1951 183.925 23.3465 183.925 27.1044C183.925 35.527 177.509 39.829 170.453 39.829H151.65L159.057 0.986328V0.997664ZM163.544 16.7093H172.331C175.144 16.7093 177.565 14.9693 177.565 11.5968C177.565 8.66078 175.987 7.62921 173.469 7.62921H165.275L163.55 16.7093H163.544ZM190.444 20.2405C191.332 13.1782 196.759 10.945 202.536 10.945C207.074 10.945 213.241 12.0332 213.145 18.3417C213.145 19.5377 212.896 21.3287 212.602 23.0745L210.333 34.3878C210.084 35.3627 209.988 37.1027 209.988 38.191C209.988 38.6841 210.084 39.3359 210.237 39.8234H203.232V37.0517C201.308 39.4436 198.298 40.5886 195.435 40.5886C189.861 40.5886 187.145 37.1084 187.145 33.1918C187.145 27.8072 190.846 24.4348 196.917 23.6186C203.532 22.7514 206.638 23.1312 206.638 19.5433C206.638 16.7717 203.973 16.1199 202.196 16.1199C199.678 16.1199 197.46 17.4235 197.013 20.2518H190.449L190.444 20.2405ZM205.246 26.3336C203.469 27.4785 201.348 27.5295 199.327 27.6939C196.662 28.0226 194.144 28.7255 194.144 32.2623C194.144 34.3821 195.972 35.4137 197.992 35.4137C202.332 35.4137 203.764 32.0979 204.556 29.0485L205.246 26.3279V26.3336ZM220.546 11.7045H227.257L226.471 15.6211C228.842 12.5207 231.852 10.945 235.501 10.945C240.339 10.945 242.954 13.6089 242.954 18.5004C242.954 19.6453 242.41 22.366 242.212 23.3409L239.055 39.8234H232.05L235.162 23.3409C235.36 22.5303 235.609 20.6769 235.609 19.9174C235.609 18.2283 233.877 17.0324 232.254 17.0324C228.01 17.0324 225.837 20.949 225.101 24.8599L222.238 39.8177H215.228L220.558 11.7045H220.546ZM265.304 21.4364C265.304 18.1207 263.674 16.7603 260.619 16.7603C255.289 16.7603 253.461 23.834 253.461 28.6688C253.461 32.0412 254.746 34.7562 258.299 34.7562C261.411 34.7562 263.188 32.3076 263.974 29.536H270.979C268.858 36.553 264.416 40.5772 257.807 40.5772C250.7 40.5772 246.456 36.7117 246.456 28.5044C246.456 18.9368 251.684 10.9393 260.868 10.9393C267.086 10.9393 272.168 13.983 272.315 21.4364H265.31H265.304ZM285.935 34.7562C291.169 34.7562 293.432 27.6882 293.432 22.9554C293.432 19.2032 291.955 16.7547 288.294 16.7547C283.162 16.7547 280.893 23.715 280.893 28.4477C280.893 31.7635 282.624 34.7562 285.929 34.7562H285.935ZM288.549 10.9393C295.554 10.9393 300.443 14.7482 300.443 22.8478C300.443 32.7441 294.863 40.5772 285.589 40.5772C278.482 40.5772 273.893 36.4963 273.893 28.4477C273.893 18.9312 279.473 10.9393 288.549 10.9393Z"
      fill="#003E7E" />
    <path d="M138.992 0V132.676" stroke="#003E7E" stroke-width="5.43" />
    <path fill-rule="evenodd" clip-rule="evenodd"
      d="M21.168 109.273H22.7693C22.7693 109.273 25.1968 108.984 26.6057 107.437C27.5167 106.428 27.9524 104.455 27.528 103.152C27.3017 102.455 26.5491 101.916 26.1247 101.893L21.6207 101.882L19.827 109.228L21.168 109.273ZM15.934 124.435L18.7066 124.452C21.847 124.452 22.5826 124.061 23.918 123.103C25.259 122.145 25.9493 118.841 23.8444 117.344C23.7312 117.265 23.2899 117.129 23.0126 117.084C23.0013 117.072 18.0898 117.084 18.0898 117.084L15.8887 124.435H15.9397H15.934ZM0.0283203 133.351L10.6604 92.4958H36.6946C37.4924 92.4958 38.641 92.5809 40.1688 93.5331C41.6966 94.4853 44.7408 97.2343 43.5808 102.551C42.0813 109.449 36.9322 111.427 36.9322 111.427C36.9322 111.427 42.8622 114.913 41.3627 122.763C39.8633 130.613 30.8042 132.773 28.3824 133.073C24.5008 133.555 0.0283203 133.356 0.0283203 133.356V133.351Z"
      fill="#F78E1E" />
    <path fill-rule="evenodd" clip-rule="evenodd" d="M76.5577 92.4958L71.8726 114.845L68.223 92.4958H48.8261L40.3555 133.311H53.3527L58.3661 109.488L62.2421 133.311H81.0901L89.5607 92.4958H76.5577Z" fill="#003E7E" />
    <path fill-rule="evenodd" clip-rule="evenodd"
      d="M112.341 107.788L129.775 107.782C129.594 105.317 128.994 102.914 127.879 100.686C122.922 90.7841 110.027 88.2052 99.0781 94.9218C88.1291 101.644 83.2686 115.128 88.2253 125.03C93.1821 134.938 106.077 137.517 117.026 130.789C121.966 127.762 125.672 123.335 127.794 118.506H110.101C108.499 122.151 106.349 124.486 104.538 124.191C102.02 123.789 101.138 118.45 102.564 112.271C103.99 106.099 107.181 101.417 109.699 101.831C111.34 102.097 112.262 104.45 112.341 107.788Z"
      fill="#00B259" />
    <path fill-rule="evenodd" clip-rule="evenodd"
      d="M7.68407 25.0525C13.2519 18.523 21.5584 13.0477 31.6473 9.22184L18.616 66.7009L7.68407 25.0525ZM33.854 8.41699C43.2979 5.14089 54.1676 3.27612 65.7333 3.27612C67.9118 3.27612 70.062 3.34414 72.1839 3.4745L25.242 67.4321L33.854 8.41699ZM72.993 3.52551C105.879 5.78137 131.467 23.1934 131.467 44.3294C131.467 67.007 102.037 85.3883 65.7333 85.3883C57.4495 85.3883 49.5164 84.4304 42.2115 82.6846L119.443 64.7341L36.0269 77.0223L103.99 28.1076L31.6133 71.8588L72.993 3.52551ZM0 44.3294C0 38.5367 1.92385 33.0274 5.38677 28.0282L11.345 67.3981C4.1872 60.8232 0 52.8824 0 44.3294Z"
      fill="#003E7E" />
    <path fill-rule="evenodd" clip-rule="evenodd"
      d="M356.574 145.786H359.737V162.479H356.574V145.786ZM350.796 156.924C350.48 156.799 350.168 156.697 349.846 156.612C349.535 156.522 349.172 156.476 348.759 156.476C348.414 156.476 348.086 156.522 347.764 156.612C347.452 156.709 347.169 156.85 346.92 157.037C346.683 157.224 346.496 157.462 346.349 157.746C346.207 158.035 346.14 158.364 346.14 158.738C346.14 158.993 346.179 159.248 346.258 159.52C346.338 159.775 346.462 160.002 346.637 160.206C346.807 160.415 347.028 160.58 347.3 160.705C347.582 160.829 347.922 160.892 348.312 160.892C348.867 160.892 349.337 160.801 349.733 160.608C350.129 160.415 350.48 160.217 350.796 160.013V156.918V156.924ZM353.841 162.479H350.796V161.107L350.276 161.628C350.055 161.815 349.784 162.002 349.472 162.19C349.161 162.365 348.788 162.518 348.346 162.643C347.922 162.768 347.424 162.83 346.858 162.83C346.241 162.83 345.687 162.728 345.183 162.524C344.697 162.337 344.278 162.065 343.933 161.719C343.582 161.356 343.322 160.937 343.129 160.466C342.943 159.996 342.846 159.492 342.846 158.953C342.846 158.256 342.977 157.644 343.254 157.111C343.52 156.556 343.882 156.096 344.335 155.734C344.804 155.354 345.347 155.071 345.964 154.878C346.581 154.691 347.237 154.6 347.945 154.6C348.533 154.6 349.031 154.657 349.461 154.764L350.808 155.122L350.712 154.198C350.683 153.88 350.598 153.574 350.474 153.274C350.332 152.956 350.14 152.701 349.908 152.497C349.687 152.288 349.444 152.135 349.178 152.027C348.923 151.902 348.669 151.811 348.397 151.766C348.126 151.721 347.882 151.692 347.667 151.692C347.164 151.692 346.734 151.755 346.366 151.879C346.009 152.004 345.693 152.163 345.421 152.35C345.172 152.543 344.957 152.741 344.787 152.945L344.335 153.489L343.531 153.087L344.023 152.095C344.233 151.721 344.521 151.364 344.895 151.029C345.274 150.701 345.755 150.423 346.338 150.202C346.937 149.969 347.684 149.845 348.584 149.845C349.619 149.845 350.468 149.986 351.13 150.27C351.792 150.553 352.296 150.876 352.641 151.239C352.941 151.539 353.173 151.862 353.326 152.208C353.484 152.554 353.597 152.9 353.682 153.245C353.756 153.58 353.807 153.909 353.818 154.237L353.846 155.161V162.467L353.841 162.479ZM331.841 159.118L332.079 159.594C332.152 159.752 332.282 159.917 332.452 160.092C332.786 160.421 333.216 160.688 333.753 160.897C334.302 161.101 334.908 161.203 335.57 161.203L336.136 161.181C336.345 161.164 336.549 161.118 336.752 161.033C337.081 160.926 337.335 160.778 337.505 160.614C337.692 160.438 337.827 160.274 337.907 160.115C337.986 159.945 338.031 159.792 338.048 159.667L338.071 159.429C338.071 159.271 338.031 159.078 337.952 158.84C337.777 158.443 337.482 158.154 337.058 157.961C336.645 157.774 336.056 157.593 335.287 157.423L334.461 157.23C334.195 157.168 333.923 157.083 333.657 156.969L333.091 156.737C332.837 156.629 332.588 156.454 332.333 156.215C332.079 155.977 331.858 155.683 331.648 155.314C331.462 154.94 331.366 154.47 331.366 153.92C331.366 153.433 331.462 152.951 331.648 152.48C331.858 151.993 332.163 151.556 332.565 151.177C332.99 150.78 333.521 150.468 334.149 150.23C334.795 149.975 335.558 149.85 336.435 149.85C337.239 149.85 337.941 149.975 338.54 150.23C339.151 150.462 339.649 150.78 340.029 151.177C340.391 151.545 340.628 151.896 340.736 152.242L340.973 153.092L340.147 153.33L339.887 152.905C339.774 152.718 339.604 152.537 339.367 152.361C339.129 152.174 338.812 152.016 338.422 151.891C338.048 151.749 337.556 151.681 336.962 151.681C336.096 151.681 335.474 151.851 335.1 152.197C334.738 152.531 334.557 152.894 334.557 153.285C334.557 153.552 334.619 153.784 334.744 153.971C334.868 154.147 335.027 154.294 335.213 154.419C335.417 154.543 335.649 154.645 335.898 154.725L336.701 154.957L337.363 155.105L338.048 155.269C338.376 155.348 338.744 155.467 339.157 155.62C339.582 155.779 339.966 156.04 340.311 156.403C340.594 156.703 340.821 157.071 340.996 157.513C341.172 157.939 341.256 158.409 341.256 158.913C341.256 159.418 341.143 159.939 340.928 160.421C340.719 160.909 340.408 161.345 339.983 161.725C339.559 162.105 339.027 162.405 338.382 162.62C337.737 162.858 336.979 162.977 336.113 162.977C335.536 162.977 335.01 162.926 334.557 162.836C334.099 162.739 333.708 162.62 333.38 162.479C333.052 162.343 332.774 162.19 332.554 162.031L332.033 161.577C331.626 161.169 331.36 160.761 331.23 160.347C331.122 159.939 331.049 159.588 331.02 159.305L331.847 159.112L331.841 159.118ZM326.347 151.885L326.794 151.341C326.98 151.126 327.218 150.916 327.501 150.723C327.784 150.525 328.123 150.355 328.514 150.23C328.921 150.088 329.391 150.015 329.928 150.015C330.245 150.015 330.545 150.037 330.828 150.088V152.832C330.522 152.69 330.211 152.565 329.877 152.452C329.566 152.322 329.187 152.259 328.746 152.259C328.163 152.259 327.682 152.356 327.309 152.548C326.929 152.735 326.607 152.922 326.341 153.092V162.479H323.178V150.372H326.341V151.885H326.347ZM317.633 154.884L317.469 153.965C317.406 153.603 317.282 153.262 317.089 152.951C316.903 152.633 316.631 152.367 316.286 152.146C315.946 151.925 315.471 151.811 314.871 151.811C314.306 151.811 313.842 151.919 313.479 152.123C313.117 152.327 312.823 152.588 312.602 152.905C312.382 153.211 312.218 153.54 312.11 153.897L311.827 154.889H317.627L317.633 154.884ZM320.677 159.163C320.552 159.492 320.377 159.877 320.156 160.319C319.953 160.761 319.636 161.181 319.211 161.572C318.798 161.951 318.261 162.275 317.582 162.541C316.92 162.83 316.071 162.972 315.03 162.972C313.989 162.972 312.987 162.796 312.15 162.45C311.335 162.088 310.639 161.606 310.073 161.005C309.524 160.387 309.106 159.684 308.823 158.874C308.54 158.058 308.398 157.179 308.398 156.25C308.398 155.32 308.534 154.543 308.823 153.767C309.106 152.979 309.524 152.293 310.073 151.715C310.628 151.131 311.301 150.672 312.104 150.343C312.919 149.998 313.864 149.822 314.934 149.822L315.856 149.873C316.207 149.901 316.575 149.975 316.971 150.083C317.361 150.196 317.763 150.36 318.17 150.582C318.583 150.803 318.968 151.092 319.33 151.454C319.755 151.879 320.077 152.339 320.298 152.832C320.53 153.302 320.705 153.778 320.813 154.249C320.926 154.708 320.982 155.156 320.999 155.598L321.045 156.731H311.748L311.935 157.769C312.031 158.245 312.218 158.721 312.501 159.186C312.8 159.662 313.23 160.081 313.779 160.444C314.328 160.79 315.069 160.96 315.997 160.96C316.546 160.96 317.016 160.897 317.412 160.767C317.802 160.642 318.153 160.478 318.447 160.268C318.747 160.064 319.008 159.837 319.228 159.582L319.885 158.777L320.666 159.157L320.677 159.163ZM299.011 150.366L302.157 157.649L302.225 157.338L302.299 157.128L302.389 156.913L302.508 156.601L305.082 150.36H307.629L302.157 162.564H301.189L295.622 150.36H299.017L299.011 150.366ZM291.514 148.286C291.168 147.94 290.993 147.521 290.993 147.033C290.993 146.546 291.168 146.155 291.514 145.809C291.853 145.463 292.272 145.288 292.764 145.288C293.256 145.288 293.647 145.463 293.992 145.809C294.343 146.16 294.513 146.569 294.513 147.033C294.513 147.526 294.337 147.94 293.992 148.286C293.664 148.632 293.251 148.807 292.764 148.807C292.278 148.807 291.859 148.632 291.514 148.286ZM291.202 150.366H294.343V162.473H291.202V150.366ZM288.39 162.473H285.227V154.623L285.205 154.011C285.205 153.807 285.171 153.597 285.108 153.399C285.018 153.047 284.808 152.73 284.497 152.429C284.192 152.129 283.767 151.982 283.196 151.982C282.868 151.982 282.568 152.033 282.296 152.123C282.042 152.22 281.81 152.344 281.589 152.503C281.38 152.645 281.193 152.803 281.023 152.973L280.57 153.472V162.479H277.436V150.372H280.57V151.959L281.114 151.364C281.334 151.131 281.6 150.91 281.917 150.723C282.234 150.525 282.602 150.355 283.026 150.23C283.45 150.088 283.948 150.015 284.514 150.015C285.142 150.015 285.703 150.122 286.195 150.326C286.698 150.53 287.106 150.797 287.417 151.131C287.638 151.364 287.813 151.619 287.932 151.885C288.079 152.157 288.181 152.418 288.243 152.69C288.305 152.956 288.345 153.228 288.356 153.518L288.379 154.3V162.479L288.39 162.473ZM260.755 145.781H264.155V156.346C264.155 157.105 264.206 157.684 264.297 158.075C264.387 158.454 264.484 158.749 264.58 158.976C264.846 159.577 265.225 160.024 265.711 160.325C266.204 160.625 266.77 160.773 267.409 160.773C267.896 160.773 268.337 160.705 268.733 160.563C269.14 160.421 269.503 160.257 269.819 160.064C270.148 159.854 270.425 159.65 270.646 159.452L271.189 158.908V145.786H274.544V162.479H271.189V160.517L270.408 161.419C270.142 161.702 269.825 161.951 269.463 162.178C268.863 162.541 268.269 162.768 267.669 162.864C267.086 162.96 266.645 163.011 266.351 163.011C264.602 163.011 263.244 162.518 262.266 161.549C262.011 161.277 261.79 160.994 261.603 160.693C261.417 160.376 261.258 160.019 261.134 159.605C261.009 159.18 260.913 158.692 260.851 158.143C260.789 157.576 260.755 156.913 260.755 156.159V145.803V145.781ZM245.347 151.806C244.855 151.806 244.43 151.925 244.074 152.163C243.712 152.384 243.406 152.701 243.152 153.109C242.92 153.523 242.738 154.005 242.608 154.555C242.495 155.105 242.439 155.711 242.439 156.38C242.439 157.049 242.495 157.689 242.608 158.267C242.733 158.834 242.914 159.333 243.152 159.752C243.406 160.16 243.712 160.483 244.074 160.722C244.436 160.943 244.86 161.056 245.347 161.056C245.834 161.056 246.281 160.937 246.643 160.699C247.005 160.461 247.305 160.138 247.542 159.73C247.791 159.322 247.972 158.845 248.086 158.29C248.21 157.735 248.278 157.151 248.278 156.539C248.278 155.864 248.221 155.235 248.108 154.674C248.001 154.084 247.825 153.586 247.588 153.16C247.356 152.735 247.05 152.407 246.671 152.169C246.309 151.93 245.868 151.811 245.353 151.811L245.347 151.806ZM245.302 149.873C246.105 149.85 246.88 149.981 247.639 150.247C248.397 150.502 249.059 150.899 249.642 151.449C250.236 151.987 250.711 152.662 251.056 153.489C251.418 154.294 251.599 155.241 251.599 156.346C251.599 157.196 251.475 158.029 251.22 158.828C250.966 159.611 250.581 160.319 250.066 160.931C249.546 161.549 248.883 162.042 248.086 162.422C247.282 162.785 246.326 162.966 245.206 162.966C244.295 162.966 243.457 162.807 242.705 162.49C241.952 162.195 241.307 161.759 240.769 161.192C240.249 160.625 239.836 159.939 239.542 159.135C239.259 158.33 239.117 157.44 239.117 156.465C239.117 155.263 239.304 154.249 239.683 153.41C240.079 152.577 240.571 151.896 241.171 151.375C241.788 150.859 242.456 150.479 243.174 150.241C243.915 150.003 244.623 149.879 245.302 149.867V149.873ZM238.104 159.186L237.748 160.132C237.589 160.546 237.323 160.96 236.944 161.385C236.565 161.815 236.062 162.184 235.434 162.496C234.822 162.813 234.025 162.972 233.051 162.972C232.265 162.972 231.495 162.836 230.737 162.569C230.001 162.303 229.334 161.9 228.751 161.362C228.168 160.829 227.699 160.155 227.336 159.356C226.991 158.551 226.816 157.615 226.816 156.539C226.816 155.592 226.957 154.713 227.24 153.892C227.523 153.075 227.936 152.361 228.468 151.766C229 151.165 229.656 150.701 230.426 150.372C231.195 150.026 232.078 149.85 233.068 149.85C234.059 149.85 234.941 150.015 235.569 150.349C236.197 150.684 236.695 151.069 237.057 151.511C237.42 151.936 237.669 152.367 237.81 152.809L238.093 153.761L237.289 154.045L236.888 153.313C236.729 153.03 236.52 152.769 236.254 152.537C235.999 152.282 235.688 152.072 235.309 151.896C234.93 151.721 234.466 151.636 233.917 151.636C233.413 151.636 232.938 151.749 232.48 151.97C232.022 152.174 231.62 152.48 231.275 152.888C230.946 153.285 230.675 153.773 230.471 154.379C230.267 154.98 230.166 155.666 230.166 156.431C230.166 157.111 230.25 157.74 230.426 158.324C230.596 158.908 230.845 159.412 231.156 159.837C231.49 160.262 231.88 160.591 232.338 160.829C232.814 161.067 233.334 161.186 233.894 161.186C234.432 161.186 234.885 161.107 235.264 160.948C235.643 160.778 235.96 160.574 236.209 160.336C236.475 160.104 236.695 159.849 236.865 159.582L237.289 158.891L238.093 159.197L238.104 159.186ZM224.49 162.473H221.327V154.623L221.305 154.011C221.305 153.807 221.271 153.597 221.208 153.399C221.112 153.047 220.908 152.73 220.592 152.429C220.292 152.129 219.862 151.982 219.296 151.982C218.968 151.982 218.668 152.033 218.402 152.123C218.147 152.22 217.91 152.344 217.695 152.503C217.491 152.645 217.298 152.803 217.129 152.973L216.682 153.472V162.479H213.541V150.372H216.682V151.959L217.225 151.364C217.446 151.131 217.712 150.91 218.028 150.723C218.345 150.525 218.713 150.355 219.137 150.23C219.562 150.088 220.06 150.015 220.626 150.015C221.254 150.015 221.814 150.122 222.306 150.326C222.81 150.53 223.217 150.797 223.528 151.131C223.749 151.364 223.924 151.619 224.049 151.885C224.19 152.157 224.298 152.418 224.354 152.69C224.417 152.956 224.456 153.228 224.473 153.518L224.496 154.3V162.479L224.49 162.473ZM207.753 156.918C207.442 156.794 207.125 156.692 206.813 156.607C206.497 156.516 206.134 156.471 205.727 156.471C205.382 156.471 205.054 156.516 204.737 156.607C204.42 156.703 204.137 156.845 203.882 157.032C203.65 157.219 203.458 157.457 203.317 157.74C203.181 158.029 203.107 158.358 203.107 158.732C203.107 158.987 203.147 159.242 203.226 159.514C203.305 159.769 203.43 159.996 203.605 160.2C203.775 160.41 204.001 160.574 204.267 160.699C204.55 160.824 204.89 160.886 205.28 160.886C205.829 160.886 206.304 160.795 206.695 160.603C207.091 160.41 207.447 160.211 207.758 160.007V156.913L207.753 156.918ZM210.803 162.473H207.753V161.101L207.232 161.623C207.012 161.81 206.746 161.997 206.429 162.184C206.118 162.36 205.733 162.513 205.297 162.637C204.873 162.762 204.375 162.824 203.809 162.824C203.198 162.824 202.638 162.722 202.134 162.518C201.647 162.331 201.229 162.059 200.884 161.713C200.538 161.351 200.272 160.931 200.08 160.461C199.893 159.99 199.797 159.486 199.797 158.947C199.797 158.25 199.933 157.638 200.199 157.105C200.465 156.55 200.833 156.091 201.285 155.728C201.755 155.348 202.298 155.065 202.915 154.872C203.526 154.685 204.188 154.594 204.895 154.594C205.478 154.594 205.982 154.651 206.406 154.759L207.753 155.116L207.662 154.192C207.628 153.875 207.555 153.569 207.425 153.268C207.283 152.951 207.096 152.696 206.859 152.492C206.638 152.282 206.395 152.129 206.129 152.021C205.874 151.896 205.62 151.806 205.354 151.76C205.088 151.715 204.839 151.687 204.624 151.687C204.12 151.687 203.684 151.749 203.322 151.874C202.96 151.999 202.649 152.157 202.377 152.344C202.123 152.537 201.913 152.735 201.744 152.939L201.297 153.484L200.493 153.081L200.991 152.089C201.2 151.715 201.489 151.358 201.862 151.024C202.242 150.695 202.722 150.417 203.3 150.196C203.899 149.964 204.646 149.839 205.546 149.839C206.587 149.839 207.43 149.981 208.092 150.264C208.754 150.547 209.258 150.871 209.603 151.233C209.903 151.534 210.129 151.857 210.288 152.203C210.446 152.548 210.559 152.894 210.639 153.24C210.718 153.574 210.763 153.903 210.786 154.232L210.808 155.156V162.462L210.803 162.473ZM189.018 160.393H190.529L191.57 160.37L192.3 160.296L192.888 160.132C193.443 159.928 193.895 159.588 194.258 159.112C194.62 158.624 194.801 158.041 194.801 157.343C194.801 156.59 194.614 156.006 194.235 155.598C193.856 155.173 193.409 154.867 192.888 154.679C192.368 154.492 191.841 154.373 191.304 154.345L190.104 154.305L189.538 154.328H189.018V160.404V160.393ZM189.018 153.16L190.291 153.109C190.744 153.092 191.168 153.041 191.564 152.945C192.238 152.769 192.775 152.463 193.171 152.021C193.579 151.562 193.782 151.001 193.782 150.338C193.782 149.675 193.584 149.136 193.188 148.705C192.809 148.263 192.238 147.986 191.468 147.878L190.97 147.855H189.012V153.149L189.018 153.16ZM185.691 145.758H191.615L192.6 145.786C192.95 145.786 193.29 145.815 193.613 145.877C193.963 145.922 194.292 146.013 194.608 146.138C194.937 146.262 195.259 146.438 195.576 146.659C196.034 146.971 196.413 147.402 196.708 147.935C197.025 148.456 197.183 149.074 197.183 149.782C197.183 150.491 197.041 151.052 196.759 151.505C196.493 151.947 196.176 152.299 195.814 152.571C195.468 152.837 195.118 153.036 194.778 153.16L194.026 153.421L195.253 153.637C195.712 153.727 196.164 153.937 196.623 154.249C196.951 154.487 197.217 154.753 197.426 155.054C197.647 155.354 197.811 155.649 197.924 155.955C198.032 156.232 198.105 156.516 198.134 156.777L198.207 157.462C198.207 157.995 198.134 158.477 197.992 158.908C197.851 159.333 197.67 159.701 197.449 160.019C197.245 160.33 197.03 160.603 196.809 160.824L196.221 161.345C195.593 161.798 194.886 162.11 194.099 162.263C193.324 162.405 192.402 162.473 191.31 162.473H185.691V145.758Z"
      fill="#003E7E" />
  </g>
  <defs>
    <clipPath id="clip0_901_209">
      <rect width="362" height="163" fill="white" />
    </clipPath>
  </defs>
</svg>