<svg width="184" height="184" viewBox="0 0 184 184" fill="none" xmlns="http://www.w3.org/2000/svg">
<g clip-path="url(#clip0_949_1451)">
<path fill-rule="evenodd" clip-rule="evenodd" d="M29.57 147.81H31.81C31.81 147.81 35.2 147.41 37.16 145.25C38.44 143.84 39.04 141.09 38.45 139.27C38.13 138.3 37.08 137.55 36.49 137.52H30.2L27.7 147.75L29.58 147.81H29.57ZM22.26 168.96L26.13 168.98C30.52 168.98 31.54 168.43 33.41 167.1C35.28 165.76 36.25 161.16 33.31 159.07C33.15 158.96 32.53 158.77 32.14 158.71C32.13 158.7 25.26 158.71 25.26 158.71L22.18 168.96H22.25H22.26ZM0.0400391 181.39L14.89 124.42H51.26C52.38 124.42 53.98 124.53 56.11 125.86C58.25 127.19 62.49 131.02 60.88 138.43C58.78 148.05 51.59 150.81 51.59 150.81C51.59 150.81 59.87 155.67 57.78 166.62C55.69 177.57 43.03 180.58 39.65 180.99C34.23 181.66 0.0400391 181.39 0.0400391 181.39Z" fill="#E98000"/>
<path fill-rule="evenodd" clip-rule="evenodd" d="M106.94 124.42L100.4 155.58L95.3001 124.42H68.2001L56.3701 181.33H74.5301L81.5301 148.12L86.9501 181.33H113.27L125.1 124.42H106.94Z" fill="#153E7B"/>
<path fill-rule="evenodd" clip-rule="evenodd" d="M156.92 145.74H181.27C181.02 142.3 180.18 138.95 178.62 135.84C171.7 122.03 153.68 118.43 138.39 127.8C123.1 137.18 116.31 155.98 123.23 169.79C130.16 183.61 148.17 187.2 163.46 177.82C170.36 173.6 175.53 167.43 178.5 160.69H153.79C151.55 165.77 148.55 169.03 146.02 168.62C142.5 168.06 141.27 160.61 143.26 152C145.25 143.39 149.71 136.86 153.23 137.44C155.52 137.81 156.81 141.09 156.92 145.75V145.74Z" fill="#1FAC57"/>
<path fill-rule="evenodd" clip-rule="evenodd" d="M10.74 30.37C18.52 21.27 30.12 13.63 44.21 8.29L26.01 88.44L10.74 30.37ZM47.29 7.17C60.49 2.6 75.66 0 91.82 0C94.86 0 97.86 0.1 100.83 0.27L35.27 89.46L47.29 7.17ZM101.96 0.35C147.9 3.49 183.64 27.77 183.64 57.25C183.64 88.87 142.53 114.5 91.82 114.5C80.24 114.5 69.17 113.17 58.96 110.73L166.84 85.69L50.32 102.83L145.25 34.62L44.14 95.64L101.96 0.35ZM0 57.25C0 49.17 2.69 41.49 7.53 34.51L15.85 89.41C5.85 80.25 0 69.18 0 57.25Z" fill="#153E7B"/>
</g>
<defs>
<clipPath id="clip0_949_1451">
<rect width="183.64" height="183.04" fill="white"/>
</clipPath>
</defs>
</svg>
