<svg width="24" height="25" viewBox="0 0 24 25" fill="none" xmlns="http://www.w3.org/2000/svg"><path d="M.08 24.217c.127-.225.316-.288.568-.288 1.044.01 2.097 0 3.14 0h.289V1.382c0-.108 0-.216.018-.324.027-.198.162-.297.35-.324.082-.009.154 0 .235 0h10.009c.477 0 .594.117.594.594v9.006h5.4c.504 0 .603.1.603.603v13.001h2.268c.225 0 .423.036.504.28.081.251-.072.395-.252.512H.081v-.513ZM14.474 1.553H4.896V23.92h1.188v-3.527c0-.72.459-1.205 1.161-1.25.234-.018.468-.01.702 0 .864 0 1.332.476 1.332 1.331v3.446h.801V10.928c0-.468.117-.585.576-.585h3.817v-8.79Zm5.994 9.6H10.89V23.92h9.577V11.153ZM8.442 23.92s.027-.036.027-.054V20.33c0-.234-.144-.378-.378-.396-.216-.018-.44 0-.657 0-.432 0-.558.126-.558.558v3.428h1.566Z" fill="#F95C04"/><path d="M13.285 7.932V9.03c0 .36-.153.503-.522.512h-2.179c-.36 0-.504-.152-.513-.521V6.843c0-.35.144-.504.495-.504h2.224c.333 0 .477.153.486.495v1.098h.009Zm-2.395-.783v1.575h1.567V7.149H10.89Zm-4.806.783V6.807c0-.315.144-.468.459-.468h2.295c.297 0 .441.153.441.46v2.294c0 .279-.144.44-.432.45a99.2 99.2 0 0 1-2.313 0c-.306 0-.441-.171-.45-.477V7.93Zm2.376.8V7.159H6.894v1.575H8.46Zm3.205-3.202h-1.099c-.324 0-.477-.144-.477-.468v-2.25c0-.333.162-.477.504-.477h2.197c.35 0 .504.153.504.504v2.196c0 .36-.144.495-.504.495h-1.125Zm.81-2.385h-1.566V4.72h1.566V3.145Zm-4.789 7.198h1.125c.315 0 .468.144.468.459v2.294c0 .297-.153.441-.45.441H6.561c-.324 0-.468-.153-.468-.477v-2.222c0-.342.144-.486.486-.486h1.125l-.018-.009Zm.774.819H6.894v1.565H8.46v-1.565Zm.82-7.216v1.125c0 .315-.145.459-.46.459H6.552c-.324 0-.46-.153-.468-.486V2.82c0-.333.153-.486.486-.486h2.223c.333 0 .477.153.486.486v1.125Zm-2.386.765H8.46V3.145H6.894v1.566ZM9.28 15.949v1.124c0 .315-.145.46-.46.46H6.552c-.324 0-.468-.154-.468-.487v-2.222c0-.333.153-.486.486-.495h2.223c.333 0 .486.153.486.486v1.134Zm-.82-.801H6.894v1.574H8.46v-1.574Zm9.244.782h1.053c.378 0 .531.145.531.522v2.178c0 .36-.144.504-.513.504h-2.178c-.37 0-.504-.144-.513-.513v-2.178c0-.36.153-.504.522-.513h1.098Zm-.801.81v1.575h1.575V16.74h-1.575Zm-1.62.792v1.125c0 .333-.135.477-.468.477h-2.25c-.342 0-.477-.153-.477-.495v-2.223c0-.323.153-.476.468-.486h2.25c.333 0 .477.154.477.495v1.108Zm-2.385.783h1.566V16.74h-1.566v1.575Zm4.761-3.185H16.56c-.315 0-.477-.144-.477-.45a97.481 97.481 0 0 1 0-2.294c0-.306.162-.45.477-.45h2.25c.324 0 .477.144.477.477v2.249c0 .333-.153.468-.495.477h-1.125l-.01-.01Zm.81-.81v-1.566h-1.566v1.566h1.566Zm-.756 5.614h1.098c.324 0 .468.144.477.477v2.25c0 .323-.162.476-.477.476h-2.25c-.315 0-.477-.152-.477-.476v-2.25c0-.324.153-.468.477-.468h1.143l.009-.009Zm-.81.81v1.575h1.566v-1.575h-1.566Zm-1.62-7.216v1.125c0 .333-.144.477-.468.477h-2.25c-.333 0-.477-.144-.477-.495V12.44c0-.351.144-.504.495-.504h2.196c.36 0 .495.135.504.495v1.097Zm-.81-.774h-1.575v1.566h1.575v-1.566Zm-.783 7.18h1.098c.35 0 .486.135.486.477v2.223c0 .35-.144.494-.504.494h-2.196c-.342 0-.486-.152-.495-.485v-2.25c0-.315.143-.459.458-.468h1.144l.009.01Zm.774 2.385v-1.566h-1.566v1.566h1.566Z" fill="#fff"/></svg>