<svg width="12" height="10" viewBox="0 0 12 10" fill="none" xmlns="http://www.w3.org/2000/svg">
<g clip-path="url(#clip0_970_1212)">
<path d="M11.6298 4.885C11.5798 4.625 11.4198 4.435 11.2398 4.255C9.91985 2.935 8.59985 1.615 7.27985 0.295004C6.99985 0.0150035 6.63985 -0.0649965 6.32985 0.0850035C5.82985 0.315004 5.67985 0.945004 6.02985 1.375C6.06985 1.425 6.11985 1.475 6.16985 1.525C6.78985 2.145 7.41985 2.775 8.03985 3.395C8.32985 3.685 8.59985 4.005 9.00985 4.145C9.00985 4.145 9.00985 4.165 9.00985 4.175H8.87985C6.23985 4.175 3.59985 4.175 0.959846 4.175C0.699846 4.175 0.449846 4.225 0.269846 4.425C0.0398463 4.675 -0.0401538 4.965 0.0798462 5.285C0.209846 5.615 0.459846 5.805 0.819846 5.835C0.889846 5.835 0.959846 5.835 1.01985 5.835C3.63985 5.835 6.25985 5.835 8.88985 5.835C8.92985 5.835 8.97985 5.835 9.00985 5.835C8.82985 5.955 8.64985 6.075 8.47985 6.205C8.40985 6.255 8.35985 6.315 8.29985 6.375C7.58985 7.095 6.87985 7.805 6.15985 8.525C5.90985 8.775 5.79985 9.065 5.89985 9.415C6.04985 9.955 6.71985 10.165 7.16985 9.825C7.22985 9.775 7.28985 9.725 7.33985 9.675C8.64985 8.365 9.95985 7.055 11.2698 5.755C11.4498 5.575 11.6198 5.385 11.6698 5.125V4.895L11.6298 4.885Z" fill="#666666"/>
</g>
<defs>
<clipPath id="clip0_970_1212">
<rect width="11.63" height="9.97" fill="white" transform="translate(0 0.0150146)"/>
</clipPath>
</defs>
</svg>
