<svg width="24" height="19" viewBox="0 0 24 19" fill="none" xmlns="http://www.w3.org/2000/svg">
<path d="M8.309 12.5023C8.44478 12.3352 8.5179 12.2412 8.60146 12.1681C12.3617 8.39744 16.1323 4.63724 19.9029 0.866592C20.5505 0.219002 21.3548 0.0518821 22.0964 0.427902C22.2844 0.521907 22.462 0.668137 22.6291 0.814367C22.8902 1.0546 23.1305 1.30528 23.3811 1.56641C24.2063 2.40201 24.2063 3.47784 23.3811 4.31344C22.2113 5.48328 21.0415 6.65312 19.8716 7.82296C16.3516 11.3429 12.8212 14.8733 9.30127 18.3933C8.90436 18.7902 8.46567 18.9782 7.93298 18.7798C7.74497 18.7171 7.55696 18.5813 7.41073 18.4351C5.14416 16.179 2.8776 13.9124 0.611033 11.6354C-0.203678 10.8207 -0.203678 9.7344 0.611033 8.90924C0.861713 8.64812 1.12284 8.38699 1.38396 8.13631C2.17778 7.37383 3.26406 7.37383 4.04744 8.13631C5.39484 9.47327 6.74225 10.8207 8.08965 12.1785C8.16277 12.2516 8.21499 12.3456 8.31944 12.4814L8.309 12.5023Z" fill="#F95C04"/>
</svg>
