<svg width="20" height="auto" viewBox="0 0 33 26" fill="none" xmlns="http://www.w3.org/2000/svg">
  <path
    d="M11.5787 16.6965C11.7597 16.4736 11.8572 16.3483 11.9686 16.2508C16.9822 11.2233 22.0097 6.20967 27.0373 1.18214C27.9007 0.31869 28.9731 0.0958638 29.9619 0.597224C30.2125 0.722564 30.4493 0.917537 30.6721 1.11251C31.0203 1.43282 31.3406 1.76706 31.6748 2.11523C32.7751 3.22936 32.7751 4.66381 31.6748 5.77794C30.1151 7.33773 28.5553 8.89752 26.9955 10.4573C22.3022 15.1506 17.595 19.8578 12.9017 24.5511C12.3725 25.0803 11.7876 25.331 11.0773 25.0664C10.8266 24.9828 10.5759 24.8018 10.381 24.6068C7.35888 21.5986 4.3368 18.5766 1.31471 15.5405C0.22843 14.4543 0.22843 13.0059 1.31471 11.9057C1.64895 11.5575 1.99712 11.2093 2.34528 10.8751C3.40371 9.85846 4.85208 9.85846 5.89658 10.8751C7.69312 12.6577 9.48966 14.4543 11.2862 16.2647C11.3837 16.3622 11.4533 16.4876 11.5926 16.6686L11.5787 16.6965Z"
    fill="#00B259" />
</svg>