<svg width="276" height="114" viewBox="0 0 276 114" fill="none" xmlns="http://www.w3.org/2000/svg">
<g clip-path="url(#clip0_2_17)">
<g filter="url(#filter0_d_2_17)">
<path d="M138 78.3353C194.333 78.3353 240 66.9185 240 52.8353C240 38.752 194.333 27.3353 138 27.3353C81.667 27.3353 36 38.752 36 52.8353C36 66.9185 81.667 78.3353 138 78.3353Z" fill="url(#paint0_radial_2_17)"/>
<path d="M237.45 52.8353C237.45 54.898 235.716 57.5931 230.687 60.5659C225.828 63.4377 218.628 66.1124 209.506 68.3927C191.303 72.9434 166.021 75.7853 138 75.7853C109.979 75.7853 84.6967 72.9434 66.4936 68.3927C57.3724 66.1124 50.172 63.4377 45.3132 60.5659C40.2837 57.5931 38.55 54.898 38.55 52.8353C38.55 50.7726 40.2837 48.0775 45.3132 45.1047C50.172 42.2329 57.3724 39.5582 66.4936 37.2779C84.6967 32.7272 109.979 29.8853 138 29.8853C166.021 29.8853 191.303 32.7272 209.506 37.2779C218.628 39.5582 225.828 42.2329 230.687 45.1047C235.716 48.0775 237.45 50.7726 237.45 52.8353Z" stroke="url(#paint1_linear_2_17)" stroke-width="6"/>
</g>
<g filter="url(#filter1_d_2_17)">
<path d="M237.39 48.6558C237.317 50.7173 235.491 53.3502 230.361 56.1456C225.405 58.8461 218.115 61.2679 208.92 63.2285C190.569 67.1412 165.203 69.099 137.199 68.1211C109.195 67.1432 84.0274 63.4207 65.9942 58.2374C56.9582 55.6402 49.8554 52.7159 45.0998 49.6762C40.1772 46.5297 38.5386 43.7757 38.6106 41.7143C38.6826 39.6529 40.5093 37.0199 45.6394 34.2245C50.5955 31.524 57.8849 29.1023 67.0801 27.1417C85.431 23.2289 110.797 21.2711 138.801 22.249C166.805 23.227 191.972 26.9495 210.006 32.1327C219.042 34.7299 226.145 37.6543 230.9 40.694C235.823 43.8404 237.461 46.5944 237.39 48.6558Z" stroke="url(#paint2_linear_2_17)" stroke-width="6"/>
</g>
</g>
<defs>
<filter id="filter0_d_2_17" x="35.55" y="26.8853" width="236.9" height="91.9" filterUnits="userSpaceOnUse" color-interpolation-filters="sRGB">
<feFlood flood-opacity="0" result="BackgroundImageFix"/>
<feColorMatrix in="SourceAlpha" type="matrix" values="0 0 0 0 0 0 0 0 0 0 0 0 0 0 0 0 0 0 127 0" result="hardAlpha"/>
<feOffset dx="16" dy="24"/>
<feGaussianBlur stdDeviation="8"/>
<feComposite in2="hardAlpha" operator="out"/>
<feColorMatrix type="matrix" values="0 0 0 0 0 0 0 0 0 0 0 0 0 0 0 0 0 0 0.16 0"/>
<feBlend mode="normal" in2="BackgroundImageFix" result="effect1_dropShadow_2_17"/>
<feBlend mode="normal" in="SourceGraphic" in2="effect1_dropShadow_2_17" result="shape"/>
</filter>
<filter id="filter1_d_2_17" x="31.6082" y="15" width="220.784" height="68.3701" filterUnits="userSpaceOnUse" color-interpolation-filters="sRGB">
<feFlood flood-opacity="0" result="BackgroundImageFix"/>
<feColorMatrix in="SourceAlpha" type="matrix" values="0 0 0 0 0 0 0 0 0 0 0 0 0 0 0 0 0 0 127 0" result="hardAlpha"/>
<feOffset dx="4" dy="4"/>
<feGaussianBlur stdDeviation="4"/>
<feComposite in2="hardAlpha" operator="out"/>
<feColorMatrix type="matrix" values="0 0 0 0 0 0 0 0 0 0 0 0 0 0 0 0 0 0 0.16 0"/>
<feBlend mode="normal" in2="BackgroundImageFix" result="effect1_dropShadow_2_17"/>
<feBlend mode="normal" in="SourceGraphic" in2="effect1_dropShadow_2_17" result="shape"/>
</filter>
<radialGradient id="paint0_radial_2_17" cx="0" cy="0" r="1" gradientUnits="userSpaceOnUse" gradientTransform="translate(138.212 58.9978) scale(101.787 30.3453)">
<stop stop-color="#DDDDDD"/>
<stop offset="0.479167" stop-color="white"/>
</radialGradient>
<linearGradient id="paint1_linear_2_17" x1="110.8" y1="78.3353" x2="110.8" y2="27.3353" gradientUnits="userSpaceOnUse">
<stop stop-color="#FF7F00"/>
<stop offset="1" stop-color="#F95C04"/>
</linearGradient>
<linearGradient id="paint2_linear_2_17" x1="109.927" y1="69.7203" x2="111.707" y2="18.7513" gradientUnits="userSpaceOnUse">
<stop stop-color="#FF7F00"/>
<stop offset="1" stop-color="#F95C04"/>
</linearGradient>
<clipPath id="clip0_2_17">
<rect width="276" height="114" fill="white"/>
</clipPath>
</defs>
</svg>
