<svg width="259" height="267" viewBox="0 0 259 267" fill="none" xmlns="http://www.w3.org/2000/svg">
<g opacity="0.1">
<path d="M104.981 0C106.279 0.420675 107.611 0.772669 108.884 1.2792C117.481 4.72187 122.725 10.9461 123.31 20.2525C123.791 27.8676 123.49 35.5428 123.533 43.1836C123.533 44.2052 123.533 45.2355 123.533 46.7379C124.754 46.1112 125.588 45.7248 126.379 45.2698C132.268 41.913 138.14 38.5218 144.038 35.1822C153.159 30.0139 162.522 32.5036 167.732 41.561C178.685 60.6116 189.577 79.6965 200.539 98.7299C201.295 100.052 202.344 101.288 203.496 102.276C214.286 111.462 225.376 120.322 235.916 129.8C251.83 144.111 258.243 162.252 256.128 183.457C254.89 195.82 253.592 208.166 252.406 220.537C252.311 221.473 252.707 222.572 253.171 223.439C254.813 226.495 256.627 229.465 258.295 232.513C259.584 234.866 259.086 237.038 257.126 238.197C255.14 239.364 252.956 238.763 251.598 236.48C249.328 232.676 247.084 228.847 245.029 224.932C244.471 223.868 244.367 222.408 244.479 221.172C245.7 208.466 246.972 195.76 248.313 183.062C250.291 164.252 244.651 148.258 230.569 135.466C225.548 130.907 220.243 126.675 215.059 122.296C214.767 122.047 214.415 121.867 213.796 121.919C215.498 124.906 217.209 127.885 218.894 130.873C224.086 140.085 221.542 149.374 212.351 154.705C207.855 157.307 203.333 159.865 198.673 162.518C199.387 163.857 200.031 164.973 200.573 166.132C201.553 168.219 200.951 170.305 199.155 171.344C197.332 172.391 195.062 171.979 193.91 170.021C190.248 163.814 186.663 157.556 183.181 151.254C182.089 149.288 182.949 147.09 184.797 146.112C186.663 145.133 188.743 145.657 189.998 147.64C191.606 150.198 193.059 152.86 194.77 155.804C200.203 152.602 205.654 149.717 210.735 146.292C214.268 143.905 214.638 139.209 212.239 135.011C205.267 122.794 198.26 110.595 191.271 98.3865C181.298 80.9757 171.342 63.5649 161.37 46.1541C157.819 39.9556 153.486 38.7966 147.244 42.3594C127.479 53.6576 107.706 64.9471 87.9322 76.2452C81.5359 79.9025 80.3581 84.135 83.9775 90.4795C87.8978 97.3391 91.8096 104.207 95.7557 111.058C96.71 112.715 97.1227 114.518 95.6525 115.84C94.6896 116.707 92.9874 117.36 91.7838 117.154C90.6661 116.965 89.4883 115.677 88.8177 114.578C86.0236 109.977 83.3499 105.298 80.7707 100.576C79.9196 99.0046 78.9481 98.4208 77.1255 98.4208C59.4582 98.4895 41.7909 98.4638 24.1236 98.4638C17.7789 98.4638 15.6811 96.369 15.6811 90.0503C15.6811 83.5341 15.6811 77.0093 15.6811 70.4931C15.6811 67.1964 17.0653 65.3678 19.5155 65.3163C22.0431 65.2648 23.5046 67.1793 23.5046 70.6219C23.5132 76.3568 23.5046 82.0918 23.5046 87.8267C23.5046 88.6766 23.5734 89.518 23.6164 90.4967H74.5119C74.5119 87.303 74.1423 84.1608 74.5979 81.1474C75.3115 76.4341 78.1486 72.897 82.2495 70.4931C87.4938 67.4196 92.8326 64.4921 98.0597 61.3842C98.8937 60.8863 99.8996 59.8046 99.9167 58.9718C100.063 51.9405 100.003 44.9006 100.003 37.6547H23.5046C23.5046 42.3337 23.6852 47.0126 23.4014 51.6572C23.3155 53.151 22.387 55.0741 21.2092 55.924C19.0169 57.5037 15.8273 55.6493 15.7499 52.8334C15.5952 46.9268 15.5866 41.0115 15.7757 35.1049C15.8703 32.0915 18.4408 29.8937 21.4757 29.6533C22.258 29.5932 23.0404 29.6104 23.8227 29.6104C49.1501 29.6104 74.4776 29.6104 99.805 29.6104C105.737 29.6104 107.835 31.6794 107.861 37.5603C107.878 43.4497 107.861 49.3392 107.861 55.8296C110.543 54.2929 112.813 53.0823 114.953 51.6744C115.435 51.3567 115.667 50.3351 115.667 49.6397C115.71 40.4277 115.83 31.2158 115.641 22.0039C115.461 13.4702 109.442 7.82113 100.862 7.81254C74.7527 7.78678 48.6429 7.78678 22.5331 7.81254C13.9101 7.82113 7.85766 13.8222 7.85766 22.3902C7.83187 77.5759 7.83187 132.77 7.85766 187.956C7.85766 196.258 13.8327 202.319 22.1548 202.345C48.5225 202.413 74.8988 202.405 101.267 202.345C109.434 202.328 115.375 196.713 115.607 188.557C115.856 179.963 115.684 171.352 115.675 162.75C115.675 162.157 115.581 161.496 115.297 160.998C113.062 157.015 110.775 153.057 107.861 149.185C107.861 151.289 107.886 153.392 107.861 155.495C107.775 161.127 105.109 163.789 99.5127 163.814C96.4693 163.832 93.4172 163.883 90.3738 163.78C86.5223 163.651 83.7196 161.162 83.4531 157.341C83.2295 154.062 83.2553 150.739 83.4874 147.451C83.711 144.335 86.1096 141.587 89.067 141.424C93.9847 141.149 98.9195 141.347 104.026 141.347C103.734 140.823 103.321 140.042 102.883 139.269C101.129 136.17 99.2977 133.114 97.6213 129.971C96.4693 127.799 97.1398 125.67 99.0914 124.589C100.931 123.567 102.986 124.125 104.31 126.039C104.705 126.606 105.023 127.233 105.367 127.834C114.988 144.644 124.617 161.445 134.237 178.255C137.848 184.565 142.164 185.724 148.534 182.092C152.532 179.809 156.504 177.473 160.553 175.276C161.877 174.554 162.573 173.747 162.255 172.211C162.152 171.704 162.083 171.163 162.135 170.657C162.969 162.252 159.857 155.109 155.326 148.292C152.635 144.249 150.408 139.905 148.035 135.655C143.634 127.765 145.955 118.708 153.443 114.381C160.88 110.088 169.933 112.724 174.523 120.553C176.853 124.52 179.14 128.521 181.384 132.538C182.768 135.02 182.287 137.269 180.241 138.402C178.22 139.527 175.994 138.763 174.575 136.35C172.297 132.453 170.104 128.503 167.826 124.606C165.385 120.442 161.163 119.06 157.441 121.12C153.606 123.241 152.549 127.671 154.956 131.937C158.799 138.746 162.608 145.571 166.631 152.267C168.677 155.667 169.554 159.213 169.7 163.128C170.087 173.026 170.311 182.942 171.222 192.798C173.157 213.712 182.201 231.225 198.037 244.996C203.333 249.598 205.8 255.779 209.205 261.454C210.271 263.231 209.592 265.257 207.614 266.373C205.645 267.489 203.935 266.923 202.542 265.223C202.43 265.085 202.31 264.957 202.241 264.794C198.647 256.449 192.148 250.456 185.932 244.129C178.109 236.17 172.563 226.632 168.609 216.193C168.273 215.308 167.912 214.424 167.482 213.351C160.407 216.261 154.397 214.811 150.262 209.608C146.178 210.011 142.645 210.973 139.283 210.552C132.328 209.677 127.583 203.075 128.331 196.069C128.606 193.485 129.371 190.952 129.62 188.377C129.741 187.14 129.422 185.715 128.855 184.599C127.428 181.826 125.751 179.19 123.679 176.486C123.628 177.345 123.551 178.212 123.525 179.07C123.387 183.5 123.86 188.042 123.017 192.326C121.221 201.495 115.426 207.307 106.279 209.616C105.531 209.805 104.783 209.994 103.828 210.235C103.828 211.213 103.828 212.149 103.828 213.093C103.828 226.564 103.828 240.034 103.828 253.504C103.828 259.66 100.218 262.261 94.9218 259.265C89.4453 256.157 84.5621 255.899 79.3952 259.531C76.5753 261.505 73.4975 261.6 70.6002 259.677C64.6165 255.702 58.779 255.848 52.8727 259.866C50.4311 261.523 47.7918 261.42 45.2298 259.96C45.1524 259.917 45.075 259.883 44.9977 259.84C39.2031 256.14 33.6149 255.736 27.5023 259.651C23.7109 262.081 19.7906 259.256 19.7734 254.646C19.7304 240.918 19.7562 227.182 19.7562 213.454C19.7562 212.424 19.7562 211.385 19.7562 210.32C17.8562 209.788 16.068 209.419 14.3744 208.792C5.53641 205.556 0.0169931 197.571 0.00839587 187.904C-0.00879858 132.719 -0.000201352 77.5244 0.0169931 22.3387C0.0169931 21.0423 0.0943681 19.7288 0.317896 18.4496C1.99435 9.12608 8.3563 2.54981 17.6327 0.463601C18.0368 0.369164 18.4237 0.154534 18.8105 0C47.5339 0 76.2486 0 104.972 0H104.981ZM95.8589 210.398H27.8032V251.083C29.1014 250.482 30.1675 250.113 31.096 249.529C34.0964 247.666 37.2 247.314 40.1574 249.314C46.2701 253.461 52.1764 252.937 58.1342 249.031C60.4383 247.52 62.8455 247.726 65.3215 248.894C68.3735 250.336 71.5459 252.654 74.6323 252.611C77.8133 252.56 80.9857 250.182 84.1065 248.705C86.1526 247.735 88.0784 247.761 90.1073 248.722C91.9471 249.598 93.8557 250.336 95.8503 251.186V210.389L95.8589 210.398ZM162.333 182.934C160.725 184.273 158.61 185.149 158.232 186.514C156.899 191.244 156.014 196.129 155.283 200.997C154.939 203.281 156.246 205.195 158.326 206.32C160.312 207.393 162.685 207.59 164.112 205.942C164.929 204.998 164.542 202.834 164.387 201.254C163.803 195.417 163.089 189.587 162.333 182.925V182.934ZM137.083 191.484C136.756 193.373 136.266 195.296 136.137 197.245C135.956 200.198 137.994 202.551 140.917 203.117C143.608 203.633 146.436 202.156 147.279 199.417C148.104 196.739 148.534 193.931 149.067 191.493H137.074L137.083 191.484ZM99.8996 149.211H91.3539V155.847H99.8996V149.211Z" fill="#6D6E71"/>
<path d="M95.5236 193.511C93.701 193.511 91.8698 193.596 90.0472 193.493C86.5911 193.287 83.7884 190.918 83.5219 187.527C83.2468 183.99 83.2467 180.401 83.5391 176.872C83.8056 173.61 86.5739 171.172 89.8838 171.035C93.615 170.88 97.3634 170.88 101.095 171.017C104.662 171.146 107.388 173.662 107.663 177.224C107.912 180.504 107.912 183.826 107.68 187.106C107.414 190.909 104.611 193.347 100.734 193.519C98.9969 193.596 97.2516 193.528 95.515 193.528V193.511H95.5236ZM91.2938 178.864V185.595H99.7792V178.864H91.2938Z" fill="#6D6E71"/>
<path d="M28.0354 193.519C26.2042 193.519 24.373 193.596 22.559 193.502C18.6988 193.296 15.8703 190.497 15.7156 186.651C15.5952 183.698 15.5866 180.736 15.7156 177.791C15.8875 173.954 18.7418 171.138 22.6192 171.009C26.1784 170.889 29.7549 170.88 33.3141 171.009C37.2688 171.155 40.0457 174.065 40.1919 178.109C40.2865 180.796 40.2779 183.5 40.2005 186.187C40.0715 190.583 37.1829 193.399 32.7381 193.536C31.1734 193.588 29.6087 193.536 28.044 193.536C28.044 193.528 28.044 193.519 28.044 193.511L28.0354 193.519ZM23.6594 178.873V185.544H32.2309V178.873H23.6594Z" fill="#6D6E71"/>
<path d="M27.9753 163.814C26.2387 163.814 24.4935 163.874 22.7568 163.806C18.7505 163.643 15.8618 160.852 15.7071 156.886C15.5953 154.027 15.6039 151.151 15.7071 148.284C15.8447 144.3 18.7247 141.407 22.6794 141.287C26.1527 141.184 29.6432 141.192 33.1165 141.287C36.9852 141.381 39.9341 144.12 40.149 147.94C40.321 150.971 40.3124 154.027 40.149 157.058C39.9427 160.904 37.054 163.625 33.1853 163.797C31.4486 163.874 29.7034 163.814 27.9667 163.814H27.9753ZM23.6251 155.864H32.1794V149.211H23.6251V155.864Z" fill="#6D6E71"/>
<path d="M61.8054 141.261C63.4561 141.261 65.1153 141.218 66.766 141.27C70.7121 141.39 73.6094 143.854 73.9447 147.777C74.2112 150.876 74.2026 154.036 73.9705 157.144C73.661 161.213 70.7895 163.72 66.6714 163.814C63.3701 163.892 60.0602 163.9 56.7588 163.814C52.4602 163.703 49.6661 160.878 49.5544 156.543C49.477 153.856 49.477 151.151 49.5544 148.464C49.6833 144.171 52.5376 141.39 56.8534 141.27C58.5041 141.227 60.1547 141.27 61.814 141.27L61.8054 141.261ZM57.5326 149.22V155.864H66.0868V149.22H57.5326Z" fill="#6D6E71"/>
<path d="M61.7023 170.966C63.4389 170.966 65.1842 170.906 66.9208 170.983C70.7638 171.146 73.5836 173.55 73.9275 177.379C74.2112 180.564 74.2027 183.818 73.9447 187.003C73.618 190.927 70.7466 193.416 66.7832 193.519C63.4819 193.605 60.172 193.605 56.8706 193.519C52.5205 193.416 49.7006 190.626 49.563 186.333C49.477 183.646 49.4856 180.95 49.563 178.255C49.6834 173.911 52.4517 171.12 56.7589 170.957C58.4095 170.897 60.0602 170.949 61.7195 170.957L61.7023 170.966ZM57.4896 185.578H66.1041V178.933H57.4896V185.578Z" fill="#6D6E71"/>
<path d="M28.0012 111.548C29.7378 111.548 31.483 111.488 33.2197 111.565C37.0712 111.745 39.9685 114.484 40.1662 118.33C40.321 121.361 40.3296 124.417 40.149 127.447C39.9255 131.191 37.1228 133.912 33.3572 134.058C29.712 134.204 26.0496 134.204 22.3958 134.049C18.6646 133.886 15.8877 131.053 15.7157 127.327C15.5782 124.383 15.5954 121.421 15.7157 118.467C15.8705 114.51 18.7849 111.719 22.7826 111.556C24.5193 111.488 26.2645 111.548 28.0012 111.548ZM32.2568 126.185V119.515H23.6338V126.185H32.2568Z" fill="#6D6E71"/>
<path d="M61.7967 111.539C63.4474 111.539 65.1066 111.496 66.7573 111.548C70.8152 111.685 73.6867 114.243 73.9876 118.313C74.2025 121.249 74.1939 124.228 74.0134 127.164C73.7468 131.354 70.9184 133.989 66.6885 134.11C63.3012 134.204 59.8967 134.213 56.5094 134.084C52.4429 133.929 49.7176 131.139 49.5715 127.095C49.4683 124.322 49.4769 121.532 49.5543 118.759C49.6832 114.467 52.5289 111.676 56.8361 111.548C58.4868 111.496 60.146 111.548 61.7967 111.548V111.539ZM66.0867 126.185V119.532H57.4981V126.185H66.0867Z" fill="#6D6E71"/>
<path d="M146.299 73.2834C143.453 73.1374 140.564 72.6395 137.762 72.9228C128.511 73.8586 122.252 78.8638 118.917 87.5176C118.702 88.0843 118.564 88.6852 118.315 89.2347C117.395 91.3209 115.435 92.291 113.449 91.6643C111.403 91.0204 110.302 88.8999 110.964 86.6248C113.277 78.7693 117.98 72.7511 125.132 68.7332C132.036 64.8527 139.387 64.0028 147.064 65.8142C149.506 66.3894 150.744 68.1923 150.391 70.3472C150.082 72.2961 148.397 73.601 146.29 73.2748L146.299 73.2834Z" fill="#6D6E71"/>
<path d="M140.427 80.5636C141.132 80.6666 142.189 80.7267 143.195 80.9929C145.422 81.5767 146.583 83.3366 146.264 85.4658C145.955 87.5176 144.253 88.7367 141.914 88.6766C140.539 88.6423 138.854 88.2045 137.848 88.8226C136.197 89.8528 134.693 91.4067 133.669 93.0723C132.277 95.3474 130.54 96.5149 128.451 95.7337C126.25 94.9181 125.416 92.7546 126.302 90.1275C128.262 84.3154 134.005 80.3318 140.427 80.5722V80.5636Z" fill="#6D6E71"/>
<path d="M143.376 104.843C141.046 104.894 138.063 101.408 138.089 98.6698C138.114 96.575 139.791 94.9009 141.914 94.8665C144.261 94.8236 147.236 98.2835 147.21 101.022C147.184 103.083 145.465 104.8 143.376 104.843Z" fill="#6D6E71"/>
</g>
</svg>
