<svg width="275" height="275" viewBox="0 0 275 275" fill="none" xmlns="http://www.w3.org/2000/svg">
<g opacity="0.1">
<path d="M136.424 0C140.28 1.30817 143.077 3.98476 145.771 6.90233C155.495 17.4193 165.289 27.8675 175.092 38.307C177.673 41.0525 178.999 44.2024 178.964 47.9892C178.904 54.5215 178.964 61.0623 178.939 67.5946C178.93 70.9683 177.278 72.9564 174.627 72.9133C172.011 72.8703 170.35 70.822 170.332 67.4913C170.307 62.1467 170.332 56.8022 170.332 51.1564C167.733 51.1564 165.427 51.1564 163.129 51.1564C157.578 51.1478 152.027 51.2597 146.485 51.0961C137.586 50.8293 130.624 43.7033 130.529 34.8042C130.434 26.2151 130.512 17.6259 130.512 8.58918H127.603C89.9168 8.58918 52.2306 8.58918 14.553 8.58918C9.96595 8.58918 8.61479 9.92317 8.61479 14.4673C8.61479 85.3582 8.61479 156.258 8.61479 227.148C8.61479 231.701 9.98316 233.087 14.5014 233.095C25.3365 233.104 36.163 233.078 46.9981 233.113C49.95 233.121 51.7315 234.868 51.6712 237.476C51.6196 239.955 49.8811 241.547 47.0669 241.667C46.4387 241.693 45.8104 241.667 45.1908 241.667C35.6122 241.667 26.025 241.383 16.4636 241.754C8.40824 242.072 2.80566 239.232 0.0258789 231.477V10.2072C1.72989 5.13802 5.1121 1.71267 10.2069 0H136.424ZM139.084 15.328C139.084 22.084 139.041 28.1171 139.101 34.1416C139.144 39.271 142.354 42.4811 147.492 42.55C152.311 42.6188 157.139 42.5758 161.967 42.55C162.518 42.55 163.069 42.3693 163.912 42.223C155.65 33.2637 147.621 24.5626 139.092 15.3194L139.084 15.328Z" fill="#6D6E71"/>
<path d="M211.616 0C212.571 1.81595 213.871 3.54583 214.422 5.47366C215.472 9.1572 216.212 12.944 216.866 16.7308C217.141 18.323 217.907 18.9082 219.327 19.416C222.262 20.4574 225.179 21.6365 227.968 23.0221C229.474 23.7709 230.524 23.6504 231.858 22.7381C235.317 20.3541 238.863 18.0906 242.4 15.8272C244.999 14.1575 246.677 14.2866 248.881 16.4382C252.211 19.6914 255.456 23.0221 258.743 26.3183C260.611 28.1859 260.705 30.2256 259.303 32.3858C256.97 35.9919 254.681 39.6238 252.246 43.1524C251.316 44.5036 251.247 45.545 251.979 47.0339C253.373 49.9171 254.371 52.9982 255.74 55.8985C256.153 56.7764 257.134 57.7317 258.029 57.964C262.186 59.014 266.403 59.8058 270.594 60.7095C273.881 61.4152 274.974 62.732 274.991 66.0713C275.017 70.5466 274.991 75.0219 274.991 79.4972C274.991 82.191 273.804 83.8693 271.076 84.4201C266.867 85.2635 262.693 86.2274 258.476 87.045C256.927 87.3463 256.153 88.0004 255.524 89.5753C253.846 93.7924 251.944 97.9407 249.844 101.96C248.476 104.585 245.903 105.196 243.751 103.896C241.565 102.571 241.299 100.29 242.538 97.5534C244.629 92.9404 246.643 88.2671 248.364 83.5078C249.199 81.1927 250.473 79.9534 252.822 79.4972C257.289 78.628 261.729 77.6555 266.273 76.7002V68.6015C261.781 67.629 257.28 66.5532 252.736 65.7098C250.171 65.2364 249.07 63.7303 248.226 61.4066C246.591 56.8969 244.784 52.4215 242.71 48.1011C241.617 45.829 241.419 43.9787 242.848 41.8701C245.404 38.1005 247.848 34.2534 250.404 30.3375C248.476 28.4269 246.591 26.5679 244.603 24.6057C240.774 27.1015 236.927 29.5371 233.166 32.0932C231.066 33.5219 229.233 33.4186 226.944 32.317C222.537 30.1998 217.985 28.3581 213.389 26.6884C211.143 25.8708 209.74 24.7692 209.275 22.3422C208.406 17.798 207.347 13.2883 206.358 8.70967H198.294C197.347 13.2194 196.418 17.6603 195.471 22.1012C194.765 25.4147 192.889 26.9208 190.152 26.3872C187.622 25.888 186.374 23.6504 187.011 20.5348C188.087 15.285 189.068 10.0006 190.419 4.81958C190.884 3.06388 192.347 1.59218 193.354 0C199.438 0 205.531 0 211.616 0Z" fill="#6D6E71"/>
<path d="M10.2069 0C5.11204 1.71267 1.72983 5.13802 0 10.2072V0H10.2069Z" fill="#6D6E71"/>
<path d="M116.974 117.529C116.974 110.747 116.966 104.404 116.974 98.0612C116.992 87.6044 122.99 81.6402 133.507 81.6402C156.244 81.6402 178.973 81.6402 201.71 81.6402C212.606 81.6402 218.552 87.6475 218.561 98.6378C218.561 104.809 218.561 110.971 218.561 117.529C219.68 117.529 220.635 117.529 221.582 117.529C232.856 117.529 244.138 117.503 255.412 117.529C266.996 117.563 274.974 125.533 274.983 137.126C275 176.508 275.009 215.891 274.983 255.283C274.983 266.97 266.927 274.983 255.197 274.991C197.02 275.009 138.834 275 80.6566 274.991C68.3498 274.991 60.4924 267.194 60.4752 254.895C60.4408 227.501 60.4666 200.116 60.4666 172.722C60.4666 161.086 60.7248 149.45 60.3977 137.831C60.0535 125.386 69.8301 116.961 80.9319 117.426C91.8359 117.882 102.766 117.529 113.687 117.529C114.651 117.529 115.623 117.529 116.974 117.529ZM266.394 178.66C263.287 179.701 260.499 180.967 257.573 181.552C243.82 184.332 230.024 186.931 216.246 189.59C207.58 191.26 198.913 192.912 190.075 194.608C190.075 197.198 190.23 199.617 190.032 202.001C189.808 204.66 189.61 207.397 188.801 209.91C185.531 220.057 175.048 226.477 164.644 224.928C153.886 223.327 145.839 214.428 145.469 203.627C145.366 200.615 145.452 197.594 145.452 194.556C144.153 194.281 143.197 194.057 142.233 193.876C123.885 190.382 105.52 186.948 87.1886 183.368C81.1385 182.189 75.1658 180.631 69.1071 179.228C69.1071 179.271 69.0469 179.71 69.0469 180.149C69.0469 205.305 69.0125 230.453 69.0641 255.61C69.0813 262.34 73.3155 266.394 80.0885 266.394C138.447 266.402 196.805 266.402 255.163 266.394C262.203 266.394 266.368 262.245 266.377 255.248C266.394 245.583 266.377 235.918 266.377 226.245C266.377 210.4 266.377 194.565 266.377 178.651L266.394 178.66ZM190.083 185.726C190.677 185.683 191.03 185.7 191.366 185.64C209.008 182.266 226.659 178.935 244.285 175.493C249.448 174.486 254.603 173.376 259.647 171.904C262.951 170.94 265.938 168.548 266.058 165.002C266.402 154.734 266.557 144.424 266.007 134.174C265.731 128.924 260.989 126.101 254.776 126.101C225.429 126.092 196.073 126.084 166.726 126.101C150.977 126.101 135.228 126.187 119.479 126.187C106.234 126.187 92.9891 126.084 79.7443 126.118C73.7114 126.135 69.2965 129.939 69.1674 135.611C68.9522 144.82 69.1674 154.037 69.1588 163.255C69.1588 166.886 71.0263 169.425 74.0126 171.018C76.1039 172.136 78.4362 172.988 80.7684 173.445C98.3077 176.87 115.873 180.175 133.438 183.505C137.336 184.246 141.252 184.925 145.099 185.623C145.28 185.089 145.383 184.925 145.383 184.753C145.4 180.64 145.4 176.517 145.426 172.403C145.469 166.456 148.61 163.246 154.497 163.229C163.267 163.194 172.036 163.203 180.806 163.229C186.839 163.246 190.049 166.482 190.075 172.524C190.092 176.896 190.075 181.268 190.075 185.734L190.083 185.726ZM209.972 117.236C209.972 110.652 209.981 104.395 209.972 98.1473C209.964 92.5187 207.648 90.238 201.943 90.238C179.136 90.238 156.339 90.238 133.533 90.238C132.732 90.238 131.915 90.2036 131.123 90.3068C128.438 90.6597 125.847 92.6736 125.778 95.2039C125.572 102.502 125.71 109.809 125.71 117.159H135.185V99.4038H200.394V117.236H209.989H209.972ZM181.46 171.981H154.058C154.058 182.421 153.981 192.688 154.084 202.947C154.161 210.443 160.005 216.322 167.251 216.485C174.747 216.649 181.159 211.149 181.374 203.636C181.675 193.188 181.451 182.731 181.451 171.981H181.46ZM191.624 107.976H143.843V117.391H191.624V107.976Z" fill="#6D6E71"/>
<path d="M238.157 72.922C237.064 77.3026 236.152 81.7435 234.81 86.0467C233.803 89.2741 231.384 90.436 228.906 89.4634C226.444 88.4995 225.713 86.0897 226.926 82.9312C232.813 67.6376 224.981 51.3716 209.585 47.0684C207.459 46.4745 205.196 46.3196 202.984 46.0872C199.774 45.7516 198.044 44.1766 198.147 41.5086C198.251 38.8579 200.084 37.4464 203.38 37.4808C222.176 37.6616 237.572 53.5748 237.503 72.7412C237.718 72.7929 237.942 72.8531 238.157 72.9047V72.922Z" fill="#6D6E71"/>
<path d="M79.443 57.9382C89.0991 57.9382 98.7552 57.9296 108.411 57.9382C111.802 57.9382 113.781 59.5476 113.747 62.1984C113.721 64.8061 111.664 66.4844 108.334 66.4844C89.0216 66.5016 69.7181 66.5102 50.406 66.4844C46.3869 66.4844 43.8653 63.1709 45.8275 60.2792C46.6537 59.0657 48.702 58.0673 50.208 58.0329C59.9502 57.8349 69.6923 57.9296 79.443 57.9296V57.9382Z" fill="#6D6E71"/>
<path d="M79.2969 46.9565C70.0884 46.9565 60.8884 46.9651 51.6799 46.9565C50.6127 46.9565 49.5111 46.9737 48.4784 46.7499C46.3613 46.2852 45.2597 44.7533 45.2425 42.6963C45.2339 40.6394 46.3182 39.0989 48.4354 38.6083C49.382 38.3931 50.3803 38.3759 51.3614 38.3759C70.1314 38.3673 88.9013 38.3673 107.671 38.3673C108.033 38.3673 108.386 38.3673 108.747 38.3673C111.862 38.4964 113.825 40.2263 113.747 42.7652C113.67 45.2352 111.811 46.9048 108.799 46.9221C98.9705 46.9737 89.1337 46.9393 79.3055 46.9479L79.2969 46.9565Z" fill="#6D6E71"/>
<path d="M65.3034 85.9348C60.2946 85.9348 55.2772 85.9607 50.2685 85.9348C47.1445 85.9176 45.1737 84.1963 45.1995 81.623C45.2253 79.0755 47.2133 77.3715 50.3459 77.3629C60.3721 77.3371 70.3896 77.3371 80.4157 77.3629C83.5914 77.3715 85.4503 79.0411 85.4245 81.7005C85.3987 84.3599 83.5656 85.9176 80.3383 85.9348C75.3295 85.9607 70.3121 85.9348 65.3034 85.9348Z" fill="#6D6E71"/>
<path d="M27.5223 86.2791C25.9904 85.8401 24.493 85.7197 23.3398 85.0225C21.1968 83.7316 20.9473 80.8484 22.5738 78.9206C24.4155 76.726 30.2074 76.6227 32.1955 78.7571C33.8737 80.5558 33.779 83.5767 31.7221 84.9021C30.5259 85.6766 28.9423 85.8488 27.5309 86.2877L27.5223 86.2791Z" fill="#6D6E71"/>
<path d="M27.7203 57.1034C29.5878 58.1878 31.5414 58.7989 32.6602 60.1156C34.0888 61.8025 33.5036 63.868 31.8426 65.3827C29.9923 67.061 24.8372 66.9921 23.0041 65.3483C21.3604 63.8766 20.8354 61.3119 22.4017 59.8402C23.6926 58.6267 25.6462 58.1276 27.7289 57.112L27.7203 57.1034Z" fill="#6D6E71"/>
<path d="M27.3676 46.9479C25.0697 47.0253 22.9871 46.7413 21.9371 44.3488C21.0593 42.3435 21.6187 40.6566 23.2194 39.3226C24.8976 37.9284 29.9494 37.9284 31.6534 39.3054C33.2972 40.6394 33.805 42.3693 32.9616 44.3315C31.8772 46.836 29.6482 47.0339 27.3676 46.9393V46.9479Z" fill="#6D6E71"/>
<path d="M167.802 206.45C165.453 206.493 163.482 204.634 163.413 202.319C163.353 200.012 165.255 198.059 167.604 198.007C170.005 197.956 171.881 199.746 171.924 202.13C171.976 204.522 170.169 206.407 167.794 206.459L167.802 206.45Z" fill="#6D6E71"/>
</g>
</svg>
