<svg width="120" height="120" viewBox="0 0 120 120" fill="none" xmlns="http://www.w3.org/2000/svg">
<g clip-path="url(#clip0_901_1866)">
<path d="M58.6123 120C58.0928 119.836 57.5869 119.685 57.0674 119.521C53.2529 118.261 50.6552 114.659 50.6415 110.647C50.6415 106.621 53.2255 103.02 57.04 101.746C60.8682 100.459 65.1202 101.746 67.4718 105.019C68.005 105.758 68.5246 105.977 69.3859 105.964C73.6379 105.923 77.89 105.964 82.142 105.95C85.2319 105.95 87.187 104.006 87.187 100.911C87.187 84.971 87.187 69.0449 87.187 53.1052C87.187 49.353 88.9507 47.5591 92.6969 47.5865C96.402 47.6139 100.134 47.4359 103.799 47.833C111.961 48.7231 118.564 55.3647 119.768 63.4578C119.809 63.718 119.918 63.9645 119.986 64.2247V84.3821C119.918 84.6012 119.809 84.8066 119.781 85.0257C119.344 87.9699 118.291 90.6813 116.527 93.0778C112.754 98.2404 107.64 100.883 101.242 101.007C99.697 101.034 98.152 101.007 96.6071 101.007C96.3883 109.647 89.5796 115.769 81.1303 115.344C77.1243 115.139 73.0911 115.303 69.0715 115.317C68.6886 115.317 68.1144 115.385 67.9504 115.645C66.3781 118.042 64.0948 119.302 61.4014 120H58.585H58.6123ZM96.5934 91.6262C98.2887 91.6262 99.8747 91.6536 101.461 91.6262C106.465 91.5167 110.539 87.4907 110.607 82.4924C110.676 77.0285 110.703 71.5646 110.607 66.087C110.539 62.4307 108.734 59.7056 105.521 57.9802C102.691 56.4465 99.6286 57.0353 96.6071 56.9806V91.6399L96.5934 91.6262Z" fill="white"/>
<path d="M18.8128 47.559C21.0824 47.559 23.1469 47.559 25.2113 47.559C26.2231 47.559 27.2485 47.5316 28.2602 47.559C30.8032 47.6412 32.7583 49.572 32.8404 52.1191C32.8814 53.4885 32.8404 54.8579 32.8404 56.2273C32.8404 69.3598 32.8404 82.4786 32.8404 95.6111C32.8404 99.1852 31.022 101.034 27.4399 101.006C23.6937 100.979 19.9202 101.171 16.2151 100.76C7.21886 99.7603 0.177731 91.8041 0.0683546 82.7661C-5.85895e-06 77.2201 -0.0273501 71.674 0.0683546 66.128C0.191404 59.5275 3.10356 54.3649 8.54506 50.6675C9.21499 50.2019 9.43374 49.75 9.46109 48.9832C10.131 24.9229 28.0688 4.46418 51.8172 0.657265C75.6887 -3.17704 98.6852 10.0513 107.312 32.5368C108.392 35.3577 107.34 38.0691 104.769 39.0414C102.322 39.9726 99.6969 38.8086 98.6852 36.193C97.0172 31.9068 94.8707 27.8671 91.8355 24.4163C80.679 11.722 66.7198 6.62782 50.286 10.6401C34.0709 14.5977 24.0082 25.3748 19.8109 41.5337C19.3187 43.4371 19.1546 45.4365 18.8128 47.559ZM23.4476 56.9394C21.7933 56.9394 20.2484 56.912 18.6898 56.9394C13.5627 57.0352 9.47476 61.0749 9.42007 66.1965C9.36538 71.5782 9.35171 76.9736 9.42007 82.369C9.47476 85.9705 11.1838 88.6956 14.3147 90.4895C17.1995 92.1328 20.3441 91.5576 23.434 91.6124V56.9531L23.4476 56.9394Z" fill="white"/>
</g>
<defs>
<clipPath id="clip0_901_1866">
<rect width="120" height="120" fill="white"/>
</clipPath>
</defs>
</svg>
