<svg xmlns="http://www.w3.org/2000/svg" xmlns:xlink="http://www.w3.org/1999/xlink" preserveAspectRatio="xMidYMid meet" width="48" height="48" viewBox="0 0 48 48" style="width:100%;height:100%"><defs><animate repeatCount="indefinite" dur="4.004004s" begin="0s" xlink:href="#_R_G_L_4_C_0_P_0" fill="freeze" attributeName="d" attributeType="XML" from="M-34.5 -43.26 C-34.5,-43.26 -34.5,0.7 -34.5,0.7 C-34.5,0.7 -0.16,0.7 -0.16,0.7 C-0.16,0.7 -0.16,-43.26 -0.16,-43.26 C-0.16,-43.26 -34.5,-43.26 -34.5,-43.26z " to="M3 1.74 C3,1.74 3,45.7 3,45.7 C3,45.7 37.34,45.7 37.34,45.7 C37.34,45.7 37.34,1.74 37.34,1.74 C37.34,1.74 3,1.74 3,1.74z " keyTimes="0;0.125;1" values="M-34.5 -43.26 C-34.5,-43.26 -34.5,0.7 -34.5,0.7 C-34.5,0.7 -0.16,0.7 -0.16,0.7 C-0.16,0.7 -0.16,-43.26 -0.16,-43.26 C-0.16,-43.26 -34.5,-43.26 -34.5,-43.26z ;M3 1.74 C3,1.74 3,45.7 3,45.7 C3,45.7 37.34,45.7 37.34,45.7 C37.34,45.7 37.34,1.74 37.34,1.74 C37.34,1.74 3,1.74 3,1.74z ;M3 1.74 C3,1.74 3,45.7 3,45.7 C3,45.7 37.34,45.7 37.34,45.7 C37.34,45.7 37.34,1.74 37.34,1.74 C37.34,1.74 3,1.74 3,1.74z " keySplines="0.167 0.167 0.667 1;0 0 0 0" calcMode="spline"/><clipPath id="_R_G_L_4_C_0"><path id="_R_G_L_4_C_0_P_0" fill-rule="nonzero"/></clipPath><clipPath id="_R_G_L_3_C_0"><path id="_R_G_L_3_C_0_P_0" fill-rule="nonzero" d="M9.87 31.96 C9.87,31.96 9.87,35.4 9.87,35.4 C9.87,35.4 20.69,35.4 20.69,35.4 C20.69,35.4 20.69,31.96 20.69,31.96 C20.69,31.96 9.87,31.96 9.87,31.96z "/></clipPath><animateMotion repeatCount="indefinite" dur="4.004004s" begin="0s" xlink:href="#_R_G_L_3_G_G_0_D_0_P_0_G_0_T_0" fill="freeze" keyTimes="0;0.0833333;1" path="M-4.72 33.68 C-1.39,33.68 11.95,33.68 15.28,33.68 C15.28,33.68 15.28,33.68 15.28,33.68 " keyPoints="0;1;1" keySplines="0.167 0.167 0.667 1;0 0 0 0" calcMode="spline"/><clipPath id="_R_G_L_2_C_0"><path id="_R_G_L_2_C_0_P_0" fill-rule="nonzero" d="M9.87 25.09 C9.87,25.09 9.87,28.53 9.87,28.53 C9.87,28.53 27.18,28.53 27.18,28.53 C27.18,28.53 27.18,25.09 27.18,25.09 C27.18,25.09 9.87,25.09 9.87,25.09z "/></clipPath><animateMotion repeatCount="indefinite" dur="4.004004s" begin="0s" xlink:href="#_R_G_L_2_G_G_0_D_0_P_0_G_0_T_0" fill="freeze" keyTimes="0;0.0416667;0.125;1" path="M-1.55 26.81 C-1.55,26.81 -1.55,26.81 -1.55,26.81 C1.78,26.81 15.11,26.81 18.45,26.81 C18.45,26.81 18.45,26.81 18.45,26.81 " keyPoints="0;0;1;1" keySplines="0.167 0.167 0.667 1;0.167 0.167 0.667 1;0 0 0 0" calcMode="spline"/><animate repeatCount="indefinite" dur="4.004004s" begin="0s" xlink:href="#_R_G_L_2_G_M" fill="freeze" attributeName="opacity" from="0" to="1" keyTimes="0;0.0416667;0.0416675;1" values="0;0;1;1" keySplines="0 0 0 0;0 0 0 0;0 0 0 0" calcMode="spline"/><clipPath id="_R_G_L_1_C_0"><path id="_R_G_L_1_C_0_P_0" fill-rule="nonzero" d="M9.87 18.22 C9.87,18.22 9.87,21.66 9.87,21.66 C9.87,21.66 30.48,21.66 30.48,21.66 C30.48,21.66 30.48,18.22 30.48,18.22 C30.48,18.22 9.87,18.22 9.87,18.22z "/></clipPath><animateMotion repeatCount="indefinite" dur="4.004004s" begin="0s" xlink:href="#_R_G_L_1_G_G_0_D_0_P_0_G_0_T_0" fill="freeze" keyTimes="0;0.0833333;0.1666667;1" path="M0.17 19.94 C0.17,19.94 0.17,19.94 0.17,19.94 C3.51,19.94 16.84,19.94 20.17,19.94 C20.17,19.94 20.17,19.94 20.17,19.94 " keyPoints="0;0;1;1" keySplines="0.167 0.167 0.667 1;0.167 0.167 0.667 1;0 0 0 0" calcMode="spline"/><animate repeatCount="indefinite" dur="4.004004s" begin="0s" xlink:href="#_R_G_L_1_G_M" fill="freeze" attributeName="opacity" from="0" to="1" keyTimes="0;0.0833333;0.0833342;1" values="0;0;1;1" keySplines="0 0 0 0;0 0 0 0;0 0 0 0" calcMode="spline"/><animate repeatCount="indefinite" dur="4.004004s" begin="0s" xlink:href="#_R_G_L_0_G" fill="freeze" attributeName="opacity" from="0" to="1" keyTimes="0;0.125;0.2083333;1" values="0;0;1;1" keySplines="0.167 0.167 0.667 1;0.167 0.167 0.667 1;0 0 0 0" calcMode="spline"/><animateMotion repeatCount="indefinite" dur="4.004004s" begin="0s" xlink:href="#_R_G_L_0_G" fill="freeze" keyTimes="0;0.125;0.2083333;1" path="M15 14 C15,14 15,14 15,14 C16.5,15.67 22.5,22.33 24,24 C24,24 24,24 24,24 " keyPoints="0;0;1;1" keySplines="0.167 0.167 0.667 1;0.167 0.167 0.667 1;0 0 0 0" calcMode="spline"/><animateTransform repeatCount="indefinite" dur="4.004004s" begin="0s" xlink:href="#_R_G_L_0_G" fill="freeze" attributeName="transform" from="1.34 1.34" to="1 1" type="scale" additive="sum" keyTimes="0;0.125;0.2083333;1" values="1.34 1.34;1.34 1.34;1 1;1 1" keySplines="0.167 0.167 0.667 1;0.167 0.167 0.667 1;0 0 0 0" calcMode="spline"/><animateTransform repeatCount="indefinite" dur="4.004004s" begin="0s" xlink:href="#_R_G_L_0_G" fill="freeze" attributeName="transform" from="-24 -24" to="-24 -24" type="translate" additive="sum" keyTimes="0;1" values="-24 -24;-24 -24" keySplines="0 0 1 1" calcMode="spline"/><animate repeatCount="indefinite" dur="4.004004s" begin="0s" xlink:href="#_R_G_L_0_G_M" fill="freeze" attributeName="opacity" from="0" to="1" keyTimes="0;0.125;0.1250008;1" values="0;0;1;1" keySplines="0 0 0 0;0 0 0 0;0 0 0 0" calcMode="spline"/><animate attributeType="XML" attributeName="opacity" dur="4s" from="0" to="1" xlink:href="#time_group"/></defs><g id="_R_G"><g id="_R_G_L_4_G"><g clip-path="url(#_R_G_L_4_C_0)"><path id="_R_G_L_4_G_G_0_D_0_P_0" fill="#6d6e71" fill-opacity="1" fill-rule="nonzero" d=" M7.47 45.7 C6.61,45.47 5.77,45.22 5.06,44.66 C3.75,43.63 3.01,42.3 3.01,40.64 C3,29.36 3,18.09 3.01,6.81 C3.01,4.05 5.31,1.75 8.08,1.75 C13.8,1.73 19.52,1.74 25.24,1.74 C25.79,1.74 26.24,1.94 26.62,2.32 C30.01,5.71 33.4,9.1 36.79,12.49 C37.16,12.86 37.35,13.31 37.34,13.84 C37.34,14.75 37.35,15.67 37.34,16.59 C37.33,17.59 36.59,18.36 35.63,18.36 C34.68,18.37 33.92,17.6 33.91,16.6 C33.9,16.25 33.91,15.89 33.91,15.48 C33.91,15.48 33.43,15.48 33.43,15.48 C31.91,15.48 30.4,15.48 28.88,15.48 C25.87,15.47 23.61,13.22 23.61,10.22 C23.6,8.56 23.61,6.9 23.61,5.18 C23.61,5.18 23.14,5.18 23.14,5.18 C18.22,5.18 13.3,5.17 8.38,5.18 C7.12,5.18 6.44,5.86 6.44,7.11 C6.44,18.18 6.44,29.25 6.44,40.33 C6.44,41.58 7.12,42.27 8.37,42.27 C10.8,42.27 13.23,42.27 15.66,42.27 C16.7,42.27 17.38,42.8 17.55,43.72 C17.7,44.56 17.23,45.28 16.29,45.65 C16.26,45.66 16.24,45.68 16.22,45.7 C16.22,45.7 7.47,45.7 7.47,45.7z  M27.04 7.67 C27.04,8.54 27.04,9.35 27.04,10.16 C27.04,10.28 27.04,10.39 27.05,10.5 C27.14,11.36 27.85,12.02 28.72,12.04 C29.54,12.06 30.35,12.04 31.16,12.04 C31.24,12.04 31.31,12.01 31.37,12 C29.93,10.57 28.51,9.14 27.04,7.67z "/></g></g><g id="_R_G_L_3_G"><g clip-path="url(#_R_G_L_3_C_0)"><g id="_R_G_L_3_G_G_0_D_0_P_0_G_0_T_0"><path id="_R_G_L_3_G_G_0_D_0_P_0" fill="#6d6e71" fill-opacity="1" fill-rule="nonzero" d=" M0 1.72 C-1.18,1.72 -2.37,1.72 -3.56,1.72 C-4.64,1.71 -5.4,1 -5.41,0 C-5.41,-0.99 -4.64,-1.71 -3.56,-1.72 C-1.19,-1.72 1.18,-1.72 3.55,-1.72 C4.63,-1.71 5.4,-1 5.41,0 C5.41,0.99 4.64,1.71 3.56,1.72 C2.37,1.72 1.19,1.72 0,1.72z "/></g></g></g><g id="_R_G_L_2_G_M"><g id="_R_G_L_2_G"><g clip-path="url(#_R_G_L_2_C_0)"><g id="_R_G_L_2_G_G_0_D_0_P_0_G_0_T_0"><path id="_R_G_L_2_G_G_0_D_0_P_0" fill="#6d6e71" fill-opacity="1" fill-rule="nonzero" d=" M0.05 1.72 C-2.24,1.72 -4.53,1.72 -6.82,1.71 C-8.05,1.71 -8.87,0.57 -8.48,-0.56 C-8.24,-1.27 -7.6,-1.71 -6.8,-1.72 C-4.59,-1.72 -2.37,-1.72 -0.15,-1.72 C2.22,-1.72 4.6,-1.72 6.97,-1.72 C7.75,-1.71 8.37,-1.28 8.63,-0.58 C8.87,0.08 8.68,0.82 8.14,1.29 C7.78,1.61 7.35,1.72 6.87,1.72 C4.6,1.71 2.32,1.72 0.05,1.72z "/></g></g></g></g><g id="_R_G_L_1_G_M"><g id="_R_G_L_1_G"><g clip-path="url(#_R_G_L_1_C_0)"><g id="_R_G_L_1_G_G_0_D_0_P_0_G_0_T_0"><path id="_R_G_L_1_G_G_0_D_0_P_0" fill="#6d6e71" fill-opacity="1" fill-rule="nonzero" d=" M-0.02 1.72 C-2.85,1.72 -5.68,1.72 -8.51,1.72 C-9.77,1.71 -10.6,0.58 -10.2,-0.56 C-9.96,-1.27 -9.32,-1.71 -8.52,-1.72 C-6.95,-1.72 -5.37,-1.72 -3.8,-1.72 C0.3,-1.72 4.41,-1.72 8.51,-1.71 C9.77,-1.71 10.6,-0.58 10.21,0.56 C9.96,1.28 9.31,1.71 8.48,1.72 C5.65,1.72 2.82,1.72 -0.02,1.72z "/></g></g></g></g><g id="_R_G_L_0_G_M"><g id="_R_G_L_0_G"><path id="_R_G_L_0_G_D_0_P_0" fill="#ff4c00" fill-opacity="1" fill-rule="nonzero" d=" M22.49 45.7 C21.76,45.42 21.22,44.97 21.16,44.14 C21.14,43.81 21.22,43.46 21.29,43.13 C21.52,41.91 21.76,40.69 22.02,39.47 C22.37,37.81 23.18,36.38 24.38,35.18 C29.28,30.28 34.19,25.37 39.09,20.47 C39.88,19.68 40.88,19.68 41.67,20.46 C43.25,22.02 44.82,23.59 46.37,25.17 C46.61,25.41 46.76,25.75 46.96,26.04 C46.96,26.04 46.96,26.81 46.96,26.81 C46.73,27.16 46.54,27.57 46.25,27.86 C41.44,32.69 36.62,37.51 31.8,42.32 C31.37,42.75 30.91,43.13 30.43,43.49 C29.13,44.45 27.61,44.82 26.05,45.1 C25.12,45.28 24.19,45.5 23.26,45.7 C23.26,45.7 22.49,45.7 22.49,45.7z  M40.29 24.04 C40.23,24.12 40.17,24.24 40.08,24.33 C35.76,28.66 31.45,33.01 27.08,37.31 C25.82,38.55 25.28,40.03 25.09,41.75 C26.69,41.56 28.15,41.15 29.33,39.96 C33.7,35.55 38.1,31.17 42.49,26.78 C42.59,26.68 42.68,26.57 42.75,26.5 C41.94,25.69 41.16,24.91 40.29,24.04z "/></g></g></g><g id="time_group"/></svg>