<svg xmlns="http://www.w3.org/2000/svg" xmlns:xlink="http://www.w3.org/1999/xlink" preserveAspectRatio="xMidYMid meet" width="40" height="40" viewBox="0 0 96 96" style="width:100%;height:100%"><defs><animate repeatCount="indefinite" dur="4.004004s" begin="0s" xlink:href="#_R_G_L_0_C_0_P_0" fill="freeze" attributeName="d" attributeType="XML" from="M0 100 C0,100 0,196 0,196 C0,196 95.57,196 95.57,196 C95.57,196 95.57,100 95.57,100 C95.57,100 0,100 0,100z " to="M0 0 C0,0 0,96 0,96 C0,96 95.57,96 95.57,96 C95.57,96 95.57,0 95.57,0 C95.57,0 0,0 0,0z " keyTimes="0;0.125;1" values="M0 100 C0,100 0,196 0,196 C0,196 95.57,196 95.57,196 C95.57,196 95.57,100 95.57,100 C95.57,100 0,100 0,100z ;M0 0 C0,0 0,96 0,96 C0,96 95.57,96 95.57,96 C95.57,96 95.57,0 95.57,0 C95.57,0 0,0 0,0z ;M0 0 C0,0 0,96 0,96 C0,96 95.57,96 95.57,96 C95.57,96 95.57,0 95.57,0 C95.57,0 0,0 0,0z " keySplines="0.167 0.167 0.667 1;0 0 0 0" calcMode="spline"/><clipPath id="_R_G_L_0_C_0"><path id="_R_G_L_0_C_0_P_0" fill-rule="nonzero"/></clipPath><animate attributeType="XML" attributeName="opacity" dur="4s" from="0" to="1" xlink:href="#time_group"/></defs><g id="_R_G"><g id="_R_G_L_0_G"><g clip-path="url(#_R_G_L_0_C_0)"><path id="_R_G_L_0_G_G_0_D_0_P_0" fill="#f95c04" fill-opacity="1" fill-rule="nonzero" d=" M20.18 0 C21.92,0.49 23.63,1.05 25.03,2.23 C25.23,2.41 25.46,2.58 25.66,2.79 C29.99,7.11 34.32,11.41 38.61,15.76 C41.78,18.96 42.3,23.4 40.06,27.09 C39.08,28.71 37.68,29.87 35.88,30.54 C33.21,31.5 31.15,33.1 29.99,35.77 C29.26,37.48 29.12,39.22 29.61,41.05 C30.92,45.96 33.62,50.08 36.9,53.85 C40.73,58.24 45.09,61.95 50.34,64.54 C52.61,65.64 54.96,66.6 57.57,66.19 C60.68,65.7 63.06,64.16 64.51,61.29 C65.21,59.89 65.79,58.38 66.77,57.25 C69.88,53.68 75.31,53.39 79,56.38 C79.4,56.73 79.78,57.08 80.16,57.45 C84.31,61.63 88.43,65.84 92.67,69.97 C96.73,73.91 96.36,80.13 92.61,83.87 C89.88,86.6 87.12,89.33 84.42,92.09 C81.9,94.7 78.73,95.83 75.22,95.98 C70.29,96.18 65.61,94.88 61.08,93.1 C56.32,91.25 51.82,88.81 47.55,86.02 C35.27,78.01 24.76,68.05 15.76,56.5 C10.63,49.88 6.21,42.79 3.11,34.98 C1.77,31.65 0.81,28.22 0.29,24.65 C0.17,23.78 0.09,22.96 0,22.12 C0,22.12 0,20.61 0,20.61 C0.06,20.18 0.15,19.77 0.2,19.34 C0.49,16.17 1.6,13.36 3.89,11.09 C6.18,8.86 8.48,6.59 10.68,4.27 C12.57,2.29 14.57,0.52 17.39,0 C17.39,0 20.21,0 20.21,0 C20.21,0 20.18,0 20.18,0z "/></g></g></g><g id="time_group"/></svg>