<svg xmlns="http://www.w3.org/2000/svg" xmlns:xlink="http://www.w3.org/1999/xlink" preserveAspectRatio="xMidYMid meet" width="40" height="40" viewBox="0 0 96 96" style="width:100%;height:100%"><defs><animate repeatCount="indefinite" dur="4.004004s" begin="0s" xlink:href="#_R_G_L_1_C_0_P_0" fill="freeze" attributeName="d" attributeType="XML" from="M0 102.5 C0,102.5 0,198.5 0,198.5 C0,198.5 95.24,198.5 95.24,198.5 C95.24,198.5 95.24,102.5 95.24,102.5 C95.24,102.5 0,102.5 0,102.5z " to="M0 0 C0,0 0,96 0,96 C0,96 95.24,96 95.24,96 C95.24,96 95.24,0 95.24,0 C95.24,0 0,0 0,0z " keyTimes="0;0.125;1" values="M0 102.5 C0,102.5 0,198.5 0,198.5 C0,198.5 95.24,198.5 95.24,198.5 C95.24,198.5 95.24,102.5 95.24,102.5 C95.24,102.5 0,102.5 0,102.5z ;M0 0 C0,0 0,96 0,96 C0,96 95.24,96 95.24,96 C95.24,96 95.24,0 95.24,0 C95.24,0 0,0 0,0z ;M0 0 C0,0 0,96 0,96 C0,96 95.24,96 95.24,96 C95.24,96 95.24,0 95.24,0 C95.24,0 0,0 0,0z " keySplines="0.167 0.167 0.667 1;0 0 0 0" calcMode="spline"/><clipPath id="_R_G_L_1_C_0"><path id="_R_G_L_1_C_0_P_0" fill-rule="nonzero"/></clipPath><animate repeatCount="indefinite" dur="4.004004s" begin="0s" xlink:href="#_R_G_L_0_C_0_P_0" fill="freeze" attributeName="d" attributeType="XML" from="M23.62 -24.39 C23.62,-24.39 23.62,20.44 23.62,20.44 C23.62,20.44 71.88,20.44 71.88,20.44 C71.88,20.44 71.88,-24.39 71.88,-24.39 C71.88,-24.39 23.62,-24.39 23.62,-24.39z " to="M23.62 25.61 C23.62,25.61 23.62,70.44 23.62,70.44 C23.62,70.44 71.88,70.44 71.88,70.44 C71.88,70.44 71.88,25.61 71.88,25.61 C71.88,25.61 23.62,25.61 23.62,25.61z " keyTimes="0;0.0833333;0.2083333;1" values="M23.62 -24.39 C23.62,-24.39 23.62,20.44 23.62,20.44 C23.62,20.44 71.88,20.44 71.88,20.44 C71.88,20.44 71.88,-24.39 71.88,-24.39 C71.88,-24.39 23.62,-24.39 23.62,-24.39z ;M23.62 -24.39 C23.62,-24.39 23.62,20.44 23.62,20.44 C23.62,20.44 71.88,20.44 71.88,20.44 C71.88,20.44 71.88,-24.39 71.88,-24.39 C71.88,-24.39 23.62,-24.39 23.62,-24.39z ;M23.62 25.61 C23.62,25.61 23.62,70.44 23.62,70.44 C23.62,70.44 71.88,70.44 71.88,70.44 C71.88,70.44 71.88,25.61 71.88,25.61 C71.88,25.61 23.62,25.61 23.62,25.61z ;M23.62 25.61 C23.62,25.61 23.62,70.44 23.62,70.44 C23.62,70.44 71.88,70.44 71.88,70.44 C71.88,70.44 71.88,25.61 71.88,25.61 C71.88,25.61 23.62,25.61 23.62,25.61z " keySplines="0.167 0.167 0.667 1;0.167 0.167 0.667 1;0 0 0 0" calcMode="spline"/><clipPath id="_R_G_L_0_C_0"><path id="_R_G_L_0_C_0_P_0" fill-rule="nonzero"/></clipPath><animate repeatCount="indefinite" dur="4.004004s" begin="0s" xlink:href="#_R_G_L_0_G_M" fill="freeze" attributeName="opacity" from="0" to="1" keyTimes="0;0.0833333;0.0833342;1" values="0;0;1;1" keySplines="0 0 0 0;0 0 0 0;0 0 0 0" calcMode="spline"/><animate attributeType="XML" attributeName="opacity" dur="4s" from="0" to="1" xlink:href="#time_group"/></defs><g id="_R_G"><g id="_R_G_L_1_G"><g clip-path="url(#_R_G_L_1_C_0)"><path id="_R_G_L_1_G_G_0_D_0_P_0" fill="#f95c04" fill-opacity="1" fill-rule="nonzero" d=" M0 96 C0.75,93.23 1.48,90.59 2.18,87.97 C3.61,82.69 5.06,77.41 6.47,72.11 C6.57,71.65 6.52,71.06 6.28,70.63 C1.75,62.3 -0.3,53.36 0.56,43.9 C2.05,27.66 9.86,15.16 23.76,6.65 C32.16,1.5 41.4,-0.62 51.18,0.16 C66.67,1.4 78.82,8.64 87.49,21.57 C93.53,30.6 95.9,40.67 95.09,51.45 C93.58,71.94 78.28,89.59 58.21,94.01 C46.9,96.51 36.1,95.03 25.78,89.75 C25.4,89.56 24.89,89.51 24.49,89.62 C16.7,91.64 8.92,93.68 1.16,95.73 C0.84,95.81 0.51,95.87 0,96z  M11.45 84.63 C11.91,84.53 12.26,84.44 12.58,84.36 C16.78,83.26 20.98,82.18 25.16,81.05 C25.99,80.81 26.64,80.94 27.4,81.4 C36.53,86.84 46.31,88.43 56.68,86.09 C78.85,81.08 92.26,57.64 85.42,35.93 C79.19,16.13 59.5,4.66 39.25,9.07 C22.55,12.71 9.32,27.39 8.49,45.9 C8.13,53.55 9.83,60.79 13.82,67.37 C15.09,69.44 15.3,71.16 14.57,73.43 C13.39,77.06 12.5,80.81 11.48,84.63 C11.48,84.63 11.45,84.63 11.45,84.63z "/></g></g><g id="_R_G_L_0_G_M"><g id="_R_G_L_0_G"><g clip-path="url(#_R_G_L_0_C_0)"><path id="_R_G_L_0_G_G_0_D_0_P_0" fill="#f95c04" fill-opacity="1" fill-rule="nonzero" d=" M23.62 36.93 C23.68,32.91 25.24,29.63 28.1,26.88 C28.98,26.02 30.01,25.58 31.25,25.61 C31.92,25.61 32.57,25.72 33.24,25.64 C34.53,25.53 35.31,26.12 35.8,27.26 C37.15,30.46 38.52,33.67 39.79,36.93 C40,37.46 39.87,38.35 39.54,38.89 C38.68,40.27 37.68,41.56 36.66,42.83 C35.99,43.66 35.88,44.39 36.45,45.36 C40.3,51.82 45.66,56.56 52.69,59.34 C53.77,59.77 54.39,59.63 55.14,58.69 C56.33,57.26 57.48,55.81 58.64,54.33 C59.45,53.3 59.94,53.04 61.12,53.57 C64.49,55.11 67.83,56.75 71.14,58.4 C71.52,58.58 71.84,59.23 71.87,59.66 C72,63.24 70.9,66.21 67.69,68.25 C63.79,70.76 59.72,70.92 55.38,69.71 C44.18,66.56 35.88,59.5 29.23,50.23 C27.04,47.19 25.05,44.06 24.19,40.35 C23.92,39.22 23.84,38.06 23.65,36.9 C23.65,36.9 23.62,36.93 23.62,36.93z "/></g></g></g></g><g id="time_group"/></svg>