<svg xmlns="http://www.w3.org/2000/svg" xmlns:xlink="http://www.w3.org/1999/xlink" preserveAspectRatio="xMidYMid meet" width="40" height="40" viewBox="0 0 97 96" style="width:100%;height:100%"><defs><animate repeatCount="indefinite" dur="4.004004s" begin="0s" xlink:href="#_R_G_L_1_C_0_P_0" fill="freeze" attributeName="d" attributeType="XML" from="M0.5 84 C0.5,84 0.5,151.7 0.5,151.7 C0.5,151.7 96.5,151.7 96.5,151.7 C96.5,151.7 96.5,84 96.5,84 C96.5,84 0.5,84 0.5,84z " to="M0.5 14 C0.5,14 0.5,81.7 0.5,81.7 C0.5,81.7 96.5,81.7 96.5,81.7 C96.5,81.7 96.5,14 96.5,14 C96.5,14 0.5,14 0.5,14z " keyTimes="0;0.125;1" values="M0.5 84 C0.5,84 0.5,151.7 0.5,151.7 C0.5,151.7 96.5,151.7 96.5,151.7 C96.5,151.7 96.5,84 96.5,84 C96.5,84 0.5,84 0.5,84z ;M0.5 14 C0.5,14 0.5,81.7 0.5,81.7 C0.5,81.7 96.5,81.7 96.5,81.7 C96.5,81.7 96.5,14 96.5,14 C96.5,14 0.5,14 0.5,14z ;M0.5 14 C0.5,14 0.5,81.7 0.5,81.7 C0.5,81.7 96.5,81.7 96.5,81.7 C96.5,81.7 96.5,14 96.5,14 C96.5,14 0.5,14 0.5,14z " keySplines="0.167 0.167 0.667 1;0 0 0 0" calcMode="spline"/><clipPath id="_R_G_L_1_C_0"><path id="_R_G_L_1_C_0_P_0" fill-rule="nonzero"/></clipPath><animate repeatCount="indefinite" dur="4.004004s" begin="0s" xlink:href="#_R_G_L_0_C_0_P_0" fill="freeze" attributeName="d" attributeType="XML" from="M6.21 -37.82 C6.21,-37.82 6.21,18.5 6.21,18.5 C6.21,18.5 90.84,18.5 90.84,18.5 C90.84,18.5 90.84,-37.82 90.84,-37.82 C90.84,-37.82 6.21,-37.82 6.21,-37.82z " to="M6.21 19.68 C6.21,19.68 6.21,76 6.21,76 C6.21,76 90.84,76 90.84,76 C90.84,76 90.84,19.68 90.84,19.68 C90.84,19.68 6.21,19.68 6.21,19.68z " keyTimes="0;0.0833333;0.2083333;1" values="M6.21 -37.82 C6.21,-37.82 6.21,18.5 6.21,18.5 C6.21,18.5 90.84,18.5 90.84,18.5 C90.84,18.5 90.84,-37.82 90.84,-37.82 C90.84,-37.82 6.21,-37.82 6.21,-37.82z ;M6.21 -37.82 C6.21,-37.82 6.21,18.5 6.21,18.5 C6.21,18.5 90.84,18.5 90.84,18.5 C90.84,18.5 90.84,-37.82 90.84,-37.82 C90.84,-37.82 6.21,-37.82 6.21,-37.82z ;M6.21 19.68 C6.21,19.68 6.21,76 6.21,76 C6.21,76 90.84,76 90.84,76 C90.84,76 90.84,19.68 90.84,19.68 C90.84,19.68 6.21,19.68 6.21,19.68z ;M6.21 19.68 C6.21,19.68 6.21,76 6.21,76 C6.21,76 90.84,76 90.84,76 C90.84,76 90.84,19.68 90.84,19.68 C90.84,19.68 6.21,19.68 6.21,19.68z " keySplines="0.167 0.167 0.667 1;0.167 0.167 0.667 1;0 0 0 0" calcMode="spline"/><clipPath id="_R_G_L_0_C_0"><path id="_R_G_L_0_C_0_P_0" fill-rule="nonzero"/></clipPath><animate repeatCount="indefinite" dur="4.004004s" begin="0s" xlink:href="#_R_G_L_0_G_M" fill="freeze" attributeName="opacity" from="0" to="1" keyTimes="0;0.0833333;0.0833342;1" values="0;0;1;1" keySplines="0 0 0 0;0 0 0 0;0 0 0 0" calcMode="spline"/><animate attributeType="XML" attributeName="opacity" dur="4s" from="0" to="1" xlink:href="#time_group"/></defs><g id="_R_G"><g id="_R_G_L_1_G"><g clip-path="url(#_R_G_L_1_C_0)"><path id="_R_G_L_1_G_G_0_D_0_P_0" fill="#f95c04" fill-opacity="1" fill-rule="nonzero" d=" M96.36 20.95 C95.57,16.76 91.82,13.95 87.51,14 C79.52,14.1 71.51,14.03 63.52,14.03 C63.52,14.03 9.16,14.03 9.16,14.03 C4.3,14.05 0.52,17.64 0.5,22.4 C0.5,39.37 0.5,56.35 0.55,73.33 C0.55,74.52 0.88,75.83 1.4,76.92 C2.97,80.16 5.68,81.7 9.25,81.7 C9.25,81.7 87.77,81.7 87.77,81.7 C87.77,81.7 88.44,81.7 88.44,81.7 C90.86,81.54 92.86,80.56 94.48,78.73 C95.57,77.47 96.1,75.95 96.5,74.38 C96.5,74.38 96.5,21.18 96.5,21.18 C96.45,21.09 96.36,21.02 96.36,20.95z  M90.84 23.7 C90.84,23.7 90.84,72 90.84,72 C90.84,72 90.84,76 90.84,76 C90.84,76 86.11,76 86.11,76 C86.11,76 10.73,76 10.73,76 C10.73,76 10.7,76 10.7,76 C10.7,76 6.21,76 6.21,76 C6.21,76 6.21,71.86 6.21,71.86 C6.21,71.86 6.21,23.89 6.21,23.89 C6.21,23.89 6.21,19.68 6.21,19.68 C6.21,19.68 10.25,19.68 10.25,19.68 C10.25,19.68 86.75,19.68 86.75,19.68 C86.75,19.68 90.84,19.68 90.84,19.68 C90.84,19.68 90.84,23.7 90.84,23.7z "/></g></g><g id="_R_G_L_0_G_M"><g id="_R_G_L_0_G"><g clip-path="url(#_R_G_L_0_C_0)"><path id="_R_G_L_0_G_G_0_D_0_P_0" fill="#f95c04" fill-opacity="1" fill-rule="nonzero" d=" M90.84 72 C82.71,63.92 74.69,55.95 66.87,48.15 C74.86,40.02 82.78,31.93 90.84,23.7 C90.84,23.7 90.84,19.68 90.84,19.68 C90.84,19.68 86.75,19.68 86.75,19.68 C86.49,19.99 86.32,20.18 86.13,20.37 C75.67,30.81 65.23,41.25 54.77,51.67 C51.7,54.74 47.82,55.31 44.19,53.21 C43.5,52.81 42.85,52.26 42.28,51.69 C31.8,41.25 21.33,30.81 10.84,20.35 C10.68,20.18 10.51,19.99 10.25,19.71 C10.25,19.71 10.25,19.68 10.25,19.68 C10.25,19.68 6.21,19.68 6.21,19.68 C6.21,19.68 6.21,23.89 6.21,23.89 C14.15,32 22.07,40.09 29.87,48.03 C22.21,55.85 14.32,63.94 6.42,72 C6.42,72 6.21,71.86 6.21,71.86 C6.21,71.86 6.21,76 6.21,76 C6.21,76 10.7,76 10.7,76 C10.7,76 10.73,76 10.73,76 C18.48,68.08 26.37,59.99 34.39,51.79 C35.74,53.19 37,54.45 38.24,55.71 C39.86,57.35 41.66,58.64 43.85,59.35 C48.99,61.02 53.72,60.18 57.81,56.59 C59.45,55.14 60.83,53.4 62.4,51.72 C70.53,60.04 78.43,68.13 86.11,76 C86.11,76 90.84,76 90.84,76 C90.84,76 90.84,72 90.84,72z "/></g></g></g></g><g id="time_group"/></svg>