<?xml version="1.0" encoding="UTF-8"?>
<svg id="Capa_1" data-name="Capa 1" width="250px" height="auto" xmlns="http://www.w3.org/2000/svg" xmlns:xlink="http://www.w3.org/1999/xlink" viewBox="0 0 218.87 218.87">
  <defs>
    <style>
      .cls-1 {
        fill: #ff7f00;
      }

      .cls-1,
      .cls-2,
      .cls-3 {
        fill-rule: evenodd;
      }

      .cls-2 {
        fill: #00ac54;
      }

      .cls-3 {
        fill: #003e7c;
      }

      .cls-4 {
        fill: url(#Degradado_sin_nombre_8);
      }

      .cls-5 {
        fill: url(#Degradado_sin_nombre_9);
      }
    </style>
    <linearGradient id="Degradado_sin_nombre_9" data-name="Degradado sin nombre 9" x1="-475.71" y1="-153.17" x2="-256.89" y2="-153.17" gradientTransform="translate(500.05 180.55) rotate(-12.37)" gradientUnits="userSpaceOnUse">
      <stop offset="0" stop-color="#ff7f00" />
      <stop offset="1" stop-color="#003e7c" />
    </linearGradient>
    <radialGradient id="Degradado_sin_nombre_8" data-name="Degradado sin nombre 8" cx="-366.3" cy="-153.17" fx="-366.3" fy="-153.17" r="98.85" gradientTransform="translate(500.05 180.55) rotate(-12.37)" gradientUnits="userSpaceOnUse">
      <stop offset="0" stop-color="#fff" />
      <stop offset="1" stop-color="#ededed" />
    </radialGradient>
  </defs>
  <circle class="cls-5" cx="109.43" cy="109.43" r="109.41" />
  <g>
    <circle class="cls-4" cx="109.43" cy="109.43" r="98.85" />
    <g>
      <path class="cls-1"
        d="m73.15,142.24h1.3s1.98-.23,3.12-1.49c.74-.82,1.1-2.43.75-3.48-.19-.57-.8-1-1.14-1.02h-3.67s-1.46,5.96-1.46,5.96l1.09.04Zm-4.26,12.33h2.26c2.56.01,3.16-.31,4.24-1.08,1.09-.78,1.66-3.46-.06-4.68-.09-.07-.45-.17-.68-.21,0,0-4.01,0-4.01,0l-1.79,5.98h.04Zm-12.95,7.25l8.65-33.21h21.2c.65,0,1.58.07,2.83.84,1.25.77,3.72,3.01,2.78,7.33-1.22,5.61-5.41,7.22-5.41,7.22,0,0,4.83,2.83,3.61,9.21-1.22,6.38-8.6,8.14-10.57,8.38-3.16.39-23.09.23-23.09.23Z" />
      <polygon class="cls-3" points="118.25 128.61 114.43 146.78 111.46 128.61 95.66 128.61 88.77 161.79 99.35 161.79 103.44 142.42 106.59 161.79 121.94 161.79 128.83 128.61 118.25 128.61" />
      <path class="cls-2"
        d="m147.38,141.04s14.2,0,14.2,0c-.15-2-.64-3.96-1.54-5.77-4.04-8.05-14.54-10.15-23.45-4.68-8.92,5.47-12.87,16.43-8.84,24.48,4.04,8.05,14.54,10.15,23.45,4.68,4.02-2.46,7.04-6.06,8.77-9.98h-14.41c-1.3,2.96-3.05,4.86-4.53,4.62-2.05-.33-2.77-4.67-1.61-9.69,1.16-5.02,3.76-8.82,5.81-8.49,1.34.22,2.09,2.13,2.15,4.84Z" />
      <path class="cls-3"
        d="m62.17,73.79c4.53-5.31,11.3-9.76,19.51-12.87l-10.61,46.72-8.9-33.85Zm21.31-13.52c7.69-2.66,16.54-4.18,25.96-4.18,1.77,0,3.52.06,5.25.16l-38.22,51.99,7.01-47.97Zm31.87-3.98c26.78,1.83,47.61,15.99,47.61,33.17,0,18.43-23.96,33.37-53.52,33.37-6.75,0-13.2-.78-19.15-2.2l62.89-14.59-67.92,9.99,55.34-39.76-58.94,35.57,33.7-55.54Zm-59.44,33.17c0-4.71,1.57-9.19,4.39-13.25l4.85,32c-5.83-5.34-9.24-11.8-9.24-18.75Z" />
    </g>
  </g>
</svg>