<svg width="24" height="24" viewBox="0 0 24 24" fill="none" xmlns="http://www.w3.org/2000/svg">
  <path
    d="M1.2649 24C1.04995 23.9008 0.810196 23.8347 0.611781 23.6942C0.206683 23.4132 0 23.0082 0 22.5123C0 19.8839 0 17.2473 0 14.619C0 13.8008 0.669651 13.1561 1.48812 13.1478C2.31485 13.1478 2.9845 13.7925 2.99277 14.619C3.00103 15.9332 2.99277 17.2474 2.99277 18.5533C2.99277 18.6359 2.99277 18.7185 2.99277 18.8508C3.09197 18.7599 3.15811 18.702 3.22425 18.6359C4.98519 16.8754 6.74612 15.1149 8.50706 13.3462C8.93696 12.9164 9.44127 12.7345 10.0448 12.8998C11.0699 13.1809 11.475 14.4124 10.8302 15.2554C10.7558 15.3546 10.6648 15.4455 10.5822 15.5282C8.83775 17.2721 7.09335 19.0161 5.34895 20.7683C5.29108 20.8262 5.23321 20.8923 5.134 20.9915C5.25801 20.9915 5.34068 20.9915 5.42336 20.9915C6.74612 20.9915 8.06063 20.9915 9.3834 20.9915C10.0613 20.9915 10.6235 21.4543 10.7971 22.1155C10.9625 22.752 10.6896 23.438 10.1192 23.7686C9.96211 23.8595 9.78023 23.9173 9.60661 23.9835H1.2649V24Z"
    fill="#F95C04" />
  <path
    d="M24 9.61033C23.9752 9.68472 23.9421 9.75082 23.9173 9.82521C23.6776 10.536 22.9914 10.941 22.2391 10.8253C21.5529 10.7179 21.0072 10.098 20.999 9.38715C20.9907 8.07299 20.999 6.76711 20.999 5.45295C20.999 5.3703 20.999 5.27938 20.999 5.13887C20.908 5.22978 20.8419 5.28764 20.7758 5.3455C19.0148 7.10598 17.2539 8.86645 15.4929 10.6269C15.0217 11.1063 14.4595 11.2716 13.8229 11.0402C12.8805 10.7013 12.558 9.53595 13.1616 8.73422C13.236 8.63504 13.3269 8.54411 13.4096 8.46146C15.1457 6.71751 16.8901 4.98182 18.6262 3.24613C18.6924 3.18001 18.7668 3.13042 18.8412 3.0643C18.8329 3.0395 18.8247 3.02298 18.8164 2.99819C18.7337 2.99819 18.6593 2.99819 18.5766 2.99819C17.2621 2.99819 15.9559 2.99819 14.6414 2.99819C13.5171 2.98992 12.8061 1.82454 13.3021 0.832717C13.5667 0.31201 14.0048 0.00619888 14.5918 0.00619888C17.2373 -0.00206629 19.8829 -0.00206629 22.5367 0.00619888C23.165 0.00619888 23.7106 0.427715 23.9091 1.03107C23.9339 1.11372 23.9669 1.18812 23.9917 1.27077V9.61858L24 9.61033Z"
    fill="#F95C04" />
</svg>