<svg width="24" height="24" viewBox="0 0 24 24" fill="none" xmlns="http://www.w3.org/2000/svg">
  <path
    d="M14.7655 22.1602H12.9198C12.9198 22.4401 12.9198 22.7199 12.9198 22.9937C12.9198 23.5772 12.5328 23.994 11.997 23.994C11.4611 23.994 11.0801 23.5772 11.0741 22.9878C11.0741 22.7199 11.0741 22.4519 11.0741 22.1661H9.22843C9.22843 22.4579 9.22843 22.7437 9.22843 23.0295C9.22248 23.5891 8.81762 23.9999 8.29368 23.994C7.78165 23.988 7.39465 23.5832 7.38274 23.0354C7.38274 22.7496 7.38274 22.4639 7.38274 22.1602H5.53706C5.53706 22.2674 5.53706 22.3805 5.53706 22.4877C5.53706 23.5475 5.26914 23.9821 4.62017 23.988C3.96525 23.988 3.69137 23.5474 3.69137 22.4758C3.69137 22.315 3.69137 22.1542 3.69137 21.9875C2.92333 21.6898 2.37558 21.1838 2.06002 20.4336C2.03621 20.3681 1.92309 20.3086 1.84569 20.3086C1.548 20.2966 1.2503 20.3086 0.952612 20.3026C0.410814 20.2907 0.00595383 19.8978 0 19.3857C0 18.8677 0.398906 18.4688 0.940705 18.4569C1.22649 18.4569 1.51823 18.4569 1.82782 18.4569V16.6113C1.55395 16.6113 1.28007 16.6113 1.0062 16.6113C0.422722 16.6113 0.00595396 16.2183 0.00595396 15.6825C0.00595396 15.1466 0.422722 14.7655 1.01215 14.7655C1.28007 14.7655 1.54799 14.7655 1.83378 14.7655V12.9199C1.54204 12.9199 1.25626 12.9199 0.970473 12.9199C0.410814 12.9139 1.36439e-07 12.5091 0.00595396 11.9851C0.00595396 11.4731 0.416768 11.0802 0.958566 11.0742C1.24435 11.0742 1.53013 11.0742 1.83378 11.0742V9.22849C1.56586 9.22849 1.29198 9.22849 1.0181 9.22849C0.428675 9.22849 0.0119078 8.84747 0.00595396 8.31758C0.00595396 7.76983 0.416767 7.38878 1.02406 7.38282C1.28603 7.38282 1.54204 7.38282 1.82782 7.38282V5.53712C1.5599 5.53712 1.28603 5.53712 1.01215 5.53712C0.428676 5.53712 0.0119078 5.15012 0.00595396 4.61428C0.00595396 4.07844 0.416768 3.6974 1.0062 3.69144C1.0181 3.69144 1.02406 3.69144 1.03597 3.69144C1.62539 3.75694 2.11956 3.71526 2.38748 3.01866C2.5661 2.55426 3.04241 2.27443 3.51871 2.0839C3.6616 2.02437 3.70328 1.95886 3.70328 1.81001C3.69137 1.51232 3.69137 1.21463 3.70328 0.916941C3.71519 0.393004 4.11409 6.48146e-05 4.62017 6.48146e-05C5.12029 6.48146e-05 5.52515 0.393035 5.54301 0.911018C5.54897 1.20871 5.54301 1.50638 5.54301 1.82193H7.3887C7.3887 1.53615 7.3887 1.25037 7.3887 0.964582C7.39465 0.404922 7.7876 -0.00588901 8.3175 6.48146e-05C8.84143 6.48146e-05 9.22843 0.416841 9.23438 0.976501C9.23438 1.25633 9.23438 1.5302 9.23438 1.82789H11.0801C11.0801 1.5302 11.0801 1.24441 11.0801 0.958622C11.086 0.398962 11.4849 -0.00588901 12.0148 6.48146e-05C12.5268 0.00601864 12.9138 0.41087 12.9258 0.958622C12.9258 1.24441 12.9258 1.53021 12.9258 1.83385H14.7714C14.7714 1.58975 14.7714 1.34565 14.7714 1.10154C14.7714 0.428762 15.1227 0.0119783 15.6883 0.00602445C16.2599 0.00602445 16.6171 0.428737 16.6171 1.11343C16.6171 1.34563 16.6171 1.57188 16.6171 1.82789H18.4628C18.4628 1.55402 18.4628 1.28014 18.4628 1.00626C18.4628 0.416834 18.8498 0.00602445 19.3857 0.00602445C19.9215 0.00602445 20.3025 0.422788 20.3085 1.00626C20.3085 1.01817 20.3085 1.02412 20.3085 1.03602C20.3085 1.32181 20.2192 1.65522 20.3323 1.88742C20.4395 2.10176 20.761 2.20892 20.9872 2.36968C21.404 2.65546 21.7136 3.03056 21.8982 3.49496C21.9637 3.65571 22.047 3.70932 22.2137 3.70336C22.4995 3.69146 22.7912 3.69146 23.077 3.70336C23.595 3.71527 23.9939 4.12608 23.9939 4.6262C23.9939 5.12632 23.595 5.53117 23.077 5.54308C22.7793 5.54903 22.4817 5.54308 22.1661 5.54308V7.38878C22.4578 7.38878 22.7436 7.38878 23.0294 7.38878C23.5891 7.39474 23.9999 7.79956 23.9939 8.3235C23.9939 8.83553 23.5831 9.2285 23.0413 9.23445C22.4459 9.23445 21.8505 9.24041 21.2552 9.23445C20.7015 9.2285 20.3145 8.84149 20.3085 8.28778C20.3085 7.11488 20.3085 5.94199 20.3085 4.76908C20.3085 4.06058 19.9513 3.70336 19.2487 3.70336C14.4261 3.70336 9.59757 3.70336 4.77497 3.70336C4.0486 3.70336 3.70328 4.05461 3.70328 4.78693C3.70328 9.60357 3.70328 14.4202 3.70328 19.2369C3.70328 19.9632 4.05456 20.3205 4.78092 20.3205C9.59757 20.3205 14.4142 20.3205 19.2249 20.3205C19.9691 20.3205 20.3145 19.9752 20.3145 19.219C20.3145 16.8732 20.3145 14.5274 20.3145 12.1816C20.3145 11.4314 20.6598 11.092 21.404 11.0861C21.9398 11.0861 22.4816 11.0861 23.0175 11.0861C23.5831 11.0861 23.9939 11.4731 23.9999 11.997C23.9999 12.5329 23.5891 12.9258 23.0056 12.9318C22.7377 12.9318 22.4697 12.9318 22.178 12.9318V14.7775C22.4459 14.7775 22.7198 14.7775 22.9937 14.7775C23.5772 14.7775 23.9939 15.1645 23.9939 15.7003C23.9939 16.2361 23.5772 16.6172 22.9937 16.6231C22.7258 16.6231 22.4578 16.6231 22.172 16.6231V18.4688C22.4638 18.4688 22.7496 18.4688 23.0294 18.4688C23.5891 18.4748 23.9999 18.8737 23.9939 19.3976C23.9939 19.9097 23.5831 20.3026 23.0413 20.3086C22.696 20.3086 22.3507 20.3086 21.9934 20.3086C21.6838 21.1183 21.1242 21.6839 20.3085 21.9935C20.3085 22.3448 20.3085 22.6901 20.3085 23.0354C20.3025 23.5951 19.8977 24.0059 19.3738 23.9999C18.8617 23.9999 18.4747 23.5891 18.4628 23.0414C18.4628 22.7556 18.4628 22.4698 18.4628 22.1661H16.6171C16.6171 22.4341 16.6171 22.7079 16.6171 22.9878C16.6171 23.5772 16.2361 23.994 15.7002 23.9999C15.1584 23.9999 14.7714 23.5832 14.7714 22.9759C14.7714 22.7199 14.7714 22.4579 14.7714 22.1661L14.7655 22.1602Z"
    fill="#F95C04" />
  <path
    d="M11.0443 14.7656C9.53803 14.7656 8.02576 14.7656 6.51944 14.7656C5.81689 14.7656 5.35844 14.1345 5.60255 13.5153C5.73949 13.158 6.06695 12.9318 6.47776 12.9258C7.18031 12.9258 7.88287 12.9258 8.57946 12.9258C10.9253 12.9258 13.2711 12.9258 15.6169 12.9258C16.3373 12.9258 16.8017 13.5629 16.5457 14.194C16.4028 14.5512 16.0634 14.7715 15.6288 14.7715C14.0987 14.7715 12.5745 14.7715 11.0443 14.7715V14.7656Z"
    fill="#F95C04" />
  <path
    d="M9.25224 16.6113C10.1334 16.6113 11.0205 16.6113 11.9017 16.6113C12.4911 16.6113 12.9079 16.9923 12.9079 17.5281C12.9079 18.064 12.4971 18.4569 11.9136 18.4569C10.1156 18.4569 8.3175 18.4569 6.52539 18.4569C5.94192 18.4569 5.52515 18.064 5.5311 17.5281C5.5311 16.9923 5.94787 16.6172 6.5373 16.6172C7.44228 16.6172 8.34131 16.6172 9.24629 16.6172L9.25224 16.6113Z"
    fill="#F95C04" />
  <path d="M7.37679 6.45999C7.37679 6.96012 6.96002 7.37687 6.4599 7.37687C5.94787 7.37687 5.52515 6.94818 5.53706 6.43616C5.54897 5.93603 5.96573 5.52521 6.47181 5.53712C6.97193 5.54308 7.38274 5.95984 7.38274 6.46592L7.37679 6.45999Z"
    fill="#F95C04" />
  <path d="M17.5459 7.37687C17.0458 7.38283 16.6231 6.972 16.6112 6.47188C16.5993 5.9539 17.016 5.53116 17.534 5.53116C18.0341 5.53116 18.4509 5.94796 18.4569 6.44808C18.4569 6.9482 18.052 7.37092 17.5459 7.37687Z" fill="#F95C04" />
</svg>