<svg xmlns="http://www.w3.org/2000/svg" xmlns:xlink="http://www.w3.org/1999/xlink" preserveAspectRatio="xMidYMid meet" width="80" height="80" viewBox="0 0 80 80" style="width:100%;height:100%"><defs><animate repeatCount="indefinite" dur="6.006006s" begin="0s" xlink:href="#_R_G_L_7_G" fill="freeze" attributeName="opacity" from="0" to="1" keyTimes="0;0.0555556;1" values="0;1;1" keySplines="0.167 0.167 0.833 0.833;0 0 0 0" calcMode="spline"/><animateMotion repeatCount="indefinite" dur="6.006006s" begin="0s" xlink:href="#_R_G_L_7_G" fill="freeze" keyTimes="0;0.0555556;1" path="M30 50.5 C31.67,48.75 38.33,41.75 40,40 C40,40 40,40 40,40 " keyPoints="0;1;1" keySplines="0.167 0.167 0.833 0.833;0 0 0 0" calcMode="spline"/><animateTransform repeatCount="indefinite" dur="6.006006s" begin="0s" xlink:href="#_R_G_L_7_G" fill="freeze" attributeName="transform" from="0.7000000000000001 0.7000000000000001" to="1 1" type="scale" additive="sum" keyTimes="0;0.0555556;1" values="0.7000000000000001 0.7000000000000001;1 1;1 1" keySplines="0.167 0.167 0.833 0.833;0 0 0 0" calcMode="spline"/><animateTransform repeatCount="indefinite" dur="6.006006s" begin="0s" xlink:href="#_R_G_L_7_G" fill="freeze" attributeName="transform" from="-40 -40" to="-40 -40" type="translate" additive="sum" keyTimes="0;1" values="-40 -40;-40 -40" keySplines="0 0 1 1" calcMode="spline"/><animate repeatCount="indefinite" dur="6.006006s" begin="0s" xlink:href="#_R_G_L_6_G" fill="freeze" attributeName="opacity" from="0" to="1" keyTimes="0;0.0555556;0.1111111;1" values="0;0;1;1" keySplines="0.167 0.167 0.833 0.833;0.167 0.167 0.833 0.833;0 0 0 0" calcMode="spline"/><animateMotion repeatCount="indefinite" dur="6.006006s" begin="0s" xlink:href="#_R_G_L_6_G" fill="freeze" keyTimes="0;0.0555556;0.1111111;1" path="M36 43.5 C36,43.5 36,43.5 36,43.5 C36.67,42.92 39.33,40.58 40,40 C40,40 40,40 40,40 " keyPoints="0;0;1;1" keySplines="0.167 0.167 0.833 0.833;0.167 0.167 0.833 0.833;0 0 0 0" calcMode="spline"/><animateTransform repeatCount="indefinite" dur="6.006006s" begin="0s" xlink:href="#_R_G_L_6_G" fill="freeze" attributeName="transform" from="1.23 1.23" to="1 1" type="scale" additive="sum" keyTimes="0;0.0555556;0.1111111;1" values="1.23 1.23;1.23 1.23;1 1;1 1" keySplines="0.167 0.167 0.833 0.833;0.167 0.167 0.833 0.833;0 0 0 0" calcMode="spline"/><animateTransform repeatCount="indefinite" dur="6.006006s" begin="0s" xlink:href="#_R_G_L_6_G" fill="freeze" attributeName="transform" from="-40 -40" to="-40 -40" type="translate" additive="sum" keyTimes="0;1" values="-40 -40;-40 -40" keySplines="0 0 1 1" calcMode="spline"/><animate repeatCount="indefinite" dur="6.006006s" begin="0s" xlink:href="#_R_G_L_6_G_M" fill="freeze" attributeName="opacity" from="0" to="1" keyTimes="0;0.0555556;0.0555561;1" values="0;0;1;1" keySplines="0 0 0 0;0 0 0 0;0 0 0 0" calcMode="spline"/><clipPath id="_R_G_L_5_C_0"><path id="_R_G_L_5_C_0_P_0" fill-rule="nonzero" d="M0 56.42 C0,56.42 0,80 0,80 C0,80 23.59,80 23.59,80 C23.59,80 23.59,56.42 23.59,56.42 C23.59,56.42 0,56.42 0,56.42z "/></clipPath><animateMotion repeatCount="indefinite" dur="6.006006s" begin="0s" xlink:href="#_R_G_L_5_G_G_0_D_0_P_0_G_0_T_0" fill="freeze" keyTimes="0;0.1111111;1" path="M37.04 43.11 C32.88,47.28 16.21,63.95 12.04,68.11 C12.04,68.11 12.04,68.11 12.04,68.11 " keyPoints="0;1;1" keySplines="0.167 0.167 0.667 1;0 0 0 0" calcMode="spline"/><animate repeatCount="indefinite" dur="6.006006s" begin="0s" xlink:href="#_R_G_L_5_G_M" fill="freeze" attributeName="opacity" from="1" to="0" keyTimes="0;0.2333333;0.2333333;1" values="1;1;0;0" keySplines="0 0 0 0;0 0 0 0;0 0 0 0" calcMode="spline"/><clipPath id="_R_G_L_4_C_0"><path id="_R_G_L_4_C_0_P_0" fill-rule="nonzero" d="M0 56.42 C0,56.42 0,80 0,80 C0,80 23.59,80 23.59,80 C23.59,80 23.59,56.42 23.59,56.42 C23.59,56.42 0,56.42 0,56.42z "/></clipPath><animateMotion repeatCount="indefinite" dur="6.006006s" begin="0s" xlink:href="#_R_G_L_4_G_G_0_D_0_P_0_G_0_T_0" fill="freeze" keyTimes="0;0.2277778;0.3388889;1" path="M37.04 43.11 C37.04,43.11 37.04,43.11 37.04,43.11 C32.88,47.28 16.21,63.95 12.04,68.11 C12.04,68.11 12.04,68.11 12.04,68.11 " keyPoints="0;0;1;1" keySplines="0.167 0.167 0.667 1;0.167 0.167 0.667 1;0 0 0 0" calcMode="spline"/><animate repeatCount="indefinite" dur="6.006006s" begin="0s" xlink:href="#_R_G_L_4_G_M" fill="freeze" attributeName="opacity" from="0" to="1" keyTimes="0;0.2277778;0.2277783;1" values="0;0;1;1" keySplines="0 0 0 0;0 0 0 0;0 0 0 0" calcMode="spline"/><clipPath id="_R_G_L_3_C_0"><path id="_R_G_L_3_C_0_P_0" fill-rule="nonzero" d="M20.03 63.92 C20.03,63.92 20.03,74.99 20.03,74.99 C20.03,74.99 31.26,74.99 31.26,74.99 C31.26,74.99 31.26,63.92 31.26,63.92 C31.26,63.92 20.03,63.92 20.03,63.92z "/></clipPath><animateMotion repeatCount="indefinite" dur="6.006006s" begin="0s" xlink:href="#_R_G_L_3_G_G_0_D_0_P_0_G_0_T_0" fill="freeze" keyTimes="0;0.0277778;0.0833333;1" path="M35.52 59.48 C35.52,59.48 35.52,59.48 35.52,59.48 C33.85,61.15 27.18,67.81 25.52,69.48 C25.52,69.48 25.52,69.48 25.52,69.48 " keyPoints="0;0;1;1" keySplines="0.167 0.167 0.667 1;0.167 0.167 0.667 1;0 0 0 0" calcMode="spline"/><animate repeatCount="indefinite" dur="6.006006s" begin="0s" xlink:href="#_R_G_L_3_G_M" fill="freeze" attributeName="opacity" from="0" to="0" keyTimes="0;0.0277778;0.0277783;0.1666667;0.1666667;1" values="0;0;1;1;0;0" keySplines="0 0 0 0;0 0 0 0;0 0 0 0;0 0 0 0;0 0 0 0" calcMode="spline"/><clipPath id="_R_G_L_2_C_0"><path id="_R_G_L_2_C_0_P_0" fill-rule="nonzero" d="M5 48.89 C5,48.89 5,60.02 5,60.02 C5,60.02 16.09,60.02 16.09,60.02 C16.09,60.02 16.09,48.89 16.09,48.89 C16.09,48.89 5,48.89 5,48.89z "/></clipPath><animateMotion repeatCount="indefinite" dur="6.006006s" begin="0s" xlink:href="#_R_G_L_2_G_G_0_D_0_P_0_G_0_T_0" fill="freeze" keyTimes="0;0.0555556;0.1111111;1" path="M20.59 44.32 C20.59,44.32 20.59,44.32 20.59,44.32 C18.92,45.98 12.25,52.65 10.59,54.32 C10.59,54.32 10.59,54.32 10.59,54.32 " keyPoints="0;0;1;1" keySplines="0.167 0.167 0.667 1;0.167 0.167 0.667 1;0 0 0 0" calcMode="spline"/><animate repeatCount="indefinite" dur="6.006006s" begin="0s" xlink:href="#_R_G_L_2_G_M" fill="freeze" attributeName="opacity" from="0" to="0" keyTimes="0;0.0555556;0.0555561;0.1944444;0.1944444;1" values="0;0;1;1;0;0" keySplines="0 0 0 0;0 0 0 0;0 0 0 0;0 0 0 0;0 0 0 0" calcMode="spline"/><clipPath id="_R_G_L_1_C_0"><path id="_R_G_L_1_C_0_P_0" fill-rule="nonzero" d="M20.03 63.92 C20.03,63.92 20.03,74.99 20.03,74.99 C20.03,74.99 31.26,74.99 31.26,74.99 C31.26,74.99 31.26,63.92 31.26,63.92 C31.26,63.92 20.03,63.92 20.03,63.92z "/></clipPath><animateMotion repeatCount="indefinite" dur="6.006006s" begin="0s" xlink:href="#_R_G_L_1_G_G_0_D_0_P_0_G_0_T_0" fill="freeze" keyTimes="0;0.1666667;0.2222222;1" path="M35.52 59.48 C35.52,59.48 35.52,59.48 35.52,59.48 C33.85,61.15 27.18,67.81 25.52,69.48 C25.52,69.48 25.52,69.48 25.52,69.48 " keyPoints="0;0;1;1" keySplines="0.167 0.167 0.667 1;0.167 0.167 0.667 1;0 0 0 0" calcMode="spline"/><animate repeatCount="indefinite" dur="6.006006s" begin="0s" xlink:href="#_R_G_L_1_G_M" fill="freeze" attributeName="opacity" from="0" to="1" keyTimes="0;0.1666667;0.1666672;1" values="0;0;1;1" keySplines="0 0 0 0;0 0 0 0;0 0 0 0" calcMode="spline"/><clipPath id="_R_G_L_0_C_0"><path id="_R_G_L_0_C_0_P_0" fill-rule="nonzero" d="M5 48.89 C5,48.89 5,60.02 5,60.02 C5,60.02 16.09,60.02 16.09,60.02 C16.09,60.02 16.09,48.89 16.09,48.89 C16.09,48.89 5,48.89 5,48.89z "/></clipPath><animateMotion repeatCount="indefinite" dur="6.006006s" begin="0s" xlink:href="#_R_G_L_0_G_G_0_D_0_P_0_G_0_T_0" fill="freeze" keyTimes="0;0.1944444;0.25;1" path="M20.59 44.32 C20.59,44.32 20.59,44.32 20.59,44.32 C18.92,45.98 12.25,52.65 10.59,54.32 C10.59,54.32 10.59,54.32 10.59,54.32 " keyPoints="0;0;1;1" keySplines="0.167 0.167 0.667 1;0.167 0.167 0.667 1;0 0 0 0" calcMode="spline"/><animate repeatCount="indefinite" dur="6.006006s" begin="0s" xlink:href="#_R_G_L_0_G_M" fill="freeze" attributeName="opacity" from="0" to="1" keyTimes="0;0.1944444;0.194445;1" values="0;0;1;1" keySplines="0 0 0 0;0 0 0 0;0 0 0 0" calcMode="spline"/><animate attributeType="XML" attributeName="opacity" dur="6s" from="0" to="1" xlink:href="#time_group"/></defs><g id="_R_G"><g id="_R_G_L_7_G"><path id="_R_G_L_7_G_D_0_P_0" fill="#ffffff" fill-opacity="1" fill-rule="nonzero" d=" M74.07 0 C75.13,0.16 76.18,0.3 77.23,0.47 C78.66,0.69 79.29,1.37 79.54,2.81 C80.59,8.85 79.75,14.73 77.9,20.5 C75.58,27.78 71.81,34.28 67.05,40.21 C66.64,40.72 66.59,41.09 66.83,41.72 C69.67,48.97 68.65,55.65 63.32,61.34 C58.38,66.62 53.13,71.61 48.01,76.73 C47.28,77.46 46.42,77.71 45.43,77.35 C44.45,76.98 44,76.22 43.9,75.19 C43.42,70.17 42.93,65.15 42.43,59.99 C41.97,60.19 41.56,60.37 41.14,60.55 C37.61,62.12 34.6,61.57 31.87,58.85 C28.3,55.28 24.73,51.71 21.15,48.13 C18.39,45.37 17.85,42.37 19.45,38.8 C19.62,38.43 19.78,38.05 19.97,37.59 C18.67,37.46 17.46,37.33 16.26,37.21 C12.45,36.84 8.64,36.47 4.83,36.12 C3.77,36.02 3,35.54 2.64,34.53 C2.28,33.53 2.6,32.69 3.32,31.97 C8.38,26.91 13.35,21.74 18.54,16.81 C24.18,11.47 30.81,10.37 38.06,13.11 C38.81,13.39 39.27,13.36 39.91,12.85 C45.77,8.16 52.18,4.46 59.35,2.13 C62.5,1.11 65.71,0.39 69.03,0.13 C69.2,0.12 69.37,0.05 69.54,0 C69.54,0 74.07,0 74.07,0z  M27.86 33.05 C34.25,39.44 40.58,45.76 46.93,52.11 C46.94,52.11 47.01,52.09 47.08,52.05 C57.89,44.93 66.25,35.67 71.67,23.85 C71.91,23.34 71.7,23.12 71.39,22.81 C66.66,18.08 61.92,13.36 57.21,8.61 C56.79,8.2 56.49,8.14 55.95,8.39 C48.77,11.63 42.52,16.19 36.96,21.73 C33.51,25.18 30.45,28.95 27.86,33.05z  M63.08 44.91 C62.88,45.06 62.79,45.1 62.73,45.17 C58.13,49.93 53.02,54.04 47.32,57.42 C47.13,57.53 46.98,57.91 47,58.16 C47.26,61.24 47.55,64.32 47.85,67.4 C47.93,68.2 48.03,69.01 48.12,69.85 C48.28,69.77 48.33,69.76 48.37,69.73 C52.34,65.75 56.42,61.88 60.24,57.77 C63.6,54.16 64.32,49.78 63.08,44.91z  M35.1 16.95 C29.87,15.67 25.37,16.67 21.6,20.34 C17.88,23.98 14.23,27.7 10.55,31.38 C10.41,31.52 10.3,31.67 10.12,31.9 C10.48,31.94 10.74,31.99 10.99,32.01 C14.52,32.35 18.04,32.66 21.56,33.03 C22.14,33.09 22.44,32.97 22.73,32.46 C25.95,26.97 29.9,22.06 34.46,17.62 C34.64,17.44 34.81,17.26 35.1,16.95z  M42.6 54.7 C36.79,48.89 31.07,43.17 25.3,37.41 C24.76,38.56 24.19,39.72 23.65,40.9 C22.95,42.44 23.15,43.51 24.36,44.72 C26.09,46.45 27.82,48.18 29.55,49.91 C31.48,51.84 33.41,53.77 35.34,55.7 C36.25,56.61 37.31,57.03 38.53,56.54 C39.9,56 41.23,55.33 42.6,54.7z  M61.75 6.25 C65.77,10.26 69.75,14.25 73.73,18.23 C74.99,13.92 75.69,9.48 75.11,4.88 C70.46,4.33 66.02,4.98 61.75,6.25z "/></g><g id="_R_G_L_6_G_M"><g id="_R_G_L_6_G"><path id="_R_G_L_6_G_D_0_P_0" fill="#ffda5e" fill-opacity="1" fill-rule="nonzero" d=" M44.05 28.3 C44.05,24.08 47.48,20.64 51.69,20.66 C55.9,20.67 59.35,24.13 59.33,28.32 C59.32,32.55 55.9,35.95 51.67,35.95 C47.44,35.95 44.05,32.54 44.05,28.3z  M51.71 31.26 C53.35,31.25 54.69,29.88 54.65,28.26 C54.61,26.66 53.28,25.35 51.69,25.34 C50.06,25.33 48.73,26.67 48.73,28.32 C48.74,29.98 50.04,31.27 51.71,31.26z "/></g></g><g id="_R_G_L_5_G_M"><g id="_R_G_L_5_G"><g clip-path="url(#_R_G_L_5_C_0)"><g id="_R_G_L_5_G_G_0_D_0_P_0_G_0_T_0"><path id="_R_G_L_5_G_G_0_D_0_P_0" fill="#ffda5e" fill-opacity="1" fill-rule="nonzero" d=" M-12.04 9.07 C-11.62,8.48 -11.27,7.83 -10.77,7.33 C-4.77,1.29 1.26,-4.72 7.28,-10.74 C7.98,-11.45 8.76,-11.89 9.79,-11.61 C11.37,-11.18 12.04,-9.44 11.15,-8.07 C11.01,-7.85 10.83,-7.66 10.65,-7.48 C4.5,-1.33 -1.65,4.82 -7.8,10.97 C-8.89,12.05 -10.23,12.2 -11.2,11.28 C-11.56,10.94 -11.77,10.43 -12.04,10 C-12.04,9.69 -12.04,9.38 -12.04,9.07z "/></g></g></g></g><g id="_R_G_L_4_G_M"><g id="_R_G_L_4_G"><g clip-path="url(#_R_G_L_4_C_0)"><g id="_R_G_L_4_G_G_0_D_0_P_0_G_0_T_0"><path id="_R_G_L_4_G_G_0_D_0_P_0" fill="#ffda5e" fill-opacity="1" fill-rule="nonzero" d=" M-12.04 9.07 C-11.62,8.48 -11.27,7.83 -10.77,7.33 C-4.77,1.29 1.26,-4.72 7.28,-10.74 C7.98,-11.45 8.76,-11.89 9.79,-11.61 C11.37,-11.18 12.04,-9.44 11.15,-8.07 C11.01,-7.85 10.83,-7.66 10.65,-7.48 C4.5,-1.33 -1.65,4.82 -7.8,10.97 C-8.89,12.05 -10.23,12.2 -11.2,11.28 C-11.56,10.94 -11.77,10.43 -12.04,10 C-12.04,9.69 -12.04,9.38 -12.04,9.07z "/></g></g></g></g><g id="_R_G_L_3_G_M"><g id="_R_G_L_3_G"><g clip-path="url(#_R_G_L_3_C_0)"><g id="_R_G_L_3_G_G_0_D_0_P_0_G_0_T_0"><path id="_R_G_L_3_G_G_0_D_0_P_0" fill="#ffda5e" fill-opacity="1" fill-rule="nonzero" d=" M5.74 -3.1 C5.43,-2.56 5.22,-1.92 4.79,-1.48 C2.77,0.61 0.7,2.66 -1.37,4.71 C-2.41,5.74 -3.82,5.77 -4.78,4.82 C-5.74,3.87 -5.72,2.46 -4.69,1.42 C-2.63,-0.67 -0.55,-2.74 1.54,-4.81 C2.29,-5.56 3.18,-5.77 4.18,-5.35 C5.04,-4.99 5.59,-4.13 5.74,-3.1z "/></g></g></g></g><g id="_R_G_L_2_G_M"><g id="_R_G_L_2_G"><g clip-path="url(#_R_G_L_2_C_0)"><g id="_R_G_L_2_G_G_0_D_0_P_0_G_0_T_0"><path id="_R_G_L_2_G_G_0_D_0_P_0" fill="#ffda5e" fill-opacity="1" fill-rule="nonzero" d=" M-2.97 5.71 C-4.22,5.56 -4.93,5.16 -5.33,4.3 C-5.75,3.41 -5.67,2.52 -5,1.83 C-2.81,-0.43 -0.59,-2.66 1.67,-4.84 C2.57,-5.71 3.99,-5.57 4.84,-4.69 C5.71,-3.78 5.75,-2.42 4.84,-1.45 C3.94,-0.48 2.98,0.44 2.04,1.37 C0.89,2.53 -0.24,3.73 -1.45,4.83 C-1.94,5.27 -2.61,5.51 -2.97,5.71z "/></g></g></g></g><g id="_R_G_L_1_G_M"><g id="_R_G_L_1_G"><g clip-path="url(#_R_G_L_1_C_0)"><g id="_R_G_L_1_G_G_0_D_0_P_0_G_0_T_0"><path id="_R_G_L_1_G_G_0_D_0_P_0" fill="#ffda5e" fill-opacity="1" fill-rule="nonzero" d=" M5.74 -3.1 C5.43,-2.56 5.22,-1.92 4.79,-1.48 C2.77,0.61 0.7,2.66 -1.37,4.71 C-2.41,5.74 -3.82,5.77 -4.78,4.82 C-5.74,3.87 -5.72,2.46 -4.69,1.42 C-2.63,-0.67 -0.55,-2.74 1.54,-4.81 C2.29,-5.56 3.18,-5.77 4.18,-5.35 C5.04,-4.99 5.59,-4.13 5.74,-3.1z "/></g></g></g></g><g id="_R_G_L_0_G_M"><g id="_R_G_L_0_G"><g clip-path="url(#_R_G_L_0_C_0)"><g id="_R_G_L_0_G_G_0_D_0_P_0_G_0_T_0"><path id="_R_G_L_0_G_G_0_D_0_P_0" fill="#ffda5e" fill-opacity="1" fill-rule="nonzero" d=" M-2.97 5.71 C-4.22,5.56 -4.93,5.16 -5.33,4.3 C-5.75,3.41 -5.67,2.52 -5,1.83 C-2.81,-0.43 -0.59,-2.66 1.67,-4.84 C2.57,-5.71 3.99,-5.57 4.84,-4.69 C5.71,-3.78 5.75,-2.42 4.84,-1.45 C3.94,-0.48 2.98,0.44 2.04,1.37 C0.89,2.53 -0.24,3.73 -1.45,4.83 C-1.94,5.27 -2.61,5.51 -2.97,5.71z "/></g></g></g></g></g><g id="time_group"/></svg>