<svg width="24" height="19" viewBox="0 0 24 19" fill="none" xmlns="http://www.w3.org/2000/svg">
  <path
    d="M24 5.97603C23.875 6.18657 23.7895 6.43 23.625 6.60764C23.1381 7.14056 22.3749 7.1274 21.8025 6.61422C21.3486 6.21289 20.9012 5.79182 20.4209 5.4168C18.5853 3.99569 16.5063 3.09433 14.2101 2.74563C10.1639 2.14034 6.51243 3.10092 3.29519 5.6405C2.88728 5.96288 2.51884 6.34447 2.11751 6.68001C1.34774 7.32478 0.216114 6.91686 0.0253168 5.93656C-0.0667923 5.46943 0.0976882 5.07468 0.433228 4.74572C2.73596 2.48905 5.4466 0.982408 8.6112 0.357382C13.6838 -0.642659 18.2761 0.456067 22.3486 3.65357C22.7828 3.99569 23.1908 4.3707 23.5789 4.77203C23.7631 4.95625 23.8618 5.22601 24 5.45628V5.97603Z"
    fill="#F95C04" />
  <path
    d="M11.8284 7.56163C9.69677 7.60768 7.70985 8.35114 6.01899 9.87752C5.87424 10.0091 5.7295 10.1407 5.57818 10.2591C5.08474 10.6473 4.35444 10.5947 3.90706 10.1538C3.45309 9.69988 3.38072 8.95643 3.79521 8.46957C4.34129 7.8248 5.01895 7.31162 5.72292 6.85107C7.80854 5.49575 10.1047 4.87073 12.585 5.00231C15.4667 5.16021 17.9471 6.25895 20.0196 8.27219C20.5656 8.79852 20.6051 9.56829 20.1248 10.1012C19.6446 10.6341 18.8748 10.6802 18.3024 10.1736C17.7168 9.65382 17.1247 9.14722 16.4471 8.75904C15.0588 7.95638 13.5588 7.56821 11.8219 7.56163H11.8284Z"
    fill="#F95C04" />
  <path
    d="M12.0127 9.89725C13.7759 9.91699 15.3088 10.542 16.5852 11.7855C17.0984 12.2855 17.1247 13.0553 16.651 13.575C16.1905 14.0816 15.4207 14.1474 14.8812 13.6803C14.4009 13.2658 13.9075 12.8711 13.289 12.6803C11.8153 12.2197 10.4863 12.4763 9.32176 13.5027C9.05201 13.7395 8.78226 13.9566 8.41382 13.9829C7.83485 14.029 7.34141 13.7461 7.11114 13.2263C6.88744 12.7329 7.00587 12.1539 7.41378 11.7657C8.69673 10.542 10.2231 9.9104 12.0127 9.89067V9.89725Z"
    fill="#F95C04" />
  <path d="M13.7035 16.4567C13.6772 17.4173 12.8943 18.1608 11.96 18.1279C11.0126 18.095 10.2692 17.3318 10.2889 16.4041C10.3086 15.4501 11.085 14.6935 12.0192 14.7198C12.9732 14.7461 13.7298 15.5225 13.7035 16.4567Z" fill="#F95C04" />
</svg>