<svg xmlns="http://www.w3.org/2000/svg" xmlns:xlink="http://www.w3.org/1999/xlink" preserveAspectRatio="xMidYMid meet" width="80" height="80" viewBox="0 0 80 80" style="width:100%;height:100%"><defs><animate repeatCount="indefinite" dur="6.006006s" begin="0s" xlink:href="#_R_G_L_3_G" fill="freeze" attributeName="opacity" from="0" to="1" keyTimes="0;0.6666666;0.75;1" values="0;0;1;1" keySplines="0.167 0.167 0.667 1;0.167 0.167 0.667 1;0 0 0 0" calcMode="spline"/><animateMotion repeatCount="indefinite" dur="6.006006s" begin="0s" xlink:href="#_R_G_L_3_G" fill="freeze" keyTimes="0;0.6666666;0.75;1" path="M50 40 C50,40 50,40 50,40 C48.33,40 41.67,40 40,40 C40,40 40,40 40,40 " keyPoints="0;0;1;1" keySplines="0.167 0.167 0.667 1;0.167 0.167 0.667 1;0 0 0 0" calcMode="spline"/><animateTransform repeatCount="indefinite" dur="6.006006s" begin="0s" xlink:href="#_R_G_L_3_G" fill="freeze" attributeName="transform" from="-40 -40" to="-40 -40" type="translate" additive="sum" keyTimes="0;1" values="-40 -40;-40 -40" keySplines="0 0 1 1" calcMode="spline"/><animate repeatCount="indefinite" dur="6.006006s" begin="0s" xlink:href="#_R_G_L_3_G_M" fill="freeze" attributeName="opacity" from="0" to="1" keyTimes="0;0.6666667;0.6666672;1" values="0;0;1;1" keySplines="0 0 0 0;0 0 0 0;0 0 0 0" calcMode="spline"/><animate repeatCount="indefinite" dur="6.006006s" begin="0s" xlink:href="#_R_G_L_2_G" fill="freeze" attributeName="opacity" from="0" to="1" keyTimes="0;0.6666666;0.75;1" values="0;0;1;1" keySplines="0.167 0.167 0.667 1;0.167 0.167 0.667 1;0 0 0 0" calcMode="spline"/><animateMotion repeatCount="indefinite" dur="6.006006s" begin="0s" xlink:href="#_R_G_L_2_G" fill="freeze" keyTimes="0;0.6666666;0.75;1" path="M30 40 C30,40 30,40 30,40 C31.67,40 38.33,40 40,40 C40,40 40,40 40,40 " keyPoints="0;0;1;1" keySplines="0.167 0.167 0.667 1;0.167 0.167 0.667 1;0 0 0 0" calcMode="spline"/><animateTransform repeatCount="indefinite" dur="6.006006s" begin="0s" xlink:href="#_R_G_L_2_G" fill="freeze" attributeName="transform" from="-40 -40" to="-40 -40" type="translate" additive="sum" keyTimes="0;1" values="-40 -40;-40 -40" keySplines="0 0 1 1" calcMode="spline"/><animate repeatCount="indefinite" dur="6.006006s" begin="0s" xlink:href="#_R_G_L_2_G_M" fill="freeze" attributeName="opacity" from="0" to="1" keyTimes="0;0.6666667;0.6666672;1" values="0;0;1;1" keySplines="0 0 0 0;0 0 0 0;0 0 0 0" calcMode="spline"/><animate repeatCount="indefinite" dur="6.006006s" begin="0s" xlink:href="#_R_G_L_1_G_M" fill="freeze" attributeName="opacity" from="1" to="0" keyTimes="0;0.6666667;0.6666667;1" values="1;1;0;0" keySplines="0 0 0 0;0 0 0 0;0 0 0 0" calcMode="spline"/><animate repeatCount="indefinite" dur="6.006006s" begin="0s" xlink:href="#_R_G_L_0_G_M" fill="freeze" attributeName="opacity" from="1" to="0" keyTimes="0;0.6666667;0.6666667;1" values="1;1;0;0" keySplines="0 0 0 0;0 0 0 0;0 0 0 0" calcMode="spline"/><animate attributeType="XML" attributeName="opacity" dur="6s" from="0" to="1" xlink:href="#time_group"/></defs><g id="_R_G"><g id="_R_G_L_3_G_M"><g id="_R_G_L_3_G"><path id="_R_G_L_3_G_D_0_P_0" fill="#ffffff" fill-opacity="1" fill-rule="nonzero" d=" M12.54 31.72 C14.06,31.72 15.43,31.72 16.8,31.72 C17.48,31.72 18.16,31.71 18.83,31.73 C20.53,31.78 21.84,33.07 21.89,34.76 C21.92,35.67 21.9,36.58 21.9,37.49 C21.9,46.23 21.9,54.97 21.9,63.7 C21.9,66.09 20.68,67.31 18.29,67.29 C15.8,67.27 13.28,67.4 10.81,67.13 C4.82,66.47 0.12,61.17 0.04,55.15 C0,51.46 -0.02,47.77 0.05,44.08 C0.13,39.69 2.07,36.25 5.7,33.78 C6.15,33.48 6.29,33.17 6.31,32.66 C6.75,16.65 18.71,3.04 34.54,0.5 C50.46,-2.05 65.79,6.75 71.54,21.72 C72.26,23.6 71.56,25.41 69.85,26.06 C68.21,26.68 66.47,25.9 65.79,24.16 C64.68,21.31 63.25,18.62 61.22,16.32 C53.79,7.87 44.48,4.48 33.52,7.15 C22.71,9.79 16.01,16.95 13.21,27.71 C12.88,28.99 12.77,30.31 12.54,31.72z  M15.64 37.96 C14.53,37.96 13.5,37.95 12.46,37.97 C9.04,38.03 6.32,40.72 6.29,44.13 C6.25,47.72 6.24,51.3 6.29,54.89 C6.33,57.29 7.47,59.1 9.56,60.29 C11.48,61.39 13.57,61 15.64,61.04 C15.64,61.04 15.64,37.96 15.64,37.96z "/></g></g><g id="_R_G_L_2_G_M"><g id="_R_G_L_2_G"><path id="_R_G_L_2_G_D_0_P_0" fill="#ffda5e" fill-opacity="1" fill-rule="nonzero" d=" M39.08 79.94 C38.73,79.83 38.39,79.73 38.05,79.61 C35.51,78.78 33.77,76.38 33.77,73.7 C33.77,71.03 35.49,68.63 38.03,67.78 C40.58,66.92 43.41,67.78 44.98,69.96 C45.34,70.45 45.69,70.59 46.26,70.59 C49.09,70.56 51.93,70.58 54.77,70.57 C56.83,70.57 58.13,69.28 58.13,67.21 C58.14,56.61 58.13,46 58.13,35.4 C58.13,32.9 59.31,31.71 61.8,31.73 C64.27,31.75 66.76,31.63 69.21,31.89 C74.65,32.48 79.05,36.9 79.85,42.29 C79.88,42.47 79.95,42.63 80,42.8 C80,42.8 80,56.22 80,56.22 C79.95,56.36 79.88,56.5 79.86,56.65 C79.57,58.61 78.87,60.41 77.69,62.01 C75.18,65.45 71.77,67.21 67.51,67.29 C66.47,67.32 65.44,67.3 64.42,67.3 C64.27,73.05 59.74,77.13 54.1,76.84 C51.43,76.7 48.75,76.81 46.07,76.83 C45.81,76.83 45.43,76.87 45.32,77.04 C44.27,78.64 42.74,79.48 40.95,79.94 C40.95,79.94 39.08,79.94 39.08,79.94z  M64.39 61.05 C65.52,61.05 66.58,61.07 67.64,61.05 C70.98,60.97 73.69,58.3 73.74,54.97 C73.78,51.33 73.8,47.69 73.73,44.05 C73.69,41.62 72.48,39.81 70.34,38.65 C68.45,37.64 66.41,38.02 64.39,37.98 C64.39,37.98 64.39,61.05 64.39,61.05z "/></g></g><g id="_R_G_L_1_G_M"><g id="_R_G_L_1_G"><path id="_R_G_L_1_G_D_0_P_0" fill="#ffda5e" fill-opacity="1" fill-rule="nonzero" d=" M39.08 79.94 C38.73,79.83 38.39,79.73 38.05,79.61 C35.51,78.78 33.77,76.38 33.77,73.7 C33.77,71.03 35.49,68.63 38.03,67.78 C40.58,66.92 43.41,67.78 44.98,69.96 C45.34,70.45 45.69,70.59 46.26,70.59 C49.09,70.56 51.93,70.58 54.77,70.57 C56.83,70.57 58.13,69.28 58.13,67.21 C58.14,56.61 58.13,46 58.13,35.4 C58.13,32.9 59.31,31.71 61.8,31.73 C64.27,31.75 66.76,31.63 69.21,31.89 C74.65,32.48 79.05,36.9 79.85,42.29 C79.88,42.47 79.95,42.63 80,42.8 C80,42.8 80,56.22 80,56.22 C79.95,56.36 79.88,56.5 79.86,56.65 C79.57,58.61 78.87,60.41 77.69,62.01 C75.18,65.45 71.77,67.21 67.51,67.29 C66.47,67.32 65.44,67.3 64.42,67.3 C64.27,73.05 59.74,77.13 54.1,76.84 C51.43,76.7 48.75,76.81 46.07,76.83 C45.81,76.83 45.43,76.87 45.32,77.04 C44.27,78.64 42.74,79.48 40.95,79.94 C40.95,79.94 39.08,79.94 39.08,79.94z  M64.39 61.05 C65.52,61.05 66.58,61.07 67.64,61.05 C70.98,60.97 73.69,58.3 73.74,54.97 C73.78,51.33 73.8,47.69 73.73,44.05 C73.69,41.62 72.48,39.81 70.34,38.65 C68.45,37.64 66.41,38.02 64.39,37.98 C64.39,37.98 64.39,61.05 64.39,61.05z "/></g></g><g id="_R_G_L_0_G_M"><g id="_R_G_L_0_G"><path id="_R_G_L_0_G_D_0_P_0" fill="#ffffff" fill-opacity="1" fill-rule="nonzero" d=" M12.54 31.72 C14.06,31.72 15.43,31.72 16.8,31.72 C17.48,31.72 18.16,31.71 18.83,31.73 C20.53,31.78 21.84,33.07 21.89,34.76 C21.92,35.67 21.9,36.58 21.9,37.49 C21.9,46.23 21.9,54.97 21.9,63.7 C21.9,66.09 20.68,67.31 18.29,67.29 C15.8,67.27 13.28,67.4 10.81,67.13 C4.82,66.47 0.12,61.17 0.04,55.15 C0,51.46 -0.02,47.77 0.05,44.08 C0.13,39.69 2.07,36.25 5.7,33.78 C6.15,33.48 6.29,33.17 6.31,32.66 C6.75,16.65 18.71,3.04 34.54,0.5 C50.46,-2.05 65.79,6.75 71.54,21.72 C72.26,23.6 71.56,25.41 69.85,26.06 C68.21,26.68 66.47,25.9 65.79,24.16 C64.68,21.31 63.25,18.62 61.22,16.32 C53.79,7.87 44.48,4.48 33.52,7.15 C22.71,9.79 16.01,16.95 13.21,27.71 C12.88,28.99 12.77,30.31 12.54,31.72z  M15.64 37.96 C14.53,37.96 13.5,37.95 12.46,37.97 C9.04,38.03 6.32,40.72 6.29,44.13 C6.25,47.72 6.24,51.3 6.29,54.89 C6.33,57.29 7.47,59.1 9.56,60.29 C11.48,61.39 13.57,61 15.64,61.04 C15.64,61.04 15.64,37.96 15.64,37.96z "/></g></g></g><g id="time_group"/></svg>