<svg xmlns="http://www.w3.org/2000/svg" xmlns:xlink="http://www.w3.org/1999/xlink" preserveAspectRatio="xMidYMid meet" width="48" height="48" viewBox="0 0 48 48" style="width:100%;height:100%"><defs><animate repeatCount="indefinite" dur="4.004004s" begin="0s" xlink:href="#_R_G_L_2_C_0_P_0" fill="freeze" attributeName="d" attributeType="XML" from="M-46.03 14.91 C-46.03,14.91 -46.03,40.79 -46.03,40.79 C-46.03,40.79 -0.36,40.79 -0.36,40.79 C-0.36,40.79 -0.36,14.91 -0.36,14.91 C-0.36,14.91 -46.03,14.91 -46.03,14.91z " to="M1.47 14.91 C1.47,14.91 1.47,40.79 1.47,40.79 C1.47,40.79 47.14,40.79 47.14,40.79 C47.14,40.79 47.14,14.91 47.14,14.91 C47.14,14.91 1.47,14.91 1.47,14.91z " keyTimes="0;0.2083333;1" values="M-46.03 14.91 C-46.03,14.91 -46.03,40.79 -46.03,40.79 C-46.03,40.79 -0.36,40.79 -0.36,40.79 C-0.36,40.79 -0.36,14.91 -0.36,14.91 C-0.36,14.91 -46.03,14.91 -46.03,14.91z ;M1.47 14.91 C1.47,14.91 1.47,40.79 1.47,40.79 C1.47,40.79 47.14,40.79 47.14,40.79 C47.14,40.79 47.14,14.91 47.14,14.91 C47.14,14.91 1.47,14.91 1.47,14.91z ;M1.47 14.91 C1.47,14.91 1.47,40.79 1.47,40.79 C1.47,40.79 47.14,40.79 47.14,40.79 C47.14,40.79 47.14,14.91 47.14,14.91 C47.14,14.91 1.47,14.91 1.47,14.91z " keySplines="0.167 0.167 0.833 0.833;0 0 0 0" calcMode="spline"/><clipPath id="_R_G_L_2_C_0"><path id="_R_G_L_2_C_0_P_0" fill-rule="nonzero"/></clipPath><clipPath id="_R_G_L_1_C_0"><path id="_R_G_L_1_C_0_P_0" fill-rule="nonzero" d="M1.47 9.57 C1.47,9.57 1.47,35.43 1.47,35.43 C1.47,35.43 17.59,35.43 17.59,35.43 C17.59,35.43 17.59,9.57 17.59,9.57 C17.59,9.57 1.47,9.57 1.47,9.57z "/></clipPath><animateMotion repeatCount="indefinite" dur="4.004004s" begin="0s" xlink:href="#_R_G_L_1_G_G_0_D_0_P_0_G_0_T_0" fill="freeze" keyTimes="0;0.0416667;0.125;1" path="M9.57 49.5 C9.57,49.5 9.57,49.5 9.57,49.5 C9.57,45 9.57,27 9.57,22.5 C9.57,22.5 9.57,22.5 9.57,22.5 " keyPoints="0;0;1;1" keySplines="0.167 0.167 0.833 0.833;0.167 0.167 0.833 0.833;0 0 0 0" calcMode="spline"/><animateMotion repeatCount="indefinite" dur="4.004004s" begin="0s" xlink:href="#_R_G_L_1_G_G_0_D_0_P_0_G_0_T_0" fill="freeze" keyTimes="0;0.0416667;0.125;1" path="M9.57 49.5 C9.57,49.5 9.57,49.5 9.57,49.5 C9.57,45 9.57,27 9.57,22.5 C9.57,22.5 9.57,22.5 9.57,22.5 " keyPoints="0;0;1;1" keySplines="0.167 0.167 0.833 0.833;0.167 0.167 0.833 0.833;0 0 0 0" calcMode="spline"/><animate repeatCount="indefinite" dur="4.004004s" begin="0s" xlink:href="#_R_G_L_1_G_M" fill="freeze" attributeName="opacity" from="0" to="1" keyTimes="0;0.0416667;0.0416675;1" values="0;0;1;1" keySplines="0 0 0 0;0 0 0 0;0 0 0 0" calcMode="spline"/><clipPath id="_R_G_L_0_C_0"><path id="_R_G_L_0_C_0_P_0" fill-rule="nonzero" d="M20.18 6 C20.18,6 20.18,27.49 20.18,27.49 C20.18,27.49 35.31,27.49 35.31,27.49 C35.31,27.49 35.31,6 35.31,6 C35.31,6 20.18,6 20.18,6z "/></clipPath><animateMotion repeatCount="indefinite" dur="4.004004s" begin="0s" xlink:href="#_R_G_L_0_G_G_0_D_0_P_0_G_0_T_0" fill="freeze" keyTimes="0;0.125;0.2083333;1" path="M27.68 38.74 C27.68,38.74 27.68,38.74 27.68,38.74 C27.68,35.08 27.68,20.41 27.68,16.74 C27.68,16.74 27.68,16.74 27.68,16.74 " keyPoints="0;0;1;1" keySplines="0.167 0.167 0.833 0.833;0.167 0.167 0.833 0.833;0 0 0 0" calcMode="spline"/><animateMotion repeatCount="indefinite" dur="4.004004s" begin="0s" xlink:href="#_R_G_L_0_G_G_0_D_0_P_0_G_0_T_0" fill="freeze" keyTimes="0;0.125;0.2083333;1" path="M27.68 38.74 C27.68,38.74 27.68,38.74 27.68,38.74 C27.68,35.08 27.68,20.41 27.68,16.74 C27.68,16.74 27.68,16.74 27.68,16.74 " keyPoints="0;0;1;1" keySplines="0.167 0.167 0.833 0.833;0.167 0.167 0.833 0.833;0 0 0 0" calcMode="spline"/><animate repeatCount="indefinite" dur="4.004004s" begin="0s" xlink:href="#_R_G_L_0_G_M" fill="freeze" attributeName="opacity" from="0" to="1" keyTimes="0;0.125;0.1250008;1" values="0;0;1;1" keySplines="0 0 0 0;0 0 0 0;0 0 0 0" calcMode="spline"/><animate attributeType="XML" attributeName="opacity" dur="4s" from="0" to="1" xlink:href="#time_group"/></defs><g id="_R_G"><g id="_R_G_L_2_G"><g clip-path="url(#_R_G_L_2_C_0)"><path id="_R_G_L_2_G_G_0_D_0_P_0" fill="#ffb475" fill-opacity="1" fill-rule="nonzero" d=" M47.13 21.96 C47.1,22.02 47.05,22.08 47.02,22.14 C46.71,22.74 46.11,23.05 45.52,22.91 C44.88,22.76 44.47,22.24 44.46,21.55 C44.45,20.9 44.46,20.26 44.46,19.52 C44.27,19.7 44.14,19.81 44.02,19.93 C39.37,24.57 34.73,29.22 30.09,33.86 C29.18,34.77 28.53,34.77 27.63,33.87 C26.57,32.8 25.51,31.74 24.41,30.64 C24.28,30.77 24.16,30.87 24.05,30.98 C21.04,33.99 18.01,37 15.01,40.03 C14.48,40.57 13.92,40.8 13.16,40.79 C9.75,40.76 6.33,40.78 2.91,40.78 C1.83,40.78 1.16,39.77 1.62,38.85 C1.9,38.3 2.38,38.1 2.98,38.1 C6.17,38.11 9.37,38.1 12.56,38.12 C12.99,38.12 13.27,37.98 13.56,37.69 C16.78,34.45 20.01,31.23 23.24,28.01 C24.05,27.19 24.74,27.19 25.57,28.02 C26.65,29.1 27.73,30.18 28.77,31.22 C33.32,26.67 37.86,22.13 42.4,17.59 C41.82,17.59 41.18,17.59 40.54,17.59 C40.03,17.6 39.61,17.41 39.33,16.98 C38.76,16.12 39.35,14.95 40.39,14.93 C42.2,14.9 44.02,14.91 45.83,14.92 C46.49,14.93 46.86,15.36 47.13,15.9 C47.13,15.9 47.13,21.96 47.13,21.96z "/></g></g><g id="_R_G_L_1_G_M"><g id="_R_G_L_1_G"><g clip-path="url(#_R_G_L_1_C_0)"><g id="_R_G_L_1_G_G_0_D_0_P_0_G_0_T_0"><g id="_R_G_L_1_G_G_0_D_0_P_0_G_0_T_0"><path id="_R_G_L_1_G_G_0_D_0_P_0" fill="#ffffff" fill-opacity="1" fill-rule="nonzero" d=" M7.9 7.38 C7.7,7.89 7.13,8.26 6.72,8.68 C5.39,10.02 4.05,11.35 2.71,12.68 C2.58,12.81 2.36,12.92 2.18,12.92 C-1.16,12.93 -4.51,12.93 -7.85,12.93 C-7.91,12.93 -7.97,12.92 -8.09,12.91 C-8.09,12.91 -8.09,10.84 -8.09,10.84 C-8.09,9.16 -8.11,7.48 -8.09,5.8 C-8.05,3.13 -6.96,0.99 -4.85,-0.65 C-4.61,-0.84 -4.43,-0.86 -4.15,-0.7 C-1.43,0.84 1.3,0.84 4.02,-0.69 C4.3,-0.85 4.47,-0.84 4.72,-0.65 C6.77,0.94 7.86,3.03 7.95,5.62 C7.98,6.21 8.11,6.87 7.9,7.38z  M-0.1 -2.23 C2.86,-2.22 5.28,-4.62 5.29,-7.56 C5.29,-10.51 2.89,-12.93 -0.06,-12.93 C-3,-12.93 -5.42,-10.52 -5.41,-7.58 C-5.41,-4.65 -3.01,-2.24 -0.1,-2.23z "/></g></g></g></g></g><g id="_R_G_L_0_G_M"><g id="_R_G_L_0_G"><g clip-path="url(#_R_G_L_0_C_0)"><g id="_R_G_L_0_G_G_0_D_0_P_0_G_0_T_0"><g id="_R_G_L_0_G_G_0_D_0_P_0_G_0_T_0"><path id="_R_G_L_0_G_G_0_D_0_P_0" fill="#ffffff" fill-opacity="1" fill-rule="nonzero" d=" M-4.8 -5.38 C-4.8,-8.33 -2.39,-10.74 0.55,-10.74 C3.49,-10.74 5.91,-8.33 5.9,-5.39 C5.9,-2.46 3.5,-0.05 0.58,-0.04 C-2.37,-0.03 -4.79,-2.44 -4.8,-5.38z  M5.18 1.44 C5.09,1.38 4.87,1.38 4.76,1.44 C1.96,3.04 -0.84,3.05 -3.65,1.45 C-3.77,1.38 -4.01,1.39 -4.1,1.47 C-4.57,1.85 -5.05,2.24 -5.46,2.68 C-7.5,4.89 -7.63,7.6 -7.42,10.49 C-7.01,10.07 -6.65,9.69 -6.27,9.32 C-4.49,7.53 -2.09,7.53 -0.31,9.3 C0.18,9.78 0.65,10.27 1.11,10.75 C3.31,8.54 5.46,6.39 7.64,4.22 C7.06,3.12 6.24,2.18 5.18,1.44z "/></g></g></g></g></g></g><g id="time_group"/></svg>