<svg xmlns="http://www.w3.org/2000/svg" xmlns:xlink="http://www.w3.org/1999/xlink" preserveAspectRatio="xMidYMid meet" width="48" height="48" viewBox="0 0 48 48" style="width:100%;height:100%"><defs><animate repeatCount="indefinite" dur="6.006006s" begin="0s" xlink:href="#_R_G_L_0_C_0_P_0" fill="freeze" attributeName="d" attributeType="XML" from="M-50 9.6 C-50,9.6 -50,38.41 -50,38.41 C-50,38.41 -2,38.41 -2,38.41 C-2,38.41 -2,9.6 -2,9.6 C-2,9.6 -50,9.6 -50,9.6z " to="M0 9.6 C0,9.6 0,38.41 0,38.41 C0,38.41 48,38.41 48,38.41 C48,38.41 48,9.6 48,9.6 C48,9.6 0,9.6 0,9.6z " keyTimes="0;0.1111111;1" values="M-50 9.6 C-50,9.6 -50,38.41 -50,38.41 C-50,38.41 -2,38.41 -2,38.41 C-2,38.41 -2,9.6 -2,9.6 C-2,9.6 -50,9.6 -50,9.6z ;M0 9.6 C0,9.6 0,38.41 0,38.41 C0,38.41 48,38.41 48,38.41 C48,38.41 48,9.6 48,9.6 C48,9.6 0,9.6 0,9.6z ;M0 9.6 C0,9.6 0,38.41 0,38.41 C0,38.41 48,38.41 48,38.41 C48,38.41 48,9.6 48,9.6 C48,9.6 0,9.6 0,9.6z " keySplines="0.167 0.167 0.667 1;0 0 0 0" calcMode="spline"/><clipPath id="_R_G_L_0_C_0"><path id="_R_G_L_0_C_0_P_0" fill-rule="nonzero"/></clipPath><animate attributeType="XML" attributeName="opacity" dur="6s" from="0" to="1" xlink:href="#time_group"/></defs><g id="_R_G"><g id="_R_G_L_0_G"><g clip-path="url(#_R_G_L_0_C_0)"><path id="_R_G_L_0_G_G_0_D_0_P_0" fill="#f9f9f9" fill-opacity="1" fill-rule="nonzero" d=" M36.05 9.6 C36.05,9.6 36.05,14.4 36.05,14.4 C36.05,14.4 39.73,14.4 39.73,14.4 C35.26,18.88 30.82,23.32 26.31,27.83 C23.14,24.66 19.96,21.48 16.71,18.23 C16.6,18.36 16.5,18.52 16.37,18.65 C11.04,23.98 5.72,29.31 0.39,34.63 C0.27,34.75 0.13,34.84 0,34.95 C0,34.98 0,35.01 0,35.04 C1.12,36.15 2.23,37.25 3.41,38.41 C7.9,33.91 12.36,29.45 16.84,24.97 C20.02,28.15 23.2,31.33 26.48,34.62 C32.08,29.02 37.64,23.45 43.24,17.85 C43.24,17.85 43.24,21.54 43.24,21.54 C43.24,21.54 48,21.54 48,21.54 C48,21.54 48,9.6 48,9.6 C48,9.6 36.05,9.6 36.05,9.6z "/></g></g></g><g id="time_group"/></svg>