<svg width="24" height="24" viewBox="0 0 24 24" fill="none" xmlns="http://www.w3.org/2000/svg">
  <path
    d="M19.2075 23.9917C19.1067 23.9502 19.0058 23.917 18.905 23.8755C18.317 23.6098 17.9894 23.1533 17.981 22.5223C17.9642 21.5261 17.9642 20.5216 17.981 19.5254C17.9894 18.7119 18.6278 18.0727 19.4595 18.056C20.476 18.0311 21.5008 18.0311 22.5173 18.056C23.3574 18.0727 23.9706 18.7036 23.9874 19.5337C24.0042 20.5216 24.0042 21.5178 23.9874 22.5057C23.979 23.2197 23.5254 23.7593 22.8281 23.9502C22.7945 23.9585 22.7525 23.9751 22.7189 23.9917H19.2075Z"
    fill="#F95C04" />
  <path
    d="M1.27222 23.9917C1.04541 23.8838 0.793388 23.8174 0.600174 23.6762C0.196946 23.394 0.0121342 22.9706 0.00373359 22.4891C0.00373359 21.5178 -0.00466699 20.5382 0.00373359 19.5669C0.0121342 18.7202 0.642177 18.0809 1.49904 18.0643C2.49871 18.0477 3.50678 18.0477 4.50644 18.0643C5.38851 18.0809 6.01015 18.7285 6.01015 19.6001C6.01015 20.5382 6.01015 21.4763 6.01015 22.4061C6.01015 23.203 5.62372 23.7095 4.83407 23.9585C4.81727 23.9585 4.80047 23.9834 4.77526 24H1.26382L1.27222 23.9917Z"
    fill="#F95C04" />
  <path
    d="M10.244 23.9917C10.076 23.9253 9.89962 23.8755 9.74841 23.7841C9.26118 23.5019 9.00076 23.0702 9.00076 22.514C9.00076 21.5261 8.99236 20.5299 9.00076 19.542C9.00916 18.7036 9.6392 18.0809 10.4877 18.0643C11.4873 18.0477 12.4954 18.0477 13.5035 18.0643C14.3687 18.0809 14.982 18.7119 14.9988 19.5669C15.0072 20.5382 14.9988 21.5012 14.9988 22.4725C14.9988 23.2279 14.5787 23.751 13.8395 23.9585C13.8143 23.9585 13.7807 23.9834 13.7555 24H10.244V23.9917Z"
    fill="#F95C04" />
  <path
    d="M20.9968 0C21.4756 0 21.9629 0 22.4417 0C23.3238 0 23.979 0.630922 23.9874 1.50259C24.0042 2.47388 23.9958 3.45347 23.9874 4.43307C23.979 5.30474 23.3322 5.93567 22.4501 5.94397C21.4672 5.95227 20.4928 5.95227 19.5099 5.94397C18.6194 5.93567 17.981 5.28814 17.9726 4.40816C17.9726 3.44517 17.9726 2.49049 17.9726 1.5275C17.9726 0.647524 18.6278 0.0166114 19.5183 0.00830974C20.0055 0.00830974 20.5012 0.00830974 20.9884 0.00830974L20.9968 0Z"
    fill="#F95C04" />
  <path
    d="M6.01855 2.96369C6.01855 3.43688 6.01855 3.91838 6.01855 4.39157C6.01855 5.28814 5.37171 5.92736 4.46444 5.93566C3.48997 5.93566 2.52391 5.94396 1.54944 5.93566C0.658979 5.93566 0.0121339 5.28814 0.00373332 4.40816C0.00373332 3.44517 0.00373332 2.49049 0.00373332 1.5275C0.00373332 0.630921 0.667378 0 1.56624 0C2.53231 0 3.48997 0 4.45604 0C5.3633 0 6.00175 0.63923 6.01015 1.53581C6.01015 2.009 6.01015 2.49049 6.01015 2.96369H6.01855Z"
    fill="#F95C04" />
  <path
    d="M14.9988 2.972C14.9988 3.43689 14.9988 3.91006 14.9988 4.37495C14.9988 5.30473 14.3603 5.93566 13.4195 5.93566C12.4702 5.93566 11.5209 5.93566 10.5801 5.93566C9.6392 5.93566 9.00916 5.30473 9.00076 4.37495C9.00076 3.42856 9.00076 2.4822 9.00076 1.54412C9.00076 0.622635 9.6392 0 10.5633 0C11.5209 0 12.4786 0 13.4279 0C14.3519 0 14.982 0.622635 14.9904 1.54412C14.9904 2.01731 14.9904 2.4988 14.9904 2.972H14.9988Z"
    fill="#F95C04" />
  <path
    d="M20.98 14.9595C20.5012 14.9595 20.0139 14.9595 19.5351 14.9595C18.611 14.9512 17.981 14.3203 17.9726 13.4071C17.9726 12.4607 17.9726 11.5144 17.9726 10.5763C17.9726 9.67969 18.611 9.04049 19.5183 9.04049C20.4928 9.04049 21.4588 9.04049 22.4333 9.04049C23.3322 9.04049 23.9706 9.6714 23.979 10.5597C23.9874 11.5227 23.9874 12.4774 23.979 13.4403C23.979 14.3369 23.3321 14.9595 22.4165 14.9678C21.9377 14.9678 21.4504 14.9678 20.9716 14.9678L20.98 14.9595Z"
    fill="#F95C04" />
  <path
    d="M3.01954 14.9595C2.53231 14.9595 2.03667 14.9595 1.54944 14.9595C0.650578 14.9512 0.0121339 14.3203 0.00373332 13.4403C0.00373332 12.4774 0.00373332 11.5227 0.00373332 10.5597C0.00373332 9.6714 0.650578 9.04048 1.54104 9.03218C2.52391 9.03218 3.49838 9.03218 4.48124 9.03218C5.37171 9.03218 6.01015 9.6797 6.01015 10.5597C6.01015 11.5144 6.01015 12.4607 6.01015 13.4154C6.01015 14.312 5.37171 14.9429 4.45604 14.9512C3.97721 14.9512 3.48997 14.9512 3.01114 14.9512L3.01954 14.9595Z"
    fill="#F95C04" />
  <path
    d="M11.9914 14.9595C11.5125 14.9595 11.0253 14.9595 10.5465 14.9595C9.6308 14.9512 9.00916 14.3286 9.00076 13.4237C9.00076 12.4691 9.00076 11.5227 9.00076 10.568C9.00076 9.66311 9.6308 9.04048 10.5465 9.03218C11.5209 9.03218 12.487 9.03218 13.4615 9.03218C14.3519 9.03218 14.982 9.6548 14.9988 10.5348C15.0072 11.5061 15.0072 12.4856 14.9988 13.4569C14.9904 14.3369 14.3603 14.9429 13.4615 14.9595C12.9742 14.9595 12.4786 14.9595 11.9914 14.9595Z"
    fill="#F95C04" />
</svg>