<svg xmlns="http://www.w3.org/2000/svg" xmlns:xlink="http://www.w3.org/1999/xlink" preserveAspectRatio="xMidYMid meet" width="48" height="48" viewBox="0 0 48 48" style="width:100%;height:100%"><defs><animate repeatCount="indefinite" dur="6.0242963s" begin="0s" xlink:href="#_R_G_L_1_G" fill="freeze" attributeName="opacity" from="0" to="1" keyTimes="0;0.0192837;1" values="0;1;1" keySplines="0.167 0.167 0.833 0.833;0 0 0 0" calcMode="spline"/><animateMotion repeatCount="indefinite" dur="6.0242963s" begin="0s" xlink:href="#_R_G_L_1_G" fill="freeze" keyTimes="0;0.0413224;0.0826448;0.1239669;1" path="M22.5 24 C22.75,24 23.75,23.83 24,24 C24.25,24.17 24,25 24,25 C24,25 24,24.17 24,24 C24,24 24,24 24,24 " keyPoints="0;0.43;0.72;1;1" keySplines="0.167 0.167 0.833 0.833;0.167 0.167 0.667 1;0.167 0.167 0.667 1;0 0 0 0" calcMode="spline"/><animateTransform repeatCount="indefinite" dur="6.0242963s" begin="0s" xlink:href="#_R_G_L_1_G" fill="freeze" attributeName="transform" from="0" to="0" type="rotate" additive="sum" keyTimes="0;0.0413224;0.0826448;0.1239669;1" values="0;0;4;0;0" keySplines="0.167 0.167 0.667 1;0.167 0.167 0.667 1;0.167 0.167 0.667 1;0 0 0 0" calcMode="spline"/><animateTransform repeatCount="indefinite" dur="6.0242963s" begin="0s" xlink:href="#_R_G_L_1_G" fill="freeze" attributeName="transform" from="-24 -24" to="-24 -24" type="translate" additive="sum" keyTimes="0;1" values="-24 -24;-24 -24" keySplines="0 0 1 1" calcMode="spline"/><animate repeatCount="indefinite" dur="6.0242963s" begin="0s" xlink:href="#_R_G_L_1_G_M" fill="freeze" attributeName="opacity" from="1" to="0" keyTimes="0;0.9972452;0.9972452;1" values="1;1;0;0" keySplines="0 0 0 0;0 0 0 0;0 0 0 0" calcMode="spline"/><animate repeatCount="indefinite" dur="6.0242963s" begin="0s" xlink:href="#_R_G_L_0_G" fill="freeze" attributeName="opacity" from="0" to="1" keyTimes="0;0.0192837;1" values="0;1;1" keySplines="0.167 0.167 0.833 0.833;0 0 0 0" calcMode="spline"/><animateMotion repeatCount="indefinite" dur="6.0242963s" begin="0s" xlink:href="#_R_G_L_0_G" fill="freeze" keyTimes="0;0.0413224;0.0826448;0.1239669;1" path="M25.5 24 C25.25,24 24.25,23.83 24,24 C23.75,24.17 24,25 24,25 C24,25 24,24.17 24,24 C24,24 24,24 24,24 " keyPoints="0;0.43;0.72;1;1" keySplines="0.167 0.167 0.833 0.833;0.167 0.167 0.667 1;0.167 0.167 0.667 1;0 0 0 0" calcMode="spline"/><animateTransform repeatCount="indefinite" dur="6.0242963s" begin="0s" xlink:href="#_R_G_L_0_G" fill="freeze" attributeName="transform" from="0" to="0" type="rotate" additive="sum" keyTimes="0;0.0413224;0.0826448;0.1239669;1" values="0;0;-6;0;0" keySplines="0.167 0.167 0.667 1;0.167 0.167 0.667 1;0.167 0.167 0.667 1;0 0 0 0" calcMode="spline"/><animateTransform repeatCount="indefinite" dur="6.0242963s" begin="0s" xlink:href="#_R_G_L_0_G" fill="freeze" attributeName="transform" from="-24 -24" to="-24 -24" type="translate" additive="sum" keyTimes="0;1" values="-24 -24;-24 -24" keySplines="0 0 1 1" calcMode="spline"/><animate repeatCount="indefinite" dur="6.0242963s" begin="0s" xlink:href="#_R_G_L_0_G_M" fill="freeze" attributeName="opacity" from="1" to="0" keyTimes="0;0.9972452;0.9972452;1" values="1;1;0;0" keySplines="0 0 0 0;0 0 0 0;0 0 0 0" calcMode="spline"/><animate attributeType="XML" attributeName="opacity" dur="6s" from="0" to="1" xlink:href="#time_group"/></defs><g id="_R_G"><g id="_R_G_L_1_G_M"><g id="_R_G_L_1_G"><path id="_R_G_L_1_G_D_0_P_0" fill="#222222" fill-opacity="1" fill-rule="nonzero" d=" M37.33 28.23 C37.33,28.23 37.32,28.23 37.32,28.23 C37.3,28.21 37.29,28.2 37.28,28.18 C37.15,28.07 36.76,27.71 35.88,26.7 C34.66,25.48 33.35,24.36 32.02,23.27 C32.02,23.27 32.02,23.27 32.02,23.27 C32.02,23.27 26.99,19.01 27,19 C26.42,18.47 20,12.65 18.45,12.65 C16,12.65 14.73,12.67 12.38,12.67 C12.38,12.67 11.89,12.67 11.89,12.67 C11.92,12.44 11.92,12.26 11.96,12.1 C12.11,11.45 11.87,10.95 11.3,10.65 C10.8,10.4 10.29,10.15 9.76,9.98 C6.94,9.12 4,8.89 1.08,8.68 C0.53,8.64 0.22,8.97 0,9.42 C0,9.42 0,27.96 0,27.96 C0.25,28.33 0.52,28.64 1.03,28.64 C1.03,28.64 6.98,28.64 6.98,28.64 C7.47,28.64 7.79,28.38 7.96,27.92 C8.03,27.71 8.1,27.5 8.18,27.25 C8.28,27.34 8.33,27.38 8.37,27.42 C9.5,28.53 10.55,29.71 11.76,30.71 C14.18,32.7 16.68,34.6 19.15,36.53 C20.18,37.33 21.26,38.04 22.53,38.38 C23.78,38.73 24.99,38.79 26.14,38.07 C26.22,38.02 26.36,37.99 26.44,38.02 C27.88,38.53 29.66,37.69 30.47,36.29 C30.59,36.08 30.71,36.04 30.95,36.06 C32.54,36.16 33.81,35.59 34.68,34.21 C34.77,34.07 34.99,33.94 35.17,33.92 C37.08,33.67 38.29,32.27 38.23,30.38 C38.14,29.35 37.33,28.23 37.33,28.23z "/><path id="_R_G_L_1_G_D_1_P_0" fill="#ffffff" fill-opacity="1" fill-rule="nonzero" d=" M7.36 23.07 C7.01,24.24 6.65,25.42 6.29,26.61 C6.29,26.61 2.03,26.61 2.03,26.61 C2.03,26.61 2.03,10.74 2.03,10.74 C4.57,10.98 7.05,11.22 9.45,11.95 C9.77,12.05 9.96,12.14 9.89,12.59 C9.34,16.15 8.36,19.61 7.36,23.07z "/><path id="_R_G_L_1_G_D_2_P_0" fill="#ffffff" fill-opacity="1" fill-rule="nonzero" d=" M35.65 31.69 C35.16,32.01 34.76,32 34.34,31.59 C32.98,30.24 31.62,28.89 30.26,27.53 C29.77,27.04 29.31,26.54 28.82,26.05 C28.33,25.56 27.76,25.51 27.33,25.92 C26.89,26.34 26.9,26.94 27.4,27.45 C29.16,29.23 30.91,31.01 32.68,32.76 C33,33.09 32.96,33.29 32.68,33.57 C32.03,34.2 31.06,34.28 30.42,33.66 C28.94,32.22 27.5,30.75 26.04,29.29 C25.9,29.15 25.77,28.99 25.61,28.86 C25.22,28.56 24.68,28.59 24.32,28.92 C23.97,29.24 23.9,29.74 24.15,30.15 C24.24,30.3 24.36,30.42 24.48,30.54 C25.93,32.03 27.38,33.52 28.93,35.11 C28.93,35.11 28.93,35.13 28.93,35.13 C28.66,35.4 28.39,35.74 28.06,35.96 C27.54,36.31 27.1,36.27 26.65,35.84 C25.13,34.36 23.64,32.85 22.13,31.36 C21.99,31.22 21.85,31.06 21.7,30.93 C21.3,30.56 20.73,30.56 20.34,30.91 C19.95,31.27 19.89,31.84 20.25,32.26 C20.6,32.68 20.97,33.08 21.36,33.46 C22.38,34.47 23.43,35.46 24.45,36.45 C24.42,36.51 24.39,36.58 24.36,36.64 C24.06,36.61 23.72,36.65 23.44,36.54 C22.73,36.28 21.96,36.06 21.36,35.62 C18.43,33.41 15.5,31.17 12.66,28.83 C11.34,27.75 10.23,26.45 9.05,25.23 C8.95,25.12 8.95,24.85 8.99,24.69 C9.72,21.92 10.47,19.15 11.21,16.38 C11.35,15.83 11.45,15.26 11.58,14.69 C11.58,14.69 16.85,14.69 16.85,14.69 C17.56,14.79 18.03,14.86 18.38,14.94 C18.55,15 18.75,15.07 18.96,15.14 C19.29,15.3 19.55,15.54 20,16 C20.75,16.75 26.59,21.46 29.44,23.75 C30.66,24.77 31.89,25.78 33.1,26.81 C33.91,27.49 34.64,28.27 35.37,29.04 C35.66,29.34 35.91,29.73 36.1,30.11 C36.42,30.72 36.22,31.32 35.65,31.69z "/></g></g><g id="_R_G_L_0_G_M"><g id="_R_G_L_0_G"><path id="_R_G_L_0_G_D_0_P_0" fill="#222222" fill-opacity="1" fill-rule="nonzero" d=" M46.67 10.66 C45.56,10.73 44.45,10.73 43.34,10.82 C40.5,11.06 37.71,11.55 35.04,12.58 C34.18,12.91 34.03,13.12 34.03,14.04 C33.88,13.99 33.73,13.95 33.58,13.89 C31.91,13.2 30.23,12.53 28.57,11.82 C27.49,11.36 26.4,10.95 25.22,10.82 C23.32,10.62 21.7,11.31 20.21,12.4 C18.42,13.8 17.65,14.69 17.65,14.69 C17.44,14.93 17.26,15.14 17.09,15.35 C16.11,16.55 15.27,17.84 14.97,19.4 C14.64,21.05 15.39,22.28 17.01,22.7 C19.11,23.25 20.83,22.6 22.22,21 C22.46,20.73 22.71,20.58 23.06,20.48 C23.55,20.34 24.02,20.11 24.51,19.95 C24.63,19.9 24.85,19.91 24.95,20 C27.67,22.26 30.4,24.51 33.1,26.81 C33.91,27.49 34.64,28.27 35.37,29.04 C35.51,29.18 35.63,29.34 35.75,29.51 C35.75,29.51 35.75,29.52 35.75,29.52 C35.75,29.52 35.76,29.52 35.76,29.53 C35.77,29.54 35.78,29.55 35.78,29.56 C35.95,29.8 36.81,30.89 38.32,30 C38.77,29.66 39.25,29.35 39.75,29.01 C39.83,29.24 39.88,29.38 39.93,29.53 C40.22,30.49 40.42,30.65 41.42,30.65 C43.17,30.65 44.92,30.63 46.67,30.65 C47.27,30.66 47.72,30.47 48,29.91 C48,29.91 48,11.38 48,11.38 C47.72,10.83 47.28,10.62 46.67,10.66z "/><path id="_R_G_L_0_G_D_1_P_0" fill="#ffffff" fill-opacity="1" fill-rule="nonzero" d=" M35.44 16.92 C35.38,16.79 35.23,16.64 35.09,16.58 C32.38,15.48 29.66,14.39 26.94,13.31 C25.34,12.67 23.74,12.52 22.22,13.49 C20.46,14.6 18.93,15.98 17.82,17.75 C17.42,18.38 17.17,19.12 16.92,19.83 C16.8,20.15 16.83,20.57 17.27,20.67 C17.73,20.79 18.22,20.9 18.69,20.87 C19.72,20.8 20.39,20.11 21,19.35 C21.19,19.1 21.43,18.84 21.72,18.72 C22.6,18.39 23.52,18.15 24.4,17.81 C24.99,17.57 25.43,17.69 25.88,18.11 C26.62,18.81 27.39,19.47 28.16,20.13 C31.27,22.75 34.62,25.1 37.32,28.23 C37.32,28.23 37.33,28.23 37.33,28.23 C37.87,27.87 38.38,27.54 38.87,27.18 C38.98,27.11 39.07,26.86 39.02,26.75 C37.84,23.47 36.64,20.19 35.44,16.92z "/><path id="_R_G_L_0_G_D_2_P_0" fill="#ffffff" fill-opacity="1" fill-rule="nonzero" d=" M36.49 14.18 C37.13,15.77 37.78,17.31 38.35,18.87 C39.46,21.98 40.53,25.1 41.63,28.21 C41.68,28.37 41.86,28.6 41.97,28.6 C43.3,28.63 44.63,28.62 45.98,28.62 C45.98,28.62 45.98,28.62 45.98,28.62 C45.98,28.62 45.98,12.68 45.98,12.68 C42.72,12.77 39.55,13.18 36.49,14.18z "/></g></g></g><g id="time_group"/></svg>