<svg xmlns="http://www.w3.org/2000/svg" xmlns:xlink="http://www.w3.org/1999/xlink" preserveAspectRatio="xMidYMid meet" width="48" height="48" viewBox="0 0 48 48" style="width:100%;height:100%"><defs><animate repeatCount="indefinite" dur="4.004004s" begin="0s" xlink:href="#_R_G_L_1_C_0_P_0" fill="freeze" attributeName="d" attributeType="XML" from="M1.12 46.29 C1.12,46.29 1.12,71.5 1.12,71.5 C1.12,71.5 32.77,71.5 32.77,71.5 C32.77,71.5 32.77,46.29 32.77,46.29 C32.77,46.29 1.12,46.29 1.12,46.29z " to="M1.12 18.79 C1.12,18.79 1.12,44 1.12,44 C1.12,44 32.77,44 32.77,44 C32.77,44 32.77,18.79 32.77,18.79 C32.77,18.79 1.12,18.79 1.12,18.79z " keyTimes="0;0.125;1" values="M1.12 46.29 C1.12,46.29 1.12,71.5 1.12,71.5 C1.12,71.5 32.77,71.5 32.77,71.5 C32.77,71.5 32.77,46.29 32.77,46.29 C32.77,46.29 1.12,46.29 1.12,46.29z ;M1.12 18.79 C1.12,18.79 1.12,44 1.12,44 C1.12,44 32.77,44 32.77,44 C32.77,44 32.77,18.79 32.77,18.79 C32.77,18.79 1.12,18.79 1.12,18.79z ;M1.12 18.79 C1.12,18.79 1.12,44 1.12,44 C1.12,44 32.77,44 32.77,44 C32.77,44 32.77,18.79 32.77,18.79 C32.77,18.79 1.12,18.79 1.12,18.79z " keySplines="0.167 0.167 0.667 1;0 0 0 0" calcMode="spline"/><clipPath id="_R_G_L_1_C_0"><path id="_R_G_L_1_C_0_P_0" fill-rule="nonzero"/></clipPath><animate repeatCount="indefinite" dur="4.004004s" begin="0s" xlink:href="#_R_G_L_0_C_0_P_0" fill="freeze" attributeName="d" attributeType="XML" from="M15.51 44.5 C15.51,44.5 15.51,86.38 15.51,86.38 C15.51,86.38 47.12,86.38 47.12,86.38 C47.12,86.38 47.12,44.5 47.12,44.5 C47.12,44.5 15.51,44.5 15.51,44.5z " to="M15.51 2 C15.51,2 15.51,43.88 15.51,43.88 C15.51,43.88 47.12,43.88 47.12,43.88 C47.12,43.88 47.12,2 47.12,2 C47.12,2 15.51,2 15.51,2z " keyTimes="0;0.0833333;0.25;1" values="M15.51 44.5 C15.51,44.5 15.51,86.38 15.51,86.38 C15.51,86.38 47.12,86.38 47.12,86.38 C47.12,86.38 47.12,44.5 47.12,44.5 C47.12,44.5 15.51,44.5 15.51,44.5z ;M15.51 44.5 C15.51,44.5 15.51,86.38 15.51,86.38 C15.51,86.38 47.12,86.38 47.12,86.38 C47.12,86.38 47.12,44.5 47.12,44.5 C47.12,44.5 15.51,44.5 15.51,44.5z ;M15.51 2 C15.51,2 15.51,43.88 15.51,43.88 C15.51,43.88 47.12,43.88 47.12,43.88 C47.12,43.88 47.12,2 47.12,2 C47.12,2 15.51,2 15.51,2z ;M15.51 2 C15.51,2 15.51,43.88 15.51,43.88 C15.51,43.88 47.12,43.88 47.12,43.88 C47.12,43.88 47.12,2 47.12,2 C47.12,2 15.51,2 15.51,2z " keySplines="0.167 0.167 0.667 1;0.167 0.167 0.667 1;0 0 0 0" calcMode="spline"/><clipPath id="_R_G_L_0_C_0"><path id="_R_G_L_0_C_0_P_0" fill-rule="nonzero"/></clipPath><animate repeatCount="indefinite" dur="4.004004s" begin="0s" xlink:href="#_R_G_L_0_G_M" fill="freeze" attributeName="opacity" from="0" to="1" keyTimes="0;0.0833333;0.0833342;1" values="0;0;1;1" keySplines="0 0 0 0;0 0 0 0;0 0 0 0" calcMode="spline"/><animate attributeType="XML" attributeName="opacity" dur="4s" from="0" to="1" xlink:href="#time_group"/></defs><g id="_R_G"><g id="_R_G_L_1_G"><g clip-path="url(#_R_G_L_1_C_0)"><path id="_R_G_L_1_G_G_0_D_0_P_0" fill="#ff4c00" fill-opacity="1" fill-rule="nonzero" d=" M1.14 31.39 C1.14,29.71 1.2,28.03 1.13,26.36 C1.04,24.43 1.97,23.08 3.49,22.02 C5.54,20.59 7.9,19.9 10.33,19.43 C14.86,18.56 19.4,18.58 23.92,19.5 C26.24,19.97 28.49,20.66 30.45,22.04 C31.59,22.85 32.48,23.85 32.71,25.27 C32.75,25.53 32.75,25.79 32.75,26.05 C32.75,29.52 32.71,32.99 32.77,36.46 C32.81,38.37 31.93,39.71 30.43,40.77 C28.61,42.05 26.53,42.72 24.38,43.2 C20.19,44.12 15.96,44.23 11.72,43.61 C9.49,43.28 7.32,42.76 5.28,41.81 C3.82,41.12 2.49,40.28 1.66,38.86 C1.3,38.25 1.14,37.59 1.14,36.9 C1.14,35.06 1.14,33.22 1.14,31.39z  M16.86 30 C19.8,29.98 22.63,29.71 25.38,28.87 C26.77,28.44 28.12,27.94 29.22,26.95 C30.09,26.16 30.09,25.44 29.21,24.64 C28.34,23.85 27.28,23.39 26.18,23 C23.8,22.16 21.33,21.78 18.81,21.66 C15.3,21.48 11.84,21.73 8.47,22.74 C7.1,23.16 5.76,23.67 4.68,24.65 C3.81,25.44 3.81,26.16 4.68,26.95 C5.55,27.75 6.61,28.22 7.72,28.6 C10.69,29.65 13.79,29.97 16.86,30z  M4.02 29.97 C4.02,30.31 4.04,30.57 4.01,30.83 C3.9,31.76 4.34,32.43 5.1,32.88 C5.94,33.37 6.8,33.88 7.72,34.19 C13.04,35.95 18.46,35.98 23.91,34.85 C25.49,34.53 27.04,34.04 28.4,33.16 C30,32.13 29.98,31.69 29.82,30 C25.82,32.16 21.45,32.78 16.97,32.78 C12.48,32.78 8.09,32.16 4.02,29.97z  M29.88 35.56 C25.81,37.75 21.44,38.38 16.96,38.38 C12.47,38.38 8.09,37.76 4.02,35.56 C4.02,35.89 4.05,36.17 4.01,36.43 C3.9,37.34 4.32,38.02 5.07,38.46 C5.92,38.96 6.8,39.45 7.72,39.79 C10.7,40.87 13.82,41.19 16.98,41.19 C20.12,41.19 23.22,40.84 26.19,39.8 C27.31,39.41 28.38,38.92 29.26,38.11 C29.6,37.8 29.87,37.43 29.88,36.94 C29.89,36.51 29.88,36.07 29.88,35.56z "/></g></g><g id="_R_G_L_0_G_M"><g id="_R_G_L_0_G"><g clip-path="url(#_R_G_L_0_C_0)"><path id="_R_G_L_0_G_G_0_D_0_P_0" fill="#6d6e71" fill-opacity="1" fill-rule="nonzero" d=" M47.12 37.43 C46.65,39.71 44.93,40.88 42.97,41.81 C40.64,42.9 38.15,43.44 35.6,43.73 C35.2,43.78 34.8,43.82 34.4,43.87 C33.59,43.96 32.87,43.43 32.77,42.65 C32.67,41.9 33.22,41.19 34.02,41.11 C36.03,40.9 38.03,40.63 39.94,39.98 C40.92,39.64 41.87,39.2 42.79,38.73 C44.07,38.08 44.52,37.01 44.19,35.62 C44.18,35.63 44.11,35.62 44.07,35.64 C42.14,36.78 40,37.37 37.81,37.8 C37.32,37.89 36.85,38.01 36.38,37.73 C35.85,37.41 35.55,36.89 35.65,36.34 C35.75,35.74 36.11,35.33 36.72,35.17 C37.63,34.95 38.56,34.78 39.46,34.53 C40.9,34.12 42.29,33.6 43.47,32.64 C44.02,32.19 44.33,31.66 44.25,30.93 C44.22,30.63 44.25,30.33 44.25,29.98 C43.65,30.28 43.1,30.56 42.53,30.81 C40.89,31.54 39.15,31.96 37.38,32.28 C36.55,32.43 35.82,31.95 35.66,31.19 C35.5,30.44 36,29.76 36.83,29.54 C38.23,29.18 39.65,28.87 41,28.38 C41.9,28.06 42.7,27.5 43.51,26.98 C44.07,26.62 44.32,26.07 44.25,25.39 C44.22,25.07 44.25,24.75 44.25,24.4 C44.17,24.42 44.11,24.42 44.06,24.45 C42.02,25.65 39.75,26.23 37.44,26.67 C36.58,26.83 35.83,26.37 35.66,25.6 C35.49,24.84 36,24.16 36.86,23.94 C38.24,23.58 39.65,23.27 40.99,22.79 C41.88,22.47 42.69,21.91 43.5,21.39 C44.08,21.02 44.32,20.45 44.25,19.76 C44.22,19.44 44.25,19.12 44.25,18.76 C44.15,18.8 44.06,18.81 44,18.85 C41.63,20.19 39.04,20.84 36.36,21.24 C35.71,21.34 35.06,21.4 34.41,21.48 C33.58,21.57 32.87,21.04 32.77,20.26 C32.67,19.49 33.22,18.79 34.06,18.71 C36.07,18.51 38.07,18.23 39.98,17.57 C40.95,17.24 41.92,16.86 42.78,16.32 C44.43,15.3 44.33,14.91 44.2,13.2 C40.18,15.36 35.79,15.99 31.3,15.98 C26.82,15.98 22.45,15.36 18.39,13.17 C18.39,13.64 18.39,14.05 18.39,14.47 C18.38,15.37 17.79,15.99 16.96,16 C16.11,16.01 15.52,15.37 15.51,14.45 C15.51,12.67 15.52,10.89 15.51,9.11 C15.51,7.37 16.49,6.19 17.83,5.24 C19.64,3.95 21.73,3.28 23.88,2.8 C28.07,1.88 32.3,1.77 36.54,2.39 C38.77,2.72 40.94,3.24 42.98,4.19 C44.47,4.89 45.84,5.74 46.64,7.22 C46.86,7.61 46.96,8.06 47.12,8.48 C47.12,8.48 47.12,37.43 47.12,37.43z  M31.24 13.21 C34.17,13.18 37,12.91 39.75,12.07 C41.14,11.64 42.5,11.14 43.59,10.15 C44.46,9.36 44.46,8.65 43.58,7.85 C42.71,7.05 41.65,6.59 40.55,6.2 C38.17,5.36 35.69,4.99 33.17,4.86 C29.67,4.68 26.21,4.94 22.84,5.95 C21.47,6.36 20.13,6.88 19.05,7.85 C18.17,8.65 18.18,9.36 19.06,10.16 C19.92,10.95 20.99,11.42 22.09,11.81 C25.06,12.86 28.16,13.17 31.24,13.21z "/></g></g></g></g><g id="time_group"/></svg>