<svg width="24" height="17" viewBox="0 0 24 17" fill="none" xmlns="http://www.w3.org/2000/svg">
  <path
    d="M24 15.0954C23.8738 15.5498 23.6655 15.9537 23.2175 16.143C22.965 16.2503 22.6747 16.3134 22.4034 16.3134C19.4688 16.326 16.528 16.3197 13.5935 16.3197C9.61136 16.3197 5.62924 16.3197 1.64081 16.3197C0.580595 16.3197 0 15.7455 0 14.6916C0 10.3434 0 5.98894 0 1.64079C0 0.580579 0.574284 0.0126147 1.64081 0.0126147C8.50066 0.0126147 15.3542 0.0189324 22.214 0C23.1859 0 23.8044 0.40388 24 1.2306V15.1018V15.0954ZM0.978175 6.72732C0.978175 6.82199 0.965554 6.8977 0.965554 6.97343C0.965554 9.54824 0.965554 12.1294 0.965554 14.7042C0.965554 15.1964 1.12963 15.3605 1.6345 15.3605C8.54483 15.3605 15.4615 15.3605 22.3718 15.3605C22.8893 15.3605 23.0471 15.2027 23.0471 14.6916C23.0471 12.1231 23.0471 9.55456 23.0471 6.97975C23.0471 6.89771 23.0408 6.81567 23.0344 6.72101H0.971864L0.978175 6.72732ZM0.978175 3.83696H23.0281C23.0281 3.76123 23.0408 3.69182 23.0408 3.62871C23.0408 2.94715 23.0408 2.27188 23.0408 1.59032C23.0408 1.14225 22.8641 0.965553 22.416 0.965553C15.4741 0.965553 8.53221 0.965553 1.59032 0.965553C1.14226 0.965553 0.965554 1.14225 0.965554 1.59032C0.965554 2.27188 0.965554 2.94715 0.965554 3.62871C0.965554 3.69813 0.971864 3.76755 0.978175 3.84328V3.83696Z"
    fill="#F95C04" />
  <path
    d="M8.65212 9.60505C10.0468 9.60505 11.4478 9.60505 12.8425 9.60505C13.177 9.60505 13.3537 9.72495 13.4168 9.97107C13.4799 10.2424 13.3158 10.4949 13.0444 10.5454C12.9561 10.558 12.8551 10.558 12.7668 10.558C10.0216 10.558 7.27636 10.558 4.52485 10.558C4.43019 10.558 4.33552 10.558 4.24717 10.5454C4.01998 10.5075 3.8559 10.3118 3.8559 10.0847C3.8559 9.85116 4.0263 9.64922 4.2598 9.61766C4.35446 9.60504 4.44912 9.60505 4.53747 9.60505C5.91323 9.60505 7.28267 9.60505 8.65843 9.60505H8.65212Z"
    fill="#F95C04" />
  <path
    d="M6.72732 11.5235C7.50986 11.5235 8.28609 11.5235 9.06863 11.5235C9.45359 11.5235 9.68709 11.8264 9.56087 12.1546C9.47883 12.3692 9.30844 12.4638 9.08756 12.4701C8.7594 12.4701 8.43124 12.4701 8.10308 12.4701C6.90402 12.4701 5.69866 12.4701 4.49961 12.4701C4.41125 12.4701 4.32921 12.4701 4.24086 12.4575C4.00736 12.4197 3.83697 12.2114 3.84328 11.9779C3.84959 11.7444 4.0263 11.5425 4.26611 11.5298C4.63844 11.5109 5.01709 11.5172 5.38943 11.5172C5.83119 11.5172 6.27925 11.5172 6.72101 11.5172L6.72732 11.5235Z"
    fill="#F95C04" />
</svg>