<svg xmlns="http://www.w3.org/2000/svg" xmlns:xlink="http://www.w3.org/1999/xlink" preserveAspectRatio="xMidYMid meet" width="80" height="80" viewBox="0 0 80 80" style="width:100%;height:100%"><defs><animate repeatCount="indefinite" dur="6.006006s" begin="0s" xlink:href="#_R_G_L_13_C_0_P_0" fill="freeze" attributeName="d" attributeType="XML" from="M-62.51 -82.5 C-62.51,-82.5 -62.51,-2.5 -62.51,-2.5 C-62.51,-2.5 -2.73,-2.5 -2.73,-2.5 C-2.73,-2.5 -2.73,-82.5 -2.73,-82.5 C-2.73,-82.5 -62.51,-82.5 -62.51,-82.5z " to="M2.49 0 C2.49,0 2.49,80 2.49,80 C2.49,80 62.27,80 62.27,80 C62.27,80 62.27,0 62.27,0 C62.27,0 2.49,0 2.49,0z " keyTimes="0;0.3333333;0.4166667;1" values="M-62.51 -82.5 C-62.51,-82.5 -62.51,-2.5 -62.51,-2.5 C-62.51,-2.5 -2.73,-2.5 -2.73,-2.5 C-2.73,-2.5 -2.73,-82.5 -2.73,-82.5 C-2.73,-82.5 -62.51,-82.5 -62.51,-82.5z ;M-62.51 -82.5 C-62.51,-82.5 -62.51,-2.5 -62.51,-2.5 C-62.51,-2.5 -2.73,-2.5 -2.73,-2.5 C-2.73,-2.5 -2.73,-82.5 -2.73,-82.5 C-2.73,-82.5 -62.51,-82.5 -62.51,-82.5z ;M2.49 0 C2.49,0 2.49,80 2.49,80 C2.49,80 62.27,80 62.27,80 C62.27,80 62.27,0 62.27,0 C62.27,0 2.49,0 2.49,0z ;M2.49 0 C2.49,0 2.49,80 2.49,80 C2.49,80 62.27,80 62.27,80 C62.27,80 62.27,0 62.27,0 C62.27,0 2.49,0 2.49,0z " keySplines="0.167 0.167 0.667 1;0.167 0.167 0.667 1;0 0 0 0" calcMode="spline"/><clipPath id="_R_G_L_13_C_0"><path id="_R_G_L_13_C_0_P_0" fill-rule="nonzero"/></clipPath><animate repeatCount="indefinite" dur="6.006006s" begin="0s" xlink:href="#_R_G_L_13_G_M" fill="freeze" attributeName="opacity" from="0" to="1" keyTimes="0;0.3333333;0.3333339;1" values="0;0;1;1" keySplines="0 0 0 0;0 0 0 0;0 0 0 0" calcMode="spline"/><animate repeatCount="indefinite" dur="6.006006s" begin="0s" xlink:href="#_R_G_L_12_G" fill="freeze" attributeName="opacity" from="0" to="1" keyTimes="0;0.3333333;0.3888889;1" values="0;0;1;1" keySplines="0.167 0.167 0.667 1;0.167 0.167 0.667 1;0 0 0 0" calcMode="spline"/><animateMotion repeatCount="indefinite" dur="6.006006s" begin="0s" xlink:href="#_R_G_L_12_G" fill="freeze" keyTimes="0;0.3333333;0.3888889;1" path="M50 40 C50,40 50,40 50,40 C48.33,40 41.67,40 40,40 C40,40 40,40 40,40 " keyPoints="0;0;1;1" keySplines="0.167 0.167 0.667 1;0.167 0.167 0.667 1;0 0 0 0" calcMode="spline"/><animateTransform repeatCount="indefinite" dur="6.006006s" begin="0s" xlink:href="#_R_G_L_12_G" fill="freeze" attributeName="transform" from="-40 -40" to="-40 -40" type="translate" additive="sum" keyTimes="0;1" values="-40 -40;-40 -40" keySplines="0 0 1 1" calcMode="spline"/><animate repeatCount="indefinite" dur="6.006006s" begin="0s" xlink:href="#_R_G_L_12_G_M" fill="freeze" attributeName="opacity" from="0" to="1" keyTimes="0;0.3333333;0.3333339;1" values="0;0;1;1" keySplines="0 0 0 0;0 0 0 0;0 0 0 0" calcMode="spline"/><animate repeatCount="indefinite" dur="6.006006s" begin="0s" xlink:href="#_R_G_L_11_G" fill="freeze" attributeName="opacity" from="0" to="1" keyTimes="0;0.3611111;0.4722222;1" values="0;0;1;1" keySplines="0.167 0.167 0.667 1;0.167 0.167 0.667 1;0 0 0 0" calcMode="spline"/><animateMotion repeatCount="indefinite" dur="6.006006s" begin="0s" xlink:href="#_R_G_L_11_G" fill="freeze" keyTimes="0;0.3611111;0.4722222;1" path="M25 26.5 C25,26.5 25,26.5 25,26.5 C27.5,28.75 37.5,37.75 40,40 C40,40 40,40 40,40 " keyPoints="0;0;1;1" keySplines="0.167 0.167 0.667 1;0.167 0.167 0.667 1;0 0 0 0" calcMode="spline"/><animateTransform repeatCount="indefinite" dur="6.006006s" begin="0s" xlink:href="#_R_G_L_11_G" fill="freeze" attributeName="transform" from="1.6400000000000001 1.6400000000000001" to="1 1" type="scale" additive="sum" keyTimes="0;0.3611111;0.4722222;1" values="1.6400000000000001 1.6400000000000001;1.6400000000000001 1.6400000000000001;1 1;1 1" keySplines="0.167 0.167 0.667 1;0.167 0.167 0.667 1;0 0 0 0" calcMode="spline"/><animateTransform repeatCount="indefinite" dur="6.006006s" begin="0s" xlink:href="#_R_G_L_11_G" fill="freeze" attributeName="transform" from="-40 -40" to="-40 -40" type="translate" additive="sum" keyTimes="0;1" values="-40 -40;-40 -40" keySplines="0 0 1 1" calcMode="spline"/><animate repeatCount="indefinite" dur="6.006006s" begin="0s" xlink:href="#_R_G_L_11_G_M" fill="freeze" attributeName="opacity" from="0" to="1" keyTimes="0;0.3611111;0.3611117;1" values="0;0;1;1" keySplines="0 0 0 0;0 0 0 0;0 0 0 0" calcMode="spline"/><clipPath id="_R_G_L_10_C_0"><path id="_R_G_L_10_C_0_P_0" fill-rule="nonzero" d="M12.69 66.01 C12.69,66.01 12.69,69.83 12.69,69.83 C12.69,69.83 39.92,69.83 39.92,69.83 C39.92,69.83 39.92,66.01 39.92,66.01 C39.92,66.01 12.69,66.01 12.69,66.01z "/></clipPath><animateMotion repeatCount="indefinite" dur="6.006006s" begin="0s" xlink:href="#_R_G_L_10_G_G_0_D_0_P_0_G_0_T_0" fill="freeze" keyTimes="0;0.4722222;0.5277778;1" path="M-8.83 67.93 C-8.83,67.93 -8.83,67.93 -8.83,67.93 C-2.99,67.93 20.34,67.93 26.17,67.93 C26.17,67.93 26.17,67.93 26.17,67.93 " keyPoints="0;0;1;1" keySplines="0.167 0.167 0.667 1;0.167 0.167 0.667 1;0 0 0 0" calcMode="spline"/><animate repeatCount="indefinite" dur="6.006006s" begin="0s" xlink:href="#_R_G_L_10_G_M" fill="freeze" attributeName="opacity" from="0" to="1" keyTimes="0;0.4722222;0.4722228;1" values="0;0;1;1" keySplines="0 0 0 0;0 0 0 0;0 0 0 0" calcMode="spline"/><clipPath id="_R_G_L_9_C_0"><path id="_R_G_L_9_C_0_P_0" fill-rule="nonzero" d="M12.68 55.85 C12.68,55.85 12.68,59.68 12.68,59.68 C12.68,59.68 39.97,59.68 39.97,59.68 C39.97,59.68 39.97,55.85 39.97,55.85 C39.97,55.85 12.68,55.85 12.68,55.85z "/></clipPath><animateMotion repeatCount="indefinite" dur="6.006006s" begin="0s" xlink:href="#_R_G_L_9_G_G_0_D_0_P_0_G_0_T_0" fill="freeze" keyTimes="0;0.4444444;0.5;1" path="M-8.72 57.77 C-8.72,57.77 -8.72,57.77 -8.72,57.77 C-2.88,57.77 20.45,57.77 26.28,57.77 C26.28,57.77 26.28,57.77 26.28,57.77 " keyPoints="0;0;1;1" keySplines="0.167 0.167 0.667 1;0.167 0.167 0.667 1;0 0 0 0" calcMode="spline"/><animate repeatCount="indefinite" dur="6.006006s" begin="0s" xlink:href="#_R_G_L_9_G_M" fill="freeze" attributeName="opacity" from="0" to="1" keyTimes="0;0.4444444;0.444445;1" values="0;0;1;1" keySplines="0 0 0 0;0 0 0 0;0 0 0 0" calcMode="spline"/><clipPath id="_R_G_L_8_C_0"><path id="_R_G_L_8_C_0_P_0" fill-rule="nonzero" d="M12.69 45.7 C12.69,45.7 12.69,49.52 12.69,49.52 C12.69,49.52 45.23,49.52 45.23,49.52 C45.23,49.52 45.23,45.7 45.23,45.7 C45.23,45.7 12.69,45.7 12.69,45.7z "/></clipPath><animateMotion repeatCount="indefinite" dur="6.006006s" begin="0s" xlink:href="#_R_G_L_8_G_G_0_D_0_P_0_G_0_T_0" fill="freeze" keyTimes="0;0.4166666;0.4722222;1" path="M-6.13 47.61 C-6.13,47.61 -6.13,47.61 -6.13,47.61 C-0.29,47.61 23.04,47.61 28.87,47.61 C28.87,47.61 28.87,47.61 28.87,47.61 " keyPoints="0;0;1;1" keySplines="0.167 0.167 0.667 1;0.167 0.167 0.667 1;0 0 0 0" calcMode="spline"/><animate repeatCount="indefinite" dur="6.006006s" begin="0s" xlink:href="#_R_G_L_8_G_M" fill="freeze" attributeName="opacity" from="0" to="1" keyTimes="0;0.4166667;0.4166672;1" values="0;0;1;1" keySplines="0 0 0 0;0 0 0 0;0 0 0 0" calcMode="spline"/><animate repeatCount="indefinite" dur="6.006006s" begin="0s" xlink:href="#_R_G_L_7_G" fill="freeze" attributeName="opacity" from="0" to="1" keyTimes="0;0.3888889;0.4444444;1" values="0;0;1;1" keySplines="0.167 0.167 0.667 1;0.167 0.167 0.667 1;0 0 0 0" calcMode="spline"/><animateMotion repeatCount="indefinite" dur="6.006006s" begin="0s" xlink:href="#_R_G_L_7_G" fill="freeze" keyTimes="0;0.3888889;0.4444444;1" path="M40 35 C40,35 40,35 40,35 C40,35.83 40,39.17 40,40 C40,40 40,40 40,40 " keyPoints="0;0;1;1" keySplines="0.167 0.167 0.667 1;0.167 0.167 0.667 1;0 0 0 0" calcMode="spline"/><animateTransform repeatCount="indefinite" dur="6.006006s" begin="0s" xlink:href="#_R_G_L_7_G" fill="freeze" attributeName="transform" from="-40 -40" to="-40 -40" type="translate" additive="sum" keyTimes="0;1" values="-40 -40;-40 -40" keySplines="0 0 1 1" calcMode="spline"/><animate repeatCount="indefinite" dur="6.006006s" begin="0s" xlink:href="#_R_G_L_7_G_M" fill="freeze" attributeName="opacity" from="0" to="1" keyTimes="0;0.3888889;0.3888894;1" values="0;0;1;1" keySplines="0 0 0 0;0 0 0 0;0 0 0 0" calcMode="spline"/><animate repeatCount="indefinite" dur="6.006006s" begin="0s" xlink:href="#_R_G_L_6_G_M" fill="freeze" attributeName="opacity" from="1" to="0" keyTimes="0;0.3333333;0.3333333;1" values="1;1;0;0" keySplines="0 0 0 0;0 0 0 0;0 0 0 0" calcMode="spline"/><animate repeatCount="indefinite" dur="6.006006s" begin="0s" xlink:href="#_R_G_L_5_G_M" fill="freeze" attributeName="opacity" from="1" to="0" keyTimes="0;0.3333333;0.3333333;1" values="1;1;0;0" keySplines="0 0 0 0;0 0 0 0;0 0 0 0" calcMode="spline"/><animate repeatCount="indefinite" dur="6.006006s" begin="0s" xlink:href="#_R_G_L_4_G_M" fill="freeze" attributeName="opacity" from="1" to="0" keyTimes="0;0.3333333;0.3333333;1" values="1;1;0;0" keySplines="0 0 0 0;0 0 0 0;0 0 0 0" calcMode="spline"/><animate repeatCount="indefinite" dur="6.006006s" begin="0s" xlink:href="#_R_G_L_3_G_M" fill="freeze" attributeName="opacity" from="1" to="0" keyTimes="0;0.3333333;0.3333333;1" values="1;1;0;0" keySplines="0 0 0 0;0 0 0 0;0 0 0 0" calcMode="spline"/><animate repeatCount="indefinite" dur="6.006006s" begin="0s" xlink:href="#_R_G_L_2_G_M" fill="freeze" attributeName="opacity" from="1" to="0" keyTimes="0;0.3333333;0.3333333;1" values="1;1;0;0" keySplines="0 0 0 0;0 0 0 0;0 0 0 0" calcMode="spline"/><animate repeatCount="indefinite" dur="6.006006s" begin="0s" xlink:href="#_R_G_L_1_G_M" fill="freeze" attributeName="opacity" from="1" to="0" keyTimes="0;0.3333333;0.3333333;1" values="1;1;0;0" keySplines="0 0 0 0;0 0 0 0;0 0 0 0" calcMode="spline"/><animate repeatCount="indefinite" dur="6.006006s" begin="0s" xlink:href="#_R_G_L_0_G_M" fill="freeze" attributeName="opacity" from="1" to="0" keyTimes="0;0.3333333;0.3333333;1" values="1;1;0;0" keySplines="0 0 0 0;0 0 0 0;0 0 0 0" calcMode="spline"/><animate attributeType="XML" attributeName="opacity" dur="6s" from="0" to="1" xlink:href="#time_group"/></defs><g id="_R_G"><g id="_R_G_L_13_G_M"><g id="_R_G_L_13_G"><g clip-path="url(#_R_G_L_13_C_0)"><path id="_R_G_L_13_G_G_0_D_0_P_0" fill="#ffffff" fill-opacity="1" fill-rule="nonzero" d=" M6.36 80 C6.25,79.95 6.13,79.89 6.01,79.86 C3.95,79.34 2.66,77.81 2.5,75.69 C2.49,75.49 2.49,75.28 2.49,75.07 C2.49,51.69 2.49,28.31 2.5,4.94 C2.5,4.35 2.55,3.73 2.72,3.17 C3.27,1.24 4.98,0.02 7.07,0.02 C11.48,0.01 15.89,0.01 20.3,0.01 C30,0.01 39.7,0.02 49.4,0 C50.33,0 51.04,0.28 51.7,0.93 C54.91,4.1 58.14,7.24 61.38,10.38 C61.97,10.96 62.27,11.59 62.27,12.44 C62.26,21.53 62.26,30.61 62.26,39.7 C62.26,41.07 61.55,41.89 60.38,41.9 C59.38,41.91 58.58,41.19 58.49,40.2 C58.46,39.91 58.47,39.62 58.47,39.34 C58.47,32.07 58.47,24.81 58.47,17.55 C58.47,17.55 58.47,16.52 58.47,16.52 C58.09,16.52 57.79,16.52 57.48,16.52 C54.38,16.52 51.28,16.52 48.17,16.52 C46.42,16.52 45.75,15.86 45.75,14.12 C45.74,11 45.75,7.88 45.75,4.75 C45.75,4.47 45.75,4.2 45.75,3.81 C45.75,3.81 44.82,3.81 44.82,3.81 C32.4,3.81 19.99,3.81 7.57,3.81 C6.41,3.81 6.33,3.89 6.33,5.06 C6.33,28.36 6.33,51.66 6.33,74.96 C6.33,76.07 6.42,76.16 7.53,76.16 C19.16,76.16 30.8,76.16 42.43,76.16 C42.72,76.16 43.01,76.15 43.29,76.17 C44.28,76.25 44.98,76.81 45.16,77.66 C45.35,78.53 44.94,79.33 44.08,79.8 C43.98,79.86 43.88,79.93 43.77,80 C43.77,80 6.36,80 6.36,80z  M49.61 4.23 C49.61,4.23 49.61,12.65 49.61,12.65 C49.61,12.65 58.23,12.65 58.23,12.65 C55.32,9.81 52.52,7.07 49.61,4.23z "/></g></g></g><g id="_R_G_L_12_G_M"><g id="_R_G_L_12_G"><path id="_R_G_L_12_G_D_0_P_0" fill="#ffffff" fill-opacity="1" fill-rule="nonzero" d=" M58.8 80 C57.89,79.82 56.96,79.68 56.06,79.44 C48.26,77.39 42.86,70.19 43.2,62.33 C43.55,54.13 49.37,47.43 57.4,45.98 C67.27,44.2 76.69,51.48 77.46,61.47 C78.16,70.7 71.61,78.73 62.46,79.86 C62.28,79.88 62.11,79.95 61.93,80 C61.93,80 58.8,80 58.8,80z  M47.03 62.83 C47.01,70.17 52.94,76.15 60.31,76.2 C67.63,76.25 73.66,70.29 73.7,62.94 C73.74,55.59 67.8,49.57 60.46,49.54 C53.05,49.5 47.05,55.44 47.03,62.83z "/></g></g><g id="_R_G_L_11_G_M"><g id="_R_G_L_11_G"><path id="_R_G_L_11_G_D_0_P_0" fill="#ffda5e" fill-opacity="1" fill-rule="nonzero" d=" M58.7 64.05 C60.67,62.08 62.58,60.17 64.5,58.26 C64.72,58.03 64.93,57.81 65.17,57.6 C65.97,56.92 67.08,56.95 67.79,57.67 C68.51,58.39 68.55,59.48 67.83,60.28 C67.33,60.84 66.78,61.36 66.24,61.89 C64.27,63.86 62.3,65.83 60.32,67.8 C59.18,68.93 58.22,68.93 57.08,67.8 C55.77,66.5 54.46,65.2 53.16,63.88 C52.21,62.93 52.13,61.8 52.95,60.99 C53.76,60.19 54.91,60.27 55.85,61.2 C56.79,62.13 57.73,63.07 58.7,64.05z "/></g></g><g id="_R_G_L_10_G_M"><g id="_R_G_L_10_G"><g clip-path="url(#_R_G_L_10_C_0)"><g id="_R_G_L_10_G_G_0_D_0_P_0_G_0_T_0"><path id="_R_G_L_10_G_G_0_D_0_P_0" fill="#ffda5e" fill-opacity="1" fill-rule="nonzero" d=" M0.14 1.9 C-3.69,1.9 -7.53,1.91 -11.36,1.89 C-12.82,1.89 -13.75,0.81 -13.42,-0.47 C-13.22,-1.25 -12.71,-1.73 -11.91,-1.86 C-11.58,-1.92 -11.24,-1.92 -10.9,-1.92 C-3.55,-1.92 3.81,-1.92 11.16,-1.92 C11.42,-1.92 11.68,-1.92 11.94,-1.9 C13.02,-1.8 13.75,-1.03 13.75,-0.02 C13.75,1.03 12.98,1.84 11.87,1.89 C10.94,1.93 10,1.9 9.06,1.9 C6.08,1.9 3.11,1.9 0.14,1.9z "/></g></g></g></g><g id="_R_G_L_9_G_M"><g id="_R_G_L_9_G"><g clip-path="url(#_R_G_L_9_C_0)"><g id="_R_G_L_9_G_G_0_D_0_P_0_G_0_T_0"><path id="_R_G_L_9_G_G_0_D_0_P_0" fill="#ffda5e" fill-opacity="1" fill-rule="nonzero" d=" M0.04 1.91 C-3.79,1.91 -7.62,1.92 -11.46,1.9 C-12.79,1.9 -13.69,1.01 -13.6,-0.14 C-13.53,-1.01 -12.9,-1.71 -12.04,-1.85 C-11.71,-1.91 -11.37,-1.91 -11.03,-1.91 C-3.65,-1.92 3.72,-1.92 11.1,-1.92 C11.28,-1.92 11.47,-1.92 11.65,-1.91 C12.87,-1.85 13.69,-1.07 13.68,0.01 C13.67,1.1 12.83,1.89 11.61,1.9 C9.27,1.92 6.92,1.91 4.58,1.91 C3.06,1.91 1.55,1.91 0.04,1.91z "/></g></g></g></g><g id="_R_G_L_8_G_M"><g id="_R_G_L_8_G"><g clip-path="url(#_R_G_L_8_C_0)"><g id="_R_G_L_8_G_G_0_D_0_P_0_G_0_T_0"><path id="_R_G_L_8_G_G_0_D_0_P_0" fill="#ffda5e" fill-opacity="1" fill-rule="nonzero" d=" M0.12 -1.91 C4.65,-1.91 9.19,-1.91 13.73,-1.91 C14.04,-1.91 14.35,-1.91 14.66,-1.87 C15.67,-1.75 16.34,-1.02 16.36,-0.06 C16.38,0.91 15.75,1.69 14.77,1.87 C14.59,1.9 14.41,1.91 14.23,1.91 C4.81,1.91 -4.6,1.91 -14.01,1.91 C-15.17,1.91 -15.9,1.38 -16.13,0.44 C-16.38,-0.61 -15.73,-1.65 -14.66,-1.84 C-14.31,-1.91 -13.94,-1.91 -13.57,-1.91 C-9.01,-1.91 -4.45,-1.91 0.12,-1.91z "/></g></g></g></g><g id="_R_G_L_7_G_M"><g id="_R_G_L_7_G"><path id="_R_G_L_7_G_D_0_P_0" fill="#ffffff" fill-opacity="1" fill-rule="nonzero" d=" M30.49 35.37 C28.48,34.55 27.15,33.17 26.64,31.1 C26.54,30.67 26.49,30.22 26.49,29.78 C26.5,28.73 27.26,27.93 28.27,27.85 C29.22,27.79 30.07,28.47 30.26,29.47 C30.3,29.67 30.29,29.89 30.33,30.09 C30.49,31.08 31.34,31.81 32.34,31.83 C33.33,31.85 34.17,31.22 34.4,30.26 C34.85,28.47 34.07,27.16 32.3,26.71 C31.87,26.6 31.44,26.51 31.02,26.38 C28.69,25.65 27.14,24.12 26.64,21.73 C26.15,19.37 26.51,17.15 28.41,15.43 C28.89,15.01 29.51,14.74 30.02,14.35 C30.23,14.2 30.41,13.92 30.46,13.67 C30.53,13.27 30.46,12.84 30.49,12.43 C30.56,11.37 31.36,10.63 32.37,10.62 C33.41,10.61 34.29,11.33 34.24,12.4 C34.18,13.61 34.54,14.29 35.66,14.93 C37.43,15.92 38.25,17.66 38.29,19.7 C38.31,20.8 37.51,21.62 36.47,21.67 C35.47,21.71 34.64,21 34.52,19.93 C34.41,18.84 33.98,18.04 32.86,17.74 C32.07,17.53 31.21,17.86 30.71,18.53 C29.68,19.91 30.36,22.13 31.98,22.67 C32.53,22.86 33.09,22.97 33.64,23.12 C36.21,23.83 38.02,25.94 38.28,28.52 C38.58,31.59 37.37,33.86 34.79,35.17 C34.56,35.28 34.37,35.63 34.31,35.9 C34.22,36.3 34.3,36.73 34.26,37.14 C34.18,38.18 33.42,38.89 32.43,38.91 C31.42,38.94 30.58,38.19 30.49,37.15 C30.45,36.56 30.49,35.96 30.49,35.37z "/></g></g><g id="_R_G_L_6_G_M"><g id="_R_G_L_6_G"><path id="_R_G_L_6_G_D_0_P_0" fill="#ffffff" fill-opacity="1" fill-rule="nonzero" d=" M30.49 35.37 C28.48,34.55 27.15,33.17 26.64,31.1 C26.54,30.67 26.49,30.22 26.49,29.78 C26.5,28.73 27.26,27.93 28.27,27.85 C29.22,27.79 30.07,28.47 30.26,29.47 C30.3,29.67 30.29,29.89 30.33,30.09 C30.49,31.08 31.34,31.81 32.34,31.83 C33.33,31.85 34.17,31.22 34.4,30.26 C34.85,28.47 34.07,27.16 32.3,26.71 C31.87,26.6 31.44,26.51 31.02,26.38 C28.69,25.65 27.14,24.12 26.64,21.73 C26.15,19.37 26.51,17.15 28.41,15.43 C28.89,15.01 29.51,14.74 30.02,14.35 C30.23,14.2 30.41,13.92 30.46,13.67 C30.53,13.27 30.46,12.84 30.49,12.43 C30.56,11.37 31.36,10.63 32.37,10.62 C33.41,10.61 34.29,11.33 34.24,12.4 C34.18,13.61 34.54,14.29 35.66,14.93 C37.43,15.92 38.25,17.66 38.29,19.7 C38.31,20.8 37.51,21.62 36.47,21.67 C35.47,21.71 34.64,21 34.52,19.93 C34.41,18.84 33.98,18.04 32.86,17.74 C32.07,17.53 31.21,17.86 30.71,18.53 C29.68,19.91 30.36,22.13 31.98,22.67 C32.53,22.86 33.09,22.97 33.64,23.12 C36.21,23.83 38.02,25.94 38.28,28.52 C38.58,31.59 37.37,33.86 34.79,35.17 C34.56,35.28 34.37,35.63 34.31,35.9 C34.22,36.3 34.3,36.73 34.26,37.14 C34.18,38.18 33.42,38.89 32.43,38.91 C31.42,38.94 30.58,38.19 30.49,37.15 C30.45,36.56 30.49,35.96 30.49,35.37z "/></g></g><g id="_R_G_L_5_G_M"><g id="_R_G_L_5_G"><path id="_R_G_L_5_G_D_0_P_0" fill="#ffda5e" fill-opacity="1" fill-rule="nonzero" d=" M28.99 45.7 C33.53,45.7 38.06,45.7 42.6,45.7 C42.91,45.7 43.23,45.7 43.54,45.74 C44.54,45.86 45.21,46.59 45.23,47.56 C45.26,48.52 44.62,49.3 43.64,49.48 C43.47,49.52 43.28,49.52 43.1,49.52 C33.69,49.52 24.27,49.53 14.86,49.52 C13.71,49.52 12.98,48.99 12.75,48.05 C12.49,47 13.14,45.96 14.21,45.77 C14.57,45.7 14.94,45.7 15.3,45.7 C19.86,45.7 24.43,45.7 28.99,45.7z "/></g></g><g id="_R_G_L_4_G_M"><g id="_R_G_L_4_G"><path id="_R_G_L_4_G_D_0_P_0" fill="#ffda5e" fill-opacity="1" fill-rule="nonzero" d=" M26.32 59.68 C22.49,59.68 18.66,59.69 14.83,59.67 C13.5,59.67 12.59,58.78 12.68,57.63 C12.76,56.76 13.38,56.06 14.24,55.92 C14.57,55.86 14.92,55.86 15.26,55.86 C22.63,55.85 30.01,55.85 37.39,55.85 C37.57,55.85 37.75,55.85 37.93,55.86 C39.15,55.92 39.98,56.71 39.96,57.78 C39.95,58.87 39.11,59.66 37.9,59.67 C35.55,59.69 33.21,59.68 30.86,59.68 C29.35,59.68 27.83,59.68 26.32,59.68z "/></g></g><g id="_R_G_L_3_G_M"><g id="_R_G_L_3_G"><path id="_R_G_L_3_G_D_0_P_0" fill="#ffda5e" fill-opacity="1" fill-rule="nonzero" d=" M26.31 69.83 C22.48,69.83 18.65,69.83 14.81,69.82 C13.35,69.82 12.42,68.74 12.75,67.46 C12.96,66.68 13.46,66.2 14.26,66.07 C14.59,66.01 14.93,66.01 15.27,66.01 C22.63,66.01 29.98,66.01 37.33,66.01 C37.59,66.01 37.86,66 38.12,66.03 C39.2,66.13 39.92,66.9 39.92,67.91 C39.92,68.96 39.15,69.77 38.05,69.81 C37.11,69.85 36.17,69.83 35.23,69.83 C32.26,69.83 29.29,69.83 26.31,69.83z "/></g></g><g id="_R_G_L_2_G_M"><g id="_R_G_L_2_G"><path id="_R_G_L_2_G_D_0_P_0" fill="#ffda5e" fill-opacity="1" fill-rule="nonzero" d=" M58.7 64.05 C60.67,62.08 62.58,60.17 64.5,58.26 C64.72,58.03 64.93,57.81 65.17,57.6 C65.97,56.92 67.08,56.95 67.79,57.67 C68.51,58.39 68.55,59.48 67.83,60.28 C67.33,60.84 66.78,61.36 66.24,61.89 C64.27,63.86 62.3,65.83 60.32,67.8 C59.18,68.93 58.22,68.93 57.08,67.8 C55.77,66.5 54.46,65.2 53.16,63.88 C52.21,62.93 52.13,61.8 52.95,60.99 C53.76,60.19 54.91,60.27 55.85,61.2 C56.79,62.13 57.73,63.07 58.7,64.05z "/></g></g><g id="_R_G_L_1_G_M"><g id="_R_G_L_1_G"><path id="_R_G_L_1_G_D_0_P_0" fill="#ffffff" fill-opacity="1" fill-rule="nonzero" d=" M58.8 80 C57.89,79.82 56.96,79.68 56.06,79.44 C48.26,77.39 42.86,70.19 43.2,62.33 C43.55,54.13 49.37,47.43 57.4,45.98 C67.27,44.2 76.69,51.48 77.46,61.47 C78.16,70.7 71.61,78.73 62.46,79.86 C62.28,79.88 62.11,79.95 61.93,80 C61.93,80 58.8,80 58.8,80z  M47.03 62.83 C47.01,70.17 52.94,76.15 60.31,76.2 C67.63,76.25 73.66,70.29 73.7,62.94 C73.74,55.59 67.8,49.57 60.46,49.54 C53.05,49.5 47.05,55.44 47.03,62.83z "/></g></g><g id="_R_G_L_0_G_M"><g id="_R_G_L_0_G"><path id="_R_G_L_0_G_D_0_P_0" fill="#ffffff" fill-opacity="1" fill-rule="nonzero" d=" M6.36 80 C6.25,79.95 6.13,79.89 6.01,79.86 C3.95,79.34 2.66,77.81 2.5,75.69 C2.49,75.49 2.49,75.28 2.49,75.07 C2.49,51.69 2.49,28.31 2.5,4.94 C2.5,4.35 2.55,3.73 2.72,3.17 C3.27,1.24 4.98,0.02 7.07,0.02 C11.48,0.01 15.89,0.01 20.3,0.01 C30,0.01 39.7,0.02 49.4,0 C50.33,0 51.04,0.28 51.7,0.93 C54.91,4.1 58.14,7.24 61.38,10.38 C61.97,10.96 62.27,11.59 62.27,12.44 C62.26,21.53 62.26,30.61 62.26,39.7 C62.26,41.07 61.55,41.89 60.38,41.9 C59.38,41.91 58.58,41.19 58.49,40.2 C58.46,39.91 58.47,39.62 58.47,39.34 C58.47,32.07 58.47,24.81 58.47,17.55 C58.47,17.55 58.47,16.52 58.47,16.52 C58.09,16.52 57.79,16.52 57.48,16.52 C54.38,16.52 51.28,16.52 48.17,16.52 C46.42,16.52 45.75,15.86 45.75,14.12 C45.74,11 45.75,7.88 45.75,4.75 C45.75,4.47 45.75,4.2 45.75,3.81 C45.75,3.81 44.82,3.81 44.82,3.81 C32.4,3.81 19.99,3.81 7.57,3.81 C6.41,3.81 6.33,3.89 6.33,5.06 C6.33,28.36 6.33,51.66 6.33,74.96 C6.33,76.07 6.42,76.16 7.53,76.16 C19.16,76.16 30.8,76.16 42.43,76.16 C42.72,76.16 43.01,76.15 43.29,76.17 C44.28,76.25 44.98,76.81 45.16,77.66 C45.35,78.53 44.94,79.33 44.08,79.8 C43.98,79.86 43.88,79.93 43.77,80 C43.77,80 6.36,80 6.36,80z  M49.61 4.23 C49.61,4.23 49.61,12.65 49.61,12.65 C49.61,12.65 58.23,12.65 58.23,12.65 C55.32,9.81 52.52,7.07 49.61,4.23z "/></g></g></g><g id="time_group"/></svg>