<svg width="24" height="20" viewBox="0 0 24 20" fill="none" xmlns="http://www.w3.org/2000/svg">
  <path
    d="M12.0037 19.9284C8.99502 19.9284 5.98634 19.9284 2.97766 19.9284C1.62056 19.9284 0.551514 19.1922 0.154625 17.9631C0.058603 17.6622 0.00739175 17.3358 0.00739175 17.0157C0.000990306 12.4771 -0.00541114 7.94486 0.00739175 3.40624C0.00739175 1.71626 1.25567 0.5 2.97766 0.5C6.65849 0.5 10.3329 0.5 14.0137 0.5C16.3631 0.5 18.7124 0.5 21.0553 0.5C22.4829 0.5 23.5967 1.35778 23.9168 2.68928C23.9808 2.94534 24 3.2206 24 3.48306C24 7.96407 24 12.4451 24 16.9325C24 18.6929 22.7837 19.9156 21.0233 19.922C18.0147 19.922 15.006 19.922 11.9973 19.922L12.0037 19.9284ZM12.0037 1.64584C9.01422 1.64584 6.02475 1.64584 3.02887 1.64584C1.85101 1.64584 1.14045 2.35 1.14045 3.52146C1.14045 7.98327 1.14045 12.4515 1.14045 16.9133C1.14045 18.0847 1.85101 18.7889 3.02887 18.7889C9.00782 18.7889 14.9932 18.7889 20.9721 18.7889C22.15 18.7889 22.8605 18.0847 22.8605 16.9133C22.8605 12.4515 22.8605 7.98327 22.8605 3.52146C22.8605 2.3436 22.15 1.64584 20.9721 1.64584C17.9826 1.64584 14.9932 1.64584 11.9973 1.64584H12.0037Z"
    fill="#F95C04" />
  <path
    d="M8.93741 10.2366C7.5611 8.86024 6.236 7.53516 4.9045 6.21006C4.53321 5.83878 4.482 5.5059 4.75726 5.24344C5.03252 4.98098 5.3398 5.03218 5.70468 5.39706C7.1322 6.82459 8.55972 8.25211 9.98724 9.67963C10.3905 10.0829 10.3905 10.3518 9.99364 10.7487C8.54692 12.1954 7.10019 13.6421 5.65346 15.0889C5.46142 15.2809 5.25658 15.4217 4.96851 15.3193C4.59723 15.1913 4.4628 14.756 4.69325 14.4423C4.75086 14.3655 4.82768 14.2951 4.89169 14.2247C6.15278 12.9636 7.41386 11.6961 8.68135 10.435C8.75176 10.3646 8.82858 10.3134 8.931 10.2301L8.93741 10.2366Z"
    fill="#F95C04" />
  <path
    d="M15.4349 15.3642C14.321 15.3642 13.2072 15.3642 12.0869 15.3642C11.7092 15.3642 11.4596 15.1593 11.434 14.8328C11.4084 14.5512 11.6132 14.2823 11.9013 14.2375C12.0037 14.2183 12.1125 14.2247 12.2213 14.2247C14.3594 14.2247 16.5039 14.2247 18.642 14.2247C18.6868 14.2247 18.7316 14.2247 18.7764 14.2247C19.1797 14.2311 19.4422 14.4615 19.4358 14.8072C19.4294 15.1401 19.1733 15.3642 18.7828 15.3642C17.669 15.3642 16.5551 15.3642 15.4349 15.3642Z"
    fill="#F95C04" />
</svg>