<svg width="33" height="33" viewBox="0 0 33 33" fill="none" xmlns="http://www.w3.org/2000/svg">
<g clip-path="url(#clip0_970_1376)">
<path d="M15.4316 0.0900879C15.9775 0.0900879 16.5118 0.0900879 17.0577 0.0900879C17.5107 0.159779 17.9637 0.20624 18.4167 0.299162C23.3997 1.28646 27.1398 5.78156 27.2559 10.869C27.3024 13.0062 26.7681 14.9808 25.7343 16.8393C23.1906 21.4621 20.6701 26.085 18.1496 30.7195C17.7779 31.3932 17.3249 31.9042 16.5583 32.0901H15.9311C15.2806 31.9159 14.7928 31.5442 14.4675 30.9402C11.8773 26.1779 9.27552 21.4273 6.6737 16.665C5.46572 14.4581 5.01272 12.1003 5.36118 9.59136C5.94194 5.29372 9.1826 1.57684 13.3757 0.473391C14.0494 0.299162 14.7463 0.217856 15.4316 0.0900879ZM20.7398 10.1024C20.7398 7.62838 18.7303 5.60733 16.2563 5.59571C13.7706 5.59571 11.7379 7.60515 11.7379 10.0908C11.7379 12.5649 13.7474 14.5859 16.2214 14.5975C18.7071 14.5975 20.7398 12.5881 20.7398 10.1024Z" fill="#F95C04"/>
</g>
<defs>
<clipPath id="clip0_970_1376">
<rect width="32" height="32" fill="white" transform="translate(0.180664 0.0900879)"/>
</clipPath>
</defs>
</svg>
