<svg width="28" height="19" viewBox="0 0 28 19" fill="none" xmlns="http://www.w3.org/2000/svg">
<path d="M28 13.7283C27.7055 14.1458 27.3935 14.1414 27.1122 13.7063C25.8246 11.6979 24.5457 9.68504 23.2404 7.68539C22.9987 7.32061 22.6559 7.01737 22.3394 6.70534C22.1373 6.50757 21.878 6.42846 21.5879 6.45044C20.9727 6.49438 20.353 6.52954 19.7553 6.5647C19.7245 6.59986 19.7069 6.61305 19.7025 6.62623C19.6205 6.95438 19.7245 7.19756 20.0146 7.35577C20.7397 7.7601 21.4605 8.16003 22.212 8.57754C22.0714 8.83244 21.9395 9.07415 21.7901 9.33785C21.2891 9.06097 20.8013 8.79288 20.3178 8.5204C19.2982 7.95347 18.283 7.38654 17.2634 6.8196C17.1272 6.74489 16.9909 6.67018 16.8459 6.61744C16.4943 6.4856 16.2834 6.55591 16.0944 6.85037C15.9406 7.09208 15.9801 7.34698 16.2526 7.57552C17.0393 8.23914 17.8347 8.89397 18.6302 9.5488C19.2719 10.0762 19.9091 10.6036 20.5595 11.1178C20.9243 11.4034 21.1616 11.7682 21.3286 12.1901C21.4605 12.5285 21.5791 12.8757 21.7374 13.2009C22.2164 14.1722 22.9591 14.7918 24.0622 14.9325C24.3391 14.9676 24.5105 15.1742 24.4841 15.4115C24.4578 15.6664 24.2424 15.8246 23.9524 15.8027C23.9172 15.8027 23.8776 15.7939 23.8425 15.7895C23.025 15.662 22.3219 15.3104 21.7417 14.7127C21.689 14.66 21.6451 14.6029 21.6187 14.5721C21.0518 15.0116 20.52 15.4643 19.9399 15.8554C18.2742 16.9805 16.4152 17.6265 14.4375 17.921C11.6732 18.3341 8.96595 18.0924 6.35542 17.0596C4.38653 16.2817 2.67254 15.1346 1.42441 13.3943C-0.614796 10.5552 -0.452187 7.12724 1.83313 4.45518C3.3054 2.7368 5.1776 1.6293 7.31789 0.978862C10.992 -0.137427 14.6177 0.0119973 18.1556 1.5414C20.0409 2.35884 21.6802 3.53226 22.7526 5.31657C23.5568 6.6526 24.5061 7.88315 25.3148 9.21039C26.1278 10.5376 26.976 11.8473 27.8066 13.1614C27.8682 13.2624 27.9341 13.3591 28 13.4558V13.7283ZM16.5339 9.69822C15.8571 9.57956 15.2066 9.4609 14.5518 9.35103C13.8794 9.23676 13.5058 8.76212 13.6157 8.08971C13.8091 6.89432 14.0156 5.70331 14.2266 4.51231C14.3233 3.97175 14.8375 3.59379 15.3692 3.68169C16.6086 3.88385 17.8479 4.0992 19.0829 4.32773C19.6103 4.42442 19.9487 4.93422 19.8915 5.46599C19.8827 5.53192 19.8739 5.60223 19.8652 5.68134C20.542 5.64179 21.1924 5.59784 21.8516 5.55828C21.8384 5.52313 21.834 5.49676 21.8209 5.47918C21.7417 5.36931 21.6626 5.25944 21.5747 5.14956C20.6342 3.97614 19.4564 3.09717 18.094 2.4775C14.521 0.851412 10.8645 0.719566 7.15528 1.95012C5.36658 2.54342 3.78883 3.51029 2.5407 4.95619C0.378437 7.45246 0.30812 10.6519 2.3693 13.2229C3.54272 14.682 5.06773 15.6444 6.7993 16.3081C8.82971 17.0859 10.9392 17.354 13.1015 17.1958C15.1759 17.0464 17.136 16.519 18.9334 15.4555C19.5136 15.1127 20.0497 14.6908 20.5991 14.3084C20.2211 14.2864 19.852 14.3524 19.5575 14.2381C18.8587 13.9612 18.1819 13.614 17.5227 13.2536C17.0832 13.0163 16.8986 12.5241 17.0129 12.0539C17.0656 11.8473 17.1799 11.6583 17.281 11.4298C16.6789 11.0343 16.2438 10.5332 16.5251 9.70262L16.5339 9.69822ZM16.1471 8.73575C16.1471 8.73575 16.1647 8.70499 16.1779 8.6918C16.068 8.59951 15.9537 8.51162 15.8527 8.41053C15.6769 8.23035 15.4791 8.05455 15.3473 7.8436C15.0264 7.33819 15.0616 6.824 15.4 6.33617C15.7472 5.83516 16.2218 5.57586 16.8327 5.73408C17.1887 5.82637 17.5227 6.00216 17.8567 6.16477C18.1731 6.31859 18.472 6.49878 18.7928 6.67457C18.8675 6.24827 18.9203 5.86153 18.9994 5.47918C19.0433 5.25943 18.9598 5.17593 18.762 5.14517C17.6326 4.9518 16.5031 4.75403 15.378 4.55626C15.2154 4.5255 15.1143 4.57384 15.088 4.74963C14.8902 5.89669 14.688 7.04374 14.4815 8.1864C14.4507 8.36659 14.5122 8.45448 14.6968 8.48525C15.1803 8.55996 15.6637 8.65225 16.1471 8.73575ZM20.1288 11.9C19.2938 11.2276 18.5159 10.5904 17.7205 9.96631C17.6589 9.91796 17.4524 9.92675 17.426 9.9707C17.3689 10.0674 17.3381 10.23 17.3821 10.3267C17.4392 10.4497 17.5754 10.542 17.6897 10.6255C18.1819 10.9859 18.6917 11.3199 19.1708 11.6979C19.4476 11.9176 19.7377 11.9484 20.1288 11.9ZM20.6035 12.757C20.5507 12.757 20.5112 12.7526 20.4804 12.757C19.7377 12.9108 19.0521 12.8317 18.472 12.2868C18.3929 12.2121 18.2962 12.1593 18.2039 12.0978C18.0237 11.9835 17.8699 12.0495 17.8875 12.256C17.8963 12.3659 17.993 12.5153 18.0896 12.5681C18.5775 12.8317 19.0829 13.0559 19.5707 13.3196C20.0102 13.5569 20.3618 13.3459 20.7573 13.1833C20.7002 13.0207 20.6518 12.8889 20.6035 12.7526V12.757Z" fill="#F95C04"/>
<path d="M12.0204 8.89397C12.0072 10.6387 11.6512 12.0758 10.9173 13.4075C10.8425 13.5393 10.7107 13.6887 10.5789 13.7239C10.4514 13.7547 10.2536 13.6887 10.1482 13.5964C9.98555 13.4558 10.0339 13.258 10.113 13.0691C10.3811 12.4142 10.7063 11.7726 10.8821 11.0914C11.4095 9.08734 11.1458 7.15801 10.1833 5.32096C10.157 5.27262 10.1306 5.22428 10.1086 5.17593C9.98116 4.90785 10.0427 4.66174 10.2756 4.54308C10.4954 4.42881 10.7459 4.49913 10.8733 4.75403C11.115 5.25943 11.3611 5.77363 11.5501 6.30101C11.7127 6.76247 11.8226 7.2459 11.9061 7.72933C11.9852 8.1864 12.0028 8.65225 12.0248 8.89397H12.0204Z" fill="#F95C04"/>
<path d="M9.95479 9.13568C9.946 10.3399 9.65594 11.4606 9.07143 12.5065C8.90882 12.801 8.65831 12.8933 8.42099 12.7526C8.19246 12.6164 8.14412 12.3835 8.30233 12.089C9.34391 10.1245 9.3527 8.16003 8.31112 6.19114C8.1617 5.90548 8.21883 5.65937 8.44736 5.53192C8.68029 5.40447 8.91761 5.49236 9.07582 5.77803C9.66034 6.824 9.946 7.94908 9.95479 9.14008V9.13568Z" fill="#F95C04"/>
<path d="M7.97711 9.13129C7.96393 10.0103 7.74858 10.8409 7.3047 11.6012C7.1377 11.8869 6.90917 11.9747 6.67624 11.8517C6.43452 11.7242 6.38179 11.4693 6.54879 11.1705C7.29152 9.80809 7.29152 8.44569 6.54 7.08769C6.38179 6.80202 6.42574 6.55152 6.64987 6.41967C6.88719 6.27904 7.12891 6.36693 7.30031 6.66139C7.74858 7.4217 7.95953 8.25232 7.97711 9.13129Z" fill="#F95C04"/>
<path d="M6.07415 9.1225C6.06975 9.72459 5.90714 10.2739 5.57753 10.775C5.40174 11.043 5.15563 11.1134 4.93149 10.9639C4.72054 10.8233 4.67659 10.5728 4.8348 10.3135C5.31823 9.52243 5.31823 8.74015 4.8348 7.94908C4.67659 7.68978 4.72493 7.43927 4.94028 7.30303C5.16002 7.1624 5.40174 7.22832 5.56874 7.48322C5.89835 7.97984 6.06096 8.53359 6.06536 9.12689L6.07415 9.1225Z" fill="#F95C04"/>
</svg>
