<svg xmlns="http://www.w3.org/2000/svg" xmlns:xlink="http://www.w3.org/1999/xlink" preserveAspectRatio="xMidYMid meet" width="48" height="48" viewBox="0 0 48 48" style="width:100%;height:100%"><defs><animate repeatCount="indefinite" dur="6.006006s" begin="0s" xlink:href="#_R_G_L_3_G" fill="freeze" attributeName="opacity" from="0" to="1" keyTimes="0;0.3888889;0.4444444;1" values="0;0;1;1" keySplines="0.167 0.167 0.833 0.833;0.167 0.167 0.833 0.833;0 0 0 0" calcMode="spline"/><animateTransform repeatCount="indefinite" dur="6.006006s" begin="0s" xlink:href="#_R_G_L_3_G" fill="freeze" attributeName="transform" from="0.51 0.51" to="1 1" type="scale" additive="sum" keyTimes="0;0.3888889;0.4444444;1" values="0.51 0.51;0.51 0.51;1 1;1 1" keySplines="0.167 0.167 0.833 0.833;0.167 0.167 0.833 0.833;0 0 0 0" calcMode="spline"/><animateTransform repeatCount="indefinite" dur="6.006006s" begin="0s" xlink:href="#_R_G_L_3_G" fill="freeze" attributeName="transform" from="-24 -24" to="-24 -24" type="translate" additive="sum" keyTimes="0;1" values="-24 -24;-24 -24" keySplines="0 0 1 1" calcMode="spline"/><animate repeatCount="indefinite" dur="6.006006s" begin="0s" xlink:href="#_R_G_L_3_G_M" fill="freeze" attributeName="opacity" from="0" to="1" keyTimes="0;0.3888889;0.3888894;1" values="0;0;1;1" keySplines="0 0 0 0;0 0 0 0;0 0 0 0" calcMode="spline"/><animate repeatCount="indefinite" dur="6.006006s" begin="0s" xlink:href="#_R_G_L_2_G" fill="freeze" attributeName="opacity" from="0" to="1" keyTimes="0;0.3333333;0.3888889;1" values="0;0;1;1" keySplines="0.167 0.167 0.667 1;0.167 0.167 0.667 1;0 0 0 0" calcMode="spline"/><animateMotion repeatCount="indefinite" dur="6.006006s" begin="0s" xlink:href="#_R_G_L_2_G" fill="freeze" keyTimes="0;0.3333333;0.3888889;1" path="M22 26 C22,26 22,26 22,26 C22.33,25.67 23.67,24.33 24,24 C24,24 24,24 24,24 " keyPoints="0;0;1;1" keySplines="0.167 0.167 0.667 1;0.167 0.167 0.667 1;0 0 0 0" calcMode="spline"/><animateTransform repeatCount="indefinite" dur="6.006006s" begin="0s" xlink:href="#_R_G_L_2_G" fill="freeze" attributeName="transform" from="0.5 0.5" to="1 1" type="scale" additive="sum" keyTimes="0;0.3333333;0.3888889;1" values="0.5 0.5;0.5 0.5;1 1;1 1" keySplines="0.167 0.167 0.667 1;0.167 0.167 0.667 1;0 0 0 0" calcMode="spline"/><animateTransform repeatCount="indefinite" dur="6.006006s" begin="0s" xlink:href="#_R_G_L_2_G" fill="freeze" attributeName="transform" from="-24 -24" to="-24 -24" type="translate" additive="sum" keyTimes="0;1" values="-24 -24;-24 -24" keySplines="0 0 1 1" calcMode="spline"/><animate repeatCount="indefinite" dur="6.006006s" begin="0s" xlink:href="#_R_G_L_2_G_M" fill="freeze" attributeName="opacity" from="0" to="1" keyTimes="0;0.3333333;0.3333339;1" values="0;0;1;1" keySplines="0 0 0 0;0 0 0 0;0 0 0 0" calcMode="spline"/><animate repeatCount="indefinite" dur="6.006006s" begin="0s" xlink:href="#_R_G_L_1_G_M" fill="freeze" attributeName="opacity" from="1" to="0" keyTimes="0;0.3333333;0.3333333;1" values="1;1;0;0" keySplines="0 0 0 0;0 0 0 0;0 0 0 0" calcMode="spline"/><animate repeatCount="indefinite" dur="6.006006s" begin="0s" xlink:href="#_R_G_L_0_G_M" fill="freeze" attributeName="opacity" from="1" to="0" keyTimes="0;0.3333333;0.3333333;1" values="1;1;0;0" keySplines="0 0 0 0;0 0 0 0;0 0 0 0" calcMode="spline"/><animate attributeType="XML" attributeName="opacity" dur="6s" from="0" to="1" xlink:href="#time_group"/></defs><g id="_R_G"><g id="_R_G_L_3_G_M"><g id="_R_G_L_3_G" transform=" translate(24, 24)"><path id="_R_G_L_3_G_D_0_P_0" fill="#f9f9f9" fill-opacity="1" fill-rule="nonzero" d=" M12.26 30.39 C11.68,29.85 11.45,29.87 10.95,30.46 C8.18,33.66 6.46,37.41 5.22,41.4 C5.04,41.98 4.96,42.59 4.88,42.92 C4.88,43.87 5.06,43.97 5.66,43.69 C7.61,42.79 9.54,41.82 11.54,41.02 C13.88,40.09 15.97,38.82 17.71,36.98 C18.26,36.39 18.31,36.18 17.74,35.63 C15.92,33.87 14.09,32.13 12.26,30.39z "/></g></g><g id="_R_G_L_2_G_M"><g id="_R_G_L_2_G"><path id="_R_G_L_2_G_D_0_P_0" fill="#f9f9f9" fill-opacity="1" fill-rule="nonzero" d=" M31.21 11.98 C31.23,9.22 33.45,7.02 36.2,7.02 C38.97,7.03 41.17,9.24 41.17,12 C41.18,14.76 38.98,16.97 36.21,16.98 C36.2,16.98 36.2,16.98 36.19,16.98 C33.43,16.98 31.18,14.73 31.21,11.98z  M41.53 0 C40.74,0.14 39.96,0.25 39.18,0.42 C36.9,0.93 34.75,1.82 32.67,2.87 C27.86,5.29 23.52,8.39 19.55,12 C18.76,12.72 18,12.99 16.97,12.65 C16.29,12.42 15.58,12.29 14.88,12.13 C13.64,11.83 12.57,12.14 11.66,13.04 C7.96,16.74 4.25,20.44 0.55,24.14 C0.52,24.18 0.48,24.21 0.45,24.24 C0.2,24.52 -0.1,24.79 0.03,25.22 C0.17,25.65 0.58,25.71 0.94,25.77 C3.63,26.19 6.32,26.6 9,27.02 C10.02,27.18 10.92,26.88 11.73,26.29 C12.33,25.85 12.45,25.84 12.99,26.38 C15.87,29.26 18.74,32.13 21.62,35 C22.16,35.54 22.15,35.67 21.69,36.31 C21.08,37.13 20.83,38.07 20.99,39.09 C21.4,41.7 21.81,44.3 22.22,46.91 C22.28,47.33 22.37,47.74 22.76,48 C22.76,48 23.23,48 23.23,48 C23.63,47.62 24.05,47.25 24.44,46.86 C27.94,43.37 31.43,39.88 34.92,36.39 C35.89,35.44 36.19,34.32 35.87,33.01 C35.68,32.23 35.51,31.43 35.3,30.65 C35.15,30.1 35.26,29.68 35.65,29.25 C39.49,25.08 42.76,20.51 45.24,15.4 C46.4,13 47.32,10.52 47.78,7.89 C47.88,7.36 47.93,6.82 48,6.28 C48,6.28 48,5.34 48,5.34 C47.9,4.75 47.84,4.14 47.68,3.56 C47.11,1.54 45.7,0.45 43.66,0.1 C43.51,0.08 43.36,0.03 43.21,0 C43.21,0 41.53,0 41.53,0z "/></g></g><g id="_R_G_L_1_G_M"><g id="_R_G_L_1_G"><path id="_R_G_L_1_G_D_0_P_0" fill="#f9f9f9" fill-opacity="1" fill-rule="nonzero" d=" M31.21 11.98 C31.23,9.22 33.45,7.02 36.2,7.02 C38.97,7.03 41.17,9.24 41.17,12 C41.18,14.76 38.98,16.97 36.21,16.98 C36.2,16.98 36.2,16.98 36.19,16.98 C33.43,16.98 31.18,14.73 31.21,11.98z  M41.53 0 C40.74,0.14 39.96,0.25 39.18,0.42 C36.9,0.93 34.75,1.82 32.67,2.87 C27.86,5.29 23.52,8.39 19.55,12 C18.76,12.72 18,12.99 16.97,12.65 C16.29,12.42 15.58,12.29 14.88,12.13 C13.64,11.83 12.57,12.14 11.66,13.04 C7.96,16.74 4.25,20.44 0.55,24.14 C0.52,24.18 0.48,24.21 0.45,24.24 C0.2,24.52 -0.1,24.79 0.03,25.22 C0.17,25.65 0.58,25.71 0.94,25.77 C3.63,26.19 6.32,26.6 9,27.02 C10.02,27.18 10.92,26.88 11.73,26.29 C12.33,25.85 12.45,25.84 12.99,26.38 C15.87,29.26 18.74,32.13 21.62,35 C22.16,35.54 22.15,35.67 21.69,36.31 C21.08,37.13 20.83,38.07 20.99,39.09 C21.4,41.7 21.81,44.3 22.22,46.91 C22.28,47.33 22.37,47.74 22.76,48 C22.76,48 23.23,48 23.23,48 C23.63,47.62 24.05,47.25 24.44,46.86 C27.94,43.37 31.43,39.88 34.92,36.39 C35.89,35.44 36.19,34.32 35.87,33.01 C35.68,32.23 35.51,31.43 35.3,30.65 C35.15,30.1 35.26,29.68 35.65,29.25 C39.49,25.08 42.76,20.51 45.24,15.4 C46.4,13 47.32,10.52 47.78,7.89 C47.88,7.36 47.93,6.82 48,6.28 C48,6.28 48,5.34 48,5.34 C47.9,4.75 47.84,4.14 47.68,3.56 C47.11,1.54 45.7,0.45 43.66,0.1 C43.51,0.08 43.36,0.03 43.21,0 C43.21,0 41.53,0 41.53,0z "/></g></g><g id="_R_G_L_0_G_M"><g id="_R_G_L_0_G"><path id="_R_G_L_0_G_D_0_P_0" fill="#f9f9f9" fill-opacity="1" fill-rule="nonzero" d=" M12.26 30.39 C11.68,29.85 11.45,29.87 10.95,30.46 C8.18,33.66 6.46,37.41 5.22,41.4 C5.04,41.98 4.96,42.59 4.88,42.92 C4.88,43.87 5.06,43.97 5.66,43.69 C7.61,42.79 9.54,41.82 11.54,41.02 C13.88,40.09 15.97,38.82 17.71,36.98 C18.26,36.39 18.31,36.18 17.74,35.63 C15.92,33.87 14.09,32.13 12.26,30.39z "/></g></g></g><g id="time_group"/></svg>