<svg xmlns="http://www.w3.org/2000/svg" xmlns:xlink="http://www.w3.org/1999/xlink" preserveAspectRatio="xMidYMid meet" width="48" height="48" viewBox="0 0 48 48" style="width:100%;height:100%"><defs><animate repeatCount="indefinite" dur="6.006006s" begin="0s" xlink:href="#_R_G_L_5_G" fill="freeze" attributeName="opacity" from="0" to="1" keyTimes="0;0.7777777;0.8333333;1" values="0;0;1;1" keySplines="0.167 0.167 0.833 0.833;0.167 0.167 0.833 0.833;0 0 0 0" calcMode="spline"/><animateMotion repeatCount="indefinite" dur="6.006006s" begin="0s" xlink:href="#_R_G_L_5_G" fill="freeze" keyTimes="0;0.7777777;0.8333333;1" path="M24 45.81 C24,45.81 24,45.81 24,45.81 C24,42.18 24,27.64 24,24 C24,24 24,24 24,24 " keyPoints="0;0;1;1" keySplines="0.167 0.167 0.833 0.833;0.167 0.167 0.833 0.833;0 0 0 0" calcMode="spline"/><animateTransform repeatCount="indefinite" dur="6.006006s" begin="0s" xlink:href="#_R_G_L_5_G" fill="freeze" attributeName="transform" from="-24 -24" to="-24 -24" type="translate" additive="sum" keyTimes="0;1" values="-24 -24;-24 -24" keySplines="0 0 1 1" calcMode="spline"/><animate repeatCount="indefinite" dur="6.006006s" begin="0s" xlink:href="#_R_G_L_5_G_M" fill="freeze" attributeName="opacity" from="0" to="1" keyTimes="0;0.7777778;0.7777783;1" values="0;0;1;1" keySplines="0 0 0 0;0 0 0 0;0 0 0 0" calcMode="spline"/><clipPath id="_R_G_L_4_C_0"><path id="_R_G_L_4_C_0_P_0" fill-rule="nonzero" d="M0 1.55 C0,1.55 0,37.25 0,37.25 C0,37.25 29.46,37.25 29.46,37.25 C29.46,37.25 29.46,1.55 29.46,1.55 C29.46,1.55 0,1.55 0,1.55z "/></clipPath><animate repeatCount="indefinite" dur="6.006006s" begin="0s" xlink:href="#_R_G_L_4_G_G_0_D_0_P_0" fill="freeze" attributeName="opacity" from="0" to="1" keyTimes="0;0.7222222;0.7777778;1" values="0;0;1;1" keySplines="0.167 0.167 0.667 1;0.167 0.167 0.667 1;0 0 0 0" calcMode="spline"/><animateMotion repeatCount="indefinite" dur="6.006006s" begin="0s" xlink:href="#_R_G_L_4_G_G_0_D_0_P_0_G_0_T_0" fill="freeze" keyTimes="0;0.7222222;0.7777778;1" path="M9.79 29.4 C9.79,29.4 9.79,29.4 9.79,29.4 C10.62,27.73 13.95,21.07 14.79,19.4 C14.79,19.4 14.79,19.4 14.79,19.4 " keyPoints="0;0;1;1" keySplines="0.167 0.167 0.667 1;0.167 0.167 0.667 1;0 0 0 0" calcMode="spline"/><animate repeatCount="indefinite" dur="6.006006s" begin="0s" xlink:href="#_R_G_L_4_G_G_0_D_0_P_0" fill="freeze" attributeName="opacity" from="0" to="1" keyTimes="0;0.7222222;0.7777778;1" values="0;0;1;1" keySplines="0.167 0.167 0.667 1;0.167 0.167 0.667 1;0 0 0 0" calcMode="spline"/><animateMotion repeatCount="indefinite" dur="6.006006s" begin="0s" xlink:href="#_R_G_L_4_G_G_0_D_0_P_0_G_0_T_0" fill="freeze" keyTimes="0;0.7222222;0.7777778;1" path="M9.79 29.4 C9.79,29.4 9.79,29.4 9.79,29.4 C10.62,27.73 13.95,21.07 14.79,19.4 C14.79,19.4 14.79,19.4 14.79,19.4 " keyPoints="0;0;1;1" keySplines="0.167 0.167 0.667 1;0.167 0.167 0.667 1;0 0 0 0" calcMode="spline"/><animate repeatCount="indefinite" dur="6.006006s" begin="0s" xlink:href="#_R_G_L_4_G_M" fill="freeze" attributeName="opacity" from="0" to="1" keyTimes="0;0.7222222;0.7222228;1" values="0;0;1;1" keySplines="0 0 0 0;0 0 0 0;0 0 0 0" calcMode="spline"/><animateMotion repeatCount="indefinite" dur="6.006006s" begin="0s" xlink:href="#_R_G_L_3_G" fill="freeze" keyTimes="0;0.6666666;0.7222222;1" path="M24 49 C24,49 24,49 24,49 C24,44.83 24,28.17 24,24 C24,24 24,24 24,24 " keyPoints="0;0;1;1" keySplines="0.167 0.167 0.667 1;0.167 0.167 0.667 1;0 0 0 0" calcMode="spline"/><animateTransform repeatCount="indefinite" dur="6.006006s" begin="0s" xlink:href="#_R_G_L_3_G" fill="freeze" attributeName="transform" from="-24 -24" to="-24 -24" type="translate" additive="sum" keyTimes="0;1" values="-24 -24;-24 -24" keySplines="0 0 1 1" calcMode="spline"/><animate repeatCount="indefinite" dur="6.006006s" begin="0s" xlink:href="#_R_G_L_3_G_M" fill="freeze" attributeName="opacity" from="0" to="1" keyTimes="0;0.6666667;0.6666672;1" values="0;0;1;1" keySplines="0 0 0 0;0 0 0 0;0 0 0 0" calcMode="spline"/><animate repeatCount="indefinite" dur="6.006006s" begin="0s" xlink:href="#_R_G_L_2_G_M" fill="freeze" attributeName="opacity" from="1" to="0" keyTimes="0;0.6666667;0.6666667;1" values="1;1;0;0" keySplines="0 0 0 0;0 0 0 0;0 0 0 0" calcMode="spline"/><animate repeatCount="indefinite" dur="6.006006s" begin="0s" xlink:href="#_R_G_L_1_G_M" fill="freeze" attributeName="opacity" from="1" to="0" keyTimes="0;0.6666667;0.6666667;1" values="1;1;0;0" keySplines="0 0 0 0;0 0 0 0;0 0 0 0" calcMode="spline"/><animate repeatCount="indefinite" dur="6.006006s" begin="0s" xlink:href="#_R_G_L_0_G_M" fill="freeze" attributeName="opacity" from="1" to="0" keyTimes="0;0.6666667;0.6666667;1" values="1;1;0;0" keySplines="0 0 0 0;0 0 0 0;0 0 0 0" calcMode="spline"/><animate attributeType="XML" attributeName="opacity" dur="6s" from="0" to="1" xlink:href="#time_group"/></defs><g id="_R_G"><g id="_R_G_L_5_G_M"><g id="_R_G_L_5_G"><path id="_R_G_L_5_G_D_0_P_0" fill="#f9f9f9" fill-opacity="1" fill-rule="nonzero" d=" M46 0.21 C46,0.21 32.89,0.21 32.89,0.21 C32.89,0.41 32.9,0.61 32.9,0.81 C32.9,8.59 32.9,16.36 32.9,24.14 C32.9,24.14 32.9,24.75 32.9,24.75 C33.18,24.37 33.37,24.11 33.58,23.82 C33.79,24.13 33.98,24.41 34.16,24.69 C34.2,24.68 34.23,24.67 34.27,24.66 C34.27,24.66 34.27,5.75 34.27,5.75 C34.27,5.75 45.98,5.75 45.98,5.75 C45.57,4.95 45.19,4.2 44.8,3.47 C44.62,3.14 44.61,2.84 44.79,2.51 C45.21,1.75 45.6,0.98 46,0.21z "/></g></g><g id="_R_G_L_4_G_M"><g id="_R_G_L_4_G"><g clip-path="url(#_R_G_L_4_C_0)"><g id="_R_G_L_4_G_G_0_D_0_P_0_G_0_T_0"><g id="_R_G_L_4_G_G_0_D_0_P_0_G_0_T_0"><path id="_R_G_L_4_G_G_0_D_0_P_0" fill="#f9f9f9" fill-opacity="1" fill-rule="nonzero" d=" M11.95 -15.52 C10.91,-14.08 9.86,-12.64 8.86,-11.16 C8.28,-10.29 7.53,-9.91 6.47,-9.9 C2.58,-9.89 -1.31,-9.82 -5.2,-9.78 C-5.88,-9.77 -6.57,-9.71 -7.12,-9.29 C-7.99,-8.61 -8.94,-7.96 -9.6,-7.1 C-11.4,-4.76 -13.06,-2.31 -14.79,0.1 C-14.79,0.1 -14.79,0.85 -14.79,0.85 C-14.08,2.29 -12.66,2.3 -11.85,0.98 C-11.08,-0.28 -10.15,-1.44 -9.31,-2.66 C-8.65,-3.62 -7.79,-4.36 -6.87,-5.04 C-6.75,-5.13 -6.52,-5.19 -6.41,-5.13 C-6.29,-5.05 -6.22,-4.84 -6.17,-4.68 C-6.13,-4.57 -6.16,-4.43 -6.16,-4.31 C-6.16,-4.31 -6.16,17.44 -6.16,17.44 C-6.16,17.44 -6.16,17.85 -6.16,17.85 C-5.09,16.83 -3.98,15.8 -2.9,14.74 C-2.73,14.57 -2.61,14.26 -2.61,14.02 C-2.59,10.75 -2.59,7.49 -2.59,4.22 C-2.59,3.58 -2.35,3.44 -1.79,3.75 C0.23,4.88 2.24,6.02 4.26,7.14 C4.59,7.32 4.71,7.55 4.71,7.92 C4.69,9.41 4.7,10.89 4.7,12.37 C4.7,12.37 4.7,12.87 4.7,12.87 C4.7,12.87 8.02,12.87 8.02,12.87 C8.03,12.77 8.05,12.71 8.05,12.65 C8.05,10.45 8.06,8.24 8.04,6.04 C8.04,5.88 7.87,5.65 7.71,5.56 C5.8,4.44 3.88,3.33 1.96,2.23 C1.66,2.05 1.51,1.86 1.52,1.49 C1.54,-0.1 1.52,-1.7 1.53,-3.29 C1.55,-5.1 2.96,-6.52 4.77,-6.56 C5.86,-6.59 6.95,-6.62 8.05,-6.65 C8.78,-6.66 9.4,-6.93 9.83,-7.52 C11.38,-9.68 12.91,-11.85 14.44,-14.02 C14.79,-14.52 14.74,-15.05 14.37,-15.54 C14.04,-15.99 13.6,-16.22 13.17,-16.22 C12.72,-16.22 12.28,-15.99 11.95,-15.52z  M-5.09 -14.74 C-5.09,-13.73 -4.78,-12.7 -4.25,-11.97 C-3.12,-10.4 -1.22,-10.38 -0.11,-11.96 C0.74,-13.16 0.94,-14.51 0.58,-15.92 C0.37,-16.75 -0.17,-17.32 -0.97,-17.61 C-1.42,-17.77 -1.85,-17.85 -2.26,-17.85 C-3.88,-17.85 -5.09,-16.63 -5.09,-14.74z "/></g></g></g></g></g><g id="_R_G_L_3_G_M"><g id="_R_G_L_3_G"><path id="_R_G_L_3_G_D_0_P_0" fill="#f9f9f9" fill-opacity="1" fill-rule="nonzero" d=" M32.99 25.47 C30.08,29.62 27.18,33.78 24.27,37.94 C23.93,38.43 23.83,38.45 23.33,38.11 C20.95,36.52 18.56,34.92 16.17,33.33 C16.02,33.23 15.86,33.13 15.7,33.03 C14.27,34.65 12.87,36.22 11.48,37.8 C8.46,41.2 5.45,44.6 2.44,48 C2.44,48 39.9,48 39.9,48 C39.9,48 42.72,48 42.72,48 C44.36,48 45.99,48 47.63,48 C47.75,48 47.88,47.94 48,47.91 C47.89,47.76 47.76,47.63 47.67,47.47 C42.99,40.15 38.31,32.82 33.64,25.5 C33.54,25.34 33.44,25.2 33.32,25.02 C33.19,25.19 33.09,25.33 32.99,25.47z "/></g></g><g id="_R_G_L_2_G_M"><g id="_R_G_L_2_G"><path id="_R_G_L_2_G_D_0_P_0" fill="#f9f9f9" fill-opacity="1" fill-rule="nonzero" d=" M46 0.21 C46,0.21 32.89,0.21 32.89,0.21 C32.89,0.41 32.9,0.61 32.9,0.81 C32.9,8.59 32.9,16.36 32.9,24.14 C32.9,24.14 32.9,24.75 32.9,24.75 C33.18,24.37 33.37,24.11 33.58,23.82 C33.79,24.13 33.98,24.41 34.16,24.69 C34.2,24.68 34.23,24.67 34.27,24.66 C34.27,24.66 34.27,5.75 34.27,5.75 C34.27,5.75 45.98,5.75 45.98,5.75 C45.57,4.95 45.19,4.2 44.8,3.47 C44.62,3.14 44.61,2.84 44.79,2.51 C45.21,1.75 45.6,0.98 46,0.21z "/></g></g><g id="_R_G_L_1_G_M"><g id="_R_G_L_1_G"><path id="_R_G_L_1_G_D_0_P_0" fill="#f9f9f9" fill-opacity="1" fill-rule="nonzero" d=" M26.73 3.88 C25.69,5.32 24.65,6.76 23.65,8.24 C23.06,9.11 22.31,9.49 21.26,9.5 C17.36,9.51 13.48,9.58 9.59,9.62 C8.9,9.63 8.21,9.69 7.67,10.12 C6.8,10.79 5.85,11.44 5.19,12.3 C3.39,14.64 1.72,17.09 0,19.5 C0,19.5 0,20.25 0,20.25 C0.71,21.69 2.12,21.7 2.93,20.38 C3.71,19.13 4.64,17.96 5.48,16.74 C6.14,15.78 7,15.04 7.91,14.36 C8.03,14.27 8.27,14.21 8.37,14.27 C8.5,14.35 8.56,14.56 8.62,14.72 C8.65,14.83 8.63,14.97 8.63,15.09 C8.63,15.09 8.63,36.84 8.63,36.84 C8.63,36.84 8.63,37.25 8.63,37.25 C9.7,36.23 10.81,35.2 11.88,34.14 C12.06,33.97 12.18,33.66 12.18,33.42 C12.2,30.15 12.19,26.89 12.19,23.62 C12.19,22.98 12.43,22.84 13,23.16 C15.02,24.28 17.02,25.42 19.05,26.54 C19.38,26.72 19.5,26.95 19.49,27.32 C19.48,28.81 19.49,30.29 19.49,31.78 C19.49,31.78 19.49,32.27 19.49,32.27 C19.49,32.27 22.8,32.27 22.8,32.27 C22.82,32.17 22.84,32.11 22.84,32.05 C22.84,29.85 22.85,27.65 22.82,25.44 C22.82,25.28 22.65,25.05 22.5,24.96 C20.59,23.84 18.67,22.73 16.75,21.63 C16.44,21.45 16.3,21.26 16.3,20.89 C16.32,19.3 16.3,17.7 16.31,16.11 C16.33,14.3 17.74,12.89 19.55,12.84 C20.65,12.81 21.74,12.78 22.83,12.76 C23.56,12.74 24.19,12.47 24.62,11.88 C26.16,9.72 27.7,7.55 29.22,5.38 C29.57,4.88 29.52,4.35 29.16,3.86 C28.83,3.41 28.39,3.18 27.95,3.18 C27.51,3.18 27.06,3.41 26.73,3.88z  M9.7 4.66 C9.69,5.67 10,6.7 10.53,7.43 C11.67,9 13.56,9.02 14.68,7.44 C15.53,6.24 15.73,4.89 15.37,3.48 C15.15,2.65 14.62,2.08 13.82,1.79 C13.37,1.63 12.93,1.55 12.52,1.55 C10.9,1.55 9.7,2.77 9.7,4.66z "/></g></g><g id="_R_G_L_0_G_M"><g id="_R_G_L_0_G"><path id="_R_G_L_0_G_D_0_P_0" fill="#f9f9f9" fill-opacity="1" fill-rule="nonzero" d=" M32.99 25.47 C30.08,29.62 27.18,33.78 24.27,37.94 C23.93,38.43 23.83,38.45 23.33,38.11 C20.95,36.52 18.56,34.92 16.17,33.33 C16.02,33.23 15.86,33.13 15.7,33.03 C14.27,34.65 12.87,36.22 11.48,37.8 C8.46,41.2 5.45,44.6 2.44,48 C2.44,48 39.9,48 39.9,48 C39.9,48 42.72,48 42.72,48 C44.36,48 45.99,48 47.63,48 C47.75,48 47.88,47.94 48,47.91 C47.89,47.76 47.76,47.63 47.67,47.47 C42.99,40.15 38.31,32.82 33.64,25.5 C33.54,25.34 33.44,25.2 33.32,25.02 C33.19,25.19 33.09,25.33 32.99,25.47z "/></g></g></g><g id="time_group"/></svg>