<svg xmlns="http://www.w3.org/2000/svg" xmlns:xlink="http://www.w3.org/1999/xlink" preserveAspectRatio="xMidYMid meet" width="48" height="48" viewBox="0 0 48 48" style="width:100%;height:100%"><defs><clipPath id="_R_G_L_1_C_0"><path id="_R_G_L_1_C_0_P_0" fill-rule="nonzero" d="M1.94 0 C1.94,0 1.94,48 1.94,48 C1.94,48 46.06,48 46.06,48 C46.06,48 46.06,0 46.06,0 C46.06,0 1.94,0 1.94,0z "/></clipPath><animateMotion repeatCount="indefinite" dur="6.0077005s" begin="0s" xlink:href="#_R_G_L_1_G_G_0_D_0_P_0_G_0_T_0" fill="freeze" keyTimes="0;0.0552486;1" path="M24.09 73 C24.09,64.83 24.09,32.17 24.09,24 C24.09,24 24.09,24 24.09,24 " keyPoints="0;1;1" keySplines="0.167 0.167 0.667 1;0 0 0 0" calcMode="spline"/><animateMotion repeatCount="indefinite" dur="6.0077005s" begin="0s" xlink:href="#_R_G_L_1_G_G_0_D_0_P_0_G_0_T_0" fill="freeze" keyTimes="0;0.0552486;1" path="M24.09 73 C24.09,64.83 24.09,32.17 24.09,24 C24.09,24 24.09,24 24.09,24 " keyPoints="0;1;1" keySplines="0.167 0.167 0.667 1;0 0 0 0" calcMode="spline"/><animateMotion repeatCount="indefinite" dur="6.0077005s" begin="0s" xlink:href="#_R_G_L_1_G_G_0_D_0_P_0_G_0_T_0" fill="freeze" keyTimes="0;0.0552486;1" path="M24.09 73 C24.09,64.83 24.09,32.17 24.09,24 C24.09,24 24.09,24 24.09,24 " keyPoints="0;1;1" keySplines="0.167 0.167 0.667 1;0 0 0 0" calcMode="spline"/><animateMotion repeatCount="indefinite" dur="6.0077005s" begin="0s" xlink:href="#_R_G_L_1_G_G_0_D_0_P_0_G_0_T_0" fill="freeze" keyTimes="0;0.0552486;1" path="M24.09 73 C24.09,64.83 24.09,32.17 24.09,24 C24.09,24 24.09,24 24.09,24 " keyPoints="0;1;1" keySplines="0.167 0.167 0.667 1;0 0 0 0" calcMode="spline"/><animateMotion repeatCount="indefinite" dur="6.0077005s" begin="0s" xlink:href="#_R_G_L_1_G_G_0_D_0_P_0_G_0_T_0" fill="freeze" keyTimes="0;0.0552486;1" path="M24.09 73 C24.09,64.83 24.09,32.17 24.09,24 C24.09,24 24.09,24 24.09,24 " keyPoints="0;1;1" keySplines="0.167 0.167 0.667 1;0 0 0 0" calcMode="spline"/><animateMotion repeatCount="indefinite" dur="6.0077005s" begin="0s" xlink:href="#_R_G_L_1_G_G_0_D_0_P_0_G_0_T_0" fill="freeze" keyTimes="0;0.0552486;1" path="M24.09 73 C24.09,64.83 24.09,32.17 24.09,24 C24.09,24 24.09,24 24.09,24 " keyPoints="0;1;1" keySplines="0.167 0.167 0.667 1;0 0 0 0" calcMode="spline"/><animateMotion repeatCount="indefinite" dur="6.0077005s" begin="0s" xlink:href="#_R_G_L_1_G_G_0_D_0_P_0_G_0_T_0" fill="freeze" keyTimes="0;0.0552486;1" path="M24.09 73 C24.09,64.83 24.09,32.17 24.09,24 C24.09,24 24.09,24 24.09,24 " keyPoints="0;1;1" keySplines="0.167 0.167 0.667 1;0 0 0 0" calcMode="spline"/><animateMotion repeatCount="indefinite" dur="6.0077005s" begin="0s" xlink:href="#_R_G_L_1_G_G_0_D_0_P_0_G_0_T_0" fill="freeze" keyTimes="0;0.0552486;1" path="M24.09 73 C24.09,64.83 24.09,32.17 24.09,24 C24.09,24 24.09,24 24.09,24 " keyPoints="0;1;1" keySplines="0.167 0.167 0.667 1;0 0 0 0" calcMode="spline"/><animateMotion repeatCount="indefinite" dur="6.0077005s" begin="0s" xlink:href="#_R_G_L_1_G_G_0_D_0_P_0_G_0_T_0" fill="freeze" keyTimes="0;0.0552486;1" path="M24.09 73 C24.09,64.83 24.09,32.17 24.09,24 C24.09,24 24.09,24 24.09,24 " keyPoints="0;1;1" keySplines="0.167 0.167 0.667 1;0 0 0 0" calcMode="spline"/><animate repeatCount="indefinite" dur="6.0077005s" begin="0s" xlink:href="#_R_G_L_0_C_0_P_0" fill="freeze" attributeName="d" attributeType="XML" from="M14.83 7.12 C14.83,7.12 14.83,10.59 14.83,10.59 C14.83,10.59 24.62,10.59 24.62,10.59 C24.62,10.59 24.62,7.12 24.62,7.12 C24.62,7.12 14.83,7.12 14.83,7.12z " to="M24.83 7.12 C24.83,7.12 24.83,10.59 24.83,10.59 C24.83,10.59 34.62,10.59 34.62,10.59 C34.62,10.59 34.62,7.12 34.62,7.12 C34.62,7.12 24.83,7.12 24.83,7.12z " keyTimes="0;0.0524863;0.1077348;1" values="M14.83 7.12 C14.83,7.12 14.83,10.59 14.83,10.59 C14.83,10.59 24.62,10.59 24.62,10.59 C24.62,10.59 24.62,7.12 24.62,7.12 C24.62,7.12 14.83,7.12 14.83,7.12z ;M14.83 7.12 C14.83,7.12 14.83,10.59 14.83,10.59 C14.83,10.59 24.62,10.59 24.62,10.59 C24.62,10.59 24.62,7.12 24.62,7.12 C24.62,7.12 14.83,7.12 14.83,7.12z ;M24.83 7.12 C24.83,7.12 24.83,10.59 24.83,10.59 C24.83,10.59 34.62,10.59 34.62,10.59 C34.62,10.59 34.62,7.12 34.62,7.12 C34.62,7.12 24.83,7.12 24.83,7.12z ;M24.83 7.12 C24.83,7.12 24.83,10.59 24.83,10.59 C24.83,10.59 34.62,10.59 34.62,10.59 C34.62,10.59 34.62,7.12 34.62,7.12 C34.62,7.12 24.83,7.12 24.83,7.12z " keySplines="0.167 0.167 0.667 1;0.167 0.167 0.667 1;0 0 0 0" calcMode="spline"/><clipPath id="_R_G_L_0_C_0"><path id="_R_G_L_0_C_0_P_0" fill-rule="nonzero"/></clipPath><animate repeatCount="indefinite" dur="6.0077005s" begin="0s" xlink:href="#_R_G_L_0_G_M" fill="freeze" attributeName="opacity" from="0" to="1" keyTimes="0;0.0524862;0.0524865;1" values="0;0;1;1" keySplines="0 0 0 0;0 0 0 0;0 0 0 0" calcMode="spline"/><animate attributeType="XML" attributeName="opacity" dur="6s" from="0" to="1" xlink:href="#time_group"/></defs><g id="_R_G"><g id="_R_G_L_1_G"><g clip-path="url(#_R_G_L_1_C_0)"><g id="_R_G_L_1_G_G_0_D_0_P_0_G_0_T_0"><g id="_R_G_L_1_G_G_0_D_0_P_0_G_0_T_0"><g id="_R_G_L_1_G_G_0_D_0_P_0_G_0_T_0"><g id="_R_G_L_1_G_G_0_D_0_P_0_G_0_T_0"><g id="_R_G_L_1_G_G_0_D_0_P_0_G_0_T_0"><g id="_R_G_L_1_G_G_0_D_0_P_0_G_0_T_0"><g id="_R_G_L_1_G_G_0_D_0_P_0_G_0_T_0"><g id="_R_G_L_1_G_G_0_D_0_P_0_G_0_T_0"><g id="_R_G_L_1_G_G_0_D_0_P_0_G_0_T_0"><path id="_R_G_L_1_G_G_0_D_0_P_0" fill="#6d6e71" fill-opacity="1" fill-rule="nonzero" d=" M-2.36 -24 C-2.36,-24 -1.61,-24 -1.61,-24 C-1.52,-23.97 -1.44,-23.92 -1.35,-23.9 C3.52,-22.88 8.39,-21.86 13.26,-20.84 C14.14,-20.65 14.41,-20.31 14.41,-19.42 C14.41,-15.89 14.41,-12.35 14.41,-8.82 C14.41,-8.82 14.41,-8.28 14.41,-8.28 C16.15,-7.91 17.83,-7.56 19.51,-7.21 C20.62,-6.98 20.82,-6.75 20.82,-5.61 C20.82,3.3 20.82,12.21 20.82,21.11 C20.82,21.11 20.82,21.72 20.82,21.72 C21.35,21.82 21.76,22.03 21.91,22.54 C22.17,23.37 21.58,24 20.56,24 C6.8,24 -6.97,24 -20.73,24 C-20.93,24 -21.14,23.98 -21.33,23.93 C-21.82,23.81 -22.13,23.4 -22.15,22.91 C-22.17,22.42 -21.88,22 -21.41,21.83 C-21.29,21.79 -21.16,21.75 -21.02,21.71 C-21.02,21.49 -21.02,21.31 -21.02,21.12 C-21.02,11 -21.02,0.87 -21.02,-9.25 C-21.02,-10.36 -20.75,-10.67 -19.65,-10.88 C-18.36,-11.13 -17.06,-11.39 -15.73,-11.65 C-15.73,-11.87 -15.73,-12.06 -15.73,-12.24 C-15.73,-14.9 -15.73,-17.55 -15.73,-20.21 C-15.73,-21 -15.41,-21.41 -14.7,-21.55 C-11.77,-22.12 -8.85,-22.68 -5.92,-23.26 C-4.73,-23.49 -3.54,-23.75 -2.36,-24z  M-9.58 21.72 C-9.58,21.72 -9.58,12.74 -9.58,12.74 C-9.73,12.75 -9.85,12.75 -9.97,12.77 C-11.38,13.06 -12.78,13.36 -14.19,13.65 C-15.06,13.82 -15.93,14.01 -16.8,14.17 C-17.25,14.25 -17.61,14.07 -17.8,13.65 C-17.97,13.27 -17.91,12.89 -17.59,12.63 C-17.4,12.47 -17.13,12.36 -16.88,12.31 C-15.78,12.07 -14.68,11.85 -13.58,11.62 C-12.25,11.35 -10.93,11.07 -9.61,10.8 C-9.61,10.8 -9.61,6.84 -9.61,6.84 C-11.95,7.32 -14.26,7.8 -16.57,8.27 C-17.25,8.41 -17.73,8.16 -17.85,7.61 C-17.97,7.05 -17.64,6.61 -16.96,6.47 C-16.06,6.28 -15.16,6.09 -14.26,5.91 C-12.71,5.58 -11.15,5.26 -9.6,4.94 C-9.6,4.94 -9.6,0.97 -9.6,0.97 C-11.02,1.26 -12.39,1.55 -13.77,1.83 C-14.71,2.03 -15.66,2.24 -16.61,2.42 C-17.42,2.58 -18.02,2.03 -17.84,1.32 C-17.71,0.84 -17.33,0.67 -16.9,0.58 C-15.5,0.29 -14.09,0.01 -12.68,-0.28 C-11.65,-0.5 -10.62,-0.72 -9.59,-0.93 C-9.59,-0.93 -9.59,-4.89 -9.59,-4.89 C-10.17,-4.77 -10.72,-4.66 -11.27,-4.54 C-13.07,-4.17 -14.87,-3.8 -16.67,-3.43 C-17.1,-3.34 -17.51,-3.43 -17.68,-3.81 C-17.81,-4.08 -17.84,-4.51 -17.7,-4.76 C-17.58,-5 -17.21,-5.19 -16.92,-5.25 C-14.65,-5.75 -12.37,-6.21 -10.09,-6.67 C-9.7,-6.75 -9.51,-6.87 -9.54,-7.33 C-9.59,-8.04 -9.55,-8.76 -9.55,-9.48 C-9.55,-9.83 -9.55,-10.18 -9.55,-10.55 C-9.76,-10.52 -9.88,-10.51 -10,-10.49 C-12.76,-9.94 -15.51,-9.39 -18.27,-8.87 C-18.69,-8.79 -18.78,-8.63 -18.78,-8.24 C-18.77,1.57 -18.77,11.39 -18.77,21.2 C-18.77,21.2 -18.77,21.72 -18.77,21.72 C-18.77,21.72 -9.58,21.72 -9.58,21.72z  M-7.28 21.71 C-7.28,21.71 18.57,21.71 18.57,21.71 C18.57,20.63 18.56,19.57 18.58,18.51 C18.59,18.17 18.47,18.06 18.15,17.99 C10.26,16.35 2.37,14.7 -5.53,13.05 C-6.1,12.93 -6.67,12.83 -7.28,12.71 C-7.28,12.71 -7.28,21.71 -7.28,21.71z  M-0.84 -21.49 C-0.86,-21.36 -0.89,-21.27 -0.89,-21.18 C-0.89,-18.08 -0.88,-14.97 -0.89,-11.86 C-0.9,-11.55 -0.75,-11.48 -0.48,-11.43 C3.34,-10.63 7.17,-9.82 11,-9.01 C11.37,-8.94 11.74,-8.87 12.11,-8.8 C12.13,-8.9 12.15,-8.93 12.15,-8.96 C12.15,-12.13 12.15,-15.3 12.16,-18.47 C12.16,-18.78 11.99,-18.81 11.76,-18.86 C8.8,-19.47 5.84,-20.09 2.88,-20.71 C1.65,-20.97 0.41,-21.23 -0.84,-21.49z  M-7.3 6.83 C-7.3,8.06 -7.29,9.23 -7.3,10.4 C-7.31,10.72 -7.2,10.82 -6.9,10.89 C1.01,12.53 8.92,14.18 16.82,15.83 C17.39,15.95 17.96,16.05 18.54,16.17 C18.54,16.17 18.54,12.22 18.54,12.22 C9.93,10.42 1.36,8.63 -7.3,6.83z  M-7.26 -4.88 C-7.28,-4.72 -7.3,-4.6 -7.3,-4.48 C-7.3,-3.43 -7.28,-2.39 -7.31,-1.34 C-7.31,-0.99 -7.17,-0.9 -6.87,-0.83 C0.52,0.71 7.91,2.27 15.3,3.82 C16.37,4.04 17.45,4.26 18.57,4.49 C18.57,3.26 18.56,2.1 18.58,0.93 C18.58,0.61 18.47,0.51 18.17,0.45 C10.92,-1.07 3.67,-2.59 -3.58,-4.12 C-4.8,-4.37 -6.02,-4.62 -7.26,-4.88z  M18.54 6.39 C9.94,4.58 1.35,2.78 -7.3,0.97 C-7.3,2.15 -7.26,3.23 -7.31,4.3 C-7.33,4.82 -7.16,4.97 -6.67,5.07 C-0.44,6.35 5.78,7.66 12.01,8.95 C14.18,9.4 16.34,9.86 18.54,10.31 C18.54,10.31 18.54,6.39 18.54,6.39z  M18.54 -1.37 C18.54,-1.37 18.54,-5.13 18.54,-5.13 C9.94,-6.94 1.35,-8.74 -7.3,-10.56 C-7.3,-9.42 -7.27,-8.39 -7.31,-7.37 C-7.33,-6.88 -7.14,-6.74 -6.71,-6.65 C0.69,-5.11 8.09,-3.56 15.49,-2 C16.5,-1.79 17.5,-1.59 18.54,-1.37z  M-13.46 -12.1 C-12.41,-12.31 -11.39,-12.52 -10.36,-12.7 C-9.58,-12.83 -8.79,-13.01 -8.01,-12.98 C-7.21,-12.94 -6.42,-12.67 -5.63,-12.5 C-4.82,-12.33 -4,-12.17 -3.18,-12 C-3.18,-12 -3.18,-21.51 -3.18,-21.51 C-6.65,-20.84 -10.06,-20.17 -13.46,-19.5 C-13.46,-19.5 -13.46,-12.1 -13.46,-12.1z "/></g></g></g></g></g></g></g></g></g></g></g><g id="_R_G_L_0_G_M"><g id="_R_G_L_0_G"><g clip-path="url(#_R_G_L_0_C_0)"><path id="_R_G_L_0_G_G_0_D_0_P_0" fill="#ff4c00" fill-opacity="1" fill-rule="nonzero" d=" M25.84 7.12 C26.62,7.28 27.46,7.44 28.3,7.62 C30.09,7.98 31.88,8.35 33.66,8.72 C33.72,8.73 33.79,8.74 33.85,8.76 C34.44,8.94 34.72,9.39 34.59,9.92 C34.46,10.42 33.98,10.68 33.4,10.57 C32.22,10.33 31.05,10.08 29.87,9.84 C28.5,9.56 27.12,9.28 25.75,8.99 C25.54,8.94 25.32,8.86 25.16,8.72 C24.84,8.46 24.75,8.11 24.91,7.71 C25.06,7.32 25.37,7.14 25.84,7.12z "/></g></g></g></g><g id="time_group"/></svg>