<svg xmlns="http://www.w3.org/2000/svg" xmlns:xlink="http://www.w3.org/1999/xlink" preserveAspectRatio="xMidYMid meet" width="48" height="48" viewBox="0 0 48 48" style="width:100%;height:100%"><defs><animate repeatCount="indefinite" dur="6.006006s" begin="0s" xlink:href="#_R_G_L_3_C_0_P_0" fill="freeze" attributeName="d" attributeType="XML" from="M0 48.03 C0,48.03 0,89.97 0,89.97 C0,89.97 48,89.97 48,89.97 C48,89.97 48,48.03 48,48.03 C48,48.03 0,48.03 0,48.03z " to="M0 3.03 C0,3.03 0,44.97 0,44.97 C0,44.97 48,44.97 48,44.97 C48,44.97 48,3.03 48,3.03 C48,3.03 0,3.03 0,3.03z " keyTimes="0;0.3333333;0.3888889;1" values="M0 48.03 C0,48.03 0,89.97 0,89.97 C0,89.97 48,89.97 48,89.97 C48,89.97 48,48.03 48,48.03 C48,48.03 0,48.03 0,48.03z ;M0 48.03 C0,48.03 0,89.97 0,89.97 C0,89.97 48,89.97 48,89.97 C48,89.97 48,48.03 48,48.03 C48,48.03 0,48.03 0,48.03z ;M0 3.03 C0,3.03 0,44.97 0,44.97 C0,44.97 48,44.97 48,44.97 C48,44.97 48,3.03 48,3.03 C48,3.03 0,3.03 0,3.03z ;M0 3.03 C0,3.03 0,44.97 0,44.97 C0,44.97 48,44.97 48,44.97 C48,44.97 48,3.03 48,3.03 C48,3.03 0,3.03 0,3.03z " keySplines="0.167 0.167 0.833 0.833;0.167 0.167 0.833 0.833;0 0 0 0" calcMode="spline"/><clipPath id="_R_G_L_3_C_0"><path id="_R_G_L_3_C_0_P_0" fill-rule="nonzero"/></clipPath><animate repeatCount="indefinite" dur="6.006006s" begin="0s" xlink:href="#_R_G_L_3_G_M" fill="freeze" attributeName="opacity" from="0" to="1" keyTimes="0;0.3333333;0.3333339;1" values="0;0;1;1" keySplines="0 0 0 0;0 0 0 0;0 0 0 0" calcMode="spline"/><animate repeatCount="indefinite" dur="6.006006s" begin="0s" xlink:href="#_R_G_L_2_G" fill="freeze" attributeName="opacity" from="0" to="1" keyTimes="0;0.3888889;0.4444444;1" values="0;0;1;1" keySplines="0.167 0.167 0.833 0.833;0.167 0.167 0.833 0.833;0 0 0 0" calcMode="spline"/><animateMotion repeatCount="indefinite" dur="6.006006s" begin="0s" xlink:href="#_R_G_L_2_G" fill="freeze" keyTimes="0;0.3888889;0.4444444;1" path="M18 16 C18,16 18,16 18,16 C19,17.33 23,22.67 24,24 C24,24 24,24 24,24 " keyPoints="0;0;1;1" keySplines="0.167 0.167 0.833 0.833;0.167 0.167 0.833 0.833;0 0 0 0" calcMode="spline"/><animateTransform repeatCount="indefinite" dur="6.006006s" begin="0s" xlink:href="#_R_G_L_2_G" fill="freeze" attributeName="transform" from="1.8800000000000001 1.8800000000000001" to="1 1" type="scale" additive="sum" keyTimes="0;0.3888889;0.4444444;1" values="1.8800000000000001 1.8800000000000001;1.8800000000000001 1.8800000000000001;1 1;1 1" keySplines="0.167 0.167 0.833 0.833;0.167 0.167 0.833 0.833;0 0 0 0" calcMode="spline"/><animateTransform repeatCount="indefinite" dur="6.006006s" begin="0s" xlink:href="#_R_G_L_2_G" fill="freeze" attributeName="transform" from="-24 -24" to="-24 -24" type="translate" additive="sum" keyTimes="0;1" values="-24 -24;-24 -24" keySplines="0 0 1 1" calcMode="spline"/><animate repeatCount="indefinite" dur="6.006006s" begin="0s" xlink:href="#_R_G_L_2_G_M" fill="freeze" attributeName="opacity" from="0" to="1" keyTimes="0;0.3888889;0.3888894;1" values="0;0;1;1" keySplines="0 0 0 0;0 0 0 0;0 0 0 0" calcMode="spline"/><animate repeatCount="indefinite" dur="6.006006s" begin="0s" xlink:href="#_R_G_L_1_G_M" fill="freeze" attributeName="opacity" from="1" to="0" keyTimes="0;0.3333333;0.3333333;1" values="1;1;0;0" keySplines="0 0 0 0;0 0 0 0;0 0 0 0" calcMode="spline"/><animate repeatCount="indefinite" dur="6.006006s" begin="0s" xlink:href="#_R_G_L_0_G_M" fill="freeze" attributeName="opacity" from="1" to="0" keyTimes="0;0.3333333;0.3333333;1" values="1;1;0;0" keySplines="0 0 0 0;0 0 0 0;0 0 0 0" calcMode="spline"/><animate attributeType="XML" attributeName="opacity" dur="6s" from="0" to="1" xlink:href="#time_group"/></defs><g id="_R_G"><g id="_R_G_L_3_G_M"><g id="_R_G_L_3_G"><g clip-path="url(#_R_G_L_3_C_0)"><path id="_R_G_L_3_G_G_0_D_0_P_0" fill="#6d6e71" fill-opacity="1" fill-rule="nonzero" d=" M0 17.44 C0,17.13 0,16.82 0,16.5 C0.13,16.26 0.27,16.01 0.4,15.77 C2.61,11.89 4.83,8.01 7,4.11 C7.44,3.33 7.98,3.02 8.87,3.03 C18.97,3.05 29.06,3.04 39.15,3.04 C39.3,3.04 39.44,3.04 39.58,3.04 C40.13,3.04 40.52,3.29 40.79,3.77 C43.12,7.87 45.45,11.97 47.77,16.07 C47.91,16.32 48.01,16.63 48,16.91 C47.87,19.57 46.66,21.57 44.31,22.86 C44,23.03 43.88,23.2 43.88,23.57 C43.89,30.19 43.89,36.82 43.89,43.44 C43.89,44.54 43.46,44.97 42.36,44.97 C30.12,44.97 17.89,44.97 5.65,44.97 C4.55,44.97 4.12,44.55 4.12,43.45 C4.12,36.85 4.12,30.26 4.13,23.67 C4.13,23.24 4.02,23 3.63,22.8 C2.47,22.22 1.6,21.32 0.93,20.21 C0.42,19.35 0.2,18.4 0,17.44z  M10.64 42.59 C10.64,42.33 10.64,42.13 10.64,41.93 C10.64,38.03 10.67,34.12 10.64,30.21 C10.62,27.74 12.31,26.06 14.24,25.94 C15.72,25.84 17.21,25.93 18.69,25.94 C18.84,25.95 19,25.99 19.15,26.03 C21.01,26.58 22.13,28.08 22.13,30.08 C22.14,34.07 22.13,38.05 22.13,42.04 C22.13,42.22 22.13,42.4 22.13,42.57 C22.13,42.57 41.5,42.57 41.5,42.57 C41.5,42.57 41.5,23.66 41.5,23.66 C38.93,23.71 36.93,22.69 35.42,20.64 C33.99,22.58 32.13,23.64 29.75,23.65 C27.34,23.66 25.47,22.58 24.02,20.65 C22.58,22.57 20.71,23.65 18.33,23.65 C15.93,23.65 14.04,22.59 12.6,20.65 C11.09,22.7 9.06,23.72 6.5,23.66 C6.5,23.66 6.5,42.59 6.5,42.59 C6.5,42.59 10.64,42.59 10.64,42.59z  M3.47 15.19 C3.47,15.19 44.55,15.19 44.55,15.19 C44.5,15.09 44.48,15.03 44.45,14.98 C42.69,11.88 40.93,8.79 39.19,5.69 C39.02,5.41 38.81,5.41 38.56,5.42 C28.86,5.42 19.16,5.42 9.45,5.41 C9.11,5.41 8.93,5.51 8.76,5.81 C7.08,8.8 5.38,11.79 3.68,14.77 C3.61,14.89 3.55,15.02 3.47,15.19z  M19.76 42.58 C19.77,42.47 19.79,42.38 19.79,42.29 C19.79,38.18 19.79,34.08 19.78,29.97 C19.78,28.94 19.08,28.25 18.04,28.23 C17.04,28.22 16.04,28.23 15.04,28.23 C13.63,28.23 13.02,28.84 13.02,30.25 C13.02,34.18 13.02,38.12 13.02,42.05 C13.02,42.05 13.02,42.58 13.02,42.58 C13.02,42.58 19.76,42.58 19.76,42.58z  M2.47 17.6 C2.91,19.89 4.88,21.41 7.17,21.28 C9.24,21.16 11.13,19.48 11.28,17.6 C11.28,17.6 2.47,17.6 2.47,17.6z  M13.9 17.6 C14.18,19.79 16.34,21.44 18.67,21.28 C21.01,21.12 22.64,19.07 22.67,17.6 C22.67,17.6 13.9,17.6 13.9,17.6z  M34.13 17.62 C34.13,17.62 25.33,17.62 25.33,17.62 C25.57,19.61 27.47,21.23 29.6,21.29 C31.81,21.35 33.74,19.8 34.13,17.62z  M36.74 17.62 C36.93,19.63 38.98,21.32 41.16,21.3 C43.34,21.28 45.38,19.56 45.52,17.62 C45.52,17.62 36.74,17.62 36.74,17.62z "/></g></g></g><g id="_R_G_L_2_G_M"><g id="_R_G_L_2_G"><path id="_R_G_L_2_G_D_0_P_0" fill="#ff4c00" fill-opacity="1" fill-rule="nonzero" d=" M30.84 37.35 C29.82,37.35 28.81,37.36 27.79,37.35 C25.7,37.33 24.38,36 24.36,33.91 C24.35,32.38 24.35,30.85 24.36,29.32 C24.38,27.22 25.73,25.88 27.84,25.88 C29.86,25.88 31.87,25.88 33.89,25.88 C35.99,25.89 37.33,27.23 37.34,29.34 C37.35,30.86 37.35,32.37 37.34,33.89 C37.33,36.01 36.01,37.33 33.89,37.35 C32.87,37.35 31.86,37.35 30.84,37.35z  M30.83 34.99 C31.86,34.99 32.89,35 33.92,34.99 C34.67,34.99 34.99,34.67 34.99,33.94 C35,32.39 35,30.85 34.99,29.3 C34.99,28.55 34.66,28.23 33.89,28.23 C31.87,28.23 29.84,28.23 27.81,28.23 C27.05,28.23 26.72,28.56 26.72,29.31 C26.71,30.84 26.71,32.37 26.72,33.9 C26.72,34.69 27.03,34.99 27.84,34.99 C28.84,34.99 29.83,34.99 30.83,34.99z "/></g></g><g id="_R_G_L_1_G_M"><g id="_R_G_L_1_G"><path id="_R_G_L_1_G_D_0_P_0" fill="#6d6e71" fill-opacity="1" fill-rule="nonzero" d=" M0 17.44 C0,17.13 0,16.82 0,16.5 C0.13,16.26 0.27,16.01 0.4,15.77 C2.61,11.89 4.83,8.01 7,4.11 C7.44,3.33 7.98,3.02 8.87,3.03 C18.97,3.05 29.06,3.04 39.15,3.04 C39.3,3.04 39.44,3.04 39.58,3.04 C40.13,3.04 40.52,3.29 40.79,3.77 C43.12,7.87 45.45,11.97 47.77,16.07 C47.91,16.32 48.01,16.63 48,16.91 C47.87,19.57 46.66,21.57 44.31,22.86 C44,23.03 43.88,23.2 43.88,23.57 C43.89,30.19 43.89,36.82 43.89,43.44 C43.89,44.54 43.46,44.97 42.36,44.97 C30.12,44.97 17.89,44.97 5.65,44.97 C4.55,44.97 4.12,44.55 4.12,43.45 C4.12,36.85 4.12,30.26 4.13,23.67 C4.13,23.24 4.02,23 3.63,22.8 C2.47,22.22 1.6,21.32 0.93,20.21 C0.42,19.35 0.2,18.4 0,17.44z  M10.64 42.59 C10.64,42.33 10.64,42.13 10.64,41.93 C10.64,38.03 10.67,34.12 10.64,30.21 C10.62,27.74 12.31,26.06 14.24,25.94 C15.72,25.84 17.21,25.93 18.69,25.94 C18.84,25.95 19,25.99 19.15,26.03 C21.01,26.58 22.13,28.08 22.13,30.08 C22.14,34.07 22.13,38.05 22.13,42.04 C22.13,42.22 22.13,42.4 22.13,42.57 C22.13,42.57 41.5,42.57 41.5,42.57 C41.5,42.57 41.5,23.66 41.5,23.66 C38.93,23.71 36.93,22.69 35.42,20.64 C33.99,22.58 32.13,23.64 29.75,23.65 C27.34,23.66 25.47,22.58 24.02,20.65 C22.58,22.57 20.71,23.65 18.33,23.65 C15.93,23.65 14.04,22.59 12.6,20.65 C11.09,22.7 9.06,23.72 6.5,23.66 C6.5,23.66 6.5,42.59 6.5,42.59 C6.5,42.59 10.64,42.59 10.64,42.59z  M3.47 15.19 C3.47,15.19 44.55,15.19 44.55,15.19 C44.5,15.09 44.48,15.03 44.45,14.98 C42.69,11.88 40.93,8.79 39.19,5.69 C39.02,5.41 38.81,5.41 38.56,5.42 C28.86,5.42 19.16,5.42 9.45,5.41 C9.11,5.41 8.93,5.51 8.76,5.81 C7.08,8.8 5.38,11.79 3.68,14.77 C3.61,14.89 3.55,15.02 3.47,15.19z  M19.76 42.58 C19.77,42.47 19.79,42.38 19.79,42.29 C19.79,38.18 19.79,34.08 19.78,29.97 C19.78,28.94 19.08,28.25 18.04,28.23 C17.04,28.22 16.04,28.23 15.04,28.23 C13.63,28.23 13.02,28.84 13.02,30.25 C13.02,34.18 13.02,38.12 13.02,42.05 C13.02,42.05 13.02,42.58 13.02,42.58 C13.02,42.58 19.76,42.58 19.76,42.58z  M2.47 17.6 C2.91,19.89 4.88,21.41 7.17,21.28 C9.24,21.16 11.13,19.48 11.28,17.6 C11.28,17.6 2.47,17.6 2.47,17.6z  M13.9 17.6 C14.18,19.79 16.34,21.44 18.67,21.28 C21.01,21.12 22.64,19.07 22.67,17.6 C22.67,17.6 13.9,17.6 13.9,17.6z  M34.13 17.62 C34.13,17.62 25.33,17.62 25.33,17.62 C25.57,19.61 27.47,21.23 29.6,21.29 C31.81,21.35 33.74,19.8 34.13,17.62z  M36.74 17.62 C36.93,19.63 38.98,21.32 41.16,21.3 C43.34,21.28 45.38,19.56 45.52,17.62 C45.52,17.62 36.74,17.62 36.74,17.62z "/></g></g><g id="_R_G_L_0_G_M"><g id="_R_G_L_0_G"><path id="_R_G_L_0_G_D_0_P_0" fill="#ff4c00" fill-opacity="1" fill-rule="nonzero" d=" M30.84 37.35 C29.82,37.35 28.81,37.36 27.79,37.35 C25.7,37.33 24.38,36 24.36,33.91 C24.35,32.38 24.35,30.85 24.36,29.32 C24.38,27.22 25.73,25.88 27.84,25.88 C29.86,25.88 31.87,25.88 33.89,25.88 C35.99,25.89 37.33,27.23 37.34,29.34 C37.35,30.86 37.35,32.37 37.34,33.89 C37.33,36.01 36.01,37.33 33.89,37.35 C32.87,37.35 31.86,37.35 30.84,37.35z  M30.83 34.99 C31.86,34.99 32.89,35 33.92,34.99 C34.67,34.99 34.99,34.67 34.99,33.94 C35,32.39 35,30.85 34.99,29.3 C34.99,28.55 34.66,28.23 33.89,28.23 C31.87,28.23 29.84,28.23 27.81,28.23 C27.05,28.23 26.72,28.56 26.72,29.31 C26.71,30.84 26.71,32.37 26.72,33.9 C26.72,34.69 27.03,34.99 27.84,34.99 C28.84,34.99 29.83,34.99 30.83,34.99z "/></g></g></g><g id="time_group"/></svg>