<svg xmlns="http://www.w3.org/2000/svg" xmlns:xlink="http://www.w3.org/1999/xlink" preserveAspectRatio="xMidYMid meet" width="48" height="48" viewBox="0 0 48 48" style="width:100%;height:100%"><defs><animate repeatCount="indefinite" dur="6.006006s" begin="0s" xlink:href="#_R_G_L_3_G_M" fill="freeze" attributeName="opacity" from="1" to="0" keyTimes="0;0.6666667;0.6666667;1" values="1;1;0;0" keySplines="0 0 0 0;0 0 0 0;0 0 0 0" calcMode="spline"/><animate repeatCount="indefinite" dur="6.006006s" begin="0s" xlink:href="#_R_G_L_2_G_M" fill="freeze" attributeName="opacity" from="1" to="0" keyTimes="0;0.6666667;0.6666667;1" values="1;1;0;0" keySplines="0 0 0 0;0 0 0 0;0 0 0 0" calcMode="spline"/><animate repeatCount="indefinite" dur="6.006006s" begin="0s" xlink:href="#_R_G_L_1_C_0_P_0" fill="freeze" attributeName="d" attributeType="XML" from="M4 48.2 C4,48.2 4,73 4,73 C4,73 44.01,73 44.01,73 C44.01,73 44.01,48.2 44.01,48.2 C44.01,48.2 4,48.2 4,48.2z " to="M4 23.2 C4,23.2 4,48 4,48 C4,48 44.01,48 44.01,48 C44.01,48 44.01,23.2 44.01,23.2 C44.01,23.2 4,23.2 4,23.2z " keyTimes="0;0.6666666;0.7222222;1" values="M4 48.2 C4,48.2 4,73 4,73 C4,73 44.01,73 44.01,73 C44.01,73 44.01,48.2 44.01,48.2 C44.01,48.2 4,48.2 4,48.2z ;M4 48.2 C4,48.2 4,73 4,73 C4,73 44.01,73 44.01,73 C44.01,73 44.01,48.2 44.01,48.2 C44.01,48.2 4,48.2 4,48.2z ;M4 23.2 C4,23.2 4,48 4,48 C4,48 44.01,48 44.01,48 C44.01,48 44.01,23.2 44.01,23.2 C44.01,23.2 4,23.2 4,23.2z ;M4 23.2 C4,23.2 4,48 4,48 C4,48 44.01,48 44.01,48 C44.01,48 44.01,23.2 44.01,23.2 C44.01,23.2 4,23.2 4,23.2z " keySplines="0.167 0.167 0.667 1;0.167 0.167 0.667 1;0 0 0 0" calcMode="spline"/><clipPath id="_R_G_L_1_C_0"><path id="_R_G_L_1_C_0_P_0" fill-rule="nonzero"/></clipPath><animate repeatCount="indefinite" dur="6.006006s" begin="0s" xlink:href="#_R_G_L_1_G_M" fill="freeze" attributeName="opacity" from="0" to="1" keyTimes="0;0.6666667;0.6666672;1" values="0;0;1;1" keySplines="0 0 0 0;0 0 0 0;0 0 0 0" calcMode="spline"/><animate repeatCount="indefinite" dur="6.006006s" begin="0s" xlink:href="#_R_G_L_0_G" fill="freeze" attributeName="opacity" from="0" to="1" keyTimes="0;0.7222222;0.7777778;1" values="0;0;1;1" keySplines="0.167 0.167 0.667 1;0.167 0.167 0.667 1;0 0 0 0" calcMode="spline"/><animateMotion repeatCount="indefinite" dur="6.006006s" begin="0s" xlink:href="#_R_G_L_0_G" fill="freeze" keyTimes="0;0.7222222;0.7777778;1" path="M24 27.5 C24,27.5 24,27.5 24,27.5 C24,26.92 24,24.58 24,24 C24,24 24,24 24,24 " keyPoints="0;0;1;1" keySplines="0.167 0.167 0.667 1;0.167 0.167 0.667 1;0 0 0 0" calcMode="spline"/><animateTransform repeatCount="indefinite" dur="6.006006s" begin="0s" xlink:href="#_R_G_L_0_G" fill="freeze" attributeName="transform" from="1.08 1.08" to="1 1" type="scale" additive="sum" keyTimes="0;0.7222222;0.7777778;1" values="1.08 1.08;1.08 1.08;1 1;1 1" keySplines="0.167 0.167 0.667 1;0.167 0.167 0.667 1;0 0 0 0" calcMode="spline"/><animateTransform repeatCount="indefinite" dur="6.006006s" begin="0s" xlink:href="#_R_G_L_0_G" fill="freeze" attributeName="transform" from="-24 -24" to="-24 -24" type="translate" additive="sum" keyTimes="0;1" values="-24 -24;-24 -24" keySplines="0 0 1 1" calcMode="spline"/><animate repeatCount="indefinite" dur="6.006006s" begin="0s" xlink:href="#_R_G_L_0_G_M" fill="freeze" attributeName="opacity" from="0" to="1" keyTimes="0;0.7222222;0.7222228;1" values="0;0;1;1" keySplines="0 0 0 0;0 0 0 0;0 0 0 0" calcMode="spline"/><animate attributeType="XML" attributeName="opacity" dur="6s" from="0" to="1" xlink:href="#time_group"/></defs><g id="_R_G"><g id="_R_G_L_3_G_M"><g id="_R_G_L_3_G"><path id="_R_G_L_3_G_D_0_P_0" fill="#6d6e71" fill-opacity="1" fill-rule="nonzero" d=" M23.98 48 C20.19,48 16.39,48 12.6,48 C10.67,48 8.84,47.62 7.24,46.49 C5.38,45.18 4.29,43.37 4.1,41.12 C3.76,37.15 4.22,33.26 5.72,29.55 C6.6,27.35 7.92,25.45 10.08,24.28 C11.46,23.53 12.94,23.18 14.49,23.21 C14.97,23.22 15.48,23.46 15.92,23.7 C16.65,24.09 17.32,24.58 18.02,25.02 C22.01,27.46 26,27.46 29.99,25.02 C30.56,24.66 31.14,24.32 31.68,23.92 C32.64,23.2 33.69,23.11 34.84,23.27 C37.95,23.73 40.15,25.43 41.63,28.15 C42.96,30.58 43.55,33.22 43.82,35.94 C43.96,37.35 44.02,38.78 44,40.19 C43.95,44.36 41.01,47.51 36.87,47.91 C36.29,47.97 35.71,47.99 35.14,48 C31.42,48 27.7,48 23.98,48z  M23.99 45.19 C23.99,45.19 23.99,45.18 23.99,45.18 C27.95,45.18 31.92,45.21 35.89,45.17 C39.21,45.13 41.24,43.02 41.2,39.71 C41.19,38.46 41.14,37.21 41,35.97 C40.75,33.74 40.28,31.56 39.2,29.57 C38.08,27.51 36.47,26.18 34.05,26.04 C33.83,26.03 33.58,26.08 33.39,26.19 C32.68,26.61 32,27.08 31.3,27.52 C29.37,28.71 27.27,29.44 25.01,29.62 C21.91,29.86 19.08,29.02 16.48,27.36 C15.86,26.97 15.24,26.57 14.62,26.18 C14.47,26.09 14.27,26.02 14.1,26.03 C13.12,26.06 12.19,26.31 11.34,26.81 C9.77,27.7 8.9,29.16 8.26,30.75 C7.02,33.82 6.74,37.06 6.83,40.32 C6.87,42.08 7.65,43.51 9.21,44.42 C10.24,45.02 11.38,45.19 12.55,45.19 C16.36,45.19 20.17,45.19 23.99,45.19z "/></g></g><g id="_R_G_L_2_G_M"><g id="_R_G_L_2_G"><path id="_R_G_L_2_G_D_0_P_0" fill="#ff4c00" fill-opacity="1" fill-rule="nonzero" d=" M24.8 0 C25.42,0.12 26.05,0.23 26.67,0.38 C30.92,1.37 34.55,5.43 35.13,9.77 C35.5,12.63 35.09,15.33 33.47,17.74 C31.33,20.95 28.36,22.82 24.44,23.09 C19.29,23.43 15.06,20.41 13.13,16.29 C11.33,12.43 12.06,7.29 14.89,4.09 C16.63,2.12 18.72,0.77 21.31,0.24 C21.75,0.15 22.2,0.08 22.64,0 C22.64,0 24.8,0 24.8,0z  M23.73 20.31 C28.6,20.28 32.49,16.37 32.46,11.54 C32.43,6.64 28.51,2.77 23.64,2.81 C18.77,2.86 14.91,6.78 14.96,11.63 C15.01,16.47 18.92,20.35 23.73,20.31z "/></g></g><g id="_R_G_L_1_G_M"><g id="_R_G_L_1_G"><g clip-path="url(#_R_G_L_1_C_0)"><path id="_R_G_L_1_G_G_0_D_0_P_0" fill="#6d6e71" fill-opacity="1" fill-rule="nonzero" d=" M23.98 48 C20.19,48 16.39,48 12.6,48 C10.67,48 8.84,47.62 7.24,46.49 C5.38,45.18 4.29,43.37 4.1,41.12 C3.76,37.15 4.22,33.26 5.72,29.55 C6.6,27.35 7.92,25.45 10.08,24.28 C11.46,23.53 12.94,23.18 14.49,23.21 C14.97,23.22 15.48,23.46 15.92,23.7 C16.65,24.09 17.32,24.58 18.02,25.02 C22.01,27.46 26,27.46 29.99,25.02 C30.56,24.66 31.14,24.32 31.68,23.92 C32.64,23.2 33.69,23.11 34.84,23.27 C37.95,23.73 40.15,25.43 41.63,28.15 C42.96,30.58 43.55,33.22 43.82,35.94 C43.96,37.35 44.02,38.78 44,40.19 C43.95,44.36 41.01,47.51 36.87,47.91 C36.29,47.97 35.71,47.99 35.14,48 C31.42,48 27.7,48 23.98,48z  M23.99 45.19 C23.99,45.19 23.99,45.18 23.99,45.18 C27.95,45.18 31.92,45.21 35.89,45.17 C39.21,45.13 41.24,43.02 41.2,39.71 C41.19,38.46 41.14,37.21 41,35.97 C40.75,33.74 40.28,31.56 39.2,29.57 C38.08,27.51 36.47,26.18 34.05,26.04 C33.83,26.03 33.58,26.08 33.39,26.19 C32.68,26.61 32,27.08 31.3,27.52 C29.37,28.71 27.27,29.44 25.01,29.62 C21.91,29.86 19.08,29.02 16.48,27.36 C15.86,26.97 15.24,26.57 14.62,26.18 C14.47,26.09 14.27,26.02 14.1,26.03 C13.12,26.06 12.19,26.31 11.34,26.81 C9.77,27.7 8.9,29.16 8.26,30.75 C7.02,33.82 6.74,37.06 6.83,40.32 C6.87,42.08 7.65,43.51 9.21,44.42 C10.24,45.02 11.38,45.19 12.55,45.19 C16.36,45.19 20.17,45.19 23.99,45.19z "/></g></g></g><g id="_R_G_L_0_G_M"><g id="_R_G_L_0_G"><path id="_R_G_L_0_G_D_0_P_0" fill="#ff4c00" fill-opacity="1" fill-rule="nonzero" d=" M24.8 0 C25.42,0.12 26.05,0.23 26.67,0.38 C30.92,1.37 34.55,5.43 35.13,9.77 C35.5,12.63 35.09,15.33 33.47,17.74 C31.33,20.95 28.36,22.82 24.44,23.09 C19.29,23.43 15.06,20.41 13.13,16.29 C11.33,12.43 12.06,7.29 14.89,4.09 C16.63,2.12 18.72,0.77 21.31,0.24 C21.75,0.15 22.2,0.08 22.64,0 C22.64,0 24.8,0 24.8,0z  M23.73 20.31 C28.6,20.28 32.49,16.37 32.46,11.54 C32.43,6.64 28.51,2.77 23.64,2.81 C18.77,2.86 14.91,6.78 14.96,11.63 C15.01,16.47 18.92,20.35 23.73,20.31z "/></g></g></g><g id="time_group"/></svg>