<svg width="511" height="525" viewBox="0 0 511 525" fill="none" xmlns="http://www.w3.org/2000/svg">
<g clip-path="url(#clip0_904_1703)">
<path d="M316.066 -482.523C318.073 -482.523 319.679 -480.912 319.679 -478.898C319.679 -477.242 318.564 -475.855 317.025 -475.43L317.025 -428.915L298.424 -410.256L298.424 -252.589L328.712 -222.206L328.712 -166.786L292 -129.959L292 -69.0809L346.488 -14.4223L346.488 126.308L386.01 165.954L386.01 181.906L413.288 209.269L413.288 258.782L472.125 317.803C473.508 317.02 475.27 317.199 476.452 318.385C477.857 319.794 477.857 322.099 476.452 323.508C475.047 324.918 472.75 324.918 471.344 323.508C470.185 322.345 469.984 320.555 470.765 319.168L411.347 259.587L411.347 210.052L384.07 182.689L384.07 166.737L344.548 127.091L344.548 -13.6392L290.06 -68.2979L290.06 -130.765L326.772 -167.592L326.772 -221.4L296.483 -251.784L296.483 -411.039L315.084 -429.698L315.084 -475.43C313.568 -475.855 312.43 -477.242 312.43 -478.898C312.43 -480.912 314.058 -482.523 316.043 -482.523L316.066 -482.523ZM136.677 -485.252C136.677 -483.596 137.792 -482.187 139.331 -481.762L139.331 -408.242L154.765 -392.76L154.765 -289.103L134.759 -269.056L134.759 -222.407L142.966 -214.151L142.966 -142.175L104.716 -103.805L104.716 -29.3902L137.859 3.85697L137.859 71.4923L94.6343 114.852L94.6343 158.884L129.25 193.607L129.25 218.442L77.9734 269.879L77.9734 299.39L38.8749 338.588C37.4921 337.805 35.7301 337.984 34.548 339.17C33.1429 340.579 33.1429 342.884 34.548 344.294C35.9531 345.703 38.2504 345.703 39.6556 344.294C40.8376 343.108 41.0161 341.34 40.2354 339.953L79.8915 300.173L79.8915 270.662L131.168 219.225L131.168 192.78L96.5524 158.056L96.5524 115.635L139.755 72.2754L139.755 3.05152L106.634 -30.1956L106.634 -103.022L144.885 -141.392L144.885 -214.957L136.677 -223.213L136.677 -268.273L156.661 -288.32L156.661 -393.565L141.227 -409.048L141.227 -481.762C142.743 -482.187 143.881 -483.574 143.881 -485.252C143.881 -487.243 142.253 -488.877 140.268 -488.877C138.283 -488.877 136.655 -487.243 136.655 -485.252L136.677 -485.252ZM240.991 -474.916C240.991 -473.26 242.129 -471.873 243.646 -471.448L243.646 -329.823L201.491 -287.514L201.491 -230.73L234.345 -197.751L234.345 -115.148L197.923 -78.6121L197.923 -18.2481L211.774 -4.35417L211.774 48.4699L190.206 70.1051L190.206 112.794L213.469 136.13L213.469 181.101L182.333 212.334L182.333 269.275L141.829 309.905L141.829 451.441L110.492 482.853C109.109 482.07 107.347 482.249 106.165 483.435C104.76 484.844 104.76 487.149 106.165 488.558C107.57 489.968 109.868 489.968 111.273 488.558C112.455 487.373 112.633 485.605 111.853 484.218L143.747 452.224L143.747 310.688L184.251 270.058L184.251 213.117L215.387 181.884L215.387 135.324L192.124 111.989L192.124 70.8882L213.714 49.253L213.714 -5.15962L199.863 -19.0536L199.863 -77.829L236.285 -114.365L236.285 -198.579L203.432 -231.558L203.432 -286.754L245.586 -329.04L245.586 -471.47C247.103 -471.895 248.24 -473.282 248.24 -474.938C248.24 -476.929 246.634 -478.562 244.627 -478.562C242.62 -478.562 241.014 -476.951 241.014 -474.938L240.991 -474.916ZM276.633 -409.831L298 -431.265L298 -470.62C299.539 -471.045 300.654 -472.432 300.654 -474.088C300.654 -476.079 299.048 -477.712 297.041 -477.712C295.033 -477.712 293.428 -476.101 293.428 -474.088C293.428 -472.432 294.543 -471.045 296.082 -470.62L296.082 -432.048L274.715 -410.614L274.715 -322.439L229.193 -276.775L229.193 -240.619L257.898 -211.824L257.898 -104.789L225.936 -72.7279L225.936 -25.363L251.519 0.299544L251.519 80.2628L227.899 103.956L227.899 201.796L284.573 258.647L284.573 371.768L306.475 393.739C305.695 395.126 305.873 396.894 307.055 398.08C308.46 399.489 310.758 399.489 312.163 398.08C313.568 396.67 313.568 394.366 312.163 392.956C310.981 391.77 309.219 391.591 307.836 392.374L286.513 370.963L286.513 257.842L229.84 200.991L229.84 104.762L253.481 81.0459L253.481 -0.528268L227.899 -26.2131L227.899 -71.9672L259.86 -104.028L259.86 -212.652L231.155 -241.447L231.155 -275.992L276.677 -321.656L276.677 -409.831L276.633 -409.831ZM215.052 -284.941C213.647 -283.532 213.647 -281.227 215.052 -279.818C216.457 -278.408 218.755 -278.408 220.16 -279.818C221.32 -281.004 221.52 -282.771 220.74 -284.158L256.738 -320.269L256.738 -412.627L281.763 -437.731L281.763 -468.427C283.279 -468.852 284.417 -470.239 284.417 -471.895C284.417 -473.909 282.811 -475.52 280.804 -475.52C278.796 -475.52 277.19 -473.909 277.19 -471.895C277.19 -470.239 278.328 -468.852 279.845 -468.427L279.845 -438.536L254.82 -413.433L254.82 -321.075L219.379 -285.523C217.996 -286.306 216.234 -286.127 215.052 -284.941V-284.941ZM278.662 -290.982C280.068 -292.392 280.068 -294.696 278.662 -296.106C277.257 -297.515 274.96 -297.515 273.555 -296.106C272.373 -294.92 272.194 -293.152 272.975 -291.765L248.419 -267.132L248.419 -243.371L276.9 -214.8L276.9 -108.548L244.292 -75.8377L244.292 -32.9923L275.897 -1.2666L275.897 84.469C274.38 84.8941 273.243 86.2812 273.243 87.9369C273.243 89.9281 274.871 91.5614 276.856 91.5614C278.841 91.5614 280.469 89.9505 280.469 87.9369C280.469 86.2812 279.332 84.8941 277.815 84.469L277.815 -2.07205L246.21 -33.7754L246.21 -75.0323L278.819 -107.743L278.819 -215.606L250.337 -244.177L250.337 -266.349L274.336 -290.401C275.718 -289.617 277.48 -289.819 278.662 -290.982ZM278.774 -259.1L278.774 -236.95L297.933 -217.731L297.933 -167.547C296.416 -167.122 295.279 -165.735 295.279 -164.079C295.279 -162.066 296.885 -160.455 298.892 -160.455C300.899 -160.455 302.505 -162.066 302.505 -164.079C302.505 -165.735 301.368 -167.122 299.851 -167.547L299.851 -218.514L280.692 -237.733L280.692 -259.078C282.209 -259.503 283.346 -260.89 283.346 -262.545C283.346 -264.537 281.718 -266.148 279.733 -266.148C277.748 -266.148 276.12 -264.537 276.12 -262.545C276.12 -260.89 277.235 -259.503 278.774 -259.078L278.774 -259.1ZM404.188 334.628L366.918 297.242L366.918 204.324L321.151 158.414L321.151 -4.98062L271.592 -54.7171C272.373 -56.1042 272.194 -57.8718 271.012 -59.0576C269.607 -60.4671 267.31 -60.4671 265.905 -59.0576C264.5 -57.648 264.5 -55.3436 265.905 -53.9341C267.087 -52.7706 268.849 -52.5692 270.232 -53.3523L319.233 -4.19753L319.233 159.197L365 205.107L365 298.025L402.27 335.411L402.27 383.47L437.398 418.708L437.398 479.564C435.881 479.989 434.744 481.377 434.744 483.032C434.744 485.023 436.35 486.657 438.357 486.657C440.365 486.657 441.97 485.046 441.97 483.032C441.97 481.377 440.833 479.989 439.316 479.564L439.316 417.925L404.188 382.687L404.188 334.628ZM308.906 100.488L308.906 10.5019L265.191 -33.3503C265.972 -34.7375 265.793 -36.505 264.611 -37.6908C263.206 -39.1003 260.909 -39.1003 259.504 -37.6908C258.098 -36.2589 258.098 -33.9768 259.504 -32.5673C260.686 -31.3815 262.448 -31.2025 263.83 -31.9855L306.988 11.3073L306.988 99.683L280.112 126.643L280.112 180.564L319.902 220.478L319.902 320.421C318.385 320.846 317.248 322.233 317.248 323.911C317.248 325.902 318.876 327.536 320.861 327.536C322.846 327.536 324.474 325.902 324.474 323.911C324.474 322.256 323.359 320.846 321.82 320.421L321.82 219.673L282.03 179.758L282.03 127.426L308.906 100.466L308.906 100.488ZM371.714 360.783L341.358 330.355L341.358 207.546L299.851 165.887L299.851 139.217C301.368 138.792 302.505 137.405 302.505 135.749C302.505 133.758 300.877 132.147 298.892 132.147C296.907 132.147 295.279 133.758 295.279 135.749C295.279 137.427 296.394 138.814 297.933 139.217L297.933 166.692L339.462 208.329L339.462 331.138L369.795 361.588L369.795 404.859L391.965 427.076C391.185 428.463 391.363 430.23 392.545 431.416C393.95 432.826 396.248 432.826 397.653 431.416C399.058 430.007 399.058 427.702 397.653 426.293C396.471 425.129 394.709 424.95 393.326 425.711L371.736 404.053L371.736 360.783L371.714 360.783ZM297.197 334.874L297.197 247.595L246.099 196.337L246.099 119.193L267.399 97.8484L267.399 40.4601C268.916 40.035 270.053 38.6479 270.053 36.9923C270.053 34.9786 268.425 33.3677 266.44 33.3677C264.455 33.3677 262.827 34.9786 262.827 36.9923C262.827 38.6479 263.942 40.035 265.481 40.4601L265.481 97.043L244.181 118.41L244.181 197.165L295.279 248.423L295.279 334.897C293.762 335.322 292.625 336.709 292.625 338.365C292.625 340.378 294.23 341.989 296.238 341.989C298.245 341.989 299.851 340.378 299.851 338.365C299.851 336.709 298.736 335.322 297.197 334.897L297.197 334.874ZM355.989 430.723C355.989 429.067 354.874 427.658 353.335 427.232L353.335 392.016L308.884 347.426L308.884 233.701L262.581 187.253L262.581 125.032L290.26 97.2667L290.26 23.8589C291.777 23.4338 292.915 22.0467 292.915 20.3911C292.915 18.3998 291.286 16.7889 289.301 16.7889C287.316 16.7889 285.688 18.3998 285.688 20.3911C285.688 22.0691 286.803 23.4338 288.342 23.8589L288.342 96.4613L260.663 124.227L260.663 188.014L306.966 234.484L306.966 348.209L351.417 392.799L351.417 427.21C349.901 427.635 348.763 429.022 348.763 430.7C348.763 432.692 350.369 434.325 352.376 434.325C354.384 434.325 355.989 432.692 355.989 430.7L355.989 430.723ZM430.529 306.057L391.943 267.351L391.943 207.009L333.931 148.815L333.931 2.5369C335.448 2.11181 336.585 0.724648 336.585 -0.953371C336.585 -2.94462 334.979 -4.55552 332.972 -4.55552C330.965 -4.55552 329.359 -2.94462 329.359 -0.953371C329.359 0.724648 330.496 2.11181 332.013 2.5369L332.013 149.621L390.025 207.815L390.025 268.156L428.61 306.862L428.61 368.546L467.129 407.186C466.348 408.573 466.527 410.34 467.709 411.526C469.114 412.936 471.411 412.936 472.816 411.526C474.222 410.117 474.222 407.812 472.816 406.403C471.634 405.217 469.872 405.038 468.49 405.821L430.529 367.741L430.529 306.057V306.057ZM161.992 -479.39C161.992 -481.382 160.363 -483.015 158.378 -483.015C156.393 -483.015 154.765 -481.404 154.765 -479.39C154.765 -477.735 155.88 -476.347 157.419 -475.922L157.419 -417.483L179.768 -395.064L179.768 -298.97C178.251 -298.544 177.114 -297.157 177.114 -295.502C177.114 -293.51 178.742 -291.877 180.727 -291.877C182.712 -291.877 184.34 -293.51 184.34 -295.502C184.34 -297.157 183.202 -298.544 181.686 -298.97L181.686 -395.87L159.337 -418.288L159.337 -475.922C160.854 -476.347 161.992 -477.735 161.992 -479.39V-479.39ZM165.426 -360.855C165.426 -359.199 166.542 -357.812 168.08 -357.387L168.08 -276.26L151.576 -259.704L151.576 -133.137L119.369 -100.829L119.369 -39.4359L159.694 1.01551L159.694 90.04L123.428 126.419L123.428 165.596L150.014 192.265L150.014 231.016L115.934 265.203L115.934 444.303C114.418 444.729 113.28 446.116 113.28 447.794C113.28 449.785 114.886 451.418 116.893 451.418C118.901 451.418 120.507 449.785 120.507 447.794C120.507 446.138 119.391 444.729 117.852 444.303L117.852 266.008L151.933 231.821L151.933 191.482L125.347 164.813L125.347 127.225L161.612 90.8455L161.612 0.210063L121.287 -40.2414L121.287 -100.046L153.494 -132.353L153.494 -258.898L169.999 -275.455L169.999 -357.387C171.515 -357.812 172.653 -359.199 172.653 -360.855C172.653 -362.869 171.025 -364.479 169.04 -364.479C167.055 -364.479 165.426 -362.869 165.426 -360.855ZM191.767 27.573L191.767 44.1294L174.058 61.8717L174.058 129.283L190.228 145.504L190.228 181.884L171.158 201.013L171.158 259.856L126.506 304.648L126.506 438.979C124.99 439.404 123.852 440.791 123.852 442.446C123.852 444.46 125.48 446.071 127.465 446.071C129.45 446.071 131.079 444.46 131.079 442.446C131.079 440.791 129.963 439.404 128.424 438.979L128.424 305.453L173.077 260.661L173.077 201.818L192.146 182.689L192.146 144.699L175.976 128.478L175.976 62.6548L193.685 44.9125L193.685 26.7675L179.054 12.0904L179.054 -78.4331L215.788 -115.282L215.788 -181.217L189.18 -207.909L189.18 -266.617C190.696 -267.042 191.834 -268.43 191.834 -270.108C191.834 -272.099 190.206 -273.732 188.221 -273.732C186.236 -273.732 184.608 -272.099 184.608 -270.108C184.608 -268.452 185.723 -267.042 187.262 -266.617L187.262 -207.104L213.87 -180.412L213.87 -116.065L177.136 -79.2162L177.136 12.8735L191.767 27.5506L191.767 27.573ZM212.576 -417.483L212.576 -468.45C214.093 -468.875 215.231 -470.262 215.231 -471.917C215.231 -473.931 213.602 -475.542 211.617 -475.542C209.632 -475.542 208.004 -473.931 208.004 -471.917C208.004 -470.262 209.142 -468.875 210.658 -468.45L210.658 -418.266L191.499 -399.047L191.499 -310.693C189.983 -310.268 188.845 -308.881 188.845 -307.203C188.845 -305.212 190.473 -303.601 192.458 -303.601C194.444 -303.601 196.072 -305.212 196.072 -307.203C196.072 -308.881 194.934 -310.268 193.418 -310.693L193.418 -398.241L212.576 -417.46L212.576 -417.483ZM229.304 -480.464C229.304 -478.808 230.419 -477.399 231.958 -476.996L231.958 -406.542L212.264 -386.786L212.264 -323.536C210.748 -323.111 209.61 -321.724 209.61 -320.068C209.61 -318.077 211.238 -316.466 213.223 -316.466C215.208 -316.466 216.836 -318.077 216.836 -320.068C216.836 -321.746 215.721 -323.111 214.182 -323.536L214.182 -385.981L233.877 -405.736L233.877 -477.019C235.393 -477.444 236.531 -478.831 236.531 -480.487C236.531 -482.478 234.903 -484.111 232.917 -484.111C230.932 -484.111 229.304 -482.5 229.304 -480.487L229.304 -480.464ZM149.167 -39.4359C147.65 -39.0108 146.513 -37.6237 146.513 -35.968C146.513 -33.9544 148.119 -32.3435 150.126 -32.3435C152.133 -32.3435 153.739 -33.9544 153.739 -35.968C153.739 -37.6237 152.624 -39.0108 151.085 -39.4359L151.085 -69.0586L196.072 -114.164L196.072 -171.037L177.448 -189.719L177.448 -254.849C178.965 -255.274 180.102 -256.661 180.102 -258.317C180.102 -260.308 178.474 -261.919 176.489 -261.919C174.504 -261.919 172.876 -260.308 172.876 -258.317C172.876 -256.639 173.991 -255.252 175.53 -254.849L175.53 -188.914L194.154 -170.232L194.154 -114.969L149.167 -69.8416L149.167 -39.4136L149.167 -39.4359ZM141.874 -90.3359C140.468 -88.904 140.468 -86.6218 141.874 -85.2123C143.279 -83.8028 145.576 -83.8028 146.981 -85.2123C148.141 -86.3981 148.342 -88.1656 147.561 -89.5528L182.756 -124.858L182.756 -161.976L164.668 -180.121L164.668 -243.103C166.185 -243.528 167.322 -244.915 167.322 -246.571C167.322 -248.562 165.694 -250.195 163.709 -250.195C161.724 -250.195 160.096 -248.562 160.096 -246.571C160.096 -244.915 161.211 -243.528 162.75 -243.103L162.75 -179.316L180.838 -161.171L180.838 -125.664L146.201 -90.9176C144.818 -91.7007 143.056 -91.5217 141.874 -90.3359V-90.3359ZM256.961 381.322L292.959 417.433C292.178 418.82 292.357 420.61 293.539 421.773C294.944 423.183 297.241 423.183 298.647 421.773C300.052 420.364 300.052 418.059 298.647 416.65C297.487 415.464 295.702 415.285 294.32 416.068L258.879 380.516L258.879 255.045L215.164 211.193C215.944 209.806 215.766 208.038 214.584 206.853C213.179 205.443 210.881 205.443 209.476 206.853C208.071 208.284 208.071 210.567 209.476 211.976C210.658 213.162 212.42 213.341 213.803 212.558L256.961 255.851L256.961 381.322ZM168.393 443.789L185.968 426.181L185.968 385.864L165.739 365.571L165.739 315.118L200.867 279.88L200.867 225.713C202.384 225.288 203.521 223.901 203.521 222.246C203.521 220.254 201.893 218.621 199.908 218.621C197.923 218.621 196.295 220.232 196.295 222.246C196.295 223.901 197.41 225.288 198.949 225.713L198.949 279.097L163.82 314.335L163.82 366.376L184.05 386.669L184.05 425.375L166.475 443.006L166.475 480.907L133.175 514.333C131.792 513.55 130.008 513.729 128.848 514.915C127.443 516.346 127.443 518.629 128.848 520.038C130.253 521.448 132.551 521.448 133.956 520.038C135.138 518.852 135.316 517.085 134.536 515.698L168.415 481.734L168.415 443.811L168.393 443.789ZM235.661 310.04L209.855 335.948L209.855 367.45L234.211 391.882L234.211 427.255L252.322 445.422C251.541 446.809 251.72 448.577 252.902 449.763C254.307 451.172 256.604 451.172 258.009 449.763C259.414 448.353 259.414 446.049 258.009 444.639C256.827 443.453 255.065 443.274 253.682 444.057L236.151 426.472L236.151 391.099L211.796 366.667L211.796 336.776L237.624 310.89L237.624 262.563L218.398 243.277C219.178 241.89 219 240.122 217.818 238.936C216.413 237.527 214.115 237.527 212.71 238.936C211.305 240.346 211.305 242.65 212.71 244.06C213.87 245.223 215.654 245.425 217.037 244.642L235.705 263.368L235.705 310.084L235.661 310.04ZM247.705 359.172C249.221 358.747 250.359 357.36 250.359 355.704C250.359 353.713 248.731 352.08 246.746 352.08C244.761 352.08 243.133 353.69 243.133 355.704C243.133 357.36 244.248 358.747 245.787 359.172L245.787 412.287L285.777 452.403C284.997 453.79 285.175 455.557 286.357 456.743C287.762 458.153 290.06 458.153 291.465 456.743C292.87 455.334 292.87 453.029 291.465 451.62C290.283 450.434 288.521 450.255 287.138 451.038L247.705 411.481L247.705 359.172V359.172ZM218.688 441.395L218.688 403.203L200.332 384.79L200.332 310.286L215.766 294.803L215.766 265.203C217.283 264.778 218.42 263.391 218.42 261.713C218.42 259.721 216.814 258.088 214.807 258.088C212.799 258.088 211.194 259.721 211.194 261.713C211.194 263.368 212.331 264.778 213.848 265.203L213.848 294.02L198.414 309.503L198.414 385.618L216.77 404.031L216.77 442.2L270.209 495.807C269.429 497.195 269.607 498.962 270.789 500.148C272.194 501.58 274.492 501.58 275.897 500.148C277.302 498.738 277.302 496.434 275.897 495.024C274.737 493.861 272.953 493.682 271.57 494.443L218.688 441.417L218.688 441.395ZM199.908 298.472C201.313 297.063 201.313 294.781 199.908 293.349C198.503 291.939 196.205 291.939 194.8 293.349C193.618 294.535 193.44 296.302 194.22 297.689L179.255 312.702L179.255 353.534C177.738 353.959 176.601 355.346 176.601 357.002C176.601 358.993 178.229 360.626 180.214 360.626C182.199 360.626 183.827 358.993 183.827 357.002C183.827 355.346 182.689 353.959 181.173 353.534L181.173 313.507L195.581 299.054C196.964 299.837 198.726 299.658 199.908 298.472V298.472ZM44.3616 483.032C44.3616 481.376 43.2241 479.989 41.7075 479.564L41.7075 429.94L51.8111 419.804L51.8111 361.051L95.4595 317.266L95.4595 273.772C96.9762 273.347 98.1136 271.96 98.1136 270.304C98.1136 268.313 96.5078 266.68 94.5004 266.68C92.4931 266.68 90.8872 268.313 90.8872 270.304C90.8872 271.96 92.0247 273.347 93.5414 273.772L93.5414 316.461L49.893 360.246L49.893 418.999L39.7671 429.134L39.7671 479.564C38.2504 479.989 37.1129 481.376 37.1129 483.032C37.1129 485.023 38.7411 486.657 40.7261 486.657C42.7112 486.657 44.3393 485.046 44.3393 483.032L44.3616 483.032ZM64.3235 516.145C64.3235 514.467 63.2083 513.102 61.6693 512.677L61.6693 431.797L70.457 422.981L70.457 374.386L108.262 336.463L108.262 285.496C109.779 285.071 110.916 283.683 110.916 282.005C110.916 280.014 109.288 278.403 107.303 278.403C105.318 278.403 103.69 280.014 103.69 282.005C103.69 283.683 104.805 285.071 106.344 285.496L106.344 335.657L68.5389 373.581L68.5389 422.176L59.7512 430.991L59.7512 512.677C58.2346 513.102 57.0971 514.489 57.0971 516.145C57.0971 518.136 58.7252 519.77 60.7103 519.77C62.6953 519.77 64.3235 518.159 64.3235 516.145ZM71.1038 459.115C69.6987 460.524 69.6987 462.829 71.1038 464.238C72.509 465.648 74.8062 465.648 76.2114 464.238C77.3935 463.053 77.5719 461.285 76.7913 459.898L99.7418 436.875L99.7418 379.51C101.258 379.084 102.396 377.697 102.396 376.042C102.396 374.05 100.768 372.417 98.7828 372.417C96.7977 372.417 95.1696 374.028 95.1696 376.042C95.1696 377.697 96.2847 379.084 97.8237 379.51L97.8237 436.092L75.4307 458.533C74.0479 457.75 72.2859 457.951 71.1038 459.115Z" fill="#F26122"/>
</g>
<g filter="url(#filter0_d_904_1703)">
<rect x="64.2764" y="12" width="381.493" height="381.493" rx="190.747" fill="url(#paint0_radial_904_1703)" shape-rendering="crispEdges"/>
<g filter="url(#filter1_d_904_1703)">
<path d="M165.894 227.467C161.2 227.467 156.534 226.96 151.894 225.947C147.307 224.88 143.12 223.573 139.334 222.027C135.6 220.48 132.667 218.987 130.534 217.547C130.587 215.467 131.014 213.173 131.814 210.667C132.667 208.107 133.787 205.76 135.174 203.627C136.56 201.44 138.054 199.867 139.654 198.907C143.44 201.253 147.68 203.253 152.374 204.907C157.12 206.56 161.387 207.413 165.174 207.467C168.214 207.52 170.587 206.907 172.294 205.627C174.054 204.293 174.934 202.48 174.934 200.187C174.934 198.64 174.427 197.067 173.414 195.467C172.4 193.867 170.347 192.48 167.254 191.307L153.814 186.347C148.107 184.16 143.174 181.067 139.014 177.067C134.854 173.013 132.774 167.653 132.774 160.987C132.774 155.12 134.214 150.053 137.094 145.787C139.974 141.467 143.814 138.133 148.614 135.787C153.414 133.387 158.694 132.187 164.454 132.187C171.76 132.187 178.134 132.88 183.574 134.267C189.067 135.653 194.027 137.467 198.454 139.707C198.454 143.12 197.654 146.56 196.054 150.027C194.454 153.493 192.4 156.267 189.894 158.347C185.84 156.373 181.867 154.88 177.974 153.867C174.08 152.8 170.56 152.267 167.414 152.267C164.587 152.267 162.427 152.827 160.934 153.947C159.44 155.067 158.694 156.56 158.694 158.427C158.694 160.4 159.387 161.947 160.774 163.067C162.16 164.133 164.187 165.2 166.854 166.267L179.894 171.227C186.134 173.627 191.2 177.147 195.094 181.787C199.04 186.427 201.014 192.32 201.014 199.467C201.014 205.12 199.52 210.053 196.534 214.267C193.547 218.48 189.414 221.733 184.134 224.027C178.854 226.32 172.774 227.467 165.894 227.467ZM164.934 240.987C161.254 240.987 158.24 240.667 155.894 240.027V218.987H173.734V240.027C171.6 240.667 168.667 240.987 164.934 240.987ZM157.414 140.747V119.707C158.64 119.387 160.027 119.147 161.574 118.987C163.174 118.827 164.774 118.747 166.374 118.747C167.92 118.747 169.494 118.827 171.094 118.987C172.747 119.147 174.16 119.387 175.334 119.707V140.747H157.414ZM219.74 154.107C221.126 149.147 223.366 144.613 226.46 140.507C229.606 136.4 233.5 133.147 238.14 130.747C242.833 128.293 248.166 127.067 254.14 127.067C264.38 127.067 272.566 129.973 278.7 135.787C284.886 141.6 287.98 149.36 287.98 159.067C287.98 163.547 287.1 167.6 285.34 171.227C283.58 174.853 281.26 178.213 278.38 181.307C275.5 184.4 272.326 187.413 268.86 190.347L257.42 199.307C255.553 200.853 253.553 202.533 251.42 204.347C249.286 206.16 247.446 207.92 245.9 209.627C244.353 211.333 243.553 212.8 243.5 214.027L242.62 230.907H227.1C224.913 228.347 222.94 225.787 221.18 223.227C219.473 220.667 218.62 217.893 218.62 214.907C218.62 211.973 219.446 209.013 221.1 206.027C222.806 203.04 225.046 200.053 227.82 197.067C230.646 194.027 233.686 191.04 236.94 188.107L254.3 173.147C256.646 171.12 258.62 168.907 260.22 166.507C261.82 164.107 262.62 161.387 262.62 158.347C262.62 155.307 261.66 152.747 259.74 150.667C257.82 148.533 255.1 147.467 251.58 147.467C247.74 147.467 244.646 148.96 242.3 151.947C239.953 154.88 238.326 158.08 237.42 161.547C234.486 161.493 231.18 160.827 227.5 159.547C223.873 158.213 221.286 156.4 219.74 154.107ZM290.7 209.627C290.7 217.68 289.473 223.253 287.02 226.347C284.62 229.387 280.593 230.907 274.94 230.907H228.62L222.06 216.107C226.166 214.613 231.046 213.413 236.7 212.507C242.353 211.547 248.033 210.827 253.74 210.347C259.446 209.867 264.433 209.627 268.7 209.627H290.7ZM334.226 161.147C334.013 163.493 333.666 165.76 333.186 167.947C332.759 170.08 332.093 172.267 331.186 174.507C327.933 175.68 324.306 176.587 320.306 177.227C316.359 177.813 312.599 178.16 309.026 178.267L311.826 130.747L333.666 134.667C334.039 136.267 334.333 138.373 334.546 140.987C334.759 143.547 334.893 146.08 334.946 148.587C334.999 151.04 334.973 152.96 334.866 154.347L334.226 161.147ZM304.866 222.027C305.346 219.68 306.546 216.827 308.466 213.467C310.386 210.107 312.573 207.547 315.026 205.787C318.173 208.027 321.319 209.787 324.466 211.067C327.666 212.293 331.079 212.907 334.706 212.907C337.746 212.907 340.493 212.32 342.946 211.147C345.453 209.973 347.426 208.213 348.866 205.867C350.359 203.52 351.106 200.64 351.106 197.227C351.106 193.707 350.359 190.827 348.866 188.587C347.426 186.347 345.479 184.693 343.026 183.627C340.626 182.507 337.986 181.947 335.106 181.947C332.653 181.947 330.279 182.373 327.986 183.227C325.746 184.08 323.586 185.307 321.506 186.907C319.266 186.48 316.919 185.44 314.466 183.787C312.066 182.08 310.253 180.24 309.026 178.267C311.266 176.293 313.986 174.133 317.186 171.787C320.439 169.387 324.173 167.333 328.386 165.627C332.599 163.867 337.266 162.987 342.386 162.987C353.266 162.987 361.693 166.053 367.666 172.187C373.639 178.32 376.626 186.32 376.626 196.187C376.626 204.56 374.679 211.493 370.786 216.987C366.946 222.427 361.986 226.48 355.906 229.147C349.879 231.813 343.559 233.147 336.946 233.147C330.759 233.147 324.839 232.187 319.186 230.267C313.586 228.347 308.813 225.6 304.866 222.027ZM371.186 129.467C371.933 131.493 372.413 133.413 372.626 135.227C372.839 136.987 372.946 138.48 372.946 139.707C372.946 146.64 369.399 150.107 362.306 150.107H336.226C333.666 150.107 330.759 150.053 327.506 149.947C324.253 149.84 321.239 149.707 318.466 149.547C315.746 149.387 313.826 149.227 312.706 149.067L311.826 130.747L313.106 129.467H371.186Z" fill="white"/>
</g>
<g filter="url(#filter2_d_904_1703)">
<path d="M151.1 254.651C152.332 254.651 153.236 255.059 153.812 255.875C154.404 256.675 154.7 257.771 154.7 259.163V278.747C154.268 278.827 153.772 278.883 153.212 278.915C152.668 278.963 152.124 278.987 151.58 278.987C151.052 278.987 150.508 278.963 149.948 278.915C149.388 278.883 148.884 278.827 148.436 278.747V254.987L148.748 254.651H151.1ZM161.348 264.011C161.348 262.539 161.108 261.523 160.628 260.963C160.164 260.403 159.572 260.123 158.852 260.123C158.116 260.139 157.332 260.403 156.5 260.915C155.668 261.427 154.9 262.083 154.196 262.883C153.508 263.667 152.988 264.507 152.636 265.403V259.715C153.372 258.803 154.188 257.947 155.084 257.147C155.996 256.347 156.964 255.707 157.988 255.227C159.028 254.731 160.108 254.483 161.228 254.483C162.62 254.483 163.788 254.811 164.732 255.467C165.692 256.123 166.412 257.019 166.892 258.155C167.388 259.291 167.636 260.571 167.636 261.995V278.747C167.188 278.827 166.684 278.883 166.124 278.915C165.58 278.963 165.044 278.987 164.516 278.987C163.972 278.987 163.42 278.963 162.86 278.915C162.316 278.883 161.812 278.827 161.348 278.747V264.011ZM174.284 263.963C174.284 262.491 174.036 261.483 173.54 260.939C173.06 260.395 172.46 260.123 171.74 260.123C171.052 260.123 170.3 260.379 169.484 260.891C168.668 261.403 167.892 262.075 167.156 262.907C166.436 263.723 165.852 264.619 165.404 265.595V259.331C166.156 258.467 167.012 257.667 167.972 256.931C168.932 256.195 169.948 255.603 171.02 255.155C172.108 254.707 173.196 254.483 174.284 254.483C175.692 254.483 176.86 254.819 177.788 255.491C178.716 256.163 179.412 257.067 179.876 258.203C180.34 259.339 180.572 260.627 180.572 262.067V273.203C180.572 274.083 180.644 274.915 180.788 275.699C180.932 276.483 181.188 277.171 181.556 277.763C181.108 278.131 180.54 278.451 179.852 278.723C179.164 278.979 178.428 279.107 177.644 279.107C176.396 279.107 175.524 278.771 175.028 278.099C174.532 277.427 174.284 276.451 174.284 275.171V263.963ZM189.439 268.835V264.443H199.735V263.843C199.735 262.931 199.599 262.091 199.327 261.323C199.071 260.555 198.655 259.939 198.079 259.475C197.519 259.011 196.759 258.779 195.799 258.779C194.407 258.779 193.391 259.363 192.751 260.531C192.127 261.683 191.815 263.355 191.815 265.547V267.443C191.815 268.739 191.935 269.923 192.175 270.995C192.431 272.067 192.911 272.923 193.615 273.563C194.335 274.187 195.375 274.499 196.735 274.499C197.887 274.499 198.999 274.347 200.071 274.043C201.159 273.723 202.199 273.331 203.191 272.867C203.671 273.347 204.063 273.947 204.367 274.667C204.687 275.387 204.895 276.067 204.991 276.707C203.807 277.555 202.391 278.219 200.743 278.699C199.111 279.179 197.447 279.419 195.751 279.419C193.735 279.419 192.063 279.075 190.735 278.387C189.407 277.699 188.351 276.771 187.567 275.603C186.799 274.419 186.255 273.083 185.935 271.595C185.615 270.091 185.455 268.539 185.455 266.939C185.455 264.539 185.823 262.379 186.559 260.459C187.295 258.539 188.431 257.027 189.967 255.923C191.503 254.803 193.463 254.243 195.847 254.243C197.943 254.243 199.711 254.699 201.151 255.611C202.607 256.507 203.711 257.723 204.463 259.259C205.231 260.795 205.615 262.523 205.615 264.443C205.615 265.371 205.575 266.155 205.495 266.795C205.415 267.419 205.287 268.099 205.111 268.835H189.439ZM213.561 254.651C214.793 254.651 215.697 255.059 216.273 255.875C216.849 256.675 217.137 257.771 217.137 259.163V278.747C216.705 278.827 216.209 278.883 215.649 278.915C215.105 278.963 214.561 278.987 214.017 278.987C213.489 278.987 212.945 278.963 212.385 278.915C211.825 278.883 211.321 278.827 210.873 278.747V254.963L211.185 254.651H213.561ZM230.673 273.203C230.673 274.083 230.745 274.915 230.889 275.699C231.049 276.483 231.313 277.171 231.681 277.763C231.233 278.131 230.657 278.451 229.953 278.723C229.265 278.979 228.537 279.107 227.769 279.107C226.521 279.107 225.649 278.771 225.153 278.099C224.657 277.427 224.409 276.451 224.409 275.171V264.011C224.409 262.667 224.233 261.683 223.881 261.059C223.545 260.435 222.889 260.123 221.913 260.123C221.257 260.123 220.537 260.283 219.753 260.603C218.969 260.923 218.209 261.411 217.473 262.067C216.737 262.723 216.113 263.547 215.601 264.539V258.827C216.705 257.675 217.969 256.667 219.393 255.803C220.833 254.923 222.409 254.483 224.121 254.483C225.609 254.483 226.833 254.843 227.793 255.563C228.769 256.267 229.489 257.243 229.953 258.491C230.433 259.723 230.673 261.131 230.673 262.715V273.203ZM235.035 277.043C235.067 276.355 235.267 275.595 235.635 274.763C236.003 273.915 236.427 273.243 236.907 272.747C237.947 273.291 239.035 273.771 240.171 274.187C241.307 274.603 242.451 274.811 243.603 274.811C244.707 274.811 245.563 274.595 246.171 274.163C246.795 273.731 247.115 273.179 247.131 272.507C247.131 271.931 246.915 271.411 246.483 270.947C246.067 270.483 245.419 270.099 244.539 269.795L241.803 268.811C240.699 268.395 239.683 267.883 238.755 267.275C237.843 266.651 237.115 265.891 236.571 264.995C236.043 264.099 235.779 263.027 235.779 261.779C235.779 260.227 236.155 258.891 236.907 257.771C237.659 256.635 238.707 255.763 240.051 255.155C241.395 254.547 242.939 254.243 244.683 254.243C246.091 254.243 247.579 254.435 249.147 254.819C250.715 255.187 252.003 255.619 253.011 256.115C253.043 256.611 252.987 257.155 252.843 257.747C252.699 258.339 252.483 258.891 252.195 259.403C251.923 259.899 251.611 260.291 251.259 260.579C250.331 260.163 249.291 259.779 248.139 259.427C247.003 259.059 245.851 258.875 244.683 258.875C243.851 258.875 243.195 259.083 242.715 259.499C242.251 259.899 242.019 260.403 242.019 261.011C242.019 261.555 242.211 262.011 242.595 262.379C242.979 262.747 243.571 263.075 244.371 263.363L247.347 264.443C249.155 265.083 250.643 266.003 251.811 267.203C252.995 268.387 253.587 269.963 253.587 271.931C253.587 274.235 252.699 276.059 250.923 277.403C249.147 278.747 246.739 279.419 243.699 279.419C241.987 279.419 240.387 279.187 238.899 278.723C237.411 278.243 236.123 277.683 235.035 277.043ZM277.896 271.955C277.896 272.803 278.008 273.587 278.232 274.307C278.456 275.027 278.792 275.571 279.24 275.939C279.112 276.515 278.84 277.115 278.424 277.739C278.024 278.347 277.608 278.803 277.176 279.107C275.32 278.947 273.928 278.211 273 276.899C272.088 275.587 271.632 274.043 271.632 272.267V254.915C272.064 254.835 272.552 254.779 273.096 254.747C273.656 254.699 274.216 254.675 274.776 254.675C275.304 254.675 275.84 254.699 276.384 254.747C276.944 254.779 277.448 254.835 277.896 254.915V271.955ZM258.12 260.459C258.12 259.579 258.04 258.747 257.88 257.963C257.736 257.179 257.48 256.499 257.112 255.923C257.576 255.523 258.152 255.203 258.84 254.963C259.528 254.707 260.256 254.579 261.024 254.579C262.272 254.579 263.144 254.915 263.64 255.587C264.136 256.243 264.384 257.211 264.384 258.491V269.675C264.384 271.003 264.56 271.979 264.912 272.603C265.264 273.227 265.92 273.539 266.88 273.539C267.536 273.539 268.256 273.379 269.04 273.059C269.824 272.723 270.584 272.227 271.32 271.571C272.056 270.915 272.672 270.107 273.168 269.147V274.811C272.08 275.979 270.816 277.003 269.376 277.883C267.952 278.747 266.376 279.179 264.648 279.179C263.176 279.179 261.952 278.827 260.976 278.123C260.016 277.403 259.296 276.419 258.816 275.171C258.352 273.923 258.12 272.515 258.12 270.947V260.459ZM283.025 272.243C283.025 270.355 283.449 268.811 284.297 267.611C285.161 266.411 286.297 265.523 287.705 264.947C289.129 264.371 290.689 264.083 292.385 264.083C293.185 264.083 294.137 264.115 295.241 264.179C296.361 264.227 297.385 264.355 298.313 264.563V268.619C297.545 268.443 296.649 268.339 295.625 268.307C294.617 268.259 293.721 268.235 292.937 268.235C291.673 268.235 290.729 268.563 290.105 269.219C289.481 269.859 289.169 270.723 289.169 271.811C289.169 272.627 289.409 273.307 289.889 273.851C290.369 274.395 291.033 274.667 291.881 274.667C292.937 274.667 294.033 274.291 295.169 273.539C296.321 272.787 297.289 271.723 298.073 270.347L298.985 274.619C298.377 275.323 297.665 276.051 296.849 276.803C296.033 277.539 295.073 278.163 293.969 278.675C292.881 279.171 291.625 279.419 290.201 279.419C288.585 279.419 287.241 279.059 286.169 278.339C285.113 277.619 284.321 276.707 283.793 275.603C283.281 274.499 283.025 273.379 283.025 272.243ZM303.953 275.891C303.825 276.451 303.553 277.051 303.137 277.691C302.737 278.331 302.321 278.803 301.889 279.107C300.673 278.995 299.673 278.651 298.889 278.075C298.105 277.499 297.513 276.803 297.113 275.987C296.729 275.155 296.481 274.315 296.369 273.467V262.931C296.369 261.683 296.073 260.771 295.481 260.195C294.889 259.603 294.017 259.307 292.865 259.307C291.745 259.307 290.561 259.483 289.313 259.835C288.065 260.171 286.809 260.555 285.545 260.987C285.081 260.475 284.705 259.803 284.417 258.971C284.145 258.139 283.977 257.323 283.913 256.523C284.905 256.107 286.009 255.739 287.225 255.419C288.457 255.099 289.697 254.851 290.945 254.675C292.209 254.483 293.369 254.387 294.425 254.387C295.913 254.387 297.273 254.659 298.505 255.203C299.737 255.747 300.729 256.619 301.481 257.819C302.233 259.003 302.609 260.563 302.609 262.499V272.291C302.609 273.075 302.705 273.771 302.897 274.379C303.089 274.987 303.441 275.491 303.953 275.891ZM318.63 274.115C318.774 274.563 318.894 275.051 318.99 275.579C319.086 276.107 319.134 276.635 319.134 277.163C319.134 277.387 319.126 277.627 319.11 277.883C319.094 278.123 319.054 278.347 318.99 278.555C318.35 278.651 317.614 278.739 316.782 278.819C315.95 278.915 315.134 278.963 314.334 278.963C312.462 278.963 311.094 278.491 310.23 277.547C309.382 276.587 308.958 275.115 308.958 273.131V243.755L309.294 243.443H311.718C312.982 243.443 313.862 243.739 314.358 244.331C314.854 244.907 315.102 245.899 315.102 247.307V271.907C315.102 273.379 315.766 274.115 317.094 274.115H318.63ZM325.611 268.835V264.443H335.907V263.843C335.907 262.931 335.771 262.091 335.499 261.323C335.243 260.555 334.827 259.939 334.251 259.475C333.691 259.011 332.931 258.779 331.971 258.779C330.579 258.779 329.563 259.363 328.923 260.531C328.299 261.683 327.987 263.355 327.987 265.547V267.443C327.987 268.739 328.107 269.923 328.347 270.995C328.603 272.067 329.083 272.923 329.787 273.563C330.507 274.187 331.547 274.499 332.907 274.499C334.059 274.499 335.171 274.347 336.243 274.043C337.331 273.723 338.371 273.331 339.363 272.867C339.843 273.347 340.235 273.947 340.539 274.667C340.859 275.387 341.067 276.067 341.163 276.707C339.979 277.555 338.563 278.219 336.915 278.699C335.283 279.179 333.619 279.419 331.923 279.419C329.907 279.419 328.235 279.075 326.907 278.387C325.579 277.699 324.523 276.771 323.739 275.603C322.971 274.419 322.427 273.083 322.107 271.595C321.787 270.091 321.627 268.539 321.627 266.939C321.627 264.539 321.995 262.379 322.731 260.459C323.467 258.539 324.603 257.027 326.139 255.923C327.675 254.803 329.635 254.243 332.019 254.243C334.115 254.243 335.883 254.699 337.323 255.611C338.779 256.507 339.883 257.723 340.635 259.259C341.403 260.795 341.787 262.523 341.787 264.443C341.787 265.371 341.747 266.155 341.667 266.795C341.587 267.419 341.459 268.099 341.283 268.835H325.611ZM344.957 277.043C344.989 276.355 345.189 275.595 345.557 274.763C345.925 273.915 346.349 273.243 346.829 272.747C347.869 273.291 348.957 273.771 350.093 274.187C351.229 274.603 352.373 274.811 353.525 274.811C354.629 274.811 355.485 274.595 356.093 274.163C356.717 273.731 357.037 273.179 357.053 272.507C357.053 271.931 356.837 271.411 356.405 270.947C355.989 270.483 355.341 270.099 354.461 269.795L351.725 268.811C350.621 268.395 349.605 267.883 348.677 267.275C347.765 266.651 347.037 265.891 346.493 264.995C345.965 264.099 345.701 263.027 345.701 261.779C345.701 260.227 346.077 258.891 346.829 257.771C347.581 256.635 348.629 255.763 349.973 255.155C351.317 254.547 352.861 254.243 354.605 254.243C356.013 254.243 357.501 254.435 359.069 254.819C360.637 255.187 361.925 255.619 362.933 256.115C362.965 256.611 362.909 257.155 362.765 257.747C362.621 258.339 362.405 258.891 362.117 259.403C361.845 259.899 361.533 260.291 361.181 260.579C360.253 260.163 359.213 259.779 358.061 259.427C356.925 259.059 355.773 258.875 354.605 258.875C353.773 258.875 353.117 259.083 352.637 259.499C352.173 259.899 351.941 260.403 351.941 261.011C351.941 261.555 352.133 262.011 352.517 262.379C352.901 262.747 353.493 263.075 354.293 263.363L357.269 264.443C359.077 265.083 360.565 266.003 361.733 267.203C362.917 268.387 363.509 269.963 363.509 271.931C363.509 274.235 362.621 276.059 360.845 277.403C359.069 278.747 356.661 279.419 353.621 279.419C351.909 279.419 350.309 279.187 348.821 278.723C347.333 278.243 346.045 277.683 344.957 277.043Z" fill="white"/>
</g>
</g>
<defs>
<filter id="filter0_d_904_1703" x="40.2764" y="0" width="429.493" height="429.493" filterUnits="userSpaceOnUse" color-interpolation-filters="sRGB">
<feFlood flood-opacity="0" result="BackgroundImageFix"/>
<feColorMatrix in="SourceAlpha" type="matrix" values="0 0 0 0 0 0 0 0 0 0 0 0 0 0 0 0 0 0 127 0" result="hardAlpha"/>
<feOffset dy="12"/>
<feGaussianBlur stdDeviation="12"/>
<feComposite in2="hardAlpha" operator="out"/>
<feColorMatrix type="matrix" values="0 0 0 0 0 0 0 0 0 0 0 0 0 0 0 0 0 0 0.2 0"/>
<feBlend mode="normal" in2="BackgroundImageFix" result="effect1_dropShadow_904_1703"/>
<feBlend mode="normal" in="SourceGraphic" in2="effect1_dropShadow_904_1703" result="shape"/>
</filter>
<filter id="filter1_d_904_1703" x="126.534" y="114.747" width="262.092" height="138.24" filterUnits="userSpaceOnUse" color-interpolation-filters="sRGB">
<feFlood flood-opacity="0" result="BackgroundImageFix"/>
<feColorMatrix in="SourceAlpha" type="matrix" values="0 0 0 0 0 0 0 0 0 0 0 0 0 0 0 0 0 0 127 0" result="hardAlpha"/>
<feOffset dx="4" dy="4"/>
<feGaussianBlur stdDeviation="4"/>
<feComposite in2="hardAlpha" operator="out"/>
<feColorMatrix type="matrix" values="0 0 0 0 0 0 0 0 0 0 0 0 0 0 0 0 0 0 0.25 0"/>
<feBlend mode="normal" in2="BackgroundImageFix" result="effect1_dropShadow_904_1703"/>
<feBlend mode="normal" in="SourceGraphic" in2="effect1_dropShadow_904_1703" result="shape"/>
</filter>
<filter id="filter2_d_904_1703" x="144.436" y="239.442" width="231.073" height="51.9761" filterUnits="userSpaceOnUse" color-interpolation-filters="sRGB">
<feFlood flood-opacity="0" result="BackgroundImageFix"/>
<feColorMatrix in="SourceAlpha" type="matrix" values="0 0 0 0 0 0 0 0 0 0 0 0 0 0 0 0 0 0 127 0" result="hardAlpha"/>
<feOffset dx="4" dy="4"/>
<feGaussianBlur stdDeviation="4"/>
<feComposite in2="hardAlpha" operator="out"/>
<feColorMatrix type="matrix" values="0 0 0 0 0 0 0 0 0 0 0 0 0 0 0 0 0 0 0.25 0"/>
<feBlend mode="normal" in2="BackgroundImageFix" result="effect1_dropShadow_904_1703"/>
<feBlend mode="normal" in="SourceGraphic" in2="effect1_dropShadow_904_1703" result="shape"/>
</filter>
<radialGradient id="paint0_radial_904_1703" cx="0" cy="0" r="1" gradientUnits="userSpaceOnUse" gradientTransform="translate(255.023 202.392) scale(142.309 421.394)">
<stop stop-color="#FF7F00"/>
<stop offset="1" stop-color="#F95C04"/>
</radialGradient>
<clipPath id="clip0_904_1703">
<rect width="274" height="511" fill="white" transform="translate(0 525) rotate(-90)"/>
</clipPath>
</defs>
</svg>
