<svg width="351" height="300" viewBox="0 0 351 300" fill="none" xmlns="http://www.w3.org/2000/svg">
<g clip-path="url(#clip0_904_982)">
<path d="M63.3428 127.551L97.8195 0H194.119L159.642 127.551H63.3428Z" fill="#6D6E71"/>
<path d="M159.642 127.551L194.119 0H287.16L252.683 127.551H159.642Z" fill="#F95C04"/>
<path d="M90.7963 119.996C85.0979 119.996 81.6605 115.33 83.1643 109.637L107.293 17.9191C108.792 12.2206 114.679 7.56049 120.378 7.56049C126.076 7.56049 129.513 12.2206 128.015 17.9191L103.886 109.637C102.387 115.336 96.4997 119.996 90.8014 119.996H90.7963Z" fill="white"/>
<path d="M115.549 119.996C109.861 119.996 106.413 115.33 107.917 109.627L120.899 60.2792C122.398 54.5756 128.291 49.9104 133.989 49.9104C139.688 49.9104 143.12 54.5858 141.621 60.2792L128.639 109.627C127.14 115.32 121.242 119.996 115.554 119.996H115.549Z" fill="white"/>
<path d="M153.535 109.627C152.036 115.32 146.138 119.996 140.45 119.996C134.762 119.996 131.314 115.33 132.818 109.627L139.345 84.8226C140.844 79.119 146.736 74.4589 152.435 74.4589C158.133 74.4589 161.565 79.1292 160.067 84.8226L153.54 109.627H153.535Z" fill="white"/>
<path d="M183.413 119.996C177.714 119.996 174.277 115.33 175.781 109.637L199.909 17.9191C201.408 12.2206 207.296 7.56049 212.994 7.56049C218.692 7.56049 222.13 12.2206 220.631 17.9191L196.502 109.637C195.004 115.336 189.116 119.996 183.418 119.996H183.413Z" fill="white"/>
<path d="M219.311 77.6407C213.613 77.6407 210.175 72.9755 211.679 67.277L224.662 17.9293C226.161 12.2257 232.058 7.5656 237.752 7.5656C243.44 7.5656 246.882 12.2359 245.384 17.9293L232.401 67.277C230.902 72.9704 225.01 77.6407 219.316 77.6407H219.311Z" fill="white"/>
<path d="M263.757 42.7285C262.259 48.4218 256.366 53.0921 250.673 53.0921C244.974 53.0921 241.537 48.4269 243.041 42.7285L249.568 17.9242C251.067 12.2206 256.964 7.56049 262.658 7.56049C268.346 7.56049 271.788 12.2308 270.29 17.9242L263.763 42.7285H263.757Z" fill="white"/>
</g>
<g clip-path="url(#clip1_904_982)">
<path d="M8.59745 169.457H25.3061V222.255C25.3061 225.67 25.9679 228.033 27.2916 229.335C28.6154 230.638 31.0062 231.293 34.4573 231.293H59.8782V247.769H33.2416C24.3808 247.769 18.0594 245.886 14.2705 242.12C10.4817 238.353 8.5907 232.042 8.5907 223.186V169.457H8.59745Z" fill="#6D6E71"/>
<path d="M126.152 182.295L147.825 247.769H130.123L110.49 187.088C110.193 186.136 109.801 185.434 109.302 184.995C108.809 184.556 108.174 184.334 107.397 184.334C106.62 184.334 106.067 184.543 105.607 184.968C105.148 185.393 104.77 186.082 104.479 187.034L84.8465 247.769H67.0911L88.6556 182.295C90.344 177.26 92.674 173.595 95.6321 171.3C98.5902 169.005 102.514 167.857 107.404 167.857C112.293 167.857 116.292 169.059 119.398 171.468C122.505 173.878 124.754 177.483 126.152 182.295Z" fill="#6D6E71"/>
<path d="M151.674 169.457H215.915V185.825H192.203V247.769H175.494V185.825H151.674V169.457Z" fill="#6D6E71"/>
<path d="M233.326 169.457H250.035V247.769H233.326V169.457Z" fill="#6D6E71"/>
<path d="M312.999 185.933L324.744 227.432C325.365 229.639 326.02 231.097 326.703 231.812C327.385 232.528 328.35 232.886 329.6 232.886C330.957 232.886 331.997 232.467 332.713 231.617C333.429 230.773 333.787 229.545 333.787 227.925V169.457H350.496V229.801C350.496 235.937 348.693 240.729 345.093 244.185C341.486 247.641 336.468 249.362 330.039 249.362C324.197 249.362 319.645 248.005 316.39 245.285C313.134 242.565 310.575 237.901 308.697 231.286L296.953 189.734C296.324 187.567 295.676 186.122 294.994 185.407C294.312 184.691 293.346 184.334 292.097 184.334C290.699 184.334 289.652 184.739 288.956 185.549C288.261 186.359 287.909 187.567 287.909 189.187V247.769H271.201V187.256C271.201 181.154 273.004 176.403 276.604 172.98C280.203 169.565 285.221 167.857 291.658 167.857C297.506 167.857 302.052 169.214 305.307 171.934C308.562 174.654 311.122 179.318 312.999 185.933Z" fill="#6D6E71"/>
<path d="M46.4248 299.305V260.257H59.088C63.8831 260.257 67.01 260.452 68.4688 260.844C70.711 261.431 72.5818 262.707 74.0946 264.664C75.6075 266.628 76.3571 269.16 76.3571 272.271C76.3571 274.668 75.9181 276.686 75.0537 278.319C74.1824 279.953 73.0748 281.235 71.7376 282.167C70.3936 283.098 69.0294 283.719 67.6449 284.016C65.7606 284.387 63.0321 284.576 59.4594 284.576H54.3131V299.305H46.4248ZM54.3131 266.858V277.941H58.6287C61.7354 277.941 63.8155 277.739 64.8624 277.327C65.9092 276.922 66.7331 276.281 67.3274 275.41C67.9218 274.539 68.2189 273.527 68.2189 272.373C68.2189 270.955 67.8002 269.781 66.9627 268.856C66.1253 267.931 65.0717 267.357 63.7885 267.128C62.843 266.952 60.952 266.865 58.1087 266.865H54.2996L54.3131 266.858Z" fill="#F95C04"/>
<path d="M133.973 299.305H125.389L121.978 290.435H106.357L103.135 299.305H94.7676L109.984 260.257H118.324L133.973 299.305ZM119.446 283.854L114.063 269.362L108.788 283.854H119.452H119.446Z" fill="#F95C04"/>
<path d="M176.291 284.948V278.367H193.297V293.925C191.642 295.525 189.252 296.929 186.111 298.144C182.971 299.359 179.796 299.966 176.582 299.966C172.496 299.966 168.93 299.109 165.897 297.395C162.858 295.68 160.576 293.23 159.049 290.044C157.523 286.858 156.76 283.388 156.76 279.642C156.76 275.579 157.611 271.961 159.319 268.802C161.028 265.643 163.52 263.22 166.809 261.532C169.315 260.236 172.435 259.588 176.163 259.588C181.012 259.588 184.801 260.608 187.529 262.639C190.258 264.671 192.014 267.486 192.791 271.07L184.956 272.535C184.403 270.618 183.369 269.106 181.85 267.992C180.33 266.885 178.432 266.325 176.163 266.325C172.719 266.325 169.977 267.418 167.944 269.598C165.911 271.779 164.891 275.025 164.891 279.318C164.891 283.955 165.924 287.432 167.984 289.747C170.044 292.062 172.746 293.223 176.089 293.223C177.743 293.223 179.398 292.899 181.059 292.251C182.721 291.603 184.146 290.82 185.335 289.895V284.941H176.298L176.291 284.948Z" fill="#F95C04"/>
<path d="M218.934 280.02C218.934 276.045 219.528 272.703 220.717 270.003C221.609 268.012 222.817 266.23 224.357 264.651C225.897 263.071 227.579 261.897 229.409 261.134C231.84 260.101 234.65 259.588 237.831 259.588C243.585 259.588 248.191 261.37 251.649 264.941C255.107 268.512 256.836 273.473 256.836 279.831C256.836 286.19 255.12 291.07 251.689 294.627C248.259 298.184 243.673 299.966 237.939 299.966C232.205 299.966 227.511 298.198 224.08 294.654C220.65 291.11 218.934 286.23 218.934 280.014V280.02ZM227.065 279.757C227.065 284.178 228.085 287.533 230.132 289.814C232.178 292.096 234.771 293.237 237.912 293.237C241.052 293.237 243.639 292.103 245.652 289.841C247.671 287.58 248.677 284.178 248.677 279.656C248.677 275.133 247.698 271.839 245.733 269.639C243.767 267.438 241.16 266.338 237.912 266.338C234.663 266.338 232.036 267.452 230.051 269.679C228.058 271.907 227.065 275.268 227.065 279.764V279.757Z" fill="#F95C04"/>
<path d="M280.953 286.601L288.632 285.859C289.091 288.431 290.03 290.327 291.442 291.536C292.853 292.744 294.758 293.345 297.155 293.345C299.695 293.345 301.613 292.805 302.896 291.731C304.179 290.658 304.827 289.403 304.827 287.965C304.827 287.04 304.557 286.257 304.017 285.609C303.477 284.961 302.531 284.394 301.18 283.915C300.255 283.598 298.148 283.024 294.866 282.207C290.638 281.161 287.666 279.872 285.964 278.346C283.567 276.2 282.365 273.581 282.365 270.489C282.365 268.498 282.925 266.642 284.06 264.907C285.188 263.179 286.815 261.856 288.936 260.952C291.057 260.047 293.623 259.595 296.628 259.595C301.532 259.595 305.226 260.668 307.704 262.815C310.183 264.961 311.487 267.83 311.608 271.421L303.72 271.765C303.382 269.76 302.659 268.316 301.545 267.438C300.431 266.561 298.769 266.122 296.547 266.122C294.325 266.122 292.461 266.595 291.165 267.533C290.327 268.134 289.909 268.944 289.909 269.956C289.909 270.881 290.3 271.671 291.084 272.325C292.076 273.162 294.494 274.033 298.33 274.938C302.166 275.842 305.01 276.78 306.847 277.746C308.684 278.711 310.122 280.034 311.162 281.715C312.202 283.395 312.722 285.467 312.722 287.931C312.722 290.165 312.101 292.265 310.858 294.215C309.616 296.166 307.853 297.624 305.584 298.569C303.308 299.521 300.478 299.993 297.081 299.993C292.144 299.993 288.348 298.853 285.701 296.571C283.054 294.29 281.473 290.962 280.96 286.595L280.953 286.601Z" fill="#F95C04"/>
<path d="M34.7072 276.045H0.391713C0.175596 276.045 0 275.869 0 275.653C0 275.437 0.175596 275.262 0.391713 275.262H34.7072C34.9233 275.262 35.0989 275.437 35.0989 275.653C35.0989 275.869 34.9233 276.045 34.7072 276.045Z" fill="#F95C04"/>
<path d="M349.631 276.045H315.316C315.1 276.045 314.924 275.869 314.924 275.653C314.924 275.437 315.1 275.262 315.316 275.262H349.631C349.847 275.262 350.023 275.437 350.023 275.653C350.023 275.869 349.847 276.045 349.631 276.045Z" fill="#F95C04"/>
</g>
<defs>
<clipPath id="clip0_904_982">
<rect width="223.817" height="127.551" fill="white" transform="translate(63.3428)"/>
</clipPath>
<clipPath id="clip1_904_982">
<rect width="350.503" height="132.143" fill="white" transform="translate(0 167.857)"/>
</clipPath>
</defs>
</svg>
