<svg xmlns="http://www.w3.org/2000/svg" width="122" height="32" fill="none"><g fill="#fff" fill-rule="evenodd" clip-path="url(#a)" clip-rule="evenodd"><path d="m32.81 0-8.65 32h23.343l8.65-32H32.81Zm-2.686 30.105c-1.43 0-2.292-1.17-1.915-2.6l6.054-23.01c.376-1.43 1.853-2.598 3.282-2.598 1.43 0 2.292 1.169 1.916 2.599l-6.053 23.01c-.376 1.43-1.853 2.599-3.283 2.599h-.001Zm9.006-10.627c-1.43 0-2.292-1.17-1.915-2.6l3.258-12.38c.376-1.43 1.855-2.6 3.284-2.6 1.427 0 2.29 1.172 1.914 2.6l-3.257 12.38c-.376 1.429-1.854 2.6-3.282 2.6h-.002Zm11.151-8.758c-.376 1.428-1.854 2.6-3.283 2.6-1.43 0-2.292-1.17-1.914-2.6l1.637-6.223c.376-1.431 1.856-2.6 3.284-2.6 1.427 0 2.291 1.171 1.915 2.6l-1.638 6.223ZM8.65 0 0 32h24.16l8.65-32H8.65ZM6.888 30.105c-1.43 0-2.292-1.17-1.915-2.6l6.053-23.01c.376-1.43 1.854-2.598 3.283-2.598 1.43 0 2.292 1.169 1.916 2.599l-6.053 23.01c-.376 1.43-1.853 2.599-3.283 2.599h-.001Zm6.21 0c-1.427 0-2.292-1.17-1.915-2.602l3.257-12.38c.376-1.431 1.854-2.601 3.284-2.601 1.43 0 2.29 1.172 1.915 2.6l-3.257 12.381c-.376 1.428-1.856 2.602-3.283 2.602h-.001Zm9.53-2.602c-.376 1.428-1.856 2.602-3.283 2.602-1.427 0-2.292-1.17-1.915-2.602l1.638-6.223c.376-1.43 1.854-2.6 3.284-2.6 1.43 0 2.29 1.172 1.915 2.6l-1.638 6.223h-.001Z"/></g><g fill="#fff" clip-path="url(#b)"><path d="M59.014 4.134h3.073v9.717c0 .629.122 1.064.365 1.303.244.24.684.36 1.319.36h4.675v3.033h-4.9c-1.629 0-2.792-.346-3.489-1.04-.697-.693-1.044-1.854-1.044-3.484V4.134ZM80.637 6.497l3.986 12.05h-3.256L77.756 7.38c-.055-.175-.127-.304-.219-.385a.507.507 0 0 0-.35-.122.452.452 0 0 0-.33.117c-.084.078-.153.205-.207.38l-3.61 11.178h-3.267l3.967-12.05c.31-.927.739-1.601 1.283-2.024.544-.422 1.266-.633 2.165-.633.9 0 1.635.221 2.206.664.572.444.986 1.107 1.243 1.993ZM85.331 4.134h11.817v3.013h-4.362v11.4h-3.073v-11.4H85.33V4.134ZM100.35 4.134h3.074v14.413h-3.074V4.134ZM115.006 7.167l2.16 7.637c.114.406.235.675.36.806.126.132.303.198.533.198.25 0 .441-.077.573-.234.131-.155.197-.381.197-.68V4.135h3.074V15.24c0 1.13-.332 2.011-.994 2.647-.664.636-1.587.953-2.769.953-1.075 0-1.912-.25-2.511-.75-.599-.5-1.069-1.36-1.415-2.576l-2.16-7.648c-.116-.399-.235-.665-.36-.796-.126-.132-.303-.198-.533-.198-.257 0-.45.075-.578.224-.128.149-.192.371-.192.67v10.781h-3.074V7.41c0-1.123.332-1.997.994-2.627.662-.629 1.585-.943 2.769-.943 1.076 0 1.912.25 2.511.75.598.5 1.069 1.36 1.415 2.577ZM65.972 28.032v-7.187h2.33c.881 0 1.456.036 1.725.108a1.89 1.89 0 0 1 1.034.703c.279.362.417.828.417 1.4 0 .441-.081.813-.24 1.113-.16.301-.364.537-.61.709a2.094 2.094 0 0 1-.753.34c-.347.068-.848.103-1.506.103h-.946v2.71h-1.451Zm1.45-5.972v2.04h.795c.571 0 .954-.037 1.146-.113a.948.948 0 0 0 .454-.353.967.967 0 0 0 .164-.559.929.929 0 0 0-.231-.647 1 1 0 0 0-.584-.318c-.174-.032-.522-.049-1.045-.049h-.7.002ZM82.075 28.032h-1.579l-.627-1.633h-2.873l-.593 1.633h-1.539l2.799-7.187h1.534l2.878 7.187Zm-2.672-2.844-.99-2.667-.97 2.667h1.962-.002ZM89.86 25.39v-1.212h3.127v2.864c-.304.294-.744.552-1.321.776a4.82 4.82 0 0 1-1.753.335c-.752 0-1.408-.157-1.965-.473a3.006 3.006 0 0 1-1.26-1.353 4.375 4.375 0 0 1-.421-1.914c0-.748.156-1.414.47-1.995a3.173 3.173 0 0 1 1.378-1.338c.461-.239 1.035-.358 1.72-.358.893 0 1.59.188 2.092.562.501.374.824.892.967 1.551l-1.44.27a1.528 1.528 0 0 0-.572-.836c-.28-.204-.629-.307-1.046-.307-.634 0-1.138.201-1.512.602-.374.402-.561 1-.561 1.79 0 .853.19 1.492.569 1.919.378.426.875.64 1.49.64.305 0 .609-.06.915-.18.305-.119.567-.263.786-.433v-.912H89.86l-.002.001ZM97.703 24.483c0-.732.11-1.347.328-1.844.164-.366.386-.694.67-.985.283-.29.592-.507.929-.647.447-.19.964-.285 1.549-.285 1.058 0 1.906.328 2.542.985.636.657.954 1.57.954 2.74 0 1.171-.316 2.07-.947 2.724-.631.655-1.474.983-2.529.983s-1.918-.326-2.55-.978c-.63-.652-.946-1.55-.946-2.695v.002Zm1.496-.049c0 .814.188 1.431.564 1.851.376.42.853.63 1.431.63.578 0 1.053-.209 1.424-.625.371-.416.556-1.042.556-1.875 0-.832-.18-1.438-.541-1.843-.362-.405-.841-.608-1.439-.608-.598 0-1.081.205-1.446.615-.367.41-.55 1.029-.55 1.856ZM109.111 25.694l1.412-.137c.085.474.258.823.517 1.045.26.222.61.333 1.051.333.467 0 .82-.1 1.056-.297.236-.197.355-.429.355-.693a.65.65 0 0 0-.149-.434c-.099-.119-.273-.223-.521-.311a18.44 18.44 0 0 0-1.162-.315c-.778-.192-1.324-.43-1.637-.71-.441-.395-.662-.877-.662-1.446 0-.367.103-.708.311-1.028.208-.318.507-.561.897-.728.39-.166.863-.25 1.415-.25.902 0 1.582.198 2.038.593.456.395.695.923.718 1.584l-1.451.064c-.062-.37-.195-.635-.4-.797-.205-.161-.511-.242-.92-.242-.408 0-.751.087-.99.26a.522.522 0 0 0-.231.446c0 .17.072.315.216.436.183.154.628.314 1.333.48.706.167 1.229.34 1.567.517.338.178.602.421.794.73.191.31.287.691.287 1.145 0 .41-.115.797-.343 1.156a2.06 2.06 0 0 1-.97.802c-.419.175-.94.262-1.564.262-.909 0-1.607-.21-2.094-.63-.487-.42-.777-1.032-.872-1.836l-.001.001ZM63.816 23.751h-6.312a.072.072 0 0 1 0-.144h6.313a.072.072 0 0 1 0 .144ZM121.744 23.751h-6.312a.072.072 0 1 1 0-.144h6.312c.039 0 .072.032.072.072 0 .04-.033.072-.072.072Z"/></g><defs><clipPath id="a"><path fill="#fff" d="M0 0h56.152v32H0z"/></clipPath><clipPath id="b"><path fill="#fff" d="M57.432 3.84h64.472v24.32H57.432z"/></clipPath></defs></svg>