<svg xmlns="http://www.w3.org/2000/svg" width="183" height="48" fill="none"><g fill-rule="evenodd" clip-path="url(#a)" clip-rule="evenodd"><path fill="#F26122" d="M49.215 0 36.24 48h35.014L84.23 0H49.215Zm-4.03 45.157c-2.144 0-3.437-1.756-2.872-3.898l9.08-34.516c.565-2.144 2.78-3.898 4.925-3.898 2.144 0 3.438 1.754 2.874 3.898l-9.08 34.516c-.564 2.144-2.78 3.898-4.924 3.898h-.002Zm13.51-15.94c-2.144 0-3.438-1.755-2.872-3.9l4.886-18.57c.564-2.146 2.783-3.9 4.926-3.9 2.14 0 3.436 1.758 2.872 3.9l-4.886 18.57c-.564 2.143-2.781 3.9-4.924 3.9h-.002ZM75.422 16.08c-.564 2.142-2.782 3.9-4.924 3.9-2.145 0-3.439-1.756-2.873-3.9l2.457-9.335c.564-2.146 2.783-3.9 4.926-3.9 2.14 0 3.436 1.758 2.872 3.9l-2.456 9.335h-.002Z"/><path fill="#6D6E71" d="M12.975 0 0 48h36.24L49.215 0h-36.24Zm-2.643 45.157c-2.145 0-3.439-1.756-2.873-3.898l9.08-34.516c.565-2.144 2.78-3.898 4.925-3.898 2.144 0 3.438 1.754 2.874 3.898l-9.08 34.516c-.564 2.144-2.78 3.898-4.925 3.898h-.002Zm9.315 0c-2.141 0-3.438-1.756-2.872-3.902l4.885-18.57c.564-2.147 2.782-3.903 4.926-3.903 2.145 0 3.436 1.76 2.872 3.902l-4.885 18.57c-.564 2.143-2.784 3.903-4.925 3.903h-.001Zm14.295-3.902c-.564 2.142-2.784 3.902-4.925 3.902-2.14 0-3.438-1.756-2.872-3.902l2.457-9.335c.564-2.146 2.781-3.9 4.926-3.9 2.144 0 3.436 1.758 2.872 3.9l-2.456 9.335h-.002Z"/></g><g clip-path="url(#b)"><path fill="#6D6E71" d="M88.52 6.202h4.61v14.575c0 .943.183 1.595.549 1.955.365.36 1.025.54 1.977.54h7.014v4.549h-7.35c-2.444 0-4.189-.52-5.234-1.56s-1.567-2.782-1.567-5.227V6.202h.002ZM120.955 9.746l5.98 18.075h-4.884l-5.417-16.752c-.082-.263-.19-.457-.328-.578a.76.76 0 0 0-.525-.182c-.215 0-.368.057-.494.175-.127.117-.231.307-.311.57l-5.417 16.767h-4.899l5.95-18.075c.465-1.39 1.108-2.402 1.924-3.036.817-.633 1.899-.95 3.248-.95 1.349 0 2.453.332 3.31.997.857.665 1.477 1.66 1.863 2.989ZM127.997 6.202h17.725v4.518h-6.543v17.101h-4.61v-17.1h-6.572V6.2ZM150.526 6.202h4.61V27.82h-4.61V6.201ZM172.508 10.75l3.241 11.456c.171.61.352 1.012.54 1.21.188.197.455.296.8.296.374 0 .661-.115.859-.35.197-.233.296-.572.296-1.02V6.203h4.61V22.86c0 1.694-.498 3.017-1.491 3.971-.995.954-2.379 1.43-4.153 1.43-1.612 0-2.868-.375-3.766-1.126-.898-.75-1.605-2.038-2.123-3.865l-3.24-11.47c-.173-.599-.352-.998-.54-1.195-.189-.198-.455-.296-.8-.296-.386 0-.674.111-.866.335-.192.224-.289.557-.289 1.004v16.173h-4.61V11.115c0-1.684.497-2.996 1.49-3.94.994-.944 2.378-1.415 4.154-1.415 1.614 0 2.868.375 3.766 1.126.898.75 1.604 2.038 2.122 3.864Z"/><path fill="#F26122" d="M98.958 42.048v-10.78h3.494c1.323 0 2.185.054 2.588.162.618.162 1.135.515 1.552 1.055.417.542.624 1.241.624 2.1 0 .662-.121 1.219-.359 1.67a2.97 2.97 0 0 1-.915 1.062 3.148 3.148 0 0 1-1.13.51c-.519.103-1.272.155-2.258.155h-1.42v4.066h-2.176Zm2.176-8.957v3.06h1.191c.857 0 1.431-.057 1.72-.17.289-.112.516-.29.68-.53.164-.24.246-.52.246-.838 0-.391-.116-.715-.347-.97a1.498 1.498 0 0 0-.876-.478c-.26-.048-.782-.072-1.567-.072h-1.051l.004-.002ZM123.113 42.048h-2.368l-.941-2.449h-4.31l-.889 2.449h-2.309l4.198-10.78h2.302l4.317 10.78Zm-4.008-4.265-1.485-4.001-1.456 4h2.943-.002ZM134.789 38.085v-1.817h4.692v4.295c-.456.441-1.116.83-1.982 1.164a7.233 7.233 0 0 1-2.63.504c-1.127 0-2.111-.237-2.948-.71a4.511 4.511 0 0 1-1.889-2.03 6.567 6.567 0 0 1-.632-2.871c0-1.122.235-2.12.706-2.993a4.76 4.76 0 0 1 2.067-2.007c.691-.357 1.552-.536 2.581-.536 1.338 0 2.383.281 3.136.842.753.56 1.237 1.338 1.452 2.327l-2.162.405a2.295 2.295 0 0 0-.857-1.254c-.419-.306-.943-.46-1.569-.46-.951 0-1.707.301-2.268.903-.561.602-.842 1.498-.842 2.684 0 1.28.285 2.24.853 2.879.569.639 1.314.96 2.236.96.457 0 .913-.09 1.372-.27a4.679 4.679 0 0 0 1.179-.65v-1.367h-2.493l-.002.002ZM146.555 36.724c0-1.097.164-2.02.492-2.765a5.059 5.059 0 0 1 1.004-1.478c.425-.436.889-.76 1.394-.97.671-.286 1.446-.427 2.324-.427 1.587 0 2.858.492 3.812 1.477.954.986 1.431 2.356 1.431 4.111s-.473 3.103-1.42 4.085c-.946.982-2.212 1.474-3.794 1.474-1.582 0-2.877-.489-3.823-1.467-.947-.978-1.42-2.325-1.42-4.042v.002Zm2.243-.072c0 1.22.282 2.146.846 2.776.565.63 1.28.945 2.147.945.866 0 1.58-.313 2.135-.937.558-.625.835-1.564.835-2.812 0-1.249-.27-2.158-.812-2.766-.542-.607-1.262-.91-2.158-.91-.896 0-1.621.307-2.169.922-.55.614-.824 1.542-.824 2.784v-.002ZM163.666 38.541l2.119-.205c.127.71.386 1.234.775 1.567.39.334.915.5 1.577.5.7 0 1.23-.15 1.584-.446.354-.296.533-.642.533-1.04a.982.982 0 0 0-.224-.65c-.149-.179-.41-.335-.783-.468-.255-.087-.836-.245-1.742-.47-1.166-.29-1.986-.646-2.456-1.067-.661-.592-.993-1.315-.993-2.169 0-.55.155-1.062.468-1.54.311-.478.76-.843 1.345-1.093s1.293-.374 2.122-.374c1.353 0 2.373.296 3.056.889.684.592 1.044 1.384 1.077 2.375l-2.176.095c-.093-.553-.293-.952-.6-1.194s-.766-.363-1.379-.363-1.127.13-1.485.389a.784.784 0 0 0-.347.669c0 .255.108.473.325.654.273.231.941.471 1.999.721 1.058.25 1.843.509 2.35.775.507.267.904.632 1.19 1.096.287.464.431 1.036.431 1.716 0 .617-.172 1.197-.514 1.735-.343.539-.83.941-1.456 1.202-.628.263-1.408.393-2.346.393-1.362 0-2.409-.315-3.14-.945-.73-.63-1.166-1.548-1.308-2.754l-.002.002ZM95.725 35.627h-9.468a.108.108 0 0 1 0-.216h9.468a.108.108 0 0 1 0 .216ZM182.615 35.627h-9.467a.109.109 0 0 1-.109-.108c0-.06.049-.108.109-.108h9.467c.06 0 .109.048.109.108s-.049.108-.109.108Z"/></g><defs><clipPath id="a"><path fill="#fff" d="M0 0h84.229v48H0z"/></clipPath><clipPath id="b"><path fill="#fff" d="M86.149 5.76h96.707v36.48H86.149z"/></clipPath></defs></svg>