<svg xmlns="http://www.w3.org/2000/svg" xmlns:xlink="http://www.w3.org/1999/xlink" preserveAspectRatio="xMidYMid meet" width="64" height="64" viewBox="0 0 64 64" style="width:100%;height:100%"><defs><animate repeatCount="indefinite" dur="4.004004s" begin="0s" xlink:href="#_R_G_L_2_C_0_P_0" fill="freeze" attributeName="d" attributeType="XML" from="M3 67.44 C3,67.44 3,126.5 3,126.5 C3,126.5 61,126.5 61,126.5 C61,126.5 61,67.44 61,67.44 C61,67.44 3,67.44 3,67.44z " to="M3 4.94 C3,4.94 3,64 3,64 C3,64 61,64 61,64 C61,64 61,4.94 61,4.94 C61,4.94 3,4.94 3,4.94z " keyTimes="0;0.1666667;1" values="M3 67.44 C3,67.44 3,126.5 3,126.5 C3,126.5 61,126.5 61,126.5 C61,126.5 61,67.44 61,67.44 C61,67.44 3,67.44 3,67.44z ;M3 4.94 C3,4.94 3,64 3,64 C3,64 61,64 61,64 C61,64 61,4.94 61,4.94 C61,4.94 3,4.94 3,4.94z ;M3 4.94 C3,4.94 3,64 3,64 C3,64 61,64 61,64 C61,64 61,4.94 61,4.94 C61,4.94 3,4.94 3,4.94z " keySplines="0.167 0.167 0.667 1;0 0 0 0" calcMode="spline"/><clipPath id="_R_G_L_2_C_0"><path id="_R_G_L_2_C_0_P_0" fill-rule="nonzero"/></clipPath><animate repeatCount="indefinite" dur="4.004004s" begin="0s" xlink:href="#_R_G_L_1_C_0_P_0" fill="freeze" attributeName="d" attributeType="XML" from="M13.06 -40 C13.06,-40 13.06,-2.11 13.06,-2.11 C13.06,-2.11 50.92,-2.11 50.92,-2.11 C50.92,-2.11 50.92,-40 50.92,-40 C50.92,-40 13.06,-40 13.06,-40z " to="M13.06 0 C13.06,0 13.06,37.89 13.06,37.89 C13.06,37.89 50.92,37.89 50.92,37.89 C50.92,37.89 50.92,0 50.92,0 C50.92,0 13.06,0 13.06,0z " keyTimes="0;0.25;0.375;1" values="M13.06 -40 C13.06,-40 13.06,-2.11 13.06,-2.11 C13.06,-2.11 50.92,-2.11 50.92,-2.11 C50.92,-2.11 50.92,-40 50.92,-40 C50.92,-40 13.06,-40 13.06,-40z ;M13.06 -40 C13.06,-40 13.06,-2.11 13.06,-2.11 C13.06,-2.11 50.92,-2.11 50.92,-2.11 C50.92,-2.11 50.92,-40 50.92,-40 C50.92,-40 13.06,-40 13.06,-40z ;M13.06 0 C13.06,0 13.06,37.89 13.06,37.89 C13.06,37.89 50.92,37.89 50.92,37.89 C50.92,37.89 50.92,0 50.92,0 C50.92,0 13.06,0 13.06,0z ;M13.06 0 C13.06,0 13.06,37.89 13.06,37.89 C13.06,37.89 50.92,37.89 50.92,37.89 C50.92,37.89 50.92,0 50.92,0 C50.92,0 13.06,0 13.06,0z " keySplines="0.167 0.167 0.667 1;0.167 0.167 0.667 1;0 0 0 0" calcMode="spline"/><clipPath id="_R_G_L_1_C_0"><path id="_R_G_L_1_C_0_P_0" fill-rule="nonzero"/></clipPath><animate repeatCount="indefinite" dur="4.004004s" begin="0s" xlink:href="#_R_G_L_1_G_M" fill="freeze" attributeName="opacity" from="0" to="1" keyTimes="0;0.25;0.2500008;1" values="0;0;1;1" keySplines="0 0 0 0;0 0 0 0;0 0 0 0" calcMode="spline"/><animate repeatCount="indefinite" dur="4.004004s" begin="0s" xlink:href="#_R_G_L_0_C_0_P_0" fill="freeze" attributeName="d" attributeType="XML" from="M20.94 18.69 C20.94,18.69 20.94,38.97 20.94,38.97 C20.94,38.97 42.84,38.97 42.84,38.97 C42.84,38.97 42.84,18.69 42.84,18.69 C42.84,18.69 20.94,18.69 20.94,18.69z " to="M20.94 41.19 C20.94,41.19 20.94,61.47 20.94,61.47 C20.94,61.47 42.84,61.47 42.84,61.47 C42.84,61.47 42.84,41.19 42.84,41.19 C42.84,41.19 20.94,41.19 20.94,41.19z " keyTimes="0;0.1666667;0.2916667;1" values="M20.94 18.69 C20.94,18.69 20.94,38.97 20.94,38.97 C20.94,38.97 42.84,38.97 42.84,38.97 C42.84,38.97 42.84,18.69 42.84,18.69 C42.84,18.69 20.94,18.69 20.94,18.69z ;M20.94 18.69 C20.94,18.69 20.94,38.97 20.94,38.97 C20.94,38.97 42.84,38.97 42.84,38.97 C42.84,38.97 42.84,18.69 42.84,18.69 C42.84,18.69 20.94,18.69 20.94,18.69z ;M20.94 41.19 C20.94,41.19 20.94,61.47 20.94,61.47 C20.94,61.47 42.84,61.47 42.84,61.47 C42.84,61.47 42.84,41.19 42.84,41.19 C42.84,41.19 20.94,41.19 20.94,41.19z ;M20.94 41.19 C20.94,41.19 20.94,61.47 20.94,61.47 C20.94,61.47 42.84,61.47 42.84,61.47 C42.84,61.47 42.84,41.19 42.84,41.19 C42.84,41.19 20.94,41.19 20.94,41.19z " keySplines="0.167 0.167 0.667 1;0.167 0.167 0.667 1;0 0 0 0" calcMode="spline"/><clipPath id="_R_G_L_0_C_0"><path id="_R_G_L_0_C_0_P_0" fill-rule="nonzero"/></clipPath><animate repeatCount="indefinite" dur="4.004004s" begin="0s" xlink:href="#_R_G_L_0_G_M" fill="freeze" attributeName="opacity" from="0" to="1" keyTimes="0;0.1666667;0.1666675;1" values="0;0;1;1" keySplines="0 0 0 0;0 0 0 0;0 0 0 0" calcMode="spline"/><animate attributeType="XML" attributeName="opacity" dur="4s" from="0" to="1" xlink:href="#time_group"/></defs><g id="_R_G"><g id="_R_G_L_2_G"><g clip-path="url(#_R_G_L_2_C_0)"><path id="_R_G_L_2_G_G_0_D_0_P_0" fill="#ff4c00" fill-opacity="1" fill-rule="nonzero" d=" M59.73 56.09 C57.7,51.1 54.32,47.42 49.15,45.53 C47.28,44.84 45.37,44.27 43.48,43.63 C43.25,43.55 42.97,43.39 42.86,43.19 C42.16,41.89 41.51,40.56 40.84,39.21 C41.99,38 43.01,36.68 43.58,35.12 C44.05,33.83 44.41,32.5 44.8,31.14 C44.8,31.13 44.8,31.12 44.8,31.11 C45,30 45.54,23 45.77,21.5 C45.77,21.5 45.77,21.5 45.77,21.5 C45.81,21.01 45.85,20.52 45.89,20.03 C45.89,20.03 45.9,20.03 45.9,20.03 C45.96,18.76 45.9,17.25 45.66,15.43 C45.32,13.54 44.59,11.79 43.4,10.2 C41.13,7.18 38.11,5.41 34.33,5.09 C31.78,4.86 29.19,4.78 26.73,5.71 C21.59,7.66 18.76,11.38 18.17,16.79 C18.15,16.98 18.14,17.16 18.12,17.35 C18,19 18.08,20.04 18.11,20.04 C18.24,21.64 18.37,23.23 18.49,24.82 C18.99,29.64 19,29 19.44,32 C19.71,33.84 20.26,35.07 20.65,35.75 C20.75,35.86 20.84,35.99 20.94,36.16 C21.45,37.11 22.13,37.97 22.81,38.81 C23.09,39.14 23.11,39.36 22.92,39.72 C22.39,40.71 21.87,41.71 21.41,42.74 C21.15,43.3 20.77,43.57 20.19,43.76 C17.94,44.51 15.6,45.08 13.49,46.12 C6.72,49.44 3.43,55.08 3.01,62.46 C2.95,63.5 3.47,64 4.53,64 C22.83,64 41.14,64 59.45,64 C60.55,64 61.02,63.51 61,62.42 C60.95,60.24 60.55,58.11 59.73,56.09z  M22.91 11.32 C24.98,8.8 27.69,7.54 30.97,7.5 C32.95,7.48 34.91,7.45 36.81,8.18 C40.99,9.79 43.75,14.15 43.33,18.58 C43.33,18.61 43.3,18.65 43.28,18.7 C38.83,18.29 34.76,16.84 31.49,13.8 C29.99,12.41 28.55,12.4 26.84,12.82 C24.58,13.38 22.65,14.49 21.08,16.21 C21.01,16.28 20.94,16.34 20.72,16.54 C20.99,14.47 21.7,12.79 22.91,11.32z  M22.18 32.86 C21.98,31.73 21.71,30.6 21.58,29.46 C21.27,26.71 21.02,23.95 20.76,21.19 C20.74,21 20.74,20.74 20.85,20.6 C21.86,19.27 22.74,17.84 24.11,16.82 C25.44,15.82 26.92,15.23 28.57,15.07 C28.81,15.05 29.15,15.17 29.33,15.33 C32.21,17.91 35.53,19.66 39.3,20.56 C40.58,20.87 41.89,21.05 43.26,21.3 C43.16,22.6 43.13,23.91 42.96,25.21 C42.63,27.68 42.44,30.2 41.79,32.6 C39.8,39.94 31.83,42.54 26.23,38.53 C25.08,37.71 24.14,36.69 23.39,35.41 C23,35 23,35 22.18,32.86z  M34.22 61.46 C34.22,61.46 29.71,61.47 29.71,61.47 C29.71,61.47 5.58,61.47 5.58,61.47 C5.82,58.66 6.72,56.12 8.26,53.8 C10.25,50.79 12.95,48.69 16.45,47.61 C17.99,47.14 19.51,46.61 20.94,46.14 C20.94,46.14 22.78,46.07 23.39,44.54 C23.4,44.5 23.42,44.47 23.43,44.43 C23.45,44.35 23.46,44.27 23.49,44.2 C23.62,43.9 23.77,43.62 23.91,43.33 C24.34,42.4 24.71,41.76 24.71,41.76 C24.71,41.76 26.51,42.78 29.75,42.78 C29.75,42.78 34.01,42.78 34.01,42.78 C36,42.78 39.01,41.19 39.01,41.19 C39.57,42.3 40.1,43.36 40.62,44.41 C40.62,44.41 40.69,45.08 42.84,46.04 C45.94,47.24 49.19,47.75 51.85,49.72 C55.78,52.65 57.88,56.6 58.44,61.46 C58.44,61.46 34.22,61.46 34.22,61.46z "/></g></g><g id="_R_G_L_1_G_M"><g id="_R_G_L_1_G"><g clip-path="url(#_R_G_L_1_C_0)"><path id="_R_G_L_1_G_G_0_D_0_P_0" fill="#ff4c00" fill-opacity="1" fill-rule="nonzero" d=" M15.07 29.88 C15.53,30.12 15.59,30.4 15.62,30.84 C15.68,31.62 15.69,32.45 15.99,33.15 C16.62,34.67 17.91,35.38 19.54,35.36 C20.23,35.35 25.09,35.41 25.91,35.41 C26.71,37.24 28.18,37.98 30.15,37.88 C30.77,37.85 31.41,37.89 32.04,37.87 C34.15,37.79 35.76,36.18 35.78,34.16 C35.79,32.13 34.2,30.48 32.1,30.39 C31.17,30.35 30.24,30.34 29.32,30.39 C27.67,30.48 26.56,31.36 25.9,32.86 C25.9,32.86 22.18,32.86 22.18,32.86 C21.98,31.73 21.71,30.6 21.58,29.46 C21.27,26.71 21.02,23.95 20.76,21.19 C20.74,21 20.74,20.74 20.85,20.6 C21.86,19.27 22.74,17.84 24.11,16.82 C25.45,15.81 26.95,15.21 28.62,15.07 C28.85,15.05 29.15,15.17 29.33,15.33 C32.21,17.91 35.53,19.66 39.3,20.56 C40.58,20.87 41.89,21.05 43.26,21.3 C43.16,22.6 43.13,23.91 42.96,25.21 C42.63,27.68 44,30 45.01,30.37 C45.54,30.37 46.17,30.38 46.8,30.37 C49.35,30.37 50.91,28.81 50.92,26.27 C50.92,23.94 50.91,21.6 50.92,19.27 C50.94,16.05 50.31,12.98 48.77,10.13 C46.22,5.4 42.36,2.22 37.14,0.75 C35.88,0.39 34.56,0.24 33.26,0 C33.26,0 30.74,0 30.74,0 C30.64,0.03 30.54,0.08 30.44,0.08 C27.32,0.33 24.43,1.27 21.82,2.97 C16.7,6.31 13.72,11.02 13.22,17.08 C12.96,20.29 13.09,23.53 13.1,26.76 C13.11,28.15 13.81,29.24 15.07,29.88z  M29.48 32.88 C29.9,32.86 30.32,32.88 30.74,32.88 C31.16,32.88 31.59,32.86 32,32.89 C32.74,32.94 33.25,33.47 33.25,34.13 C33.25,34.79 32.73,35.33 31.99,35.36 C31.15,35.4 30.31,35.4 29.47,35.36 C28.74,35.33 28.22,34.78 28.23,34.12 C28.23,33.46 28.75,32.93 29.48,32.88z  M18.19 30.41 C18.19,30.41 19.14,30.41 19.14,30.41 C19.22,30.81 19.3,31.21 19.37,31.61 C19.44,32 19.51,32.39 19.59,32.82 C18.28,32.91 17.95,31.9 18.19,30.41z  M43.33 18.58 C43.33,18.61 43.3,18.65 43.28,18.7 C38.83,18.29 34.76,16.84 31.49,13.8 C29.99,12.41 28.55,12.4 26.84,12.82 C24.58,13.38 22.65,14.49 21.08,16.21 C21.01,16.28 20.94,16.34 20.73,16.54 C20.99,14.47 21.7,12.79 22.91,11.32 C24.99,8.8 27.69,7.54 30.97,7.5 C32.95,7.48 34.91,7.46 36.81,8.18 C40.99,9.79 43.75,14.15 43.33,18.58z  M48.4 22.9 C48.4,24.04 48.4,25.18 48.39,26.33 C48.39,27.41 47.92,27.87 46.81,27.87 C46.31,27.88 45.81,27.87 45.26,27.87 C45.47,25.21 45.68,22.63 45.89,20.03 C45.89,20.03 48.4,20.03 48.4,20.03 C48.4,21 48.4,21.95 48.4,22.9z  M31.08 2.54 C40.34,2.02 47.74,9.13 48.3,17.46 C48.3,17.46 45.87,17.46 45.87,17.46 C45.77,14.77 45,12.34 43.4,10.2 C41.13,7.18 38.11,5.41 34.33,5.09 C31.78,4.87 29.19,4.78 26.73,5.71 C21.59,7.66 18.76,11.38 18.17,16.79 C18.15,16.98 18.14,17.16 18.12,17.35 C18.12,17.37 18.11,17.39 18.09,17.5 C18.09,17.5 16.94,17.5 16.94,17.5 C16.94,17.5 15.75,17.5 15.75,17.5 C15.9,10.92 21.67,3.07 31.08,2.54z  M15.61 20.04 C15.61,20.04 18.11,20.04 18.11,20.04 C18.32,22.64 18.53,25.23 18.74,27.85 C18.06,27.85 17.39,27.9 16.73,27.84 C16.07,27.78 15.62,27.3 15.62,26.61 C15.59,24.44 15.61,22.26 15.61,20.04z "/></g></g></g><g id="_R_G_L_0_G_M"><g id="_R_G_L_0_G"><g clip-path="url(#_R_G_L_0_C_0)"><path id="_R_G_L_0_G_G_0_D_0_P_0" fill="#ff4c00" fill-opacity="1" fill-rule="nonzero" d=" M24.71 41.76 C24.71,41.76 24.34,42.4 23.91,43.33 C24.18,42.79 24.45,42.26 24.71,41.76z "/><path id="_R_G_L_0_G_G_0_D_1_P_0" fill="#ff4c00" fill-opacity="1" fill-rule="nonzero" d=" M40.62 44.41 C40.68,44.53 40.67,44.7 40.63,44.82 C39.78,46.89 38.91,48.96 38.03,51.1 C36.49,49.57 35.09,48.2 33.67,46.79 C35.42,44.95 37.19,43.1 39.01,41.19 C39.01,41.19 36,42.78 34.01,42.78 C33.25,43.57 32.57,44.29 31.94,44.96 C31.13,44.15 30.36,43.39 29.76,42.78 C26.51,42.78 24.71,41.76 24.71,41.76 C26.47,43.49 28.21,45.22 30,46.99 C28.75,48.3 27.46,49.65 26.11,51.06 C25.85,50.56 25.59,50.13 25.39,49.66 C24.73,48.12 24.07,46.57 23.44,45 C23.38,44.84 23.39,44.63 23.43,44.43 C23.42,44.47 23.4,44.5 23.39,44.54 C22.78,46.07 20.94,46.14 20.94,46.14 C22.29,48.84 23.48,51.53 24.93,54.07 C26.38,56.59 28.08,58.96 29.71,61.47 C29.71,61.47 34.22,61.46 34.22,61.46 C37.63,56.54 40.97,51.72 42.84,46.04 C40.69,45.08 40.62,44.41 40.62,44.41z  M32 60.3 C31.92,60.22 31.86,60.16 31.82,60.1 C30.44,58.01 29.08,55.92 27.68,53.84 C27.42,53.47 27.47,53.26 27.77,52.95 C29.14,51.55 30.48,50.12 31.79,48.75 C33.39,50.32 34.94,51.86 36.57,53.47 C35.07,55.71 33.55,57.99 32,60.3z "/></g></g></g></g><g id="time_group"/></svg>