<svg width="22" height="25" viewBox="0 0 22 25" fill="none" xmlns="http://www.w3.org/2000/svg"><path d="M21.765 22.556c0-.174-.03-.358-.04-.533a8.062 8.062 0 0 0-1.2-3.574c-1.023-1.639-2.488-2.755-4.24-3.513-.593-.256-1.218-.45-1.843-.676.092-.072.195-.133.297-.205 1.157-.83 1.936-1.905 2.325-3.288.225-.809.236-3.083.205-3.707-.041-.512-.051-1.004-.133-1.475-.4-2.417-1.782-3.954-4.128-4.62-.368-.102-.747-.153-1.116-.235H10.58s-.082.03-.133.041c-.553.123-1.127.205-1.65.39-1.495.532-2.662 1.474-3.328 2.96-.369.808-.522 1.76-.502 2.631v.4c-.02.952-.02 2.499.164 3.472.297 1.546 1.26 2.653 2.53 3.523.061.041.123.082.133.092-.727.287-1.465.574-2.182.881 0 0-1.884.686-3.308 2.581a5.331 5.331 0 0 0-.266.318C1.066 19.37.574 20.887.502 22.546c-.02.369.082.502.44.614 2.89.973 5.87 1.445 8.901 1.547 2.807.092 5.603-.082 8.348-.697 1.065-.245 2.12-.563 3.175-.86.328-.092.42-.235.41-.584l-.01-.01ZM6.156 10.736a4.275 4.275 0 0 1-.164-1.075c-.03-.543 0-1.086 0-1.649-.02 0 .031 0 0 0 0-.328.02-.645.01-.983-.174-1.977.44-3.626 2.428-4.65 1.751-.901 3.564-.973 5.346-.102 1.434.706 2.182 1.925 2.428 3.472.061.42.071.85.112 1.29.01 0 .02 0 0 0 .041.318.041.635.01.953l.021.348c.01 1.3.062 2.253-.707 3.4-1.126 1.68-2.693 2.581-4.721 2.52-2.202-.072-4.19-1.639-4.753-3.523h-.01Zm14.431 11.666c-.655.174-1.31.37-2.017.574V21.03c-.031-.287-.226-.471-.482-.471-.266 0-.47.215-.47.512v2.069a30.043 30.043 0 0 1-6.71.706 30.578 30.578 0 0 1-6.4-.727v-2.058c0-.328-.185-.523-.472-.523s-.471.205-.471.523v1.853c-.635-.184-1.24-.358-1.833-.522-.205-.051-.246-.154-.226-.348.154-1.25.553-2.407 1.28-3.441a.644.644 0 0 1 .072-.103c.01-.01.02-.03.041-.051.01-.02.02-.03.041-.051a8.81 8.81 0 0 1 2.92-2.366c.01 0 .02-.01.03-.02.04-.021.072-.042.113-.062a.795.795 0 0 1 .163-.072c1.24-.553 2.786-.86 2.786-.86a13.24 13.24 0 0 1 1.608-.205c.43-.02.8-.02 1.086-.01.348.02.942.071 1.66.215 1.167.225 3.43.717 5.305 2.51 1.3 1.238 1.997 2.785 2.191 4.557.02.164-.03.246-.194.297l-.02.02Z" fill="#fff"/></svg>