<svg width="12" height="10" viewBox="0 0 12 10" fill="none" xmlns="http://www.w3.org/2000/svg">
<path d="M11.8144 4.88494C11.7644 4.62494 11.6044 4.43494 11.4244 4.25494C10.1044 2.93494 8.78442 1.61494 7.46442 0.294942C7.18442 0.0149425 6.82442 -0.0650575 6.51442 0.0849425C6.01442 0.314943 5.86442 0.944943 6.21442 1.37494C6.25442 1.42494 6.30442 1.47494 6.35442 1.52494C6.97442 2.14494 7.60442 2.77494 8.22442 3.39494C8.51442 3.68494 8.78442 4.00494 9.19442 4.14494C9.19442 4.14494 9.19442 4.16494 9.19442 4.17494H9.06442C6.42442 4.17494 3.78442 4.17494 1.14442 4.17494C0.884417 4.17494 0.634417 4.22494 0.454417 4.42494C0.224417 4.67494 0.144417 4.96494 0.264417 5.28494C0.394417 5.61494 0.644417 5.80494 1.00442 5.83494C1.07442 5.83494 1.14442 5.83494 1.20442 5.83494C3.82442 5.83494 6.44442 5.83494 9.07442 5.83494C9.11442 5.83494 9.16442 5.83494 9.19442 5.83494C9.01442 5.95494 8.83442 6.07494 8.66442 6.20494C8.59442 6.25494 8.54442 6.31494 8.48442 6.37494C7.77442 7.09494 7.06442 7.80494 6.34442 8.52494C6.09442 8.77494 5.98442 9.06494 6.08442 9.41494C6.23442 9.95494 6.90442 10.1649 7.35442 9.82494C7.41442 9.77494 7.47442 9.72494 7.52442 9.67494C8.83442 8.36494 10.1444 7.05494 11.4544 5.75494C11.6344 5.57494 11.8044 5.38494 11.8544 5.12494V4.89494L11.8144 4.88494Z" fill="white"/>
</svg>
