<svg xmlns="http://www.w3.org/2000/svg" xmlns:xlink="http://www.w3.org/1999/xlink" preserveAspectRatio="xMidYMid meet" width="48" height="48" viewBox="0 0 48 48" style="width:100%;height:100%"><defs><clipPath id="_R_G_L_4_C_0"><path id="_R_G_L_4_C_0_P_0" fill-rule="nonzero" d="M-6.75 18.55 C-6.75,18.55 -6.75,59.81 -6.75,59.81 C-6.75,59.81 41.25,59.81 41.25,59.81 C41.25,59.81 41.25,18.55 41.25,18.55 C41.25,18.55 -6.75,18.55 -6.75,18.55z "/></clipPath><animateMotion repeatCount="indefinite" dur="4.004004s" begin="0s" xlink:href="#_R_G_L_4_G_G_0_D_0_P_0_G_0_T_0" fill="freeze" keyTimes="0;0.0833333;1" path="M24 -3.54 C24,1.04 24,19.38 24,23.96 C24,23.96 24,23.96 24,23.96 " keyPoints="0;1;1" keySplines="0.167 0.167 0.667 1;0 0 0 0" calcMode="spline"/><animateMotion repeatCount="indefinite" dur="4.004004s" begin="0s" xlink:href="#_R_G_L_4_G_G_0_D_0_P_0_G_0_T_0" fill="freeze" keyTimes="0;0.0833333;1" path="M24 -3.54 C24,1.04 24,19.38 24,23.96 C24,23.96 24,23.96 24,23.96 " keyPoints="0;1;1" keySplines="0.167 0.167 0.667 1;0 0 0 0" calcMode="spline"/><animateMotion repeatCount="indefinite" dur="4.004004s" begin="0s" xlink:href="#_R_G_L_4_G_G_0_D_0_P_0_G_0_T_0" fill="freeze" keyTimes="0;0.0833333;1" path="M24 -3.54 C24,1.04 24,19.38 24,23.96 C24,23.96 24,23.96 24,23.96 " keyPoints="0;1;1" keySplines="0.167 0.167 0.667 1;0 0 0 0" calcMode="spline"/><animateMotion repeatCount="indefinite" dur="4.004004s" begin="0s" xlink:href="#_R_G_L_4_G_G_0_D_0_P_0_G_0_T_0" fill="freeze" keyTimes="0;0.0833333;1" path="M24 -3.54 C24,1.04 24,19.38 24,23.96 C24,23.96 24,23.96 24,23.96 " keyPoints="0;1;1" keySplines="0.167 0.167 0.667 1;0 0 0 0" calcMode="spline"/><animate repeatCount="indefinite" dur="4.004004s" begin="0s" xlink:href="#_R_G_L_3_G" fill="freeze" attributeName="opacity" from="0" to="1" keyTimes="0;0.0833333;0.1666667;1" values="0;0;1;1" keySplines="0.167 0.167 0.833 0.833;0.167 0.167 0.833 0.833;0 0 0 0" calcMode="spline"/><animate repeatCount="indefinite" dur="4.004004s" begin="0s" xlink:href="#_R_G_L_3_G_M" fill="freeze" attributeName="opacity" from="0" to="1" keyTimes="0;0.0833333;0.0833342;1" values="0;0;1;1" keySplines="0 0 0 0;0 0 0 0;0 0 0 0" calcMode="spline"/><animate repeatCount="indefinite" dur="4.004004s" begin="0s" xlink:href="#_R_G_L_2_G" fill="freeze" attributeName="opacity" from="0" to="1" keyTimes="0;0.1666667;0.25;1" values="0;0;1;1" keySplines="0.167 0.167 0.833 0.833;0.167 0.167 0.833 0.833;0 0 0 0" calcMode="spline"/><animateMotion repeatCount="indefinite" dur="4.004004s" begin="0s" xlink:href="#_R_G_L_2_G" fill="freeze" keyTimes="0;0.1666667;0.25;1" path="M24.5 23 C24.5,23 24.5,23 24.5,23 C24.42,23.17 24.08,23.83 24,24 C24,24 24,24 24,24 " keyPoints="0;0;1;1" keySplines="0.167 0.167 0.833 0.833;0.167 0.167 0.833 0.833;0 0 0 0" calcMode="spline"/><animateTransform repeatCount="indefinite" dur="4.004004s" begin="0s" xlink:href="#_R_G_L_2_G" fill="freeze" attributeName="transform" from="1.2 1.2" to="1 1" type="scale" additive="sum" keyTimes="0;0.1666667;0.25;1" values="1.2 1.2;1.2 1.2;1 1;1 1" keySplines="0.167 0.167 0.833 0.833;0.167 0.167 0.833 0.833;0 0 0 0" calcMode="spline"/><animateTransform repeatCount="indefinite" dur="4.004004s" begin="0s" xlink:href="#_R_G_L_2_G" fill="freeze" attributeName="transform" from="-24 -24" to="-24 -24" type="translate" additive="sum" keyTimes="0;1" values="-24 -24;-24 -24" keySplines="0 0 1 1" calcMode="spline"/><animate repeatCount="indefinite" dur="4.004004s" begin="0s" xlink:href="#_R_G_L_2_G_M" fill="freeze" attributeName="opacity" from="0" to="1" keyTimes="0;0.1666667;0.1666675;1" values="0;0;1;1" keySplines="0 0 0 0;0 0 0 0;0 0 0 0" calcMode="spline"/><animate repeatCount="indefinite" dur="4.004004s" begin="0s" xlink:href="#_R_G_L_1_G" fill="freeze" attributeName="opacity" from="0" to="1" keyTimes="0;0.2083333;0.2916667;1" values="0;0;1;1" keySplines="0.167 0.167 0.833 0.833;0.167 0.167 0.833 0.833;0 0 0 0" calcMode="spline"/><animateMotion repeatCount="indefinite" dur="4.004004s" begin="0s" xlink:href="#_R_G_L_1_G" fill="freeze" keyTimes="0;0.2083333;0.2916667;1" path="M24.5 23 C24.5,23 24.5,23 24.5,23 C24.42,23.17 24.08,23.83 24,24 C24,24 24,24 24,24 " keyPoints="0;0;1;1" keySplines="0.167 0.167 0.833 0.833;0.167 0.167 0.833 0.833;0 0 0 0" calcMode="spline"/><animateTransform repeatCount="indefinite" dur="4.004004s" begin="0s" xlink:href="#_R_G_L_1_G" fill="freeze" attributeName="transform" from="1.2 1.2" to="1 1" type="scale" additive="sum" keyTimes="0;0.2083333;0.2916667;1" values="1.2 1.2;1.2 1.2;1 1;1 1" keySplines="0.167 0.167 0.833 0.833;0.167 0.167 0.833 0.833;0 0 0 0" calcMode="spline"/><animateTransform repeatCount="indefinite" dur="4.004004s" begin="0s" xlink:href="#_R_G_L_1_G" fill="freeze" attributeName="transform" from="-24 -24" to="-24 -24" type="translate" additive="sum" keyTimes="0;1" values="-24 -24;-24 -24" keySplines="0 0 1 1" calcMode="spline"/><animate repeatCount="indefinite" dur="4.004004s" begin="0s" xlink:href="#_R_G_L_1_G_M" fill="freeze" attributeName="opacity" from="0" to="1" keyTimes="0;0.2083333;0.2083342;1" values="0;0;1;1" keySplines="0 0 0 0;0 0 0 0;0 0 0 0" calcMode="spline"/><animate repeatCount="indefinite" dur="4.004004s" begin="0s" xlink:href="#_R_G_L_0_G" fill="freeze" attributeName="opacity" from="0" to="1" keyTimes="0;0.25;0.3333333;1" values="0;0;1;1" keySplines="0.167 0.167 0.833 0.833;0.167 0.167 0.833 0.833;0 0 0 0" calcMode="spline"/><animateMotion repeatCount="indefinite" dur="4.004004s" begin="0s" xlink:href="#_R_G_L_0_G" fill="freeze" keyTimes="0;0.25;0.3333333;1" path="M24.5 23 C24.5,23 24.5,23 24.5,23 C24.42,23.17 24.08,23.83 24,24 C24,24 24,24 24,24 " keyPoints="0;0;1;1" keySplines="0.167 0.167 0.833 0.833;0.167 0.167 0.833 0.833;0 0 0 0" calcMode="spline"/><animateTransform repeatCount="indefinite" dur="4.004004s" begin="0s" xlink:href="#_R_G_L_0_G" fill="freeze" attributeName="transform" from="1.2 1.2" to="1 1" type="scale" additive="sum" keyTimes="0;0.25;0.3333333;1" values="1.2 1.2;1.2 1.2;1 1;1 1" keySplines="0.167 0.167 0.833 0.833;0.167 0.167 0.833 0.833;0 0 0 0" calcMode="spline"/><animateTransform repeatCount="indefinite" dur="4.004004s" begin="0s" xlink:href="#_R_G_L_0_G" fill="freeze" attributeName="transform" from="-24 -24" to="-24 -24" type="translate" additive="sum" keyTimes="0;1" values="-24 -24;-24 -24" keySplines="0 0 1 1" calcMode="spline"/><animate repeatCount="indefinite" dur="4.004004s" begin="0s" xlink:href="#_R_G_L_0_G_M" fill="freeze" attributeName="opacity" from="0" to="1" keyTimes="0;0.25;0.2500008;1" values="0;0;1;1" keySplines="0 0 0 0;0 0 0 0;0 0 0 0" calcMode="spline"/><animate attributeType="XML" attributeName="opacity" dur="4s" from="0" to="1" xlink:href="#time_group"/></defs><g id="_R_G"><g id="_R_G_L_4_G"><g clip-path="url(#_R_G_L_4_C_0)"><g id="_R_G_L_4_G_G_0_D_0_P_0_G_0_T_0"><g id="_R_G_L_4_G_G_0_D_0_P_0_G_0_T_0"><g id="_R_G_L_4_G_G_0_D_0_P_0_G_0_T_0"><g id="_R_G_L_4_G_G_0_D_0_P_0_G_0_T_0"><path id="_R_G_L_4_G_G_0_D_0_P_0" fill="#6d6e71" fill-opacity="1" fill-rule="nonzero" d=" M-24 -4.97 C-23.6,-5.3 -23.26,-5.75 -22.8,-5.94 C-10.76,-10.75 1.28,-15.54 13.32,-20.34 C14.27,-20.72 14.64,-20.56 15.01,-19.61 C17.94,-12.26 20.87,-4.92 23.79,2.42 C24.2,3.43 24.05,3.79 23.04,4.19 C21.31,4.87 19.59,5.57 17.87,6.24 C17.56,6.35 17.45,6.51 17.46,6.84 C17.47,11.04 17.46,15.24 17.46,19.45 C17.46,20.44 17.18,20.72 16.18,20.72 C3.21,20.72 -9.76,20.72 -22.73,20.73 C-23.31,20.73 -23.73,20.57 -24,20.05 C-24,20.05 -24,-4.98 -24,-4.98 C-24,-4.98 -24,-4.97 -24,-4.97z  M-22.09 18.82 C-22.09,18.82 15.55,18.82 15.55,18.82 C15.55,18.82 15.55,-3.74 15.55,-3.74 C15.55,-3.74 -22.09,-3.74 -22.09,-3.74 C-22.09,-3.74 -22.09,18.82 -22.09,18.82z  M-18.23 -5.75 C-18.23,-5.75 -18.21,-5.68 -18.21,-5.65 C-18.21,-5.65 -12.79,-5.65 -12.79,-5.65 C-12.71,-5.65 -12.61,-5.74 -12.53,-5.8 C-12.3,-5.95 -12.09,-6.14 -11.83,-6.24 C-9.05,-7.36 -6.27,-8.47 -3.49,-9.58 C0.12,-11.01 3.73,-12.44 7.34,-13.87 C7.9,-14.08 8.2,-13.99 8.58,-13.55 C9.83,-12.1 11.39,-11.42 13.3,-11.51 C13.92,-11.54 14.2,-11.39 14.43,-10.82 C15.08,-9.23 15.71,-7.64 16.36,-6.05 C16.42,-5.91 16.52,-5.69 16.63,-5.66 C17.34,-5.5 17.46,-5.02 17.46,-4.4 C17.45,-1.66 17.46,1.07 17.46,3.8 C17.46,3.97 17.48,4.13 17.48,4.37 C18.97,3.78 20.4,3.2 21.84,2.63 C19.04,-4.4 16.26,-11.38 13.48,-18.38 C2.88,-14.16 -7.68,-9.96 -18.23,-5.76 C-18.23,-5.76 -18.23,-5.75 -18.23,-5.75z  M14.45 -5.66 C14.4,-5.82 14.36,-5.95 14.31,-6.08 C13.91,-7.11 13.48,-8.13 13.09,-9.17 C12.97,-9.5 12.81,-9.63 12.46,-9.64 C10.66,-9.73 9.1,-10.44 7.8,-11.66 C7.59,-11.86 7.43,-11.91 7.15,-11.8 C2.2,-9.82 -2.74,-7.86 -7.68,-5.89 C-7.8,-5.84 -7.92,-5.78 -8.15,-5.66 C-8.15,-5.66 14.45,-5.66 14.45,-5.66z "/></g></g></g></g></g></g><g id="_R_G_L_3_G_M"><g id="_R_G_L_3_G"><path id="_R_G_L_3_G_D_0_P_0" fill="#6d6e71" fill-opacity="1" fill-rule="nonzero" d=" M0 18.99 C0.4,18.66 0.74,18.21 1.2,18.02 C13.24,13.21 25.28,8.42 37.32,3.62 C38.27,3.24 38.64,3.4 39.01,4.35 C41.94,11.7 44.87,19.04 47.79,26.39 C48.2,27.39 48.05,27.75 47.04,28.15 C45.31,28.83 43.59,29.53 41.87,30.2 C41.56,30.32 41.45,30.47 41.46,30.8 C41.47,35 41.46,39.2 41.46,43.41 C41.46,44.4 41.18,44.68 40.18,44.68 C27.21,44.68 14.24,44.68 1.27,44.69 C0.69,44.69 0.27,44.53 0,44.01 C0,44.01 0,18.98 0,18.98 C0,18.98 0,18.99 0,18.99z  M1.91 42.78 C1.91,42.78 39.55,42.78 39.55,42.78 C39.55,42.78 39.55,20.22 39.55,20.22 C39.55,20.22 1.91,20.22 1.91,20.22 C1.91,20.22 1.91,42.78 1.91,42.78z  M5.77 18.21 C5.77,18.21 5.79,18.28 5.79,18.31 C5.79,18.31 11.21,18.31 11.21,18.31 C11.29,18.31 11.39,18.22 11.47,18.16 C11.7,18.01 11.91,17.82 12.17,17.72 C14.95,16.6 17.73,15.49 20.51,14.38 C24.12,12.95 27.73,11.52 31.34,10.09 C31.9,9.88 32.2,9.97 32.58,10.41 C33.83,11.86 35.39,12.54 37.3,12.45 C37.92,12.42 38.2,12.57 38.43,13.14 C39.08,14.73 39.71,16.32 40.36,17.91 C40.42,18.05 40.52,18.27 40.63,18.3 C41.34,18.46 41.46,18.94 41.46,19.56 C41.45,22.3 41.46,25.03 41.46,27.76 C41.46,27.93 41.48,28.09 41.48,28.33 C42.97,27.74 44.4,27.17 45.84,26.59 C43.04,19.56 40.26,12.58 37.48,5.58 C26.88,9.8 16.32,14 5.77,18.2 C5.77,18.2 5.77,18.21 5.77,18.21z  M38.45 18.3 C38.4,18.14 38.36,18.01 38.31,17.88 C37.91,16.85 37.48,15.83 37.09,14.79 C36.97,14.46 36.81,14.34 36.46,14.32 C34.66,14.23 33.1,13.52 31.8,12.3 C31.59,12.1 31.43,12.05 31.15,12.16 C26.2,14.14 21.26,16.1 16.32,18.07 C16.2,18.12 16.08,18.18 15.85,18.3 C15.85,18.3 38.45,18.3 38.45,18.3z "/></g></g><g id="_R_G_L_2_G_M"><g id="_R_G_L_2_G"><path id="_R_G_L_2_G_D_0_P_0" fill="#f95c04" fill-opacity="1" fill-rule="nonzero" d=" M20.75 40.92 C20.75,40.92 9.31,40.92 9.31,40.92 C8.66,40.92 8.42,40.73 8.21,40.13 C7.58,38.33 6.38,37.11 4.57,36.5 C4.04,36.32 3.78,35.98 3.78,35.42 C3.78,32.83 3.77,30.24 3.78,27.64 C3.78,26.91 3.96,26.74 4.65,26.49 C6.36,25.87 7.55,24.71 8.16,22.98 C8.42,22.27 8.62,22.12 9.36,22.1 C10.06,22.09 10.77,22.09 11.47,22.09 C18.36,22.09 25.25,22.09 32.14,22.11 C32.82,22.11 33.05,22.3 33.27,22.93 C33.89,24.7 35.08,25.89 36.84,26.51 C37.48,26.75 37.67,26.96 37.68,27.64 C37.68,30.24 37.68,32.83 37.68,35.42 C37.68,36.07 37.47,36.3 36.86,36.52 C35.05,37.15 33.86,38.37 33.25,40.17 C33.05,40.77 32.81,40.94 32.18,40.94 C32.18,40.94 20.74,40.94 20.74,40.94 C20.74,40.94 20.75,40.92 20.75,40.92z  M20.72 23.97 C20.72,23.97 10.22,23.97 10.22,23.97 C9.95,23.97 9.78,24.02 9.65,24.3 C8.89,25.97 7.66,27.19 6,27.96 C5.72,28.08 5.64,28.23 5.64,28.52 C5.66,30.5 5.66,32.48 5.64,34.47 C5.64,34.79 5.75,34.92 6.03,35.06 C7.68,35.83 8.89,37.04 9.65,38.7 C9.78,38.96 9.92,39.05 10.22,39.05 C17.23,39.04 24.25,39.04 31.26,39.05 C31.55,39.05 31.7,38.98 31.83,38.7 C32.59,37.04 33.82,35.81 35.49,35.04 C35.76,34.91 35.84,34.77 35.84,34.48 C35.82,32.48 35.82,30.47 35.84,28.48 C35.84,28.21 35.76,28.08 35.5,27.96 C33.85,27.2 32.63,25.99 31.85,24.35 C31.72,24.05 31.56,23.95 31.23,23.95 C27.74,23.96 24.23,23.96 20.74,23.96 C20.74,23.96 20.72,23.97 20.72,23.97z "/></g></g><g id="_R_G_L_1_G_M"><g id="_R_G_L_1_G"><path id="_R_G_L_1_G_D_0_P_0" fill="#f95c04" fill-opacity="1" fill-rule="nonzero" d=" M10.35 30.09 C11.11,30.08 11.76,30.71 11.78,31.47 C11.81,32.24 11.18,32.88 10.41,32.9 C9.62,32.92 8.97,32.29 8.97,31.5 C8.97,30.74 9.6,30.09 10.36,30.09 C10.36,30.09 10.35,30.09 10.35,30.09z  M10.49 30.97 C10.49,30.97 10.29,30.97 10.29,30.97 C10.16,31.13 9.97,31.28 9.93,31.47 C9.88,31.75 10.07,31.99 10.36,31.94 C10.53,31.91 10.79,31.69 10.8,31.54 C10.82,31.36 10.61,31.16 10.49,30.97 C10.49,30.97 10.49,30.97 10.49,30.97z "/><path id="_R_G_L_1_G_D_1_P_0" fill="#f95c04" fill-opacity="1" fill-rule="nonzero" d=" M29.7 31.5 C29.7,30.73 30.32,30.09 31.09,30.08 C31.85,30.07 32.53,30.74 32.52,31.51 C32.5,32.28 31.87,32.9 31.1,32.9 C30.32,32.9 29.7,32.28 29.7,31.5z  M31.19 30.96 C31.12,30.96 31.04,30.96 30.97,30.97 C30.86,31.16 30.66,31.36 30.68,31.54 C30.7,31.69 30.98,31.93 31.13,31.92 C31.29,31.9 31.55,31.65 31.55,31.49 C31.55,31.31 31.33,31.13 31.2,30.95 C31.2,30.95 31.19,30.96 31.19,30.96z "/></g></g><g id="_R_G_L_0_G_M"><g id="_R_G_L_0_G"><path id="_R_G_L_0_G_D_0_P_0" fill="#f95c04" fill-opacity="1" fill-rule="nonzero" d=" M26.39 31.52 C26.37,34.64 23.81,37.19 20.71,37.16 C17.59,37.13 15.08,34.59 15.09,31.46 C15.11,28.34 17.67,25.82 20.79,25.84 C23.89,25.87 26.4,28.41 26.39,31.52z  M24.5 31.55 C24.52,29.45 22.86,27.74 20.77,27.73 C18.71,27.72 17,29.39 16.98,31.45 C16.96,33.55 18.62,35.24 20.71,35.27 C22.77,35.3 24.48,33.63 24.5,31.55z "/></g></g></g><g id="time_group"/></svg>