<svg xmlns="http://www.w3.org/2000/svg" xmlns:xlink="http://www.w3.org/1999/xlink" preserveAspectRatio="xMidYMid meet" width="48" height="48" viewBox="0 0 48 48" style="width:100%;height:100%"><defs><animate repeatCount="indefinite" dur="4.004004s" begin="0s" xlink:href="#_R_G_L_1_C_0_P_0" fill="freeze" attributeName="d" attributeType="XML" from="M8.04 50 C8.04,50 8.04,98 8.04,98 C8.04,98 39.96,98 39.96,98 C39.96,98 39.96,50 39.96,50 C39.96,50 8.04,50 8.04,50z " to="M8.04 0 C8.04,0 8.04,48 8.04,48 C8.04,48 39.96,48 39.96,48 C39.96,48 39.96,0 39.96,0 C39.96,0 8.04,0 8.04,0z " keyTimes="0;0.0833333;1" values="M8.04 50 C8.04,50 8.04,98 8.04,98 C8.04,98 39.96,98 39.96,98 C39.96,98 39.96,50 39.96,50 C39.96,50 8.04,50 8.04,50z ;M8.04 0 C8.04,0 8.04,48 8.04,48 C8.04,48 39.96,48 39.96,48 C39.96,48 39.96,0 39.96,0 C39.96,0 8.04,0 8.04,0z ;M8.04 0 C8.04,0 8.04,48 8.04,48 C8.04,48 39.96,48 39.96,48 C39.96,48 39.96,0 39.96,0 C39.96,0 8.04,0 8.04,0z " keySplines="0.167 0.167 0.667 1;0 0 0 0" calcMode="spline"/><clipPath id="_R_G_L_1_C_0"><path id="_R_G_L_1_C_0_P_0" fill-rule="nonzero"/></clipPath><animate repeatCount="indefinite" dur="4.004004s" begin="0s" xlink:href="#_R_G_L_0_C_0_P_0" fill="freeze" attributeName="d" attributeType="XML" from="M12.73 -21.07 C12.73,-21.07 12.73,7.45 12.73,7.45 C12.73,7.45 35.27,7.45 35.27,7.45 C35.27,7.45 35.27,-21.07 35.27,-21.07 C35.27,-21.07 12.73,-21.07 12.73,-21.07z " to="M12.73 11.43 C12.73,11.43 12.73,39.95 12.73,39.95 C12.73,39.95 35.27,39.95 35.27,39.95 C35.27,39.95 35.27,11.43 35.27,11.43 C35.27,11.43 12.73,11.43 12.73,11.43z " keyTimes="0;0.0833333;0.1666667;1" values="M12.73 -21.07 C12.73,-21.07 12.73,7.45 12.73,7.45 C12.73,7.45 35.27,7.45 35.27,7.45 C35.27,7.45 35.27,-21.07 35.27,-21.07 C35.27,-21.07 12.73,-21.07 12.73,-21.07z ;M12.73 -21.07 C12.73,-21.07 12.73,7.45 12.73,7.45 C12.73,7.45 35.27,7.45 35.27,7.45 C35.27,7.45 35.27,-21.07 35.27,-21.07 C35.27,-21.07 12.73,-21.07 12.73,-21.07z ;M12.73 11.43 C12.73,11.43 12.73,39.95 12.73,39.95 C12.73,39.95 35.27,39.95 35.27,39.95 C35.27,39.95 35.27,11.43 35.27,11.43 C35.27,11.43 12.73,11.43 12.73,11.43z ;M12.73 11.43 C12.73,11.43 12.73,39.95 12.73,39.95 C12.73,39.95 35.27,39.95 35.27,39.95 C35.27,39.95 35.27,11.43 35.27,11.43 C35.27,11.43 12.73,11.43 12.73,11.43z " keySplines="0.167 0.167 0.667 1;0.167 0.167 0.667 1;0 0 0 0" calcMode="spline"/><clipPath id="_R_G_L_0_C_0"><path id="_R_G_L_0_C_0_P_0" fill-rule="nonzero"/></clipPath><animate repeatCount="indefinite" dur="4.004004s" begin="0s" xlink:href="#_R_G_L_0_G_M" fill="freeze" attributeName="opacity" from="0" to="1" keyTimes="0;0.0833333;0.0833342;1" values="0;0;1;1" keySplines="0 0 0 0;0 0 0 0;0 0 0 0" calcMode="spline"/><animate attributeType="XML" attributeName="opacity" dur="4s" from="0" to="1" xlink:href="#time_group"/></defs><g id="_R_G"><g id="_R_G_L_1_G"><g clip-path="url(#_R_G_L_1_C_0)"><path id="_R_G_L_1_G_G_0_D_0_P_0" fill="#6d6e71" fill-opacity="1" fill-rule="nonzero" d=" M37.06 2.69 C35.95,2.69 34.84,2.69 33.73,2.69 C33.56,2.69 33.4,2.67 33.21,2.67 C33.21,2.15 33.17,1.68 33.21,1.21 C33.25,0.64 33.04,0.24 32.53,0 C32.53,0 27.93,0 27.93,0 C27.75,0.18 27.51,0.32 27.39,0.55 C27.05,1.16 27.52,1.86 28.26,1.88 C29.26,1.89 30.26,1.88 31.29,1.88 C31.29,1.88 31.29,7.18 31.29,7.18 C31.29,7.18 16.71,7.18 16.71,7.18 C16.71,7.18 16.71,1.87 16.71,1.87 C17.72,1.87 18.73,1.89 19.73,1.87 C20.52,1.86 20.97,1.08 20.57,0.46 C20.45,0.28 20.23,0.15 20.06,0 C20.06,0 15.46,0 15.46,0 C14.96,0.24 14.75,0.65 14.79,1.21 C14.82,1.69 14.79,2.17 14.79,2.69 C14.79,2.69 14.23,2.69 14.23,2.69 C13.15,2.69 12.07,2.69 10.99,2.69 C9.19,2.71 8.04,3.87 8.04,5.67 C8.04,18.79 8.04,31.92 8.05,45.04 C8.05,46.83 9.23,48 11.02,48 C11.02,48 36.99,48 36.99,48 C38.78,48 39.96,46.83 39.96,45.04 C39.96,45.04 39.96,5.62 39.96,5.62 C39.96,3.87 38.8,2.71 37.06,2.69z  M33.84 46.13 C33.84,46.13 14.16,46.13 14.16,46.13 C14.56,45.5 14.91,44.92 15.28,44.36 C15.33,44.28 15.5,44.26 15.61,44.26 C21.2,44.26 26.8,44.26 32.39,44.26 C32.52,44.26 32.71,44.32 32.78,44.43 C33.13,44.95 33.46,45.5 33.84,46.12 C33.84,46.12 33.84,46.13 33.84,46.13z  M38.08 5.84 C38.08,18.83 38.09,31.84 38.08,44.84 C38.08,45.16 38.01,45.56 37.83,45.8 C37.43,46.33 36.8,46.13 36.25,46.1 C36.08,46.1 35.88,45.83 35.76,45.64 C35.19,44.76 34.64,43.86 34.1,42.97 C33.85,42.56 33.52,42.37 33.03,42.37 C27.01,42.37 20.99,42.37 14.98,42.37 C14.48,42.37 14.15,42.56 13.9,42.97 C13.32,43.93 12.73,44.89 12.11,45.83 C12.02,45.97 11.78,46.09 11.6,46.1 C10.2,46.19 9.9,45.95 9.9,44.45 C9.93,31.64 9.92,18.83 9.92,6.01 C9.92,5.82 9.91,5.64 9.93,5.45 C9.96,4.94 10.28,4.58 10.79,4.58 C12.1,4.56 13.4,4.58 14.76,4.58 C14.76,4.58 14.76,7.21 14.76,7.21 C14.41,7.21 14.05,7.2 13.7,7.21 C13.11,7.22 12.73,7.6 12.73,8.13 C12.73,8.67 13.11,9.05 13.68,9.08 C13.68,9.08 13.92,9.08 13.92,9.08 C13.92,9.08 34.08,9.08 34.08,9.08 C34.77,9.08 35.16,8.82 35.25,8.32 C35.35,7.75 34.98,7.25 34.39,7.22 C34.02,7.2 33.65,7.22 33.23,7.22 C33.23,7.22 33.23,4.6 33.23,4.6 C33.38,4.59 33.52,4.57 33.65,4.57 C33.65,4.57 36.94,4.57 36.94,4.57 C37.76,4.57 38.08,4.88 38.08,5.69 C38.08,5.69 38.08,5.84 38.08,5.84z  M23.11 1.21 C22.97,0.77 23.13,0.43 23.49,0.16 C23.56,0.1 23.63,0.05 23.71,0 C23.71,0 24.27,0 24.27,0 C24.27,0 24.28,0 24.28,0 C24.35,0.05 24.43,0.1 24.5,0.16 C24.87,0.42 25.02,0.77 24.88,1.21 C24.74,1.64 24.43,1.88 23.97,1.87 C23.54,1.86 23.24,1.63 23.11,1.21z "/></g></g><g id="_R_G_L_0_G_M"><g id="_R_G_L_0_G"><g clip-path="url(#_R_G_L_0_C_0)"><path id="_R_G_L_0_G_G_0_D_0_P_0" fill="#ff4c00" fill-opacity="1" fill-rule="nonzero" d=" M24 11.43 C24,11.43 34.03,11.43 34.03,11.43 C34.98,11.43 35.27,12.13 35.27,14.44 C35.27,14.44 35.27,36.92 35.27,36.92 C35.27,39.22 34.97,39.95 34.03,39.95 C34.03,39.95 13.97,39.95 13.97,39.95 C13.02,39.95 12.73,39.22 12.73,36.92 C12.73,36.92 12.73,14.44 12.73,14.44 C12.73,12.13 13.02,11.43 13.97,11.43 C13.97,11.43 24,11.43 24,11.43z  M33.38 13.28 C33.38,13.28 14.64,13.28 14.64,13.28 C14.64,13.28 14.64,37.83 14.64,37.83 C14.64,37.83 33.38,37.83 33.38,37.83 C33.38,37.83 33.38,13.28 33.38,13.28 C33.38,13.28 33.38,13.28 33.38,13.28z "/></g></g></g></g><g id="time_group"/></svg>